<?xml version="1.0" encoding="utf-8"?>
<!-- Generator: Adobe Illustrator 23.0.6, SVG Export Plug-In . SVG Version: 6.00 Build 0)  -->
<svg version="1.1" id="Layer_1" xmlns="http://www.w3.org/2000/svg" xmlns:xlink="http://www.w3.org/1999/xlink" x="0px" y="0px"
	 viewBox="0 0 448.2 292.7" style="enable-background:new 0 0 448.2 292.7;" xml:space="preserve">
<style type="text/css">
	.st0{fill:#FFFFFF;stroke:#FFFFFF;stroke-miterlimit:10;}
</style>
<g id="All_Right_Shadow">
</g>
<g id="Left_Shadow">
</g>
<path class="st0" d="M403.8,8.7c1,0.6,2,1.1,3.2,0.9c0.2,0.9,0.5,1.1,1.2,1.2c0.3,0,0.8,0,0.8,0.1c0.1,0.8,0.8,0.3,1.1,0.5
	c0.4,0.4,0.8,0.8,1.1,1.1c0.9,0.1,0.9,0,1.5,0.6c0.8,0.8,1.7,1.2,2.7,1.2c0.1,1.2,0.9,1.7,1.9,2c0.4,0.1,0.6,0.3,0.8,0.5
	c0.2,0.2,0.3,0.5,0.5,0.7c0.9,0.5,1.3,1.6,2.4,1.9c0.1,0,0.3,0.3,0.3,0.4c0,0.6,0.8,0.8,0.9,1.4c0.7,0.1,0.6,1.1,1.4,1.1
	c0.1,0,0.3,0.3,0.3,0.4c0.3,0.7,0.8,1.3,1.2,1.7c0.4,0.3,0.9,0.6,1.3,1c0.5,0.5,0.9,1,1.2,1.5c0.4,0.7,1.3,0.9,1.4,1.9
	c0,0.1,0.3,0.3,0.4,0.4c0.2,0.1,0.5,0.2,0.6,0.4c0.2,0.7,0.9,1.2,1.4,1.6c0.6,0.5,0.4,1.4,1.3,1.6c-0.1,0.7,0.7,0.7,1,1.2
	c1,1.5,1.8,3.1,3.2,4.4c-0.1,0.6,0.7,0.7,0.7,1.4c0,0.5,0.5,1.1,0.9,1.3c0.7,0.4,0.8,1,1.1,1.6c0.4,1,0.8,2,1.3,2.5
	c0.9,1,1.3,2.4,1.1,3.8c-0.1,0.4-0.1,0.8,0.1,1.1c0.2,0.4,0.3,0.7,0,1c-0.1,0.1-0.1,0.3-0.1,0.4c0.4,0.4,0.3,0.6-0.1,0.9
	c-0.1,0.1-0.2,0.2-0.2,0.3c0,0.6-0.2,1.3,0.2,1.8c0.2,0.3,0.2,0.5-0.1,0.6c-0.4,0.3-0.4,0.6-0.4,1c0,0.5,0,1,0,1.5
	c0.1,2.3-0.3,4.5,0.3,6.8c0,0.1,0.1,0.3,0,0.4c-0.4,0.5-0.1,1.2-0.3,1.5c-0.5,0.6,0.1,0.9,0,1.4c0,0.3,0,0.6-0.1,0.8
	c-0.3,0.4-0.3,0.7,0,1c0.1,0.1,0,0.3,0,0.5c0,0.7-0.7,1.3-0.2,2c-0.5,0.7-0.1,1.7-0.7,2.4c-0.2,0.3-0.3,0.6-0.5,1
	c0.8,0.7,0,1.3-0.1,1.9c-0.1,0.6-0.1,1.2-0.2,1.8c-0.3,1.2-0.5,2.4-0.7,3.5c-0.2,0.9-0.4,1.9-0.7,2.8c-0.2,0.6-0.3,1.2-0.6,1.8
	c-0.3,0.6-0.3,1.3-0.7,1.9c-0.3,0.4-0.4,1.1-0.4,1.7c0,0.2,0.2,0.4,0,0.7c-0.2,0.4-0.4,0.8-0.6,1.2c-0.3,0.6-0.5,1.4-0.4,2.2
	c0.1,0.9-1,1.2-0.9,2.1c0,0.1,0,0.3,0,0.4c0,0.2-0.2,0.3-0.2,0.5c0,0.5-0.4,0.8-0.7,1.2c-0.2,0.4-0.2,1-0.5,1.4
	c-0.3,0.4,0.1,1-0.4,1.3c-0.3,0.2-0.5,0.6-0.6,0.9c-0.1,0.3,0,0.7-0.2,1.1c-0.2,0.4-0.2,0.9-0.7,1.2c-0.2,0.1-0.2,0.4-0.3,0.6
	c-0.3,0.7-0.8,1.4-0.6,2.3c0,0.1-0.2,0.3-0.3,0.4c-0.2,0.3-0.5,0.6-0.6,0.9c-0.2,0.4-0.2,0.8-0.3,1c-0.6,0.8-1,1.5-1.6,2
	c-1.5,1.3-2.3,3.1-3.9,4.3c-0.8,0.6-1.4,1.4-2.1,2c-0.2,0.2-0.5,0.3-0.7,0.4c-0.2,0.2-0.3,0.6-0.5,0.5c-0.5,0-0.8,0.3-0.9,0.6
	c-0.3,0.6-0.7,1.3-1.3,1.4c-0.7,0.1-0.9,0.8-1.5,1c-0.1,0-0.3,0.2-0.4,0.3c-0.5,0.4-1,0.9-1.4,1.3c-0.1,0.1-0.2,0.1-0.4,0.2
	c-1.1,0.3-1.5,1.5-2.6,1.9c-0.4,1.1-1.5,1.2-2.4,1.6c-0.3,0.2-0.8,0.1-1,0.4c-0.7,0.9-2,1-2.6,1.9c-0.2,0.2-0.5,0.4-0.8,0.5
	c-0.6,0.3-1.2,0.6-1.8,1c-0.2,0.1-0.3,0.6-0.5,0.5c-0.5-0.1-0.8,0.4-1.1,0.6c-0.4,0.3-0.7,0.6-1.1,0.9c-1,0.6-2,1.3-2.9,2.2
	c-0.6,0.6-1.2,1.3-2.2,1.4c-0.3,0-0.6,0.3-0.8,0.5c-0.8,0.6-1.6,1.3-2.5,1.9c-0.6,0.5-1.3,0.9-1.9,1.4c-0.5,0.4-1,0.8-1.5,1.2
	c-0.5,0.4-1,1.1-1.7,1.3c-0.7,0.2-1,0.9-1.8,0.8c-0.1,0-0.2,0.2-0.2,0.3c-0.4,0.7-0.8,1.3-1.2,2c-0.2,0.3-0.4,0.7-0.7,0.9
	c-0.7,0.4-1,1.1-1,1.8c-0.1,0.8-0.3,1.5-0.9,1.9c-0.1,0.6,0,1.1-0.2,1.6c-0.3,0.8-0.2,1.5,0.3,2.1c0.2,0.3,0.5,0.5,0.5,1
	c0,0.3,0.1,0.8,0.4,1c0.5,0.6,0.7,1.4,1.2,2c0.5,0.6,0.7,1.4,1.1,2c0.7,1,1.1,2.1,1.7,3.1c0.6,1.1,1.2,2.2,1.8,3.2
	c0.6,1.1,1.1,2.3,1.6,3.4c0.8,1.7,2.3,3,3,4.8c0.5,0.3,0.4,0.8,0.4,1.3c-0.7,0.9-1.8,1.4-2.4,2.4c-0.8,0.3-0.9,1.3-1.7,1.4
	c0.2,0.6-0.5,0.3-0.6,0.6c-0.6,1.2-1.6,2-2.6,2.8c-0.1,0.1-0.2,0.1-0.3,0.2c-0.8,1.4-1.9,2.5-2.7,3.9c-0.1,0.3-0.4,0.6-0.6,0.7
	c-0.4,0.2-0.5,0.4-0.7,0.7c-0.4,0.8-0.9,1.5-1.5,2.1c-0.4,0.4-0.9,0.7-1,1.3c-0.7,0.1-1,0.7-1.4,1.1c-0.4,0.4-0.9,0.8-1.2,1.2
	c-0.7,0.9-1.5,1.6-2.5,2.1c-0.6,0.3-1,0.7-1.4,1.1c-0.5,0.5-0.9,1-1.6,1.1c-0.4,0.1-0.2,0.4-0.2,0.6c-0.6-0.2-0.9,0.3-1.4,0.6
	c-1.2,0.8-2.5,1.4-3.4,2.6c-0.4,0-0.8,0-1.3,0c-0.5-0.1-0.7-0.4-0.7-0.9c0-0.5,0-1.1,0-1.4c-0.6-1-1.1-1.8-1.7-2.7
	c-0.1-0.1-0.1-0.3-0.1-0.4c0.2-1.1-0.2-2-0.6-3c-0.1-0.4-0.1-0.8-0.3-1.2c-0.6-1.2-1.1-2.4-0.9-3.7c-0.6-1-0.8-2.1-1.2-3.2
	c-0.4-1-0.9-1.9-0.9-3c0-0.6-0.2-1.4-0.6-1.9c-0.3-0.5-0.7-0.9-0.6-1.5c0-0.2-0.1-0.3-0.2-0.5c-0.5-0.8-0.8-1.7-0.7-2.7
	c0-0.2-0.1-0.4-0.1-0.5c-0.4-1.1-1-2.1-1-3.2c0-1.2-0.8-2.2-0.3-3.4c0-0.1,0.1-0.3,0-0.4c-0.5-1-0.5-2.1-0.9-3.2
	c-0.3-1.1-0.7-2.1-1-3.2c-0.2-0.8-0.5-1.7-0.7-2.5c-0.3-1,0-2.1-0.8-2.9c-0.1-0.1,0-0.4,0-0.6c0-0.3-0.2-0.5-0.2-0.8
	c0-0.9-0.5-1.7-0.4-2.5c0.3-0.3,0.6-0.6,0.8-0.8c0.4-0.3,0.4-0.6,0.2-1.1c-0.2-0.5-0.3-1,0.1-1.6c0.4-0.5,0.6-1.2,0.8-1.9
	c0.1-0.4,0.1-0.9,0.6-1.2c0.5-0.4,0.2-1.4,1-1.6c-0.1-0.4-0.2-0.7-0.3-1.1c0.6-0.7,0.6-0.7,0.6-1.6c0-0.6-0.1-1.2,0.5-1.6
	c-0.2-0.7,0.6-1.1,0.8-1.7c0.2-0.7,0.2-1.3,0.2-2c0-0.8,0.4-1.3,1-1.8c0.2-0.2,0.4-0.4,0.5-0.6c0.4-1.3,0.9-2.4,2-3.3
	c0.1-0.1,0.2-0.2,0.4-0.4c-0.5-0.7,0.2-1.1,0.5-1.7c0.5-1,1.3-1.8,2.2-2.4c0.8-0.6,1.4-1.3,2.1-1.9c0.6-0.6,1-0.9,1.7-1.1
	c0.2,0,0.3-0.1,0.5-0.2c0.6-0.4,0.9-1.3,1.8-1.3c0,0,0.2-0.2,0.1-0.2c-0.1-0.7,0.4-1,0.8-1.3c0.6-0.3,0.9-0.9,1.3-1.4
	c0.3-0.4,0.6-0.6,0.9-0.9c0.5-0.4,1-0.9,1.5-1.2c0.6-0.4,1.1-0.8,1.8-0.8c0.4,0,0.6-0.1,0.9-0.4c0.3-0.4,0.7-0.7,1.1-1.1
	c0.5,0,1,0,1.4-0.5c0.3-0.4,0.9-0.7,1.4-0.8c1.3-0.4,2.2-1.3,3.2-2.1c0.4-0.3,0.8-0.6,1.2-0.9c0.4-0.3,0.8-0.7,1.3-1.1
	c0.6-0.4,1.2-0.8,1.8-1.2c0.7-0.5,1.2-1.1,1.8-1.6c0.5-0.4,1.1-0.5,1.6-0.9c0.5-0.5,1-0.9,1.7-1.2c0.5-0.2,1.1-0.4,1.4-0.8
	c1.1-1,2.7-1.2,3.7-2.4c0,0,0.1,0,0.1,0c1.8-1.4,3.9-2.3,5.4-4.1c0.3-0.4,0.8-0.5,1-1c0.1-0.2,0.4-0.5,0.5-0.4
	c0.7,0.2,0.7-0.4,0.9-0.7c0.5-0.6,0.9-1.3,1.4-1.9c0.1-0.1,0.3-0.3,0.4-0.3c0.5,0.1,0.8-0.3,1.1-0.6c0.9-0.8,1.6-1.9,2.8-2.5
	c-0.2-0.6,0.6-0.3,0.6-0.6c0-0.4,0.2-0.8-0.2-1.1c-0.1,0,0-0.2-0.1-0.3c0.6-0.7,0.6-0.7,0.6-1.7c0-0.5,0.3-1.7,0.6-1.9
	c0.6-0.6,0.9-1.3,0.9-2.1c0-0.4,0.1-0.6,0.4-0.9c0.1-0.1,0.2-0.3,0.2-0.3c-0.6-0.6,0.1-1.1,0-1.7c-0.1-0.6,0.1-1,0.4-1.5
	c0.3-0.6,0.4-1-0.1-1.5c-0.3-0.3-0.3-0.7,0-1c0.4-0.3,0.4-0.6,0.4-1c0-0.9,0.1-1.8,0.7-2.5c0.1-0.2,0.1-0.4,0.1-0.7
	c0.2-1.5-0.5-3-0.3-4.4c-0.7-0.3-1.2-0.6-1.8-0.9c0.4-1.1,0.4-1.1-0.3-1.7c-0.2-0.2-0.3-0.3-0.5-0.4c-0.8-0.4-1.1-1.2-1.3-2
	c-0.2-0.2-0.8,0.2-0.8-0.5c0-0.5-0.9-0.2-0.8-0.8c0-0.5-0.3-0.7-0.6-0.9c-0.8-0.7-1.3-1.6-1.5-2.6c-0.1-0.5-0.3-1-0.7-1.5
	c-0.9-0.9-1.7-1.8-2-3.1c-0.1-0.3-0.2-0.5-0.4-0.7c-0.5-0.7-1-1.4-1.5-2c-0.5-0.6-1-1.2-1.5-1.9c-0.2-0.3-0.3-1-1-0.8
	c-0.1,0-0.3-0.4-0.5-0.6c-0.3-0.3-0.7-0.8-0.9-0.8c-0.8,0.2-0.8-0.5-1.1-0.8c-0.4-0.4-0.7-0.9-1.3-1.1c-0.4-0.1-0.7-0.7-1.1-1
	c-0.4-0.3-1-0.4-0.8-1.1c0,0-0.2-0.1-0.3-0.2c-0.8-0.5-1.7-0.3-2.6-0.1c0,0,0,0.1,0,0.1c-0.8-0.1-1.6,0.2-2.3-0.3
	c-0.6,0.6-1.2-0.2-1.8,0c-0.2-0.4-0.6-0.5-1-0.6c-0.4-0.1-0.9,0-1.3,0c-0.5-0.1-0.9-0.2-1.3-0.3c-0.6,0-1.3,0-1.9,0
	c-0.6,0-1.2-0.7-1.8,0c-0.5-0.4-0.8-0.2-1.2,0.1c-0.1,0.1-0.4,0.1-0.7,0.1c-0.6,0-1.2,0-1.8,0.3c-0.5,0.3-1.2,0.3-1.8,0.3
	c-0.3,0-0.6,0-0.9,0.3c-0.5,0.5-1.3,0.8-1.9,0.5c-0.6-0.3-1.2-0.1-1.9-0.3c-0.2,0.3-0.5,0.6-0.7,0.9c-0.7,0-1.4-0.1-1.8,0.5
	c-0.2,0.2-0.7,0.3-1,0.4c-1.1,0.3-2.3,0.6-3,1.6c0,0.1-0.2,0.1-0.2,0.1c-0.2-0.1-0.5-0.2-0.7-0.4c-0.2,0.2-0.3,0.5-0.5,0.6
	c-0.9,0.4-1.3,1.4-2,2.1c-0.2,0.2-0.1,0.5-0.3,0.8c-0.1,0.2-0.5,0.3-0.5,0.5c-0.2,1.6-0.7,3.1-0.6,4.7c0,0.9-0.2,1.8-0.6,2.7
	c-0.2,0.4-0.2,0.7-0.3,1.1c-0.2,1.1,0.3,2.1,0.3,3.1c-0.1,1.2,0.3,2.1,1.2,2.9c0.4,0.3,0.2,0.7,0.4,1.1c0.6-0.2,1,0,1.5,0.5
	c0.2,0.3,0.6,0.5,0.9,0.6c1.4,0.5,2.7,1.4,4.2,1.9c1.2,0.4,2.4,0.8,3.7,1.1c0.9,0.2,1.8,0.4,2.7,0.8c1.1,0.4,2.3,0.9,3.6,1
	c0.7,0,1.4,0.4,2.1,0.5c1.1,0.1,2,0.9,3.2,0.7c-0.1,0.9-0.2,0.9-0.8,1.5c-0.2,0.2-0.3,0.5-0.4,0.7c-0.1,0.4,0,0.8,0,1.1
	c-1.2,1.1-2,2.4-2.9,3.7c-0.4,0.5-1,0.8-0.9,1.5c0,0.1-0.1,0.2-0.1,0.2c-0.6,0-0.6,0.7-0.9,0.9c-0.5,0.3-0.4,0.9-0.6,1.3
	c-0.2,0.8-0.6,1.3-1.3,1.7c-0.3,0.2-0.5,0.4-0.6,0.7c-0.2,0.5-0.5,1.1-0.9,1.5c-0.2,0.2-0.4,0.3-0.6,0.6c-0.4,0.9-0.8,1.9-1.5,2.6
	c-0.3,0.3-0.5,0.6-0.6,1.1c-0.2,0.8-0.5,1.6-1.4,1.9c-0.1,0-0.2,0.1-0.3,0.2c-0.7,1.7-2,2.9-3,4.5c-0.1,0.2-0.5,0.3-0.7,0.6
	c-0.2,0.2-0.3,0.7-0.5,0.8c-0.7,0.1-0.7,0.7-1,1.1c-0.3,0.4-0.8,0.9-0.9,1.4c-0.1,0.6-0.4,1-0.9,1.1c-0.3,0.1-0.3,0.3-0.3,0.5
	c0,0.1-0.2,0.3-0.3,0.4c-1.2,0.2-1.9,1-2.5,2.1c-0.3,0-0.7,0-1,0c-0.4,0.1-0.6-0.1-0.9-0.4c-0.7-0.9-0.8-0.9-1.9-0.5
	c-0.4-0.3,0-1.1-0.7-1.2c-0.5,0-0.6-0.8-1.2-0.6c0-0.2,0.1-0.5-0.2-0.6c-0.3,0-0.6,0.1-0.7-0.4c0-0.3-0.5-0.6-0.8-0.8
	c-0.2-0.2-0.8-0.2-0.8-0.3c-0.2-0.9-1.2-1-1.7-1.6c-0.5-0.6-1.3-0.8-1.9-1.2c-0.1,0-0.2-0.1-0.2-0.1c-0.1-1-0.9-1.1-1.6-1.4
	c-0.3-0.1-0.5-0.5-0.8-0.6c-0.2-0.1-0.4-0.1-0.6-0.2c0-0.1,0-0.3,0-0.5c-0.3-0.2-0.9,0-1-0.7c0-0.2-0.5-0.4-0.7-0.6
	c-0.3-0.3-0.6-0.6-0.9-0.8c-0.2-0.1-0.2-0.4-0.3-0.6c-0.4-0.5-0.7-1.2-1.2-1.4c-1-0.3-0.7-1.4-1.4-1.9c0-1-0.6-1.5-1.4-2
	c-0.3-0.2-0.7-0.4-0.9-0.7c-0.5-0.8-1-1.5-1.6-2.1c-0.3-0.4-0.6-0.8-0.9-1.3c-0.3-0.4-0.5-0.9-0.8-1.2c-0.5-0.3-0.3-0.9-0.6-1.3
	c-0.5-0.6-0.7-1.4-1.3-2c-0.3-0.4-0.9-0.8-0.8-1.4c0.1-0.8-0.7-1-0.9-1.5c-0.3-0.8-0.7-1.6-1.3-2.2c-0.5-0.6-0.7-1.3-1-2
	c-0.3-0.7-0.2-1.5-0.4-2.2c-0.2-0.7-0.3-1.4,0.3-2c0.2-0.2,0.2-0.8,0-1c-0.5-0.6,0-1.1,0.1-1.5c0.1-0.3,0.3-0.7,0.2-1.1
	c-0.2-1,0.3-1.9,0.8-2.6c0.4-0.7,0.5-1.2,0.1-1.9c0.4-0.4,0.8-0.7,0.7-1.4c0-0.4,0.2-1,0.4-1.1c0.6-0.2,0.4-0.5,0.5-0.9
	c0.1-0.6-0.2-1.2,0.3-1.8c0.1-0.1-0.3-0.4-0.2-0.6c0-0.2,0.3-0.4,0.5-0.6c-0.4-1,1-1.7,0.6-2.8c0,0,0.1-0.1,0.2-0.1
	c0.5,0,0.4-0.4,0.3-0.6c-0.4-0.6-0.2-1.3-0.3-1.9c0.4-0.1,0.8-0.3,0.6-0.8c-0.1-0.2-0.3-0.5-0.3-0.6c0.2-0.6,0.8-1,0.3-1.7
	c0,0,0-0.1,0-0.1c0.6-0.3,0.5-1,0.7-1.5c0.1-0.4,0.6-0.6,0.5-1.1c0-0.4,0.3-0.9,0.3-1.3c0-1.1,0.3-2.1,1.2-2.8
	c-0.1-0.8,0.1-1.4,0.5-2c0.5-0.7,0.8-1.5,1.2-2.3c0.2-0.4-0.2-1,0.4-1.3c0.6-0.3,0.3-1,0.7-1.3c0.6-0.4,0.6-1.1,1-1.7
	c0.4-0.5,0.6-1.2,0.8-1.8c0.2-0.6,0.3-1.2,1.1-1.5c0.3-0.1,0.6-0.5,0.7-0.9c0.3-0.8,0.7-1.6,1.4-2c0.6-0.4,1.1-0.7,1-1.5
	c0-0.1,0.1-0.2,0.1-0.2c0.9,0,0.7-1,1.3-1.4c0.1-0.1,0.3-0.3,0.4-0.4c0.4-0.4,1-0.1,1.3-0.4c0.4-0.3,0.7-0.7,1.1-1
	c0.1-0.1,0.3,0,0.4-0.1c0.4-0.2,0.7-0.4,1.1-0.6c0.2-0.1,0.4-0.3,0.6-0.3c0.9,0.1,1.6-0.4,2.3-0.9c0.5-0.3,1-0.5,1.5-0.6
	c0.9-0.1,1.7-0.5,2.4-1c0.2-0.1,0.4-0.2,0.6-0.2c0.8-0.1,1.7,0.3,2.3-0.6c0.1-0.1,0.4,0,0.6,0c0.2,0,0.5,0,0.7-0.1
	c0.6-0.2,1.4-0.3,1.9-0.7c0.7-0.6,1.4-0.2,2.1-0.3c0.1,0,0.1-0.1,0.2-0.2c0.8-0.4,1.5-0.9,2.5-0.7c0.4-0.5,1-0.1,1.5-0.3
	c0.5-0.3,1.1-0.3,1.6-0.3c0.7,0,1.3-0.1,2-0.4c0.6-0.3,1.3-0.7,2.1-0.1c0.1-0.1,0.2-0.3,0.4-0.4c0.5-0.4,0.9-0.9,1.5-0.3
	c1.1,0,2.3,0.2,3.2-0.7c0.2-0.1,0.4-0.1,0.6-0.2c0.4-0.1,0.8,0.1,1.2-0.2c0.6-0.3,1.4,0.1,2-0.4c0.3,0.3,0.5,0.4,1,0
	c0.2-0.2,0.9,0.1,1.1-0.1c0.6-0.5,1.2-0.2,1.8-0.2c0.6,0,1.2,0.1,2,0.2c0.1-0.1,0.2-0.3,0.4-0.6c0.8,0.4,1.5,0.4,2.2,0.2
	c0.5-0.2,1.1-0.2,1.7,0c0.8,0.2,1.5,0.3,2.2,0c0.2-0.1,0.5-0.1,0.7-0.1c0.9,0.3,1.7,0.9,2.7,0.3c0,0,0.2,0,0.3,0.1
	c0.3,0.4,0.7,0.2,1.1,0.2c0.7,0.1,1.3-0.1,1.9,0.3c0.3,0.2,0.8,0.1,1.2,0.3c0.6-0.5,1.3-0.2,1.9-0.3C403.8,8.9,403.8,8.8,403.8,8.7z
	"/>
<path class="st0" d="M224.5,191.3c0.3,0,0.7,0,1,0c0.1,0,0.3-0.1,0.4,0c1.3,1.1,2.8,0.3,4.3,0.7c0.1,0.2,0.4,0.6,0.5,0.8
	c1,0,1.6,0,2.3,0c0.6,0.6,1,1.4,1.9,1.6c0.2,0.1,0.5,0.4,0.6,0.6c0.2,0.5,0.4,0.7,0.9,0.7c0.1,0,0.2,0.1,0.3,0.2
	c0.9,0.8,1.8,1.6,2.7,2.4c0.6,0.5,1.2,1.1,1.9,1.5c0.6,0.4,1.2,0.7,1.3,1.6c0,0.1,0.2,0.3,0.3,0.4c0.5,0.4,0.8,0.9,1,1.5
	c0.2,0.5,0.6,0.9,1,1.3c0.2,0.2,0.3,0.4,0.3,0.8c0.1,0.1,0.2,0.2,0.3,0.3c0,0.4-0.1,0.8,0.3,1c0.4,0.2,0.7,0.5,0.8,0.6
	c0.2,1.2,0.2,2.1,0.4,3c0.1,0.5,0.3,0.9,0.6,1.4c0.4,0.7,0.5,1.5,0.6,2.3c0,0.7,0.1,1.5,0.4,2.2c0.3,0.6,1,0.9,0.8,1.7
	c1,0.3,0.5,1.1,0.5,1.6c0.1,1.1,0,2.2,0,3.4c0,0.5-0.2,0.9-0.4,1.3c-0.3,0.5-0.7,0.9-0.8,1.6c-0.1,0.8-0.5,1.7-0.5,2.6
	c0,0.6-0.3,1-0.5,1.4c-0.1,0.2-0.4,0.4-0.4,0.6c0,1-0.8,1.1-1.5,1.2c-0.8,0.1-1.6,0.2-2.4,0.3c-0.8,0-1.7,0-2.5,0
	c-0.7,0-1.2,0.3-1.8,0.6c-0.2,0.1-0.3,0.3-0.5,0.3c-0.7-0.1-1.4,0.3-2.1,0.3c-1.9,0-3.7,0.1-5.6,0c-1.8-0.1-3.6,0.3-5.4,0.3
	c-5.1,0-10.3,0-15.4,0c-0.4,0-0.8,0-1.1,0.2c-1.2,0.5-1.8,1.7-1.3,3c0.2,0.6,0,1.2,0.2,1.8c0.1,0.6,0.5,1.1,0.5,1.7
	c0.1,1,0.2,2.1,0.3,3.1c0.2,2.1,0.1,4.2,0,6.3c-0.1,2.1,0.4,4.2,0.3,6.3c0,0.5,0,1.1,0,1.3c0.6,0.8,1,1.4,1.5,2
	c-0.1,1.3,0.8,2,1.8,2.7c0.2,0.7,0.7,1.2,1.4,1.2c2.8,0,5.6,0,8.5,0c0.2,0,0.5,0,0.5-0.1c0.5-0.7,1.2-0.5,1.8-0.5c1.2,0,2.3,0,3.5,0
	c0.9,0,1.9,0.4,2.5-0.6c0,0,0.1,0,0.1,0c0.8,0,1.5-0.3,2.4-0.3c3.2,0.1,6.4,0,9.6,0c0.3,0,0.6,0,0.9,0c0.4,0.1,0.9-0.3,1.2,0.2
	c0.3,0.4,0.5,0.9,0.5,1.4c-0.1,1.5,0.4,2.8,0.9,4.2c0.1,0.3-0.3,0.8,0.3,1c0,0.1,0,0.2,0,0.3c0,0.7,0.1,1.4-0.1,2
	c-0.2,0.6-1.1,0.7-1.6,1.1c-1,0.9-2.3,1-3.6,1.3c-0.9,0.2-1.8,0.1-2.6,0.4c-1.3,0.5-2.7,0.5-4,0.9c-0.4,0.1-0.9,0.2-1.3,0.3
	c-0.6,0.1-1.2,0.3-1.8,0.3c-0.4,0.7-1.1,0.1-1.7,0.5c-0.5,0.3-1.2,0.1-1.8,0.1c-1,0.1-2.1,0-3.1,0.3c-1.3,0.4-2.6,0.4-3.9,0.8
	c-0.6,0.2-1.3,0.1-1.9,0c-0.7-0.1-1.3,0.3-1.9,0.3c-1.3,0-2.5,0-3.8,0c-0.3,0-0.6-0.1-0.8-0.2c-0.3-0.3-0.7-0.3-1-0.4
	c-2.2-0.1-4.4,0.1-6.6-0.2c-1.2-0.2-2.5-0.4-3.7-0.6c-0.1-0.3-0.3-0.5-0.7-0.6c-2.2-0.4-4.3-1.1-6.3-2.1c-0.7-0.4-1.5-0.6-2.2-1
	c-0.7-0.4-1.6-0.7-2.3-1.1c-0.8-0.5-1.5-1.2-2.5-1.3c-0.3,0-0.5-0.3-0.7-0.4c-0.5-0.3-0.9-0.6-1.4-0.8c-0.6-0.3-1.3-0.4-1.8-0.9
	c-0.5-0.6-1.4-0.2-2-0.8c-0.1-0.2-0.5-0.2-0.6-0.3c-0.4-0.7-1.2-0.7-1.8-1c-0.4-0.1-0.7-0.2-0.8-0.6c-0.3-0.8-1.1-1.4-0.9-2.4
	c0-0.2-0.2-0.5-0.4-0.7c-0.8-0.7-0.8-1.6-0.8-2.6c-1-0.9-1.8-1.8-1.5-3.2c-0.2-0.2-0.4-0.4-0.5-0.6c-0.4-0.6-0.9-1.1-1-1.9
	c-0.1-0.9-0.4-1.8-1.1-2.5c-0.2-0.2-0.4-0.4-0.3-0.8c0.1-0.6-0.2-1.1-0.5-1.5c-0.5-0.9-0.7-1.8-0.7-2.8c0.1-1.4,0-2.8,0-4.2
	s0.1-2.8,0-4.2c-0.1-1.4,0.4-2.7,0.3-4.1c0-0.5,0.3-0.8,0.6-1.1c0-1.3,0-2.6,0-3.9c0.1-2.4,0.2-4.7,0.3-7.1c0-0.3,0.1-0.5,0.3-0.8
	c0.3-0.4,0.7-0.8,0.8-1.3c0.2-0.8,0.3-1.7,0.4-2.6c1-0.7,1.5-1.8,1.4-3.2c0-0.2,0.1-0.4,0.2-0.7c0.1-0.7,0.6-1.2,1-1.8
	c0.4-0.6,0.5-1.4,1.2-1.9c0.6-0.4,1.1-0.9,1.6-1.3c1.7-1.6,3.1-3.3,4.9-4.7c1-0.7,1.8-1.7,2.6-2.6c0.8-0.8,2-1.2,2.8-2.2
	c0.1-0.1,0.2-0.2,0.3-0.2c1,0,1.5-0.9,2.2-1.5c0.4,0,0.8,0,1.3,0c0.4-0.4,0.9-0.9,1.4-1.4c0.7,0.1,1.4-0.1,2-0.7
	c0.7-0.6,1.5-0.8,2.4-0.8c1.6,0,3.1-0.2,4.7-0.3c0.3,0,0.6-0.2,0.7-0.4c0.2-0.4,1.1,0.1,1-0.7c0.5,0,1-0.1,1.4-0.1
	C212.6,191.3,218.6,191.3,224.5,191.3z M227.7,211.5c0-0.1,0.1-0.3,0-0.4c-0.3-0.4-0.7-0.7-1-1.2c-0.2-0.3-0.8-0.2-1.2-0.6
	c-0.5-0.7-1.4-0.9-2.2-0.9c-2,0-3.9,0-5.9,0c-0.4,0-0.8,0.1-1.2,0.3c-0.7,0.3-1.3,0.8-2.1,0.9c-0.3,0-0.7,0.5-0.8,0.8
	c-0.2,0.6-0.6,1-1,1.5c-0.2,0.3-0.3,0.6-0.5,1c-0.1,0.2-0.1,0.5-0.3,0.6c-0.5,0.4-0.7,1.1-1,1.6c-0.3,0.6-0.7,1.2-1.1,1.8
	c-0.3,0.5-0.9,1.1-0.4,1.9c0.3,0.4,0.3,0.9,0.5,1.4c2,0,3.9,0,5.8,0c0.5,0.1,1,0.3,1.5,0.3c2.6,0,5.2,0,7.8,0c0.5-0.7,1.2-1.3,2-1.4
	c0.7-0.1,1.1-0.4,1.6-0.7c1-0.6,1.4-1.6,1.4-2.7c0-0.4-0.1-0.7-0.3-1c-0.4-0.6-0.8-1.2-0.9-2C228.5,212.1,228.5,211.4,227.7,211.5z"
	/>
<g id="_x27_a_x27___x2B___x27_b_x27_">
	<g id="Swirls">
		<g id="Left_Shadows">
		</g>
		<g id="Swirls_1_">
		</g>
	</g>
	<g id="Shadow">
	</g>
	<g>
		<path class="st0" d="M232.4,111c-0.8,0-1.1-0.6-1.5-1.2c0.7-0.1,0.9,0.6,1.5,0.8C232.4,110.6,232.4,110.8,232.4,111z"/>
		<path class="st0" d="M224.2,103.4c-1,0-1.1-0.1-1.2-0.9C223.7,102.4,224,102.9,224.2,103.4z"/>
		<g>
			<path class="st0" d="M222.2,143.2c0.3,0,0.5,0.1,0.8,0.3c0.5,0.4,0.7,0.5,1.2-0.1c0.6-0.7,1.2-1.5,1.8-2.3c1-1.6,1.9-3.4,3.3-4.8
				c0.1-0.1,0.2-0.2,0.3-0.3c1.1-2.2,2.8-4,4.2-6c0.8-1.2,1.6-2.5,2.5-3.6c1.2-1.5,1.9-3.4,3.3-4.8c0.1-0.1,0-0.3,0-0.4
				c0.2,0,0.4,0,0.5,0.1c0.3,0.2,0.6,0.4,1,0.5c0.8,0.2,0.7,1,0.2,1.3c-0.3,0.2-0.8,0.2-0.9,0.8c-0.1,0.3-0.8,0.3-0.6,0.9
				c-0.8,0.5-0.8,1.4-1.4,2.1c-0.5,0.5-0.9,1.1-1.1,1.7c-0.2,0.7-1.1,1-1.1,1.9c0,0.4-0.7,0.6-1,1c-0.9,1.3-1.7,2.7-2.9,3.8
				c-0.3,0.3-0.6,0.8-0.7,1.3c-0.4,1-1.4,1.4-1.8,2.3c-0.3,0.5-0.6,1-0.9,1.5c-0.3,0.5-0.7,0.9-1,1.5c-0.5,1-1.3,1.8-2,2.7
				c-0.2,0.2,0,0.8-0.6,0.6c-0.3-0.1-0.5-0.3-0.7-0.4c-0.2-0.1-0.3-0.2-0.5-0.2c-0.8,0-1.3-0.4-1.9-0.9
				C222.2,143.6,222.2,143.4,222.2,143.2z"/>
			<path class="st0" d="M231,109.8c-0.3,0-0.5-0.1-0.8-0.3c-0.8-0.8-1.5-1.6-2.4-2.4c-0.9-0.8-1.9-1.6-2.8-2.3
				c-0.1-0.1-0.8-1.2-0.8-1.5c0.1,0,0.3,0,0.4,0c0.1,0,0.1,0.1,0.2,0.2c1.9,1.8,3.8,3.6,5.7,5.4C230.8,109.2,231.1,109.4,231,109.8z
				"/>
			<g>
				<path class="st0" d="M86.5,153.5c0,0.1,0,0.3,0,0.6c-1.5,0.2-3.1,0.3-4.7,0.6c-1.6,0.4-3.1,0.2-4.7,0.3c0-0.1,0-0.3,0-0.4
					c0.1,0,0.2-0.1,0.2-0.1c1.5-0.1,3-0.2,4.6-0.3c0.1,0,0.2,0,0.3,0c0.9-1.1,2.1-0.4,3.1-0.6C85.7,153.4,86.1,153.5,86.5,153.5z"/>
				<path class="st0" d="M88.2,153.5c-0.1,0.1-0.2,0.2-0.4,0.3c-0.1-0.1-0.1-0.2-0.2-0.3C87.9,153.5,88.1,153.5,88.2,153.5z"/>
				<path class="st0" d="M114,291.8c-0.1,0.1-0.2,0.2-0.4,0.3c-0.2,0.1-0.6,0-0.7,0.1c-0.5,0.7-1.2,0.5-1.8,0.5c-0.7,0-1.5,0-2.2,0
					c-0.2,0-0.6,0-0.7-0.1c-0.5-0.7-1.2-0.5-1.9-0.5c-0.6,0-1.3-0.1-1.9,0c-1.2,0.1-2.2-0.4-3.4-0.3c0.1-0.1,0.1-0.3,0.2-0.3
					c0.3,0,0.7,0,1,0c0.8,0,1.7,0,2.5,0c0.8,0,1.6-0.2,2.4-0.3c1.1-0.1,2.1,0.4,3.2,0.3c1.1-0.1,2.2,0,3.3,0
					C113.9,291.5,114,291.7,114,291.8z"/>
				<g>
					<g>
						<g>
							<path class="st0" d="M234.4,114.3c-0.4,0.6-0.5,1.5-1.1,1.9c-0.1,0-0.2,0.1-0.2,0.1c-0.2,0.9-0.5,1.7-0.9,2.4
								c-0.5,0.7-0.8,1.5-1.2,2.3c-0.3,0.5-1,0.8-0.9,1.5c-0.6,0.5-0.8,1.4-1.2,2c-0.5,0.7-0.9,1.4-1.2,2.1
								c-0.6,1.2-0.7,1.2-0.8,1.9c-1,0-1,0.8-1.2,1.5c-0.7,0.3-0.8,0.9-0.9,1.5c-0.3,0.1-0.6,0.3-0.9,0.3c-0.4,0-0.8-0.2-1.2-0.3
								c-0.8-0.1-1.7-0.2-2.5-0.3c-0.1-0.5-0.9,0.1-1-0.5c0-0.2,0-0.4,0-0.6c0.2,0,0.5-0.1,0.7,0c0.4,0.1,0.7,0.5,1.1,0.5
								c0.5,0.1,1.1,0,1.6,0c0.7-0.6,1.2-1.3,1.4-2.2c0-0.3,0.3-0.6,0.5-0.8c0.7-0.8,1.2-1.6,1.5-2.6c0.1-0.2,0.2-0.3,0.3-0.4
								c0.3-0.4,0.6-0.7,0.8-1.1c0.3-0.7,0.8-1.4,1.1-2c0.3-0.7,0.8-1.3,1.2-2c0.5-0.8,0.9-1.8,1.5-2.6c0.9-1.4,1.4-3,2.1-4.5"/>
							<path class="st0" d="M206,117.7c-0.1,0-0.3,0-0.5,0c-0.3,0.9,0.1,1.8,0.4,2.7c0.3,0.9,0.5,1.9,0.6,2.8c0.3,1.5,0.8,2.9,1,4.4
								c0.1,0.9,0.5,1.8,0.5,2.7c-0.5,0-1-0.2-1.1-0.6c-0.2-0.5-0.6-0.7-0.7-1.4c0-1-0.5-2-0.7-3.1c-0.2-1.1-0.7-2.2-0.8-3.4
								c0-0.5-0.2-1.1-0.4-1.6c-0.5-0.9-0.4-1.9-0.7-2.8c-0.2-0.4,0-0.8,0.6-1.1c1.1-0.6,2.1-1.4,3.3-2c0.2-0.1,0.3-0.2,0.4-0.3
								c0.9-0.5,1.8-0.8,2.6-1.4c0.7-0.6,1.8-0.9,2.6-1.3c0.7-0.4,1.4-1,2.1-1.2c1.1-0.3,2-0.9,3-1.3c0.4-0.2,0.8-0.2,1.3-0.3
								c0.3,0.4,0.6,0.8,1,1.2c-0.1,0.1-0.2,0.2-0.3,0.3c-0.2,0-0.6-0.1-0.7,0c-0.6,0.7-1.5,0.8-2.3,1.2c-0.8,0.4-1.5,0.9-2.3,1.4
								c-0.9,0.5-1.9,0.8-2.8,1.4c-0.9,0.5-1.7,1.2-2.7,1.5c0,0,0,0.1,0,0.1c-0.7,0.4-1.3,0.9-2,1.2
								C207,117.1,206.7,117.8,206,117.7z"/>
							<path class="st0" d="M220.4,113.9c0.5,0.3,0.9,0.9,1.8,0.5c0,0.6,0,1.1,0,1.5c0,0.1,0.2,0.2,0.3,0.4c0,1.2,0.1,2.4-0.3,3.5
								c0,0.1,0,0.3,0,0.4c0.1,0.5-0.3,0.5-0.6,0.5c-0.7,0.1-1.4,0.2-2.1,0.3c-1.2,0.1-2.3,0.9-3.6,1c0.2,0.3,0.3,0.4,0.4,0.6
								c0.1,0.2,0,0.5,0,0.7c-0.3,0-0.7,0-1.1,0c-0.3-0.8-0.5-1.6-0.8-2.4c1.3-0.5,2.6-0.9,3.9-1.2c0.4-0.1,0.7-0.1,1.1-0.2
								c0.6-0.1,1.3-0.7,1.3-1.3c0-0.4,0.1-0.9,0-1.3c-0.1-0.4-0.4-0.8,0-1.2c0.1-0.1,0-0.4-0.1-0.5
								C220.2,114.8,220.5,114.3,220.4,113.9z"/>
							<path class="st0" d="M234.1,117.1c0.5,0,0.3,0.3,0.4,0.6c-0.5,0.4-0.9,0.9-1.2,1.5c-0.7,1.2-1.4,2.3-2.2,3.5
								c-0.2,0.4-0.5,0.7-0.7,1.2c-0.2,0.4-0.9,0.4-0.6,1c-1.1,0.8-1.5,2.2-2.4,3.2c-0.1,0.2-0.4,0.3-0.6,0.4
								c0.1-0.7,0.2-0.6,0.8-1.9c0.4-0.7,0.8-1.4,1.2-2.1c0.4-0.6,0.6-1.5,1.2-2c-0.1-0.8,0.6-1,0.9-1.5c0.4-0.7,0.7-1.6,1.2-2.3
								c0.5-0.8,0.8-1.5,0.9-2.4c0,0,0.2-0.1,0.2-0.1c0,0.2,0,0.5,0,0.8C233.6,117.1,233.8,117.1,234.1,117.1"/>
							<path class="st0" d="M206,117.7c0.7,0.1,1-0.6,1.5-0.8c0.7-0.3,1.3-0.8,2-1.2c0.5-0.1,0.9-0.1,1.4-0.2c1-0.4,2-0.8,3.1-1.1
								c0.4-0.1,0.9-0.1,1.2-0.3c0.3-0.2,0.6-0.4,1-0.4c0.3,0,0.7-0.1,0.9-0.3c0.7-0.9,1.6-0.5,2.5-0.5c0,0.3,0,0.4,0,0.5
								c-1.1,0.7-2.4,0.9-3.6,1.5c-1.2,0.5-2.5,1-3.8,1.5c-1.3,0.5-2.6,1-3.8,1.7c-0.4,0.2-0.4,0.5-0.5,0.8c-0.2,0.4-0.3,0.6,0,1
								c0.4,0.6,0.6,1.3,0.9,2c0.1,0.3,0.1,0.7,0.3,0.9c0.8,0.8,0.9,1.9,1.5,2.7c0.5,0.8,0.9,1.8,1.1,2.7c-0.4-0.1-0.8,0.2-1.2-0.2
								c-0.4-0.4-0.6-0.8-0.8-1.3c-0.1-0.4-0.2-0.9-0.3-1.3c-0.1-0.2-0.2-0.4-0.3-0.6c-0.3-0.3-0.7-0.5-0.6-1.1
								c-0.8-0.4-0.7-1.2-1-1.9c0-0.1-0.2-0.1-0.4-0.1c-0.3-0.6,0.4-1.6-0.9-1.8C206,119.1,206,118.4,206,117.7z"/>
							<path class="st0" d="M222.2,119.8c0.4-1.1,0.3-2.3,0.3-3.5c0.6-0.1,0.1-0.6,0.4-0.8c0.2,0,0.4,0,0.7,0
								c0.2-0.8,0.3-1.5,0.5-2.2c-0.9-0.7-1.4-1.9-2.7-2.1c0-0.2,0-0.4,0-0.6c-0.2-0.4-0.8,0.1-0.9-0.5c0.1-0.1,0.2-0.2,0.3-0.3
								c0.5-0.1,0.9,0.2,1.1,0.4c1.2,1,2.4,2.1,3.5,3.2c0.5,0.5,0.5,0.6,0.1,1.2c-0.5,0.7-1,1.4-1.3,2.2c-0.4,1-1.3,1.7-1.4,2.8
								C222.7,119.7,222.3,119.7,222.2,119.8z"/>
							<path class="st0" d="M220.4,135.9c0-0.3,0.1-0.5,0.3-0.8c0.3-0.3,0.7-0.5,0.6-1.1c0.7-0.3,0.5-1.2,1.2-1.5
								c0.4-0.2,0.3-0.7,0.3-1c0.4,0.1,0.8,0.3,1.2,0.3c0.3,0,0.6-0.2,0.9-0.3c-0.1,0.8-0.6,1.5-1.1,2c-0.8,1-1.3,2.2-2,3.2
								c-0.4-0.1-0.7-0.2-1.1-0.3C220.3,136.4,220.4,136.1,220.4,135.9z"/>
							<path class="st0" d="M219.5,120.9c0.7-0.1,1.4-0.2,2.1-0.3c0,0.4,0.1,0.8-0.3,1c-0.1,0.1-0.3,0.2-0.3,0.3
								c0.2,1-0.7,1.4-0.9,2.1c-0.6,0-1,0-1.5,0c0-0.2,0-0.4,0-0.6c0-0.2,0-0.4,0.1-0.5C219.1,122.5,219.5,121.6,219.5,120.9z"/>
							<path class="st0" d="M219.2,130.6c-0.5-0.1-1,0.2-1.5-0.2c-0.4-0.3-1,0.1-1.3-0.4c-1-0.1-1.8-0.6-2.8-0.6
								c-0.1,0-0.2-0.2-0.2-0.3c0-0.2,0-0.4,0-0.6c0.7,0,1.3-0.1,1.9,0.3c0.8,0.4,1.7,0.3,2.5,0.6c0.5,0.2,1.1,0.1,1.4,0.6
								C219.2,130.2,219.2,130.4,219.2,130.6z"/>
							<path class="st0" d="M213.4,128.6c0,0.2,0,0.4,0,0.6c-0.7,0.1-1.2-0.3-1.5-0.9C212.4,128.3,212.9,128.2,213.4,128.6z"/>
							<path class="st0" d="M225.7,130c0.2-0.7,0.2-1.4,1.2-1.5c0.1,0.7-0.6,0.9-0.8,1.5C226.1,130.1,225.8,130,225.7,130z"/>
							<path class="st0" d="M224.8,131.5c0.1-0.6,0.2-1.2,0.9-1.5c0.1,0.5-0.2,0.9-0.3,1.3C225.3,131.4,225,131.4,224.8,131.5z"/>
							<path class="st0" d="M216.9,123.3c0.3,0,0.6,0,0.8,0c0.1,0,0.2,0.2,0.3,0.3c-0.3,0-0.6,0-0.8,0
								C217.1,123.6,217,123.4,216.9,123.3z"/>
							<path class="st0" d="M219.2,130.6c0.1,0.6,0.8,0,1,0.5c0.8,0.1,1.7,0.2,2.5,0.3c0,0.4,0.1,0.8-0.3,1
								c-0.6,0.3-0.5,1.2-1.2,1.5c0.1,0.5-0.3,0.8-0.6,1.1c-0.2,0.2-0.3,0.4-0.3,0.8c-0.6-0.1-1.1-0.3-1.7-0.6
								c-0.9-0.6-2.1-0.6-2.9-1.5c-0.6,0.1-1-0.4-1.5-0.5c-0.5-0.2-1-0.4-1.5-0.6c-1.6-0.8-3.2-1.6-4.7-2.3c0-0.9-0.4-1.8-0.5-2.7
								c-0.2-1.5-0.8-2.9-1-4.4c-0.2-0.9-0.3-1.9-0.6-2.8c-0.3-0.8-0.7-1.7-0.4-2.7c0.2,0,0.4,0,0.5,0c0,0.7,0,1.3,0,2
								c1.3,0.2,0.7,1.2,0.9,1.8c0.2,0.1,0.4,0.1,0.4,0.1c0.2,0.7,0.2,1.5,1,1.9c-0.1,0.5,0.3,0.8,0.6,1.1c0.1,0.2,0.3,0.4,0.3,0.6
								c0.1,0.4,0.2,0.9,0.3,1.3c0.2,0.5,0.4,0.9,0.8,1.3c0.4,0.4,0.8,0.1,1.2,0.2c0.1,0.1,0.2,0.2,0.3,0.3c0.3,0.6,0.7,1,1.5,0.9
								c0.1,0.1,0.2,0.3,0.2,0.3c1,0,1.9,0.5,2.8,0.6c0.3,0.5,0.9,0.1,1.3,0.4C218.2,130.8,218.7,130.5,219.2,130.6z"/>
							<path class="st0" d="M219.5,113.3c0-0.1,0-0.3,0-0.5c-0.9,0-1.8-0.4-2.5,0.5c-0.2,0.2-0.6,0.3-0.9,0.3c-0.4,0-0.7,0.2-1,0.4
								c-0.3,0.2-0.8,0.2-1.2,0.3c-1,0.3-2,0.7-3.1,1.1c-0.5,0.2-0.9,0.2-1.4,0.2c0,0,0-0.1,0-0.1c1-0.4,1.8-1,2.7-1.5
								c0.9-0.5,1.9-0.9,2.8-1.4c0.8-0.4,1.5-0.9,2.3-1.4c0.8-0.4,1.7-0.4,2.3-1.2c0.1-0.1,0.5,0,0.7,0c0.1,0.6,0.7,0,0.9,0.5
								c0,0.2,0,0.4,0,0.6c1.3,0.2,1.7,1.4,2.7,2.1c-0.2,0.7-0.3,1.4-0.5,2.2c-0.3,0-0.5,0-0.7,0c-0.3,0.3,0.2,0.8-0.4,0.8
								c-0.1-0.1-0.3-0.2-0.3-0.4c0-0.5,0-0.9,0-1.5c-0.9,0.4-1.2-0.2-1.8-0.5C220.3,113.3,220.3,113.3,219.5,113.3z"/>
							<path class="st0" d="M219.5,120.9c-0.1,0.7-0.4,1.5-0.8,2.1c-0.1,0.1-0.1,0.3-0.1,0.5c-0.2,0-0.4,0-0.6,0
								c-0.1-0.1-0.2-0.3-0.3-0.3c-0.3,0-0.5,0-0.8,0c-0.2,0-0.4,0-0.6,0c0-0.2,0-0.5,0-0.7c-0.1-0.2-0.2-0.4-0.4-0.6
								C217.2,121.8,218.3,121.1,219.5,120.9z"/>
							<path class="st0" d="M234.1,117.1c0.5,0,0.3,0.3,0.4,0.6c0.5-0.1,0.7,0.4,1.1,0.6"/>
							<path class="st0" d="M234.4,114.3c-0.4,0.6-0.5,1.5-1.1,1.9c0,0.2,0,0.5,0,0.8c0.3,0,0.5,0.1,0.8,0"/>
						</g>
						<path class="st0" d="M114.6,267.2c-0.3-0.9-0.6-1.8-1.2-2.6c-0.8-1.1-1.8-2.2-2.2-3.6c-0.1-0.2-0.2-0.4-0.3-0.6
							c-0.6-0.6-0.8-1.4-1.2-2.1c-0.5-0.9-1-1.7-1.4-2.6c-0.2-0.4-0.5-0.9-0.7-1.3c-0.2-0.4-0.5-0.8-0.5-1.2c0-0.3-0.4-0.5-0.6-0.8
							c-0.6-0.9-0.9-1.9-1.5-2.8c-0.9-1.4-1.7-2.8-2.6-4.2c-0.1-0.2-0.4-0.3-0.3-0.4c0.2-0.9-0.6-1.2-1-1.9c0.6-0.4,0.8-1.2,1.6-1.1
							c0.2,0.1,0.4,0.1,0.6,0.2c0.2,0.1,0.4,0.3,0.5,0.4c0.1,0.1,0.2,0.2,0.3,0.3c0,0.2-0.1,0.6,0.3,0.6c0,0.1,0,0.2,0,0.3
							c0.1,0.1,0.2,0.2,0.3,0.3c0,0.1,0,0.2,0,0.3c0.1,0.1,0.2,0.2,0.3,0.3c0,0.2-0.1,0.6,0.3,0.6c0.1,0.1,0.2,0.2,0.3,0.3
							c0.5,0.5,0.7,1.3,1.2,1.8c0,0.1-0.1,0.4,0,0.4c0.9,0.9,1,2.2,1.9,3.2c0.4,0.4,1,1.1,0.8,1.9c0,0,0.2,0.1,0.2,0.1
							c0.2,0.2,0.4,0.3,0.6,0.5c0.1,0.2,0.1,0.5,0.2,0.8c0.6,1.2,1.6,2.1,1.8,3.5c0.1,0.3,0.4,0.5,0.6,0.8c0.5,0.7,0.8,1.5,1.2,2.3
							c0.4,0.7,0.9,1.5,1.5,2.2c0.8,1,1.1,2.2,1.8,3.2C116.7,267,115.7,267.3,114.6,267.2z"/>
						<path class="st0" d="M117.3,237.6c0-0.2,0-0.4,0.1-0.5c0.3-0.3,0.6-0.6,0.9-0.9c0.5,0,1,0,1.5,0s1,0,1.5,0s1,0,1.5,0
							s1,0,1.5,0c0.4,0,0.9,0,1.3,0c0.5,0,1,0,1.5,0c0.4,0,0.9,0.2,1.3,0.3c0.2-0.7,0.8,0.3,1.1-0.2c0.4,0.1,0.9,0.2,1.3,0.4
							c0,1.8,0,3.6,0,5.4c0,0.2-0.1,0.4-0.2,0.7c0,0.1-0.1,0.2-0.1,0.2c-0.2,0.6,0.8,1.1,0,1.7c0.5,0.4-0.5,1,0.2,1.4
							c0,0,0,0.3-0.1,0.5c-0.4,0.6-0.4,1.2-0.4,1.9c0,0.8-0.2,1.6-0.3,2.4c0,0.8,0,1.6,0,2.5c-0.9-0.2-1.6-0.4-2.3-0.6
							c0.1-1.3,0.1-2.7,0.3-4c0.3-1.5,0-3.1,0.3-4.6c0.4-2,0.1-3.9,0.2-5.9c0-0.1,0-0.3,0-0.5c-0.7,0-1.4,0-2.2,0
							c-0.5,0-1.1,0.2-1.5-0.3c0,0-0.2,0-0.3,0c-0.7,0.1-1.3,0.2-2,0c-0.7-0.1-1.5,0-2.2,0c-0.2,0-0.4,0.1-0.7,0.1
							c-0.1,0-0.3,0.2-0.4,0.1C118.6,236.9,117.9,237.5,117.3,237.6z"/>
						<path class="st0" d="M121.7,251.9c0.1,0.4,0.2,0.8,0.4,1.1c1.4,1.6,2.5,3.4,3.4,5.4c0.2,0.4,0.4,0.6,0.9,0.5
							c-0.1,0.1-0.2,0.3-0.4,0.3c-0.5,0-1,0-1.4,0.5c-0.2,0.2-0.8,0.1-1.2,0.2c-0.8-1.1-1.1-2.4-2-3.5c-0.9-1-1.6-2.1-2.4-3.2
							c-1.1-1.6-2.2-3.2-3.3-4.8c-0.3-0.4-0.2-0.7,0.1-1c0.8-0.9,1.6-1.8,2.4-2.7c0.2-0.2,0.5-0.3,0.5-0.5c0.2-1,0.9-0.8,1.6-0.8
							c0.1,0.5-0.3,0.7-0.4,1.1c-1,0.2-1,1.3-1.7,1.7c-0.3,0.2-0.3,0.6-0.1,0.9c0.9,1.3,1.8,2.6,2.7,3.8c0,0.1,0.3,0,0.4,0
							C121.3,251.3,121.5,251.6,121.7,251.9z"/>
						<path class="st0" d="M111.4,235.2c0,0.2,0,0.4-0.1,0.5c-0.2,0.2-0.5,0.3-0.8,0.5c-0.5,0.4-0.8,1-1.6,1.1
							c-0.4,0.1-0.7,0.8-1.1,1.1c-0.9,0.7-1.7,1.6-2.8,2.1c-0.4,0.2-0.6,0.6-0.9,0.9c-0.4,0.3-0.3,0.7-0.3,1
							c-0.2-0.1-0.3-0.3-0.5-0.4c-0.2-0.1-0.4-0.1-0.6-0.2c0.2-0.3,0.5-0.6,0.6-0.9c0.2-0.5,0.6-0.1,0.8-0.3
							c0.3-0.3,0.3-0.8,0.9-0.9c0.4-0.1,0.6-0.4,0.8-0.8c0.3-0.4,0.7-0.8,1.3-0.9c0.7-0.2,1.2-0.9,1.9-1.4c0.5-0.4,1.1-0.9,1.6-1.3
							C110.8,235.2,111.1,235.3,111.4,235.2z"/>
						<path class="st0" d="M114.6,232.6c0.1,0.7-0.6,0.9-0.9,1.3c-0.4,0.4-0.9,0.6-1.3,1c-0.3,0.3-0.7,0.3-1,0.3
							c-0.2-0.7,0.3-1.2,0.8-1.4c0.6-0.2,1-0.6,1.5-1C114,232.5,114.3,232.6,114.6,232.6z"/>
						<path class="st0" d="M117.6,230.8c-0.7,0.6-1.4,1.1-2.1,1.6c-0.2,0.1-0.5,0.1-0.8,0.1c0-0.2,0-0.5,0.1-0.5
							c0.7-0.1,0.9-0.7,1.4-1.1C116.7,230.4,116.7,230.4,117.6,230.8z"/>
						<path class="st0" d="M105,244.6c0.4,0,0.2,0.4,0.3,0.6C104.8,245.2,105,244.8,105,244.6z"/>
						<path class="st0" d="M104.1,242.8c0.4,0,0.2,0.4,0.3,0.6C103.9,243.4,104.1,243.1,104.1,242.8z"/>
						<path class="st0" d="M109.6,252.8c-0.1,0-0.2-0.1-0.2-0.1c0.2-0.8-0.3-1.4-0.8-1.9c-0.9-0.9-1-2.3-1.9-3.2
							c-0.1-0.1,0-0.3,0-0.4c0.3,0,0.6,0,0.9,0c-0.1,0.9,0.6,1.3,0.9,1.9c0.4,0.6,0.8,1.2,1.2,1.8c0.3,0.3,0.1,0.6,0.2,0.9
							C109.4,252.1,109.8,252.5,109.6,252.8z"/>
						<path class="st0" d="M110.2,251.9c0.6,0.1,0.2,0.6,0.3,0.9C110,252.7,110.3,252.2,110.2,251.9z"/>
						<path class="st0" d="M105.2,245.2c0.1,0.1,0.2,0.2,0.3,0.3C105.4,245.4,105.3,245.3,105.2,245.2z"/>
						<path class="st0" d="M104.7,244.3c0.1,0.1,0.2,0.2,0.3,0.3C104.9,244.5,104.8,244.4,104.7,244.3z"/>
						<path class="st0" d="M104.4,243.7c0.1,0.1,0.2,0.2,0.3,0.3C104.6,243.9,104.5,243.8,104.4,243.7z"/>
						<path class="st0" d="M103.8,242.6c0.1,0.1,0.2,0.2,0.3,0.3C104,242.7,103.9,242.6,103.8,242.6z"/>
						<path class="st0" d="M107.6,247.2c-0.3,0-0.6,0-0.9,0c-0.5-0.5-0.7-1.2-1.2-1.8c-0.1-0.1-0.2-0.2-0.3-0.3
							c0-0.2,0.1-0.6-0.3-0.6c-0.1-0.1-0.2-0.2-0.3-0.3c0-0.1,0-0.2,0-0.3c-0.1-0.1-0.2-0.2-0.3-0.3c0-0.1,0-0.2,0-0.3
							c0-0.2,0.1-0.6-0.3-0.6c-0.1-0.1-0.2-0.2-0.3-0.3c0-0.4-0.1-0.8,0.3-1c0.3-0.3,0.6-0.7,0.9-0.9c1-0.6,1.9-1.4,2.8-2.1
							c0.4-0.3,0.7-1,1.1-1.1c0.8-0.1,1.1-0.7,1.6-1.1c0.2-0.2,0.6-0.3,0.8-0.5c0.1-0.1,0.1-0.3,0.1-0.5c0.4,0,0.7,0.1,1-0.3
							c0.4-0.4,0.9-0.6,1.3-1c0.4-0.4,1-0.6,0.9-1.3c0.3,0,0.6,0,0.8-0.1c0.7-0.5,1.4-1.1,2.1-1.6c1.3,0.1,2.6,0.3,3.8,0.7
							c0.6,0.2,1.2,0.3,1.9,0.5c1.6,0.4,3.1,0.5,4.7,1c1.1,0.4,2.3,0.7,3.5,1c0.9,0.2,1.4,0.5,1.3,1.3c0,0.8,0.3,1.6-0.2,2.4
							c-0.1,0.2,0,0.6,0.1,0.8c0.5,0.4,0.4,0.8,0.4,1.3c0,5.4,0,10.7,0,16.1c-0.4,0.5-0.8,0.7-1.4,0.9c-1,0.3-1.8,1.1-2.8,1.3
							c-0.9,0.2-1.7,0.6-2.5,1c-0.4,0.1-0.7-0.2-0.9-0.5c-0.9-2-2-3.8-3.4-5.4c-0.2-0.3-0.3-0.7-0.4-1.1c0,0,0.1,0,0.1,0
							c0.7,0.3,1.4,0.7,2.2,0.9c0.7,0.2,1.5,0.4,2.1,0.9c0.3,0.2,0.9,0.1,1.4,0.2c0-0.6,0-1,0-1.5c0.7,0.2,1.5,0.4,2.3,0.6
							c0-0.8,0-1.7,0-2.5c0-0.8,0.2-1.6,0.3-2.4c0-0.7,0-1.3,0.4-1.9c0.1-0.1,0.2-0.5,0.1-0.5c-0.7-0.4,0.3-1-0.2-1.4
							c0.8-0.6-0.2-1.1,0-1.7c0-0.1,0.1-0.2,0.1-0.2c0.1-0.2,0.2-0.4,0.2-0.7c0-1.8,0-3.6,0-5.4c-0.5-0.1-0.9-0.3-1.3-0.4
							c-0.3,0.5-0.9-0.5-1.1,0.2c-0.4-0.1-0.9-0.2-1.3-0.3c-0.5,0-1,0-1.5,0c-0.4,0-0.9,0-1.3,0c-0.5,0-1,0-1.5,0s-1,0-1.5,0
							s-1,0-1.5,0s-1,0-1.5,0c-0.3,0.3-0.6,0.6-0.9,0.9c-0.1,0.1-0.1,0.4-0.1,0.5c-0.4-0.1-0.8-0.1-1.4-0.3c-0.4,0.5-1,1.2-1.5,1.8
							c-0.5,0.6-1.3,1-1.6,1.8c0,0.1-0.1,0.1-0.2,0.2c-1,1.1-2.1,2.2-3.1,3.4c-0.7,0.7-1.3,1.5-1.9,2.3
							C107.5,246.9,107.6,247.1,107.6,247.2z"/>
						<path class="st0" d="M121.1,251c-0.1,0-0.4,0.1-0.4,0c-0.9-1.3-1.8-2.6-2.7-3.8c-0.2-0.3-0.2-0.7,0.1-0.9
							c0.7-0.5,0.7-1.6,1.7-1.7c0.1-0.4,0.5-0.7,0.4-1.1c0.9,0,1.8-0.1,2.4,0.9c-0.2,0.2-0.4,0.5-0.7,0.7c0,0.7,0,1.4,0,2.2
							c-0.1,0.6-0.4,1.2-0.3,1.9c0,0.3-0.2,0.7-0.4,1C121,250.4,121.1,250.7,121.1,251z"/>
						<path class="st0" d="M122.9,268.6c-0.6,0.4-1.7,0.1-2.2-0.5c0,0-0.1-0.1-0.1-0.1c-0.5-1.1-1.3-1.9-1.9-2.9
							c-0.9-1.3-1.7-2.6-2.5-3.9c-0.9-1.4-1.8-2.8-2.9-4.1c-0.3-1.2-1.2-2.1-1.9-3.2c-0.3-0.4-0.6-0.8-0.9-1.2
							c-0.6-0.1-0.2-0.6-0.3-0.9c-0.1,0-0.2,0-0.3,0c-0.6,0.1-0.2,0.6-0.3,0.9c0.2,0.2,0.4,0.3,0.6,0.5c0.1,0.2,0.1,0.5,0.2,0.8
							c0.6,1.2,1.6,2.1,1.8,3.5c0.1,0.3,0.4,0.5,0.6,0.8c0.5,0.7,0.8,1.5,1.2,2.3c0.4,0.7,0.9,1.5,1.5,2.2c0.8,1,1.1,2.2,1.8,3.2
							c-0.6,1-1.6,1.3-2.7,1.2c0,0.2,0.1,0.5-0.2,0.6c-0.6,0.2-1.2,0.5-1.8,0.7"/>
					</g>
					<path class="st0" d="M138.9,261.9c0.1-1-0.5-1.9-0.3-3c0.1-0.3-0.1-0.7,0.2-0.9c0.1-0.1,0.1-0.4,0.1-0.5
						c-0.4-0.8-0.4-1.5,0-2.3c0.1-0.2,0-0.4,0-0.6c0.1-0.7-0.8-1.3,0-2c0-0.8,0-1.6,0-2.3c0-0.7,0-1.5,0-2.2c0-0.8,0-1.6,0-2.3
						c0-0.7,0-1.5,0-2.2c0-0.4,0.4-0.9,0.2-1.2c-0.2-0.4-0.2-0.7-0.2-1.1c0-0.9,0-1.9,0-2.8c0-0.6-0.2-1.3-0.3-1.9
						c-0.1-0.6,0.3-1.4-0.3-1.9c0.2-0.8-0.3-1.6-0.3-2.4c0-0.6-0.3-1-0.7-1.2c-0.6-0.3-1.1-0.8-1.8-0.7c-0.1,0-0.4,0-0.4-0.1
						c-0.4-0.8-1.3-0.4-1.9-0.8c-0.5-0.3-1.2-0.5-1.8-0.6c-0.4-0.1-0.8-0.1-1.1-0.5c-0.1-0.1-0.3-0.1-0.5-0.1c-1.5,0-2.9-0.6-4.3-1
						c-0.8-0.2-1.7-0.4-2.5-0.7c-0.8-0.2-1.6-0.4-2.4-0.5c-0.9-0.1-1.9-0.4-2.8-0.7c-0.3-0.1-0.6-0.1-1-0.2c-0.3,0-1.8-0.5-2-0.6
						c0.4-0.4,0.7-0.7,1.2-1.2c1,0.1,2.3,0.2,3.5,0.4c0.3,0,0.5,0.2,0.7,0.3c0.2,0.1,0.3,0.2,0.5,0.3c0.8,0.1,1.7,0.2,2.5,0.3
						c0.1,0,0.2,0,0.3,0c1.2,0.8,2.6,0.6,4,1c1.4,0.4,2.8,1,4.3,1.1c0.7,0,1.4,0.4,2.1,0.7c1,0.5,2.1,0.9,3.2,1
						c0.5,0.1,0.6,0.7,1.2,0.6c0.4-0.1,0.9,0.1,1.3,0.3c0.3,0.2,0.5,0.5,0.7,0.9c0.1,0.2,0.4,0.5,0,0.8c0,0,0,0.2,0,0.3
						c0.7,0.5,0.5,1.2,0.6,1.8c0.1,0.6,0.4,1.2,0.3,1.9c-0.1,0.6-0.2,1.3,0.3,1.9c-0.2,1,0.3,2.1-0.3,3.1c-0.1,0.2,0.3,0.6,0.6,1
						c-0.1,0.1-0.2,0.3-0.4,0.5c-0.1,0.1-0.2,0.2-0.1,0.3c0.5,1.3,0.1,2.6,0.2,3.9c0.1,1.3,0,2.6,0,3.9c0,0.5,0.1,1-0.2,1.5
						c-0.2,0.4-0.2,1.1,0.1,1.6c0.1,0.2,0.2,0.6,0.1,0.7c-0.4,0.4-0.2,0.8-0.3,1.2c-0.2,0.6,0.2,1.2,0,1.8c-0.2,0.6,0,1.4,0,2
						c0,0.3,0,0.6,0.1,0.9c0,0.3,0.3,0.6,0.2,0.8c-0.1,0.2-0.3,0.5-0.6,0.6C140.3,261.4,139.8,262,138.9,261.9z"/>
					<path class="st0" d="M222.2,143.2c0,0.2,0,0.4,0,0.6c-0.9,0-1.7-0.3-2.5-0.8c-0.8-0.4-1.5-1-2.5-1c0,0-0.1,0-0.1,0
						c-0.7-1.2-2.3-0.7-3-1.8c0,0-0.1-0.1-0.1-0.1c-0.9,0-1.4-0.8-2.1-0.9c-0.7-0.1-0.5-0.7-0.8-0.9c0.2,0.3,0.5-0.8,0.6,0.1
						c0,0.1,0.4,0.3,0.6,0.3c1.3,0.2,2.3,1,3.5,1.5c1.4,0.5,2.8,1.2,4.2,1.9C220.6,142.4,221.3,143,222.2,143.2z"/>
					<path class="st0" d="M157.1,234.8c-0.7-0.4-0.5-1.2-0.6-1.8c0-0.6-0.2-1.2-0.3-1.8c0-0.2,0-0.5-0.1-0.5
						c-0.8-0.3-0.3-1.3-0.8-1.7c0.2-0.7-0.3-1.4-0.3-2.1c0-0.3-0.6-1.9-0.7-2.2c-0.1-0.2-0.2-0.4-0.2-0.7c0-1.1,0-2.3-0.6-3.3
						c0.2-1.1-0.4-1.7-1.3-2.2c-0.6-0.4-1-1-1-1.7c-0.2-0.2-0.5-0.4-0.5-0.7c-0.1-1.2-1.2-1.4-1.9-2c-0.4-0.3-0.8-0.5-1.1-0.8
						c-1.3-1-2.9-1.4-4.4-2.1c-0.5-0.3-1.1-0.4-1.6-0.6c-1.6-0.8-3.4-1.2-5-2c-0.9-0.5-2-0.7-3-0.9c-0.5-0.1-1.1,0.1-1.6-0.1
						c-0.5-0.2-1-0.4-1.5-0.5c-0.5-0.1-1-0.2-1.5-0.4c-1-0.4-2-0.4-3-0.5c-0.8-0.1-1.6,0.1-2.3-0.1c-0.8-0.1-1.5-0.2-2.3,0
						c-0.2,0.1-0.5-0.1-0.8-0.2c-0.3,0-0.6-0.1-0.8-0.1c-0.6-0.1-1.2,0-1.8-0.2c-1.6-0.4-2.5-1.6-3.4-2.8c-1-1.1-1.4-2.6-1.9-3.9
						c-0.4-1-0.8-2.2-0.7-3.4c0-0.7-0.3-1.2-0.5-1.9c-0.1-0.6-0.5-1.1-0.4-1.7c0.1-0.3-0.2-0.5-0.3-0.8c-0.4-1-0.9-2-0.9-3.1
						c0-0.3-0.2-0.7-0.4-1c-0.7-1.1-1-2.4-1.3-3.7c-0.3-1-0.6-1.9-0.8-2.9c-0.3-1.6-1-3.1-1.1-4.7c0-1-0.5-2-0.7-3.1
						c-0.2-1.1-0.6-2.2-0.7-3.3c-0.1-0.6-0.3-1.2-0.5-1.7c-0.4-1-0.7-1.9-0.7-2.9c0.1-1.2-0.6-2.2-0.7-3.4c-0.1-0.7-0.3-1.3-0.5-2
						c-0.1-0.4-0.2-0.9-0.3-1.3c-0.7-1.8-1.2-3.6-1.2-5.6c-0.7,0-1.3,0.4-2,0.6c-0.7,0.2-1.4,0.1-2.1,0.2c-0.1,0-0.2,0.1-0.2,0.1
						c-0.1,0-0.4,0.1-0.4,0c-0.5-0.5-1.1-0.3-1.6-0.3c-1.1,0-2.1,0-3.2,0c-1.1,0-2.2,0.2-3.2,0.3c-0.1,0.1-0.2,0.2-0.4,0.3
						c-0.1-0.1-0.1-0.2-0.2-0.3c-0.4,0-0.8,0-1.2,0c0,0.1,0,0.3,0,0.6c-1.5,0.2-3.1,0.3-4.7,0.6c-1.6,0.4-3.1,0.2-4.7,0.3
						c-1.9,0-3.7,0-5.6,0c-0.3,0.4-0.9,0.6-1.3,0.5c-1.1-0.1-2,0.3-3,0.6c-0.1,0-0.2,0-0.4,0c0,1.4,0,2.8,0,4.2c0,0.1,0,0.3,0.1,0.4
						c0.7,0.5,0.5,1.2,0.5,1.8c0,0.9,0.3,1.8,0.5,2.7c0.2,0.6-0.1,1.2,0.4,1.8c0,1.4,0.7,2.6,0.6,4c0.8,1.6,0.4,3.6,1.2,5.2
						c-0.3,1.4,0.4,2.7,0.6,4c0.3,1.3,0.2,2.6,0.8,3.9c0.4,0.8,0.2,1.9,0.3,2.8c0.1,0.5,0.2,1,0.3,1.5c0.1,0.5-0.1,1,0.3,1.5
						c0.3,0.4-0.2,1,0.3,1.5c0.1,0.1,0,0.4,0,0.6c-0.3,1.2-0.3,1.2,0,2.7c0.1,0.4,0,0.9,0,1.3c0,1.1,0.2,2.2,0.5,3.3
						c0.2,0.8,0.3,1.8,0.3,2.6c0,0.5,0,0.9,0.3,1.4c0.2,0.4,0,0.8,0.2,1.2c0.3,0.5,0.3,1.2,0.4,1.9c0.1,0.5,0,1,0.3,1.5
						c0.2,0.4-0.1,0.9,0.3,1.4c0.3,0.4-0.2,1.1,0.3,1.5c-0.2,1.3,0.3,2.6,0.6,3.8c0.3,1.3,0.4,2.7,0.8,4.1c0.2,0.6,0.3,1.3,0.4,2
						c0,0.7,0.3,1.4,0.3,2.1c0,0.7,0.3,1.3,0.5,2c0.1,0.5,0.1,1,0.1,1.6c0,0.7,0,1.4,0.3,2.1c0.4,0.8,0.5,1.7,0,2.6
						c-0.1,0.3-0.2,0.7,0,1c0.4,0.7,0.2,1.5,0.3,2.2c0,1,0.3,1.9,0.5,2.9c0.2,0.8,0.3,1.6,0.4,2.3c0.1,0.9,0,1.8,0.4,2.6
						c0.2,0.5,0,1.1,0.3,1.5c0.3,0.5,0.1,0.9,0.3,1.4c0.4,1.3,0.3,2.6,0.8,3.9c0.2,0.5,0.1,1.2,0.3,1.8c0.3,0.7,0.1,1.6,0.4,2.3
						c0.4,1.1,0.4,2.4,0.8,3.5c0.1,0.3,0,0.8,0.1,1.1c0.1,0.4,0.2,0.7,0.3,1.1c0.2,1.6,0.5,3.2,0.7,4.9c0.1,1.1,0.4,2.3,0.7,3.5
						c0.2,0.6,0.1,1.3,0.1,2c0,0.5-0.5,0.8,0,1.4c0.3,0.3-0.1,0.9,0.3,1.3c0.1,0.1,0,0.6,0,0.9c0,0.7,0,1.4,0,2.1
						c0.7,0.5,0.1,1.2,0.5,1.8c0.4,0.6,0.3,1.4,0.3,2.2c0,0.9,0.1,1.8,0.5,2.6c0.1,0.1,0.1,0.3,0.1,0.4c0.1,1,0.1,2,0.3,2.9
						c0.3,1.2,0.4,2.3,0.8,3.5c0.3,0.8,0.3,1.7,0.4,2.5c0,0.6,0.4,1,0.8,1.2c0.7,0.3,1.5,0.4,2.4,0.3c0.5-0.1,0.7-0.8,1.4-0.6
						c0.2-0.4,0.6-0.3,0.9-0.3c1.8,0,3.6,0,5.4,0c0.3,0,1.7,0.4,2,0.6c0.2,0,0.4,0,0.6,0c0.1-0.1,0.1-0.3,0.2-0.3c0.3,0,0.7,0,1,0
						c0.8,0,1.7,0,2.5,0c0.8,0,1.6-0.2,2.4-0.3c1.1-0.1,2.1,0.4,3.2,0.3c1.1-0.1,2.2,0,3.3,0c0.1,0,0.2,0.2,0.2,0.3
						c0.7,0,1.2,0.6,2,0c0.5-0.4,1.3,0.1,1.9-0.2c0.8-0.4,1.7-0.4,2.5-0.6c1.3-0.2,2.4-1.1,3.7-1.4c0.1,0,0.2-0.2,0.3-0.2
						c0.9-0.1,1.9-0.3,2.8-0.3c1.7,0,3.2-0.4,4.8-0.9c0.3-0.1,0.5-0.2,0.7-0.4c0.9-1.2,2.3-1.5,3.6-1.8c0.9-0.2,1.7-0.5,2.4-1
						c0.9-0.6,1.8-1.2,2.8-1.7c0.3-0.2,0.5-0.4,0.6-0.7c0.6-1.3,1.5-2.3,2.4-3.4c0.3-0.4,0.9-0.6,0.8-1.3c0,0,0-0.1,0.1-0.1
						c1.1-0.7,1.4-2.1,2.4-3c0.7-0.6,1.3-1.5,2-2.2c0.1-0.2,0.2-0.4,0.3-0.6c0-0.4,0.3-0.5,0.6-0.7c0.5-0.2,1-0.6,0.9-1.3
						c-0.1-0.5,0.4-0.7,0.6-0.9c0.5-0.5,0.7-0.7,0.8-1.1c0.1-0.4,0.2-0.8,0.5-1.1c0.4-0.4,0.4-0.7,0.4-1.2c0-1.2,0-2.3,0-3.5
						c0-0.3,0-0.6,0.1-0.8c0.6-0.7,0.4-1.4,0.5-2.2c0-0.5,0.1-1.1,0-1.6c-0.1-1,0.2-1.9,0.3-2.8c0.3-1.4,0.2-1.3,0-3
						c-0.1-0.5,0.2-1.2,0.5-1.7c0.2-0.4,0.3-0.6,0.3-1c0-0.9,0-1.9,0-2.8c0-1.1,0.2-2.2,0.5-3.3c0.2-0.8,0.1-1.6,0.1-2.5
						c0-0.5,0.2-0.9,0.3-1.3c0-0.1,0.3-0.2,0.6-0.3c0-1.2,0-2.5,0-3.8C157.1,235,157.1,234.8,157.1,234.8z M112.6,268.5
						c-1.1,0.3-1.9,1.3-3.1,1.4c-0.2,0-0.3,0.3-0.5,0.5c-0.2,0.2-0.3,0.5-0.4,0.7c-0.5-0.1-0.8-0.3-0.8-0.8c0-0.1,0-0.2,0-0.3
						c-1-1.1-1.2-2.7-2.3-3.8c-0.3-0.3-0.5-0.7-0.7-1c-0.5-1.2-1.3-2.2-1.9-3.3c-0.5-0.9-0.9-1.9-1.3-2.8c-0.2-0.4-0.5-0.8-0.7-1.3
						c-0.3-0.6-0.7-1-0.9-1.7c-0.2-0.9-1-1.6-1.4-2.5c-0.2-0.5-0.6-0.8-0.6-1.4c0-0.2-0.1-0.5-0.3-0.6c-0.5-0.4-0.5-1.1-0.8-1.6
						c-0.3-0.5-0.6-1-0.8-1.6c-0.4-0.9-1-1.6-1.5-2.4c-0.3-0.5-0.7-1.1-1-1.6c-0.6-1-1-2-0.7-3.2c0.8-0.7,1.4-1.5,2.3-2.1
						c0.7-0.4,0.9-1.2,1.7-1.6c0.7-0.3,1.3-0.9,1.9-1.4c0.6-0.5,1.4-0.8,1.9-1.4c0.4-0.4,0.9-0.8,1.4-1.1c0.5-0.4,0.9-0.8,1.4-1.1
						c0.4-0.2,0.7-0.7,1-1.1c0.7,0.3,0.8-0.7,1.4-0.6c0.2-0.7,0.9-0.6,1.3-1c0.4-0.4,1.1-0.7,1.4-1.1c0.6-0.6,1.4-0.8,1.9-1.4
						c0.3-0.3,0.8-0.4,1.2-0.6c0.7-0.5,1.4-1.1,2.1-1.7c0.3,0,0.6,0,0.9,0c0.4-0.4,0.7-0.7,1.2-1.2c1,0.1,2.3,0.2,3.5,0.4
						c0.3,0,0.5,0.2,0.7,0.3c0.2,0.1,0.3,0.2,0.5,0.3c0.8,0.1,1.7,0.2,2.5,0.3c0.1,0,0.2,0,0.3,0c1.2,0.8,2.6,0.6,4,1
						c1.4,0.4,2.8,1,4.3,1.1c0.7,0,1.4,0.4,2.1,0.7c1,0.5,2.1,0.9,3.2,1c0.5,0.1,0.6,0.7,1.2,0.6c0.4-0.1,0.9,0.1,1.3,0.3
						c0.3,0.2,0.5,0.5,0.7,0.9c0.1,0.2,0.4,0.5,0,0.8c0,0,0,0.2,0,0.3c0.7,0.5,0.5,1.2,0.6,1.8c0.1,0.6,0.4,1.2,0.3,1.9
						c-0.1,0.6-0.2,1.3,0.3,1.9c-0.2,1,0.3,2.1-0.3,3.1c-0.1,0.2,0.3,0.6,0.6,1c-0.1,0.1-0.2,0.3-0.4,0.5c-0.1,0.1-0.2,0.2-0.1,0.3
						c0.5,1.3,0.1,2.6,0.2,3.9c0.1,1.3,0,2.6,0,3.9c0,0.5,0.1,1-0.2,1.5c-0.2,0.4-0.2,1.1,0.1,1.6c0.1,0.2,0.2,0.6,0.1,0.7
						c-0.4,0.4-0.2,0.8-0.3,1.2c-0.2,0.6,0.2,1.2,0,1.8c-0.2,0.6,0,1.4,0,2c0,0.3,0,0.6,0.1,0.9c0,0.3,0.3,0.6,0.2,0.8
						c-0.1,0.2-0.3,0.5-0.6,0.6c-0.7,0.3-1.2,0.9-2,0.7c-0.7,0.7-1.7,1.1-2.5,1.4c-0.6,0.2-1.2,0.5-1.7,0.7
						c-0.6,0.2-1.1,0.4-1.7,0.5c-0.8,0.1-1.5,0.5-2.3,0.8c-1.2,0.5-2.3,1.1-3.4,1.6c-0.5,0.2-1,0.2-1.5,0.3c-1,0.3-1.9,0.8-2.8,1.3"
						/>
					<path class="st0" d="M256.6,158.1c-0.3-1.3-0.8-2.5-0.7-3.8c0-0.5,0.2-1.1-0.3-1.7c-0.1-0.2-0.1-0.6,0-0.9
						c0.2-0.4,0.1-0.8-0.1-1.2c-0.1-0.2-0.2-0.4-0.2-0.6c-0.1-0.9,0.1-1.8-0.1-2.6c-0.2-0.9-0.1-1.7-0.1-2.6c0-0.9,0-1.8,0-2.6
						c0-1,0-2.1,0-3.1c0-1-0.3-1.9-0.6-2.8c-0.4-1.2-0.7-2.5-0.6-3.8c0-0.7,0-1.3-0.3-1.9c-0.4-1.1-0.7-2.3-0.6-3.6
						c0.1-0.9-0.2-1.6-0.4-2.5c-0.3-1.1-0.6-2.2-0.5-3.3c0-0.8,0-1.5-0.4-2.3c-0.4-0.7-0.5-1.6-0.4-2.4c0.1-1.6-0.5-3-0.8-4.5
						c-0.3-1.3-0.3-2.6,0-3.8c0-0.2,0.2-0.4,0.1-0.5c-0.6-1.1-0.1-2.3-0.3-3.4c-0.1-0.6,0.2-1.2-0.2-1.8c-0.3-0.5,0.1-1.2-0.3-1.8
						c-0.2-0.4-0.1-1,0-1.4c0-1.2-0.1-2.3-0.5-3.4c-0.2-0.5,0-1.2-0.3-1.8c-0.2-0.4-0.2-0.9-0.3-1.3c-0.3-0.4-0.9-0.7-0.9-1.3
						c0-1-0.3-1.9-0.6-2.8c-0.3-1.2-0.7-2.3-1.8-2.9c-5.2,0-10.5,0-15.7,0c-0.5,0-1-0.1-1.3,0.4c-0.1,0.1-0.4,0.2-0.6,0.2
						c-0.9,0-1.9,0-2.8,0c-0.6,0-1.2-0.1-1.8,0.2c-0.3,0.2-0.9,0.2-1.3,0c-1.2-0.4-2.3-0.3-3.4,0c-0.6,0.2-1.3-0.1-2-0.1
						c-0.4,0.9,0.1,1.9,0.3,2.9c0.1,0.5,0.7,1,1.1,1.6c0.2,3.2,0.2,3.2-0.5,3.9c-0.9-0.4-1.8-0.7-2.8-0.6c-3.8,0-7.5,0.1-11.3,0
						c-1.4,0-2,0.5-2.8,1.4c-0.2,0.3-0.5,0.4-0.9,0.4c-1.1-0.1-1.8,0.5-2.6,1.1c-0.6,0.4-1.3,0.9-2.1,1c-0.2,0-0.5,0.1-0.6,0.3
						c-0.7,0.7-1.4,1.3-2.4,1.2c-0.3,0.4-0.9,0.2-1.3,0.7c-0.5,0.6-1.4,0.9-2.3,1c-0.5,0.1-0.9,0.2-1.2,0.6
						c-0.3,0.4-0.8,0.8-1.2,1.2c-0.5,0-0.9,0-1.5,0c-0.6,0.6-1.3,1.1-1.4,2.2c0,0.3-0.6,0.5-0.6,0.9c-1.1,0.7-1,2.2-2,3
						c-0.2,0.9-0.7,1.6-1.4,2.2c-0.4,0.4-0.4,1-0.4,1.6c0,7.3,0,14.6,0,21.8c0,0.7,0,1.4,0,2.2c0.6,0.6,1.3,1.3,1.2,2.3
						c0.6,0.6,0.5,1.6,1.2,2.1c0.6,0.4,0.6,1.1,0.5,1.8c0,0.3,0,0.5,0.3,0.8c0.3,0.3,0.6,0.8,0.9,0.9c0.5,0.1,0.5,0.6,0.8,0.9
						c0.3,0.4,0.6,0.8,1.1,1c0.3,0.1,0.8,0.4,0.9,0.7c0.3,0.9,1.1,1.4,1.5,2.1c0.5,0.8,1.1,1.5,1.8,2.1c0.5-0.2,0.9,0.3,1.3,0.3
						c0.6,0,0.6,0.5,0.8,0.8c0.3,0.4,0.8,0.7,1.2,0.9c0.6,0.2,1,0.5,1.4,1.1c0.5,0.7,1.5,0.8,2.3,0.9c0.6,0.1,1.1,0.2,1.5,0.6
						c0.4,0.4,0.7,0.4,1.1,0c0.5-0.5,1.2-0.7,1.9-0.6c1.7,0,3.4-0.1,5.1,0c1.2,0.1,2.2-0.4,3.4-0.3c0.6-0.5,1.5-0.4,2.1-1
						c0.5-0.5,1.1-0.7,1.7-0.7c1.5-0.1,2.7-0.6,3.7-1.8c0.7,0,1.5,0.1,2.1,0c0.6-0.1,1.1-0.6,1.7-0.8c0.1,0.1,0.2,0.1,0.3,0.3
						c0.2,0.6,0.3,1.1,0.4,1.7c0,0.2,0,0.4,0,0.6c0,1,0,1.9,0,2.9c0,0.9,0.5,1.7,0.3,2.7c-0.1,0.7,0.3,1.2,0.9,1.4
						c0.7,0.2,1.4,0.3,2.1,0.3c0.8,0,1.6,0,2.3,0c1.1,0,2.1,0,3.2,0c0.3,0,0.6-0.1,1,0.2c0.2,0.1,0.5,0,0.8,0c0.2,0,0.5-0.2,0.6-0.1
						c0.6,0.4,1.3,0.2,1.9,0.3c0.5,0.1,1.1,0.1,1.6,0.3c0.4,0.2,0.7,0.2,1.1,0.3c0.2,0,0.5,0,0.5,0.1c0.4,0.7,1.1,0.5,1.7,0.5
						c3.8,0,7.5,0,11.3,0c0.6,0,1.3,0.1,1.9,0c0.6-0.1,1.1-0.4,1.6-0.7c0.5-0.3,1.1-0.4,1.7-0.4c0.4,0,0.9-0.2,1.4-0.3
						C257.2,159.9,256.8,159,256.6,158.1z M234.1,117.1c0.5,0,0.3,0.3,0.4,0.6c0.5-0.1,0.7,0.4,1.1,0.6c1.3,0.6,2.3,1.5,3.4,2.3
						c0.2,0.1,0.3,0.4,0.5,0.6c0.2,0,0.4,0,0.5,0.1c0.3,0.2,0.6,0.4,1,0.5c0.8,0.2,0.7,1,0.2,1.3c-0.3,0.2-0.8,0.2-0.9,0.8
						c-0.1,0.3-0.8,0.3-0.6,0.9c-0.8,0.5-0.8,1.4-1.4,2.1c-0.5,0.5-0.9,1.1-1.1,1.7c-0.2,0.7-1.1,1-1.1,1.9c0,0.4-0.7,0.6-1,1
						c-0.9,1.3-1.7,2.7-2.9,3.8c-0.3,0.3-0.6,0.8-0.7,1.3c-0.4,1-1.4,1.4-1.8,2.3c-0.3,0.5-0.6,1-0.9,1.5c-0.3,0.5-0.7,0.9-1,1.5
						c-0.5,1-1.3,1.8-2,2.7c-0.2,0.2,0,0.8-0.6,0.6c-0.3-0.1-0.5-0.3-0.7-0.4c-0.2-0.1-0.3-0.2-0.5-0.2c-0.8,0-1.3-0.4-1.9-0.9
						c-0.9,0-1.7-0.3-2.5-0.8c-0.8-0.4-1.5-1-2.5-1c0,0-0.1,0-0.1,0c-0.7-1.2-2.3-0.7-3-1.8c0,0-0.1-0.1-0.1-0.1
						c-0.9,0-1.4-0.8-2.1-0.9c-0.7-0.1-0.5-0.7-0.8-0.9c-0.1,0-0.2,0-0.3,0c-0.4,0-0.9,0-1.3,0c-0.5-0.4-0.8-1-1.5-0.9
						c-0.2-0.7-0.9-0.8-1.4-0.8c-0.6,0-0.3-0.8-0.9-0.7c-0.4,0.1-0.8-0.1-1.2-0.3c-0.2-0.1-0.3-0.7-0.5-0.8c-1.3-0.2-1.6-1.4-2.6-2
						c0-0.5,0-0.9,0-1.3c0-0.3,0-0.5-0.3-0.8c-0.5-0.4-0.3-1-0.6-1.5c-0.1-0.1,0.1-0.3,0.1-0.5c-0.3-0.3-0.6-0.5-0.8-0.7
						c0-0.8,0-1.4,0-2c0-0.5-0.2-1-0.3-1.5c0-0.3-0.1-0.4-0.4-0.5c-0.1,0-0.2-0.3-0.2-0.4c0-0.4-0.1-0.9,0-1.3
						c0.2-0.8-0.4-1.6-0.3-2.4c-1.2-0.8-0.4-2-0.6-2.9c-0.1-0.6-0.2-1.2-0.3-1.8c0-0.6,0-1.3,0-1.9c0-0.2,0-0.4,0-0.6
						c0.7-0.2,1.1-0.7,1.7-0.9c0.5-0.1,0.7-0.9,1.3-1c0.1,0,0.1-0.4,0.2-0.6c0.1-0.6,0.4-0.9,0.9-1.1c0.5-0.1,0.6,0.2,0.5,0.6
						c0.2,0,0.4,0,0.5-0.1c0.3-0.2,0.5-0.5,1-0.5c0.4-0.1,0.8-0.5,1.2-0.7c0.2-0.1,0.4-0.4,0.6-0.4c0.6,0.1,0.9-0.5,1.4-0.6
						c0.7-0.2,1.1-0.6,1.7-0.8c0.6-0.3,1.2-0.4,1.7-0.9c1,0,1.6-0.7,2.5-1.1c0.9-0.4,1.8-0.8,2.7-1.4c0.4-0.3,0.8-0.5,1.2-0.5
						c0.5-0.1,0.6-0.8,1.2-0.6c0.1,0,0.3-0.2,0.5-0.3c1.2-0.6,1.2-0.6,2.8-0.5c0,0.2,0,0.4,0,0.5c0.6,0,1.3-0.1,1.8,0.6
						c0.6,0,0.9,0.4,1.2,0.9c0.1,0,0.3,0,0.4,0c0.1,0,0.1,0.1,0.2,0.2c1.9,1.8,3.8,3.6,5.7,5.4c0.2,0.2,0.5,0.5,0.4,0.9
						c0.7-0.1,0.9,0.6,1.5,0.8c0,0,0,0.3,0,0.4c0.1,0,0.2,0,0.3,0c0.4,0,0.2,0.4,0.3,0.6c0.2,0,0.6-0.1,0.6,0.3
						c1.2,0.7,1.5,1.4,0.8,2.5"/>
				</g>
			</g>
		</g>
	</g>
</g>
<g id="_x27_i_x27___x2B___x27_e_x27_">
	<g id="Left_Shadow_1_">
	</g>
	<path class="st0" d="M270.2,243.7c-0.3-0.5-0.9-0.5-1.3-0.8c-0.3-0.4-0.9-0.4-1.3-0.7c-0.6-0.3-1.3-0.4-1.5-1.2
		c-0.1-0.3-0.4-0.5-0.6-0.8c0.2-1.1-0.5-1.9-1.2-2.5c0.2-1.3-0.3-2.2-1.1-3.1c-0.2-0.3-0.4-0.5-0.4-0.9c0.1-0.8-0.4-1.5-0.9-2.1
		c-0.5-0.6-0.9-1.3-0.8-2.1c0-0.5-0.2-0.7-0.5-1c-0.4-0.4-0.7-0.8-0.7-1.3c0-0.8-0.3-1.3-0.7-1.9c-0.2-0.3-0.3-0.8-0.5-1.1
		c-0.1-0.2-0.4-0.3-0.6-0.5c0-2.8,0-5.7,0-8.6c0-0.4-0.2-0.9,0.5-1c0.2,0,0.3-0.5-0.1-0.8c-0.5-0.3-0.4-0.4,0.2-0.7
		c0-1.1,0.5-2.2,0.3-3.4c0-0.1,0-0.2,0.1-0.3c0.6-0.9,0.5-2,0.5-3c0-1.2,0-2.4,0-3.7c0-0.6,0.1-1.2,0.3-1.8c0.2-0.6,0-1.2-0.3-1.8
		c0-0.1,0-0.2,0-0.3c0.4-0.2,0.3-0.6,0.3-0.9c0-0.4,0.1-0.6,0.3-0.9c0.5-0.6,1.1-1.2,0.8-2.1c0.4-0.4,0.1-1.1,0.4-1.4
		c0.7-0.8,1-1.6,1.2-2.6c0.1-0.9,0.2-2,1-2.6c0,0,0-0.2,0-0.3c-0.1-0.5,0.2-0.7,0.5-1c1.4-1.3,2.8-2.5,4.1-3.8
		c2.2-2.1,4.4-4.2,6.6-6.3c0.7-0.7,1.8-1,2.4-1.9c1.1,0,1.6-0.8,2.3-1.5c0.6,0.1,1.3,0,1.6-0.6c0.3-0.6,0.9-0.8,1.4-0.9
		c0.8-0.1,1.4-0.3,2-0.9c0.3-0.3,0.8-0.5,1.2-0.6c0.8-0.1,1.6,0,2.3,0c0.7,0,1.5-0.2,2.2-0.3c0.8,0,1.4-0.1,2.1-0.6
		c0.8-0.5,1.7-0.7,2.7-0.6c5.5,0.1,10.9,0,16.4,0c0.5,0,0.9,0,1.4,0.2c1.4,0.4,2.7,0.8,4.1,1c1.4,0.1,2.8,0.5,4.3,0.3
		c0.1,0.1,0.2,0.2,0.3,0.3c0.2,0.3,0.3,0.8,0.6,1c1.4,1.1,2.7,2.2,4.1,3.3c0.1,0.1,0.4,0.1,0.5,0.1c0.1,0.1,0.2,0.2,0.3,0.3
		c0.5,0.4,1.1,0.7,1.6,1.1c0.8,0.8,1.8,1.6,2.1,2.7c0.2,0.5,0.9,0.7,0.9,1.2c0,0.7,0.6,1,0.8,1.6c0.2,0.5,0.7,0.9,1.1,1.3
		c0,0.4,0,0.9,0.4,1.2c0.4,0.3,0.7,0.8,0.8,1.3c0.1,0.7,0.2,1.5,0.3,2.2c0.1,0.4,0.2,0.9,0.4,1.1c0.7,0.8,0.7,1.7,0.8,2.6
		c0,1.1,0.2,2.2,1.2,2.8c0,2.3,0,4.6,0,6.9c0,0.3,0,0.6-0.1,0.8c-0.9,0.9-0.7,2.2-1,3.3c-0.2,0.6,0,1.3-0.5,1.8
		c-0.5,0.5-0.4,1.4-1.1,1.7c-1.4,0-2.7,0.5-4,0.3c-0.5-0.1-1,0-1.5,0c-0.4,0-0.7,0.1-1.1,0.3c-1,0.7-2.2,0.7-3.3,0.8
		c-1.4,0.2-2.9,0.1-4.4,0c-1.5-0.1-2.8,0.3-4.3,0.3c-5.8,0-11.6,0-17.4,0c-0.3,0-0.6,0-0.9,0c-0.7,0-1.2,0.5-1.7,0.9
		c-0.4,0.3-0.3,0.8-0.3,1.2c0,0.6,0.1,1.2,0.2,1.8c0.2,0.9-0.1,1.9,0.6,2.7c0,0.1,0,0.2,0,0.3c-0.1,1.7,0.4,3.4,0.3,5.2
		c-0.1,1.5,0,3,0,4.5c-0.1,2.3,0.5,4.6,0.3,6.9c0,0.1,0,0.3,0,0.4c0.2,0.3,0.4,0.6,0.6,0.9c0.2,0.3,0.3,0.7,0.5,0.8
		c0.6,0.1-0.4,0.8,0.3,0.8c0.1,0.2,0.1,0.5,0.2,0.6c0.3,0.4,0.8,0.6,1,1.1c0.5,1.1,1.5,1.3,2.5,1.2c3.1-0.2,6.2,0.2,9.2-0.3
		c2-0.3,4-0.2,6-0.3c0.2,0,0.4,0,0.6-0.1c1.5-0.5,3-0.8,4.6-0.8c2.9,0,5.7,0,8.6,0c0.9-0.2,1.2,0.6,1.7,1c0,0.1,0,0.1,0,0.1
		c0,1.1-0.1,2.2,0.5,3.3c0.3,0.4,0.5,1.1,0.4,1.7c-0.1,0.3,0.2,0.6,0.3,0.9c0.1,0.4,0.2,0.8,0.3,1.2c0,0.5,0,0.9,0,1.3
		c-0.5,0.3-0.9,0.6-1.3,0.8c-0.6,0.3-1.2,0.6-1.8,0.9c-1.3,0.7-2.8,0.5-4.1,1.2c-0.2,0.1-0.5,0.3-0.8,0.3c-1.1-0.1-2.1,0.5-3.1,0.7
		c-1.7,0.5-3.4,0.7-5.1,1c-0.7,0.2-1.5,0.2-2.2,0.3c-0.8,0-1.6,0-2.3,0c-0.2,0-0.4,0.1-0.7,0.1c-0.9,0-1.7,0.8-2.6,0.2
		c-0.2-0.1-0.6-0.1-0.9,0.2c-0.5,0.5-1.1,0.4-1.7,0.4c-1.6,0-3.1-0.4-4.7-0.3c-1.1,0.1-2.2,0-3.4,0c-0.2,0-0.5,0.1-0.7,0
		c-1.4-0.6-2.9-0.5-4.3-0.8c-1.2-0.3-2.4-0.8-3.7-0.6c-0.1,0-0.1-0.2-0.2-0.2c-1.7-0.6-3.5-1-5.3-1c-0.2,0-0.4,0-0.6,0
		c-0.5-0.1-1.1-0.2-1.4-0.5c-0.6-0.6-1.2-1-2-1.1c-0.6-0.1-1-0.4-1.4-0.8c-0.3-0.3-0.5-0.4-1-0.5c-0.7-0.1-1.4-0.3-1.9-0.9
		c-0.2-0.3-0.5-0.5-1-0.5c-0.7-0.1-1.5-0.3-2-0.9c-0.2-0.2-0.4-0.5-0.7-0.5c-1.2,0-2-0.6-2.7-1.5
		C270.9,243.7,270.6,243.7,270.2,243.7z M300.7,197.4c3.7,0,7.4,0,11.1,0c0.3,0,0.7,0.1,0.9,0c0.8-0.6,1.8-0.7,2.6-1.1
		c0.9-0.4,1.8-1,2.2-2.1c0.2-0.4,0.5-0.6,0.5-1.1c0-0.5-0.2-0.9-0.5-1.3c-0.3-0.5-0.7-1-1-1.5c0-1.5-1.3-2.2-2-3.2
		c-0.6,0.1-0.9-0.4-1.2-0.7c-0.6-0.6-1.2-0.8-2-0.8c-1.8,0-3.6,0-5.4,0c-0.7,0-1.4-0.1-2,0.6c-0.1,0.2-0.5,0.3-0.7,0.3
		c-0.7,0.1-1.2,0.5-1.6,1c-0.4,0.5-0.9,0.9-1.1,1.4c-0.3,0.6-0.6,1.1-0.7,1.7c-0.2,0.6-1,1-1.1,1.7c-0.1,0.4-0.3,0.8-0.7,1
		c-0.6,0.4-0.5,1.1-0.8,1.6c-0.3,0.6,0.2,1.3,0.3,1.9c0,0.2,0.4,0.4,0.7,0.4C299,197.5,299.9,197.4,300.7,197.4z"/>
	<path class="st0" d="M291.6,77.3c0,0.5,0,0.9,0.5,1.2c0.3,0.1,0.6,0.4,0.9,0.6c0.1,0.7,0,1.4,0.3,2.1c0.2,0.6-0.1,1.3,0.3,1.9
		c0.1,0.2,0,0.6,0,0.9c0,0.9,0.2,1.8,0.4,2.7c0.2,1.2,0.3,2.5,0.5,3.7c0.2,0.7,0.2,1.5,0.4,2.2c0.1,0.6,0.1,1.1,0.2,1.7
		c0.1,0.6,0.2,1.2,0.3,1.8c0,0.4,0.1,0.9,0.3,1.2c0.4,0.5,0.2,1.1,0.3,1.6c0.1,0.6,0.2,1.1,0.3,1.6c0,0,0,0.1-0.1,0.1
		c-0.4,0.3-0.2,0.5,0,0.8c0.2,0.2,0.3,0.5,0.3,0.7c0.1,1.3,0.2,2.6,0.3,3.8c0,0.7,0,1.4,0.4,2c0.1,0.2,0.1,0.5,0.2,0.8
		c0,0.7,0,1.4,0,2.1c0.1,0.8,0.1,1.7,0.4,2.3c0.4,0.7,0.6,1.4,0.4,2.2c-0.1,0.9,0.8,1.4,0.6,2.3c0,0.1,0,0.2,0,0.3
		c0,0.1,0.1,0.3,0.1,0.4c0.6,0.7,0.5,1.7,0.7,2.5c0.2,0.7,0.2,1.5,0.3,2.2c0.1,0.8,0.4,1.5,0.6,2.3c0.4,1.2,0.4,2.6,0.6,3.8
		c0.2,1.1,0.2,2.3,0.3,3.4c0,0.1,0,0.2,0,0.3c0.6,0.5,0.1,1.2,0.3,1.8c0.3,0.6,0.3,1.2,0.3,1.8c0,0.5,0,1,0,1.5c0,0.4,0,0.6,0.3,0.9
		c0.4,0.4,0.3,0.7,0,1.1c-0.2,0.2-0.4,0.5-0.5,0.8c-0.2,0.8-0.9,1.2-1.5,1.3c-0.5,0.1-0.8,0.3-1.1,0.6c-0.3,0.2-0.6,0.6-0.9,0.6
		c-0.6-0.1-1.1,0.3-1.6,0.4c-0.7,0.1-1.4,0.2-1.9,0.8c-0.4,0.5-0.9,0.5-1.3,0.2c-0.3-0.2-0.5-0.2-0.8-0.2c-1.1,0.1-2.3-0.3-3.4,0.3
		c-0.2,0.1-0.4,0.1-0.6,0c-0.7-0.5-1.4-0.3-2.1-0.3c-0.7,0-1.5-0.3-2.2,0.3c-0.1,0.1-0.4,0.1-0.5,0c-0.4-0.4-0.8-0.2-1.2-0.2
		c-1.3,0-2.6,0.1-3.9-0.6c-0.1-0.1-0.4,0-0.6,0c-0.3-0.5-0.9-0.6-1.3-0.8c-1.2-0.6-1.2-0.6-1.9-1.6c-0.4-0.5-0.7-1.3-1.6-1.1
		c-0.4-0.2,0.2-0.8-0.5-0.9c-0.5,0-0.1-0.6-0.2-0.9c0-0.9,0-1.8,0-2.6c0.8-1-0.4-2.1,0-3.1c-0.5-0.4-0.2-1-0.3-1.5
		c-0.1-0.5-0.2-1.1-0.3-1.6c0-0.1,0-0.3,0-0.3c0.7-0.4,0-0.8-0.1-1.2c0-0.2-0.3-0.5-0.2-0.8c0.1-0.7-0.3-1.5,0.3-2.2
		c0.1-0.2,0-0.7-0.1-0.9c-0.2-0.5-0.3-1,0.2-1.4c0.1-0.1,0.3-0.3,0.2-0.5c-0.1-0.6-0.5-1.1,0-1.7c-0.5-0.6-0.1-1.4-0.3-2.1
		c-0.3-0.6-0.2-1.2-0.3-1.8c-0.1-0.6-0.3-1.3-0.3-1.9c0-1.8,0-3.6,0-5.4c0-0.6,0.4-1.3,0.2-1.8c-0.2-0.5-0.2-1-0.2-1.5
		c0-0.7,0-1.4,0-2.1c0-0.2,0.1-0.5,0-0.6c-1-0.7-0.5-1.8-0.6-2.7c-0.2-1.2,0.3-2.5-0.3-3.7c-0.1-0.3-0.1-0.8,0.1-1
		c0.3-0.3,0.2-0.6,0.2-0.9c0-1.1,0-1.1,0.6-1.9c-0.2-0.3-0.5-0.5-0.8-0.9c0.8-0.6,1.1-1.5,1-2.4c0-1,0.1-1.1,0.7-2.2
		c0.2-0.4,0.5-1,0.4-1.4c-0.3-0.5-0.1-1-0.2-1.4c0.3-0.3,0.6-0.5,0.8-0.8c0.1-0.1,0-0.4,0.1-0.5c0.3-0.4,0.5-0.9,0.9-1.1
		c0.9-0.6,1.8-1.3,2.5-2.1c0.4-0.4,1-0.6,1.2-1.2c0.3-0.8,1.1-0.4,1.6-0.7c0.6-0.3,1.4-0.5,2.2-0.4c1.4,0.2,2.8-0.4,4.3-0.3
		c0.1,0,0.3,0,0.4-0.1c0.5-0.7,1.2-0.5,1.8-0.5C289.7,77.3,290.6,77.3,291.6,77.3z"/>
</g>
<g id="_x27_m_x27_">
	<g id="Left_Shadows_1_">
	</g>
	<path class="st0" d="M20.3,175.4c-0.6,0-1.2,0-1.8,0c-0.4,0-0.8,0-1.2-0.4c-0.4-0.4-1.1-0.3-1.3-0.1c-0.7,0.6-1.1-0.1-1.6-0.3
		c-0.3-0.1-0.6-0.5-0.8-0.8c-0.1-0.6,0.2-1.3-0.3-1.9c-0.1-0.1,0-0.4,0.1-0.5c0.4-1.2,0.2-2.4,0.1-3.5c-0.1-0.6-0.2-1.8-0.2-2.3
		c0-0.9,0.2-1.6,0.6-2.5c-0.2-0.2-0.4-0.5-0.7-0.7c0.1-0.3,0.2-0.6,0.4-0.8c0.4-0.3,0.4-0.8,0.2-1.1c-0.4-0.5-0.2-1.1-0.3-1.7
		c-0.1-1.7,0-3.5-0.3-5.1c-0.4-1.8-0.1-3.5-0.2-5.3c0-0.7,0-1.3-0.4-1.9c-0.1-0.1-0.2-0.3-0.2-0.5c-0.1-1.8-0.2-3.5-0.3-5.3
		c0-0.4,0.1-0.9-0.3-1.2c-0.2-0.1-0.2-0.4-0.2-0.6c0-0.4-0.1-0.8-0.3-1.2c-0.3-0.5-0.4-1.1-0.6-1.7c-0.1-0.5,0.1-1.1-0.2-1.7
		c-0.2-0.5-0.1-1.2-0.1-1.9c0-0.2,0-0.5-0.2-0.7c-0.5-0.4-0.4-0.8-0.4-1.3c0-0.8,0.1-1.7,0-2.5c-0.5-2.4-0.1-4.9-0.3-7.4
		c0-0.4-0.2-1,0.3-1.4c0.1-0.1,0.1-0.4,0-0.6c-0.6-1.6-0.2-3.3-0.3-5c0-0.6,0-1.1-0.3-1.6c-0.4-0.6-0.3-1.4-0.3-2.1
		c0.1-1.3-0.5-2.6-0.3-4c0-0.1,0-0.2-0.1-0.3C7.8,105,8,104.1,8,103.2c-0.1-1-0.2-2-0.4-3c-0.4-0.4-0.8-0.8-1.3-1.3
		c-0.3-1-0.2-2.1-0.7-3.1c-0.1-0.2-0.1-0.6,0-0.9c0.2-0.8,0.1-1.5,0-2.3c-0.1-0.8-0.3-1.5-0.5-2.3c-0.2-0.9-0.3-1.8-0.1-2.7
		c0.3-1.8,0.5-2.7-0.2-4.5c0-0.1-0.1-0.2-0.2-0.4c0-0.6,0-1.3,0-1.9c0-0.5-0.3-1.1-0.3-1.6C4.6,78.1,4,77,4.2,75.9c0,0,0-0.1,0-0.1
		c-1-1.1-0.5-2.5-0.6-3.7c0-0.2,0.1-0.6,0-0.7c-0.7-0.9-1-2-0.9-3.2c-0.6-0.7-0.1-1.6-0.3-2.5c-1-0.6-1.3-1.8-1.7-2.8
		c0-0.1,0-0.2,0-0.3c-1.1-1-0.4-2.3-0.6-3.4c0-0.4,0.8-0.6,0.6-1.2c0.7-0.7,1.3-1.4,2-2.1c0.3-0.3,0.8-0.5,1.1-0.5
		c0.8,0.1,1.3-0.5,1.9-0.8c0.1-0.1,0.2-0.2,0.3-0.3c1-0.7,2-1.2,3.2-1c1.2,0.3,2.1-0.5,2.9-1.1c1.1-0.9,2.3-1.1,3.6-1.2
		c0.5,0,1-0.3,1.5-0.3c0.7,0,1.4-0.3,2.1-0.4c0.9-0.1,1.6-0.8,2.4-1.2c0.1-0.1,0.2-0.1,0.4-0.2c0.9,0,1.7-0.5,2.6-0.3
		c0.1,1.1,0.5,2.1,0.9,3.1c0.6,1.6,1.3,3.2,1.2,4.9c0,0.2,0,0.5,0.1,0.7c0.4,0.5,0.3,1.1,0.5,1.7c0.2,0.7,0.2,1.3,0.3,1.9
		c0,0.1,0.2,0.2,0.3,0.2c0,0.6,0,1.1,0,1.7c1.2,0.2,2.1-0.5,2.9-0.9c1.4-0.7,2.8-1.5,3.9-2.6c0.8-0.8,1.9-1.1,2.9-1.5
		c1.2-0.4,2.4-0.9,3.5-1.4c0.9-0.4,1.8-0.7,2.8-0.7c0.4,0,0.7-0.1,1.1-0.2c1.3-0.5,2.7-0.9,4-1.2c0.4-0.1,0.9-0.3,1.2-0.6
		c0.7-0.5,1.4-1.1,2.1-1.8c0.4-0.4,0.9-0.6,1.5-0.6c1-0.1,2-0.2,3-0.4c0-0.2,0-0.4,0-0.5c0.6,0,1.2,0,1.8,0c0.8,0,1.6,0,2.3,0
		c0.8,0.1,1.6,0.4,2.4,0.2c0.9-0.1,1.3,0.7,2.1,0.6c0,0,0.1,0,0.1,0c0.5,0.5,1.2,0.1,1.8,0.3c0.6,0.1,1,0.7,1.7,0.6
		c0.3,0,0.7-0.1,0.9,0.3c0.6-0.2,0.9,0.6,1.4,0.6c0.5,0,0.9,0.2,1.3,0.5c0.2,0.2,0.7,0.2,1,0.4c0.8,0.3,1.6,0.5,2.2,0.9
		c1.6,1.2,3.3,2,4.7,3.4c0.6,0.6,1.3,1.1,1.9,1.7c0.1,0.1,0.4,0.1,0.5,0.1c0,0.1,0,0.2,0,0.3c0.3,0.8,1.3,1,1.7,1.7
		c0,0,0.5,0.2,0.7-0.2c0.2-0.4,0.5-0.9,0.9-1.2c0.8-0.7,1.8-0.7,2.6-1.1c0.6-0.3,1.2-0.4,1.9-0.4c0.8-0.8,2-1.1,2.9-1.8
		c0.9-0.6,1.8-1.2,2.7-1.7c0.7-0.4,1.5-0.8,2.3-1.2c0.8-0.4,1.3-1.1,2.2-1.4c0.8-0.3,1.4-0.8,2.1-1.2c0.7-0.4,1.4-0.6,2.1-0.9
		c0.7-0.4,1.5-0.6,2.3-0.9c1-0.4,2.1-0.7,3.1-0.9c1.1-0.2,2.3-0.3,3.4-0.7c0.4-0.1,0.7-0.2,1.1-0.2c0.5,0,1-0.1,1.5-0.3
		c0.6-0.2,1.3-0.3,1.9-0.3c0.8,0,1.7,0,2.3-0.4c0.6-0.5,1.2-0.4,1.9-0.4c1.5,0,2.9,0,4.4,0c1.2,0,2.5-0.2,3.4,0.9c1,0,1.7,0.8,2.7,1
		c0.9,0.2,1.7,0.9,2.5,1.3c1.5,0.8,3.1,1.6,4.6,2.4c0.5,0.3,1.1,0.4,1.4,0.8c1,0.9,2.5,1.3,3.4,2.4c2.9,2,2.8,2,4.3,4.2
		c0.4,0.6,0.8,1.1,1.3,1.7c1.1,1.2,2,2.5,2.9,3.8c0.1,0.1,0.2,0.3,0.2,0.5c0,1.4,0.3,2.7,0.9,4c0.3,0.6,0.3,1.4,0.6,1.9
		c0.4,0.7,0.3,1.4,0.5,2.1c0.2,0.7,0.6,1.4,0.6,2.2c0,0.9,0.4,1.6,0.7,2.4c0.2,0.4,0.5,0.8,0.5,1.3c0,0.5,0.3,0.9,0.6,1.4
		c0.3,0.5,0.2,1,0.4,1.5c0.2,0.5,0.5,1,0.5,1.6c0,0.6,0.4,1.1,0.3,1.8c-0.1,0.4,0,0.7,0.3,1.1c0.2,0.2,0.3,0.5,0.3,0.7
		c-0.1,1,0.4,1.9,0.7,2.8c0.5,1.4,0.9,2.7,1.6,4c0.6,1.2,0.8,2.5,1.4,3.7c0.1,0.1,0.1,0.3,0.1,0.4c-0.2,0.9,0.3,1.7,0.3,2.5
		c0,0.4,0.2,0.9,0.3,1.3c0.1,0.5-0.2,1.1,0.3,1.5c0,1.2,0.1,2.3,0.5,3.4c0.4,1.2,0.3,2.5,0.4,3.8c0.1,0.7-0.2,1.5,0.3,2.2
		c0.1,0.2,0,0.5-0.1,0.8c0,0.3-0.2,0.5-0.2,0.8c0,0.5,0.2,1.1,0.3,1.6c0,0.6,0,1.2,0,1.8c0,0.1,0.1,0.2,0.1,0.2
		c0.7,1.3,0.4,2.8,0.7,4.2c0.1,0.4,0,0.8,0,1.2c0,0.4,0,0.8-0.2,1.1c-0.4,0.5,0.5,0.6,0.2,1c0,0.1,0,0.2,0,0.3
		c-0.4,0.4-0.4,0.7-0.1,1.1c0.3,0.4-0.1,1,0.4,1.3c0.4,0.2,0.2,0.6,0.2,0.9c0,1-0.1,2.1,0.5,3c0,0.1,0.1,0.2,0.1,0.3
		c0,0.6,0,1.3,0,1.9c0,0.6,0.2,1.2,0.3,1.8c0.1,0.9-0.1,1.7-0.3,2.5c-0.2,1.3,0.3,2.5,0.3,3.7c0.2,0.1,0.4,0.1,0.5,0.1
		c0,1.4,0,1.4-0.6,2.8c-0.1,0.2-0.2,0.4-0.2,0.6c0.2,1.6-0.3,3.1-0.3,4.7c0,0.9-0.8,1.7-1.7,2c-1.4,0.6-2.9,0.7-4.2,1.4
		c-0.5,0.3-1.1,0.4-1.6,0.5c-0.9-0.7-1.7,0.4-2.6,0.1c-0.4,0.7-1.1,0.1-1.7,0.5c-0.5,0.3-1.2,0.1-1.8,0.1c-0.9,0-1.6,0.4-2.5,0.3
		c-0.5,0-1,0.3-1.5,0.5c-0.5,0.2-0.9,0.4-1.5,0.3c-0.7-0.1-1,0.3-1.2,0.9c-0.5,0.1-1.1-0.1-1.5,0.3c-0.1,0.1-0.6-0.3-0.9-0.2
		c-1.6,0.6-3.3,0.5-4.9,0.8c-0.7,0.1-1.5,0-2.2,0c-0.5-0.1-1-0.2-1.5-0.3c-0.5,0-1,0-1.4,0c-0.5,0-0.9-0.1-1.4,0.2
		c-0.3,0.2-0.9,0.1-1.3-0.2c0-0.2,0-0.4,0-0.6c-0.2-0.6-0.3-1.2-0.5-1.8c-0.2-0.6,0.1-1.4-0.6-1.8c-0.2-1.4-0.6-2.8-0.6-4.1
		c0-2.3-0.1-4.5,0.2-6.8c0.3-2.3,0-4.7,0.1-7c0-0.5-0.1-1-0.3-1.5c-0.4-0.7-0.6-1.5-0.6-2.3c0-0.4,0.2-0.9-0.3-1.2
		c0.2-0.7-0.8-1.5,0-2.2c0.2-1.5-0.3-3-0.3-4.6c-0.6-0.4-0.1-1.2-0.5-1.7c-0.3-0.5,0-1.1,0.2-1.7c0.2-0.9,0.1-4.7-0.3-5.6
		c-0.5-1.2-0.5-2.4-0.8-3.6c-0.3-1.2-0.7-2.4-0.6-3.7c-0.6-0.4,0-1.2-0.5-1.7c-0.7-0.8-0.5-2-1.3-2.8c0-0.8-0.5-1.2-0.8-1.9
		c-0.3-0.6,0.1-1.4-0.4-2c0-1.4-0.5-2.7-0.9-4c-0.3-1-0.4-2.2-1.4-2.8c0-0.3,0-0.4,0-0.5c0.1-1.8-0.6-2.2-2.2-2.9
		c-1-0.4-2-0.8-3.1-1.1c-0.5-0.2-1-0.3-1.5-0.7c-0.3-0.3-0.7-0.3-1,0c-0.3,0.2-0.5,0.4-0.8,0.7c-0.7,0.2-0.9,1-1.7,1.3
		c-1.3,0.5-2.6,1.1-3.9,1.6c-0.9,0.3-1.6,0.8-2.2,1.5c-0.3,0.3-0.5,0.7-0.5,1.2c0,1.5-0.2,3-0.6,4.4c-0.2,0.9-0.2,1.8-0.3,2.7
		c0,1,0.2,2-0.3,3c0.1,1.6-0.5,3.1-0.3,4.7c0.1,1.1,0.1,2.1,0,3.2c0,1.1-0.1,2.2-0.3,3.2c-0.3,1.2-0.7,2.4-0.6,3.7
		c-0.5,0.6-0.2,1.4-0.3,2.1c-0.1,0.7-0.3,1.4-0.3,2.1c0,2.4-0.1,4.8,0,7.2c0.1,2.4-0.3,4.8,0.3,7.2c0.2,0.8,0,1.6,0,2.5
		c-0.2,0-0.4,0-0.5,0.1c-0.9,1-2.3,1.2-3.5,1.4c-1.6,0.3-3.3,0.3-5,0.3c-0.7,0-1.3,0.1-2,0.5c-1.2,0.7-2.5,1-3.8,1
		c-0.6,0-1.3,0-1.9,0c-0.6,0-1.2-0.2-1.8-0.3c-1.1,0-2.1,0-3.2,0c-0.8,0-1.5-0.5-2.3-0.3c-0.1-0.6-0.7-0.6-1-0.8
		c-0.9-0.5-1.8-1.1-2.4-2c-0.5-0.7-0.5-1.7-1.3-2.3c-0.1,0,0-0.3,0-0.4c-0.4-0.9-0.2-1.9-0.3-2.8c0-0.3-0.1-0.6-0.2-0.8
		c-0.4-0.3-0.4-0.7-0.3-1c0.1-0.7-0.2-1.3-0.5-1.8c-0.3-0.4-0.4-0.7-0.4-1.2c0-0.5,0-1.1,0-1.6c-0.4-0.3-0.6-0.6-0.6-1.2
		c0-0.6,0.2-1.3-0.1-1.7c-0.8-1.4-0.8-3-1-4.5c-0.2-1.3-0.1-2.6-0.6-3.8c0.2-1.3-0.3-2.6-0.3-4c0-0.9-0.1-1.8-0.4-2.6
		c-0.3-0.9-0.6-1.9-0.5-2.9c0-0.4-0.2-0.7-0.3-1.1c-0.3-0.6-0.5-1.2-0.7-1.7c-0.2-0.5-0.2-1-0.7-1.3c0.2-0.8-0.3-1.2-0.8-1.7
		c-0.1-0.1-0.1-0.2-0.1-0.3c0.2-0.7-0.4-1-0.7-1.5c-0.3-0.4-0.5-1-0.8-1.1c-0.6-0.1-0.9-0.5-1.3-0.7c-0.5-0.2-1-0.4-1.5-0.5
		c-1-0.1-2-0.4-2.9,0.5c-0.7,0.3-1.4,0.8-2.1,0.5c-0.5-0.2-0.9-0.3-1.4,0c-0.4,0.2-1,0.3-1.5,0.3c-0.4,0-0.7,0.2-0.9,0.5
		c-0.1,0.1-0.2,0.3-0.3,0.3c-1.3,0.6-2.3,1.5-3.2,2.5c-0.8,1-1.5,2.1-1.5,3.5c0.1,2.3,0,4.7,0,7c0,0.5,0.2,1.1-0.3,1.5
		c0.1,1-0.4,1.9-0.5,2.8c-0.1,1.3-0.5,2.5-0.3,3.8c0,0.2,0,0.5-0.1,0.7c-0.5,1.3-0.5,2.7-0.8,4.1c-0.2,0.8-0.1,1.6-0.4,2.3
		c-0.6,1.7-0.8,3.4-0.8,5.1c-0.1,11.5,0,23,0,34.6c0,0.4,0,0.8,0.1,1.1c0,0.3,0.1,0.6,0.2,0.8c-0.5,0.1-0.9,0.1-1.2,0.3
		c-1,0.4-2,0.8-3.1,0.7c-1.2-0.2-2.1,0.9-3.3,0.7c-0.1,0-0.1,0.1-0.2,0.2c-0.8,0.6-1.8,1.1-2.8,0.9c-1.3-0.2-2.3,0.8-3.6,0.6
		c-0.1,0-0.2,0.1-0.2,0.1c-0.5,0.5-1.2,0.9-1.8,1c-0.7,0.1-1.4,0.5-2.1,0.1c-0.1-0.1-0.4,0-0.4,0c-0.5,0.8-1.3,0.5-2,0.5
		c-0.2,0-0.7,0-0.7,0.1c-0.1,0.8-0.7,0.5-1.1,0.5C21.5,175.5,20.9,175.4,20.3,175.4z"/>
</g>
<path class="st0" d="M416.4,215.2c-0.3-0.5-0.5-1.1-0.8-1.7s-0.5-1.1-0.8-1.7c-0.2-0.4-0.4-0.7-0.8-1c-0.2-0.1-0.4-0.3-0.5-0.5
	c0-0.1-0.1-0.2-0.3-0.2c-0.4-0.1-0.7-0.4-0.9-0.8c-0.2-0.3-0.5-0.4-0.7-0.6c-0.1-0.1-0.2-0.1-0.3-0.1c-0.1-0.6-0.6-0.8-1.1-1
	c-0.1-0.4-0.3-0.7-0.8-0.9c-0.1,0-0.3-0.1-0.3-0.2c-0.1-0.4-0.5-0.5-0.8-0.8c-0.1-0.1-0.3-0.1-0.4-0.1c-0.3,0-0.6,0.1-0.9,0
	c-0.1,0-0.2,0-0.3,0c-0.3-0.1-0.6,0.2-0.9,0c-0.3-0.1-0.6,0-0.9,0c-0.2,0-0.5,0-0.7-0.1c-0.1,0-0.2-0.1-0.4,0
	c-0.4,0.1-0.8,0-1.2-0.1c-0.4,0-0.7,0-1.1,0c-0.4,0-0.7,0-1.1,0c-0.6,0-1.3,0-1.9,0.1c-0.2-0.1-0.4-0.2-0.6-0.3
	c-0.2,0.1-0.5,0.2-0.7,0.3c0,0,0,0,0,0c-0.1,0-0.1,0-0.2,0.1c-0.1-0.1-0.2-0.1-0.3-0.2c-0.7,0.1-1.1,0.7-1.8,0.5c0,0-0.1,0-0.2,0.1
	c-0.1,0.1-0.3,0.1-0.4,0.2c-0.7,0.3-1.4,0.6-2.1,0.9c0,0,0,0,0,0c-0.5,0.2-1,0.5-1.5,0.7c0,0,0,0-0.1,0c-1.1,0.5-2.2,1-3.3,1.5
	c-0.2,0.1-0.4,0.2-0.5,0.3c0.2,0.3-0.3,0.2-0.3,0.5c0,0.1-0.1,0.2-0.2,0.3c-0.6,0.3-1.2,0.7-1.8,1c-0.4,0.2-0.7,0.4-0.8,0.8
	c-0.1,0.3-0.4,0.5-0.7,0.6c0,0.1-0.1,0.2-0.1,0.3c0,0,0,0,0,0c-0.3,0.3-0.7,0.4-1,0.6c-0.4,0.3-0.9,0.6-1.2,1.2
	c-0.1,0.2-0.4,0.4-0.4,0.7c0,0.3,0.2,0.5,0.3,0.8c0,0,0,0.1,0.1,0.1c0,0,0,0,0,0c-0.2,0.4-0.3,0.9-0.5,1.3c-0.5,0.9-0.7,1.8-1.1,2.7
	c-0.1,0.3-0.2,0.6-0.4,0.8c-0.2,0.3-0.1,0.6-0.1,0.9c0,0.3-0.2,0.6-0.1,0.9c0,0.1,0,0.2,0.1,0.3c0.3,0.5,0.3,1.1,0,1.5
	c0.1,0.4,0.2,0.8,0.3,1.1c0,0.2,0,0.4-0.1,0.6c0,0.1,0,0.2,0,0.4c0.4,0.9,0.8,1.9,1.2,2.8c0.2,0.5,0.5,1,0.7,1.6
	c-0.1,0.2-0.2,0.3,0,0.5c0.3,0.5,0.3,1.1,0.6,1.7c0.3,0.5,0.5,1.1,0.8,1.7c0.3,0.6,0.5,1.1,0.8,1.7c0.2,0.4,0.4,0.7,0.8,1
	c0.2,0.1,0.4,0.3,0.5,0.5c0,0.1,0.1,0.2,0.3,0.2c0.4,0.1,0.7,0.4,0.9,0.8c0.2,0.3,0.5,0.4,0.7,0.6c0.1,0.1,0.2,0.1,0.3,0.1
	c0.1,0.6,0.6,0.8,1.1,1c0.1,0.4,0.3,0.7,0.8,0.9c0.1,0,0.3,0.1,0.3,0.2c0.1,0.4,0.5,0.5,0.8,0.8c0.1,0.1,0.3,0.1,0.4,0.1
	c0.3,0,0.6-0.1,0.9,0c0.1,0,0.2,0,0.3,0c0.3,0.1,0.6-0.2,0.9,0c0.3,0.1,0.6,0,0.9,0c0.2,0,0.5,0,0.7,0.1c0.1,0,0.2,0.1,0.4,0
	c0.4-0.1,0.8,0,1.2,0.1c0.4,0,0.7,0,1.1,0c0.4,0,0.7,0,1.1,0c0.6,0,1.3,0,1.9-0.1c0.2,0.1,0.4,0.2,0.6,0.3c0.2-0.1,0.5-0.2,0.7-0.3
	c0,0,0,0,0,0c0.1,0,0.1,0,0.2-0.1c0.1,0.1,0.2,0.1,0.3,0.2c0.7-0.1,1.1-0.7,1.8-0.5c0,0,0.1,0,0.2-0.1c0.1-0.1,0.3-0.1,0.4-0.2
	c0.7-0.3,1.4-0.6,2.1-0.9c0,0,0,0,0,0c0.5-0.2,1-0.5,1.5-0.7c0,0,0,0,0.1,0c1.1-0.5,2.2-1,3.3-1.5c0.2-0.1,0.4-0.2,0.5-0.3
	c-0.2-0.3,0.3-0.2,0.3-0.5c0-0.1,0.1-0.2,0.2-0.3c0.6-0.3,1.2-0.7,1.8-1c0.4-0.2,0.7-0.4,0.8-0.8c0.1-0.3,0.4-0.5,0.7-0.6
	c0-0.1,0.1-0.2,0.1-0.3c0,0,0,0,0,0c0.3-0.3,0.7-0.4,1-0.6c0.4-0.3,0.9-0.6,1.2-1.2c0.1-0.2,0.4-0.4,0.4-0.7c0-0.3-0.2-0.5-0.3-0.8
	c0,0,0-0.1-0.1-0.1c0,0,0,0,0,0c0.2-0.4,0.3-0.9,0.5-1.3c0.5-0.9,0.7-1.8,1.1-2.7c0.1-0.3,0.2-0.6,0.4-0.8c0.2-0.3,0.1-0.6,0.1-0.9
	c0-0.3,0.2-0.6,0.1-0.9c0-0.1,0-0.2-0.1-0.3c-0.3-0.5-0.3-1.1,0-1.5c-0.1-0.4-0.2-0.8-0.3-1.1c0-0.2,0-0.4,0.1-0.6
	c0-0.1,0-0.2,0-0.4c-0.4-0.9-0.8-1.9-1.2-2.8c-0.2-0.5-0.5-1-0.7-1.6c0.1-0.2,0.2-0.3,0-0.5C416.7,216.3,416.7,215.7,416.4,215.2z"
	/>
<path class="st0" d="M277.2,37.2c-0.5,0.1-0.9,0.1-1.4,0.1c-0.5,0-0.9,0.1-1.4,0.1c-0.3,0-0.6,0.1-0.9,0.3c-0.2,0.1-0.3,0.2-0.5,0.2
	c-0.1,0-0.2,0.1-0.2,0.1c-0.2,0.2-0.5,0.4-0.8,0.4c-0.3,0.1-0.4,0.3-0.6,0.4c-0.1,0-0.1,0.1-0.2,0.2c-0.5-0.1-0.8,0.2-1,0.6
	c-0.3,0-0.6,0-0.8,0.3c-0.1,0.1-0.2,0.2-0.2,0.1c-0.3,0-0.5,0.2-0.8,0.4c-0.1,0.1-0.2,0.2-0.2,0.3c-0.1,0.2-0.1,0.5-0.3,0.6
	c-0.1,0,0,0.1-0.1,0.2c-0.2,0.2,0,0.5-0.2,0.7c-0.2,0.2-0.2,0.4-0.3,0.6c-0.1,0.2-0.2,0.3-0.2,0.5c0,0.1-0.1,0.2-0.1,0.2
	c0,0.3-0.2,0.6-0.4,0.9c-0.1,0.3-0.2,0.5-0.3,0.8c-0.1,0.2-0.2,0.5-0.3,0.8c-0.2,0.5-0.3,0.9-0.4,1.4c-0.1,0.1-0.2,0.2-0.3,0.4
	c0,0.2,0,0.4,0.1,0.6c0,0,0,0,0,0c0,0.1,0,0.1,0,0.2c-0.1,0.1-0.2,0.1-0.2,0.2c-0.1,0.5,0.2,1-0.1,1.5c0,0,0,0.1,0,0.1
	c0,0.1,0,0.2,0,0.3c0.1,0.6,0.1,1.2,0.2,1.8c0,0,0,0,0,0c0,0.4,0.1,0.8,0.1,1.3c0,0,0,0,0,0.1c0.1,0.9,0.2,1.9,0.3,2.8
	c0,0.2,0,0.3,0.1,0.5c0.3-0.1,0.1,0.3,0.3,0.3c0.1,0,0.1,0.1,0.1,0.2c0.1,0.5,0.2,1,0.2,1.6c0,0.3,0.1,0.6,0.3,0.8
	c0.2,0.2,0.3,0.4,0.3,0.6c0.1,0.1,0.1,0.1,0.2,0.2c0,0,0,0,0,0c0.1,0.3,0.1,0.6,0.2,0.9c0.1,0.4,0.2,0.8,0.5,1.2
	c0.2,0.1,0.2,0.4,0.4,0.5c0.2,0.1,0.4,0,0.7,0c0,0,0.1,0,0.1,0c0,0,0,0,0,0c0.3,0.2,0.6,0.4,0.8,0.7c0.5,0.6,1.1,1,1.7,1.5
	c0.2,0.2,0.4,0.3,0.5,0.5c0.2,0.2,0.4,0.2,0.7,0.4c0.2,0.1,0.4,0.3,0.6,0.3c0.1,0,0.2,0,0.2,0c0.5-0.1,0.8,0,1.1,0.4
	c0.3,0,0.6,0,0.9,0.1c0.2,0,0.3,0.1,0.4,0.2c0.1,0.1,0.2,0.1,0.3,0.1c0.8,0,1.6-0.1,2.4-0.1c0.4,0,0.9-0.1,1.3-0.1
	c0.1,0.1,0.2,0.2,0.4,0.2c0.5-0.1,0.9,0.1,1.4,0c0.5-0.1,0.9-0.1,1.4-0.1s0.9-0.1,1.4-0.1c0.3,0,0.6-0.1,0.9-0.3
	c0.2-0.1,0.3-0.2,0.5-0.2c0.1,0,0.2-0.1,0.2-0.1c0.2-0.2,0.5-0.4,0.8-0.4c0.3-0.1,0.4-0.3,0.6-0.4c0.1,0,0.1-0.1,0.2-0.2
	c0.5,0.1,0.8-0.2,1-0.6c0.3,0,0.6,0,0.8-0.3c0.1-0.1,0.2-0.2,0.2-0.1c0.3,0,0.5-0.2,0.8-0.4c0.1-0.1,0.2-0.2,0.2-0.3
	c0.1-0.2,0.1-0.5,0.3-0.6c0.1,0,0-0.1,0.1-0.2c0.2-0.2,0-0.5,0.2-0.7c0.2-0.2,0.2-0.4,0.3-0.6c0.1-0.2,0.2-0.3,0.2-0.5
	c0-0.1,0.1-0.2,0.1-0.2c0-0.3,0.2-0.6,0.4-0.9c0.1-0.3,0.2-0.5,0.3-0.8c0.1-0.2,0.2-0.5,0.3-0.8c0.2-0.5,0.3-0.9,0.4-1.4
	c0.1-0.1,0.2-0.2,0.3-0.4c0-0.2,0-0.4-0.1-0.6c0,0,0,0,0,0c0-0.1,0-0.1,0-0.2c0.1-0.1,0.2-0.1,0.2-0.2c0.1-0.5-0.2-1,0.1-1.5
	c0,0,0-0.1,0-0.1c0-0.1,0-0.2,0-0.3c-0.1-0.6-0.1-1.2-0.2-1.8c0,0,0,0,0,0c0-0.4-0.1-0.8-0.1-1.3c0,0,0,0,0-0.1
	c-0.1-0.9-0.2-1.9-0.3-2.8c0-0.2,0-0.3-0.1-0.5c-0.3,0.1-0.1-0.3-0.3-0.3c-0.1,0-0.1-0.1-0.1-0.2c-0.1-0.5-0.2-1-0.2-1.6
	c0-0.3-0.1-0.6-0.3-0.8c-0.2-0.2-0.3-0.4-0.3-0.6c-0.1-0.1-0.1-0.1-0.2-0.2c0,0,0,0,0,0c-0.1-0.3-0.1-0.6-0.2-0.9
	c-0.1-0.4-0.2-0.8-0.5-1.2c-0.2-0.1-0.2-0.4-0.4-0.5c-0.2-0.1-0.4,0-0.7,0c0,0-0.1,0-0.1,0c0,0,0,0,0,0c-0.3-0.2-0.6-0.4-0.8-0.7
	c-0.5-0.6-1.1-1-1.7-1.5c-0.2-0.2-0.4-0.3-0.5-0.5c-0.2-0.2-0.4-0.2-0.7-0.4c-0.2-0.1-0.4-0.3-0.6-0.3c-0.1,0-0.2,0-0.2,0
	c-0.5,0.1-0.8,0-1.1-0.4c-0.3,0-0.6,0-0.9-0.1c-0.2,0-0.3-0.1-0.4-0.2c-0.1-0.1-0.2-0.1-0.3-0.1c-0.8,0-1.6,0.1-2.4,0.1
	c-0.4,0-0.9,0.1-1.3,0.1c-0.1-0.1-0.2-0.2-0.4-0.2C278.1,37.3,277.7,37.2,277.2,37.2z"/>
</svg>
