<?xml version="1.0" encoding="utf-8"?>
<!-- Generator: Adobe Illustrator 23.0.6, SVG Export Plug-In . SVG Version: 6.00 Build 0)  -->
<svg version="1.1" id="Layer_1" xmlns="http://www.w3.org/2000/svg" xmlns:xlink="http://www.w3.org/1999/xlink" x="0px" y="0px"
	 viewBox="0 0 320 141" style="enable-background:new 0 0 320 141;" xml:space="preserve">
<style type="text/css">
	.st0{fill:#FFFFFF;}
</style>
<path class="st0" d="M15.4,3c1.1,0,2,0.9,2,2v2c0,1.1-0.9,2-2,2h-7H7.9v0.5v5.6v0.5h0.5h4.8c1.1,0,2,0.9,2,2v1.8c0,1.1-0.9,2-2,2
	H8.4H7.9v0.5v11.4c0,1.1-0.9,2-2,2H2.5c-1.1,0-2-0.9-2-2V5c0-1.1,0.9-2,2-2H15.4 M15.4,2.5H2.5C1.1,2.5,0,3.6,0,5v28.3
	c0,1.4,1.1,2.5,2.5,2.5h3.4c1.4,0,2.5-1.1,2.5-2.5V21.9h4.8c1.4,0,2.5-1.1,2.5-2.5v-1.8c0-1.4-1.1-2.5-2.5-2.5H8.4V9.5h7
	c1.4,0,2.5-1.1,2.5-2.5V5C17.9,3.6,16.8,2.5,15.4,2.5L15.4,2.5z"/>
<path class="st0" d="M37.3,3c1.1,0,2,0.9,2,2v2c0,1.1-0.9,2-2,2h-7h-0.5v0.5v5.6v0.5h0.5h4.8c1.1,0,2,0.9,2,2v1.8c0,1.1-0.9,2-2,2
	h-4.8h-0.5v0.5v11.4c0,1.1-0.9,2-2,2h-3.4c-1.1,0-2-0.9-2-2V5c0-1.1,0.9-2,2-2H37.3 M37.3,2.5H24.4c-1.4,0-2.5,1.1-2.5,2.5v28.3
	c0,1.4,1.1,2.5,2.5,2.5h3.4c1.4,0,2.5-1.1,2.5-2.5V21.9h4.8c1.4,0,2.5-1.1,2.5-2.5v-1.8c0-1.4-1.1-2.5-2.5-2.5h-4.8V9.5h7
	c1.4,0,2.5-1.1,2.5-2.5V5C39.8,3.6,38.7,2.5,37.3,2.5L37.3,2.5z"/>
<path class="st0" d="M63.9,36.4c-6.4,0-9.7-3.5-9.7-12.2V5c0-1.4,1.1-2.5,2.5-2.5h3.4c1.4,0,2.5,1.1,2.5,2.5v20.7
	c0,2.4,0.5,3.6,3.1,3.6c1.6,0,2.7-0.3,3.5-0.9V5c0-1.4,1.1-2.5,2.5-2.5H75c1.4,0,2.5,1.1,2.5,2.5v28.3c0,1.4-1.1,2.5-2.5,2.5h-1.2
	c-1.3,0-2.6-0.8-3.2-2v0C69.3,35.3,67.4,36.4,63.9,36.4z"/>
<path class="st0" d="M85.2,35.7c-1.4,0-2.5-1.1-2.5-2.5V13.6c0-1.4,1.1-2.5,2.5-2.5h1.9c1.2,0,2.3,0.9,2.6,2v0
	c1.7-1.6,3.5-2.7,6.7-2.7c4.4,0,6.5,1.8,6.5,7.2v15.6c0,1.4-1.1,2.5-2.5,2.5h-2.9c-1.4,0-2.5-1.1-2.5-2.5v-14c0-2.2-0.9-2.6-2-2.6
	c-1.3,0-1.7,0.2-2.5,0.8v15.7c0,1.4-1.1,2.5-2.5,2.5H85.2z"/>
<path class="st0" d="M111.2,35.7c-1.4,0-2.5-1.1-2.5-2.5V17h0c-1.4-0.4-2.4-1.7-2.4-3.1v-0.2c0-1.4,1.1-2.5,2.5-2.5h5.4
	c1.4,0,2.5,1.1,2.5,2.5v19.6c0,1.4-1.1,2.5-2.5,2.5H111.2z M112.7,9.1c-2.5,0-4.6-2.1-4.6-4.5c0-2.5,2.1-4.6,4.5-4.6
	c2.5,0,4.6,2,4.6,4.5C117.2,7.1,115.2,9.1,112.7,9.1z"/>
<path class="st0" d="M122.2,17c-1.3,0-2.3-1-2.3-2.3v-1.2c0-1.3,1.1-2.3,2.3-2.3h0V7.8c0-1.4,1.1-2.6,2.4-2.9l3-0.5
	c1.2-0.2,2.4,0.8,2.4,2.1v4.6h1.8c1.4,0,2.5,1.1,2.5,2.5v0.9c0,1.4-1.1,2.5-2.5,2.5h-1.8v10.7c0,2.4,0.6,2.7,1.7,2.7
	c0.4,0,0.7,0,1.1-0.1c0.5-0.1,1,0.2,1.1,0.7l0.4,2.1c0.2,1.3-0.6,2.6-2,3c-0.7,0.2-1.6,0.3-2.7,0.3c-4.6,0-7.4-1.5-7.4-6.5L122.2,17
	L122.2,17z"/>
<path class="st0" d="M151.6,35.7c-1.4,0-2.5-1.1-2.5-2.5V5c0-1.4,1.1-2.5,2.5-2.5h8.4c9.5,0,12.3,3.5,12.3,9.6
	c0,5.6-2.1,7.6-5.7,8.6c2.3,0.7,3.5,3,4.4,6.2l1.7,6.4c0.3,1.2-0.6,2.4-1.9,2.4h-3.9c-1.4,0-2.7-1-3.1-2.4l-1.7-7.1
	c-0.7-3-1.2-3.7-3.9-3.7h-0.8v10.8c0,1.4-1.1,2.5-2.5,2.5H151.6z M157.4,16.4h3.1c2.2,0,3-1.1,3-3.8c0-2.4-1-3.2-3-3.2h-3V16.4z"/>
<path class="st0" d="M186.3,36.4c-7.1,0-10.9-3.8-10.9-13.1s3.9-12.8,11-12.8s10.9,3.8,10.9,13S193.4,36.4,186.3,36.4z M186.3,30.6
	c2.2,0,2.5-1.6,2.5-7.3c0-6.1-0.3-7-2.5-7c-2.2,0-2.5,1.2-2.5,7.2C183.8,29.3,184.1,30.6,186.3,30.6z"/>
<path class="st0" d="M207.9,36.4c-4.2,0-7.1-2.3-7.1-7.4V13.6c0-1.4,1.1-2.5,2.5-2.5h2.9c1.4,0,2.5,1.1,2.5,2.5v14
	c0,2.2,0.9,2.6,2,2.6c1.3,0,1.8-0.3,2.5-0.9V13.6c0-1.4,1.1-2.5,2.5-2.5h2.9c1.4,0,2.5,1.1,2.5,2.5v19.6c0,1.4-1.1,2.5-2.5,2.5h-1.8
	c-1.3,0-2.4-0.9-2.7-2.1v0C212.5,35.2,211.4,36.4,207.9,36.4z"/>
<path class="st0" d="M228.2,35.7c-1.4,0-2.5-1.1-2.5-2.5V13.6c0-1.4,1.1-2.5,2.5-2.5h1.9c1.2,0,2.3,0.9,2.6,2v0
	c1.7-1.6,3.5-2.7,6.7-2.7c4.4,0,6.5,1.8,6.5,7.2v15.6c0,1.4-1.1,2.5-2.5,2.5h-2.9c-1.4,0-2.5-1.1-2.5-2.5v-14c0-2.2-0.9-2.6-2-2.6
	c-1.3,0-1.7,0.2-2.5,0.8v15.7c0,1.4-1.1,2.5-2.5,2.5H228.2z"/>
<path class="st0" d="M258.2,36.4c-5.4,0-8.5-3.1-8.5-12.6c0-10.7,2.6-13.2,8-13.2c2.5,0,4.3,1.1,5.3,2.1V3.2c0-1.4,1.1-2.5,2.5-2.5
	h2.9c1.4,0,2.5,1.1,2.5,2.5v30.1c0,1.4-1.1,2.5-2.5,2.5h-1.8c-1.3,0-2.4-0.9-2.7-2.1v0C262,35.4,260.6,36.4,258.2,36.4z M260.5,30.2
	c1.2,0,2-0.4,2.5-0.8V17.6c-0.4-0.4-1.1-0.9-2.2-0.9c-2.3,0-2.6,1.4-2.6,7C258.1,29,258.4,30.2,260.5,30.2z"/>
<path class="st0" d="M287.3,36.4c-9,0-12.7-3.8-12.7-13.1s3.8-12.8,10.6-12.8c8.1,0,10.7,4.3,10.7,13.5v1c0,0.6-0.4,1-1,1h-11.8
	c0.3,3.6,1.4,4.2,3.9,4.2c1.2,0,2.2-0.3,3.2-0.7c1.3-0.6,2.8-0.1,3.6,1l0.6,1c0.7,1.1,0.3,2.6-0.9,3.2
	C291.8,35.7,289.7,36.4,287.3,36.4z M285.5,16.2c-1.9,0-2.3,1-2.5,4.7h5C287.9,17.6,287.8,16.2,285.5,16.2z"/>
<path class="st0" d="M307.3,36.4c-5.4,0-8.5-3.1-8.5-12.6c0-10.7,2.6-13.2,8-13.2c2.5,0,4.3,1.1,5.3,2.1V3.2c0-1.4,1.1-2.5,2.5-2.5
	h2.9c1.4,0,2.5,1.1,2.5,2.5v30.1c0,1.4-1.1,2.5-2.5,2.5h-1.8c-1.3,0-2.4-0.9-2.7-2.1v0C311.2,35.4,309.7,36.4,307.3,36.4z
	 M309.6,30.2c1.2,0,2-0.4,2.5-0.8V17.6c-0.4-0.4-1.1-0.9-2.2-0.9c-2.3,0-2.6,1.4-2.6,7C307.2,29,307.5,30.2,309.6,30.2z"/>
<g>
	<path class="st0" d="M0.4,63.5c-0.2,0-0.4-0.2-0.3-0.5l3.6-11.8c0.1-0.3,0.4-0.5,0.6-0.5h0.9c0.3,0,0.5,0.2,0.6,0.5L9.4,63
		c0.1,0.2-0.1,0.5-0.4,0.5H8.1c-0.3,0-0.5-0.2-0.6-0.5l-0.9-3.2H2.7L1.7,63c-0.1,0.3-0.3,0.5-0.6,0.5H0.4z M3.8,56.1l-0.6,2.2h3.1
		l-0.6-2.2c-0.6-2-0.7-2.7-0.9-3.7h0C4.5,53.5,4.3,54.2,3.8,56.1z"/>
	<path class="st0" d="M12.2,63.5c-0.3,0-0.5-0.2-0.5-0.5V51.2c0-0.3,0.2-0.5,0.5-0.5h3.3c2.7,0,3.7,1.4,3.7,3.4
		c0,1.3-0.3,2.1-1.6,2.6c1.2,0.4,2.1,1.3,2.1,3.2c0,2.5-1.7,3.6-4,3.6H12.2z M13.4,56.1h2.1c1.5,0,1.8-0.6,1.8-2c0-1.3-0.4-2-1.9-2
		h-2V56.1z M13.4,62.1h2.1c1.8,0,2.4-0.7,2.4-2.2c0-1.5-0.6-2.2-2.3-2.2h-2.1V62.1z"/>
	<path class="st0" d="M26.8,63.7c-3.4,0-4.9-2.3-4.9-6.6c0-4.1,1.4-6.7,4.9-6.7c1.1,0,2,0.2,2.7,0.7c0.2,0.1,0.3,0.4,0.1,0.7
		l-0.3,0.4c-0.1,0.2-0.4,0.3-0.7,0.1c-0.5-0.3-1.1-0.5-1.9-0.5c-2.5,0-3.1,1.6-3.1,5.1c0,3.6,0.6,5.2,3.1,5.2c0.8,0,1.4-0.3,2-0.6
		c0.2-0.1,0.5-0.1,0.7,0.1l0.3,0.4c0.1,0.2,0.1,0.5-0.1,0.7C28.9,63.4,28,63.7,26.8,63.7z"/>
	<path class="st0" d="M36.9,63.7c-3.4,0-4.9-2.3-4.9-6.6c0-4.1,1.4-6.7,4.9-6.7c1.1,0,2,0.2,2.7,0.7c0.2,0.1,0.3,0.4,0.1,0.7
		l-0.3,0.4c-0.1,0.2-0.4,0.3-0.7,0.1c-0.5-0.3-1.1-0.5-1.9-0.5c-2.5,0-3.1,1.6-3.1,5.1c0,3.6,0.6,5.2,3.1,5.2c0.8,0,1.4-0.3,2-0.6
		c0.2-0.1,0.5-0.1,0.7,0.1l0.3,0.4c0.1,0.2,0.1,0.5-0.1,0.7C39,63.4,38,63.7,36.9,63.7z M36.6,49.7c-0.3,0-0.6-0.1-0.8-0.4l-1.6-1.6
		c-0.2-0.2-0.2-0.5,0-0.8c0.2-0.3,0.5-0.3,0.7-0.1l1.8,1.3l1.8-1.3c0.2-0.1,0.5-0.1,0.7,0.1c0.2,0.2,0.1,0.6,0,0.8l-1.6,1.6
		c-0.2,0.2-0.5,0.4-0.8,0.4H36.6z"/>
	<path class="st0" d="M46.9,63.7c-3.4,0-4.9-2.3-4.9-6.6c0-4.1,1.4-6.7,4.9-6.7c1.1,0,2,0.2,2.7,0.7c0.2,0.1,0.3,0.4,0.1,0.7
		l-0.3,0.4c-0.1,0.2-0.4,0.3-0.7,0.1c-0.5-0.3-1.1-0.5-1.9-0.5c-2.5,0-3.1,1.6-3.1,5.1c0,3.6,0.6,5.2,3.1,5.2c0.8,0,1.4-0.3,2-0.6
		c0.2-0.1,0.5-0.1,0.7,0.1l0.3,0.4c0.1,0.2,0.1,0.5-0.1,0.7C49,63.4,48.1,63.7,46.9,63.7z M45.5,49.6c-0.2,0.1-0.5,0-0.7-0.2
		l-0.1-0.2c-0.1-0.2-0.1-0.5,0.1-0.7l2.8-1.9c0.1-0.1,0.2-0.1,0.2-0.1c0.1,0,0.3,0.1,0.4,0.2l0.4,0.7c0.1,0.2,0,0.5-0.2,0.6
		L45.5,49.6z"/>
	<path class="st0" d="M53.2,63.5c-0.3,0-0.5-0.2-0.5-0.5V51.2c0-0.3,0.2-0.5,0.5-0.5h2.8c3.5,0,5.1,1.6,5.1,6.5c0,4.9-1.6,6.3-5,6.3
		H53.2z M54.4,62h1.7c2.5,0,3.1-1.2,3.1-4.9c0-3.7-0.6-5-3.1-5h-1.7V62z"/>
	<path class="st0" d="M63.2,57.9c-0.3,0-0.5-0.2-0.5-0.5v-0.5c0-0.3,0.2-0.5,0.5-0.5h0.7v-5.2c0-0.3,0.2-0.5,0.5-0.5h2.8
		c3.5,0,5.1,1.6,5.1,6.5c0,4.9-1.6,6.3-5,6.3h-2.9c-0.3,0-0.5-0.2-0.5-0.5v-5.1H63.2z M65.5,62h1.7c2.5,0,3.1-1.2,3.1-4.9
		c0-3.7-0.6-5-3.1-5h-1.7v4.3h2.1c0.3,0,0.5,0.2,0.5,0.5v0.5c0,0.3-0.2,0.5-0.5,0.5h-2.1V62z"/>
	<path class="st0" d="M75.7,63.5c-0.3,0-0.5-0.2-0.5-0.5V51.2c0-0.3,0.2-0.5,0.5-0.5h5.6c0.3,0,0.5,0.2,0.5,0.5v0.5
		c0,0.3-0.2,0.5-0.5,0.5h-4.3v3.9h3.4c0.3,0,0.5,0.2,0.5,0.5v0.5c0,0.3-0.2,0.5-0.5,0.5h-3.4V62h4.6c0.3,0,0.5,0.2,0.5,0.5V63
		c0,0.3-0.2,0.5-0.5,0.5H75.7z"/>
	<path class="st0" d="M85.3,63.5c-0.3,0-0.5-0.2-0.5-0.5V51.2c0-0.3,0.2-0.5,0.5-0.5h5.4c0.3,0,0.5,0.2,0.5,0.5v0.5
		c0,0.3-0.2,0.5-0.5,0.5h-4.2v3.9h3.3c0.3,0,0.5,0.2,0.5,0.5v0.5c0,0.3-0.2,0.5-0.5,0.5h-3.3V63c0,0.3-0.2,0.5-0.5,0.5H85.3z"/>
	<path class="st0" d="M101.3,63.5c-0.3,0-0.5-0.2-0.6-0.5l-0.1-0.5c-0.7,0.6-1.6,1.2-2.7,1.2c-2.9,0-4.5-2.3-4.5-6.6
		c0-4.1,1.5-6.7,4.8-6.7c1.2,0,2.2,0.3,3,0.9c0.2,0.1,0.3,0.5,0.1,0.7l-0.3,0.4c-0.1,0.2-0.4,0.3-0.7,0.1c-0.7-0.5-1.3-0.7-2.1-0.7
		c-2.3,0-3,1.6-3,5.1c0,3.6,0.7,5.3,2.8,5.3c0.9,0,1.7-0.4,2.4-1v-3.2h-1.9c-0.3,0-0.5-0.2-0.5-0.5v-0.5c0-0.3,0.2-0.5,0.5-0.5h3.1
		c0.3,0,0.5,0.2,0.5,0.5V63c0,0.3-0.2,0.5-0.5,0.5H101.3z"/>
	<path class="st0" d="M106,63.5c-0.3,0-0.5-0.2-0.5-0.5V51.2c0-0.3,0.2-0.5,0.5-0.5h0.7c0.3,0,0.5,0.2,0.5,0.5V56h4.6v-4.7
		c0-0.3,0.2-0.5,0.5-0.5h0.7c0.3,0,0.5,0.2,0.5,0.5V63c0,0.3-0.2,0.5-0.5,0.5h-0.7c-0.3,0-0.5-0.2-0.5-0.5v-5.6h-4.6V63
		c0,0.3-0.2,0.5-0.5,0.5H106z"/>
	<path class="st0" d="M117,63.5c-0.3,0-0.5-0.2-0.5-0.5v0c0-0.2,0.2-0.5,0.4-0.5l0.9-0.1V51.8l-0.9-0.1c-0.3,0-0.4-0.2-0.4-0.5v0
		c0-0.2,0.2-0.4,0.4-0.4h3.4c0.2,0,0.4,0.2,0.4,0.4v0c0,0.3-0.2,0.5-0.4,0.5l-0.9,0.1v10.6l0.9,0.1c0.2,0,0.4,0.3,0.4,0.5v0
		c0,0.3-0.2,0.5-0.4,0.5H117z"/>
	<path class="st0" d="M123.2,66c-0.2,0.1-0.5,0-0.6-0.2l-0.1-0.3c-0.1-0.2,0-0.6,0.2-0.7c0.8-0.5,1.3-1,1.3-2.8V51.2
		c0-0.3,0.2-0.5,0.5-0.5h0.8c0.3,0,0.5,0.2,0.5,0.5v10.7C125.6,64.5,124.9,65.2,123.2,66z"/>
	<path class="st0" d="M129.7,63.5c-0.3,0-0.5-0.2-0.5-0.5V51.2c0-0.3,0.2-0.5,0.5-0.5h0.7c0.3,0,0.5,0.2,0.5,0.5V63
		c0,0.3-0.2,0.5-0.5,0.5H129.7z M135.7,63.5c-0.3,0-0.6-0.2-0.7-0.4l-3.7-6.1c-0.1-0.2-0.1-0.6,0-0.8l3.5-5.1
		c0.2-0.2,0.5-0.4,0.8-0.4h0.9c0.2,0,0.3,0.2,0.2,0.4l-3.8,5.3l3.9,6.6c0.1,0.2,0,0.4-0.2,0.4H135.7z"/>
	<path class="st0" d="M139.9,63.5c-0.3,0-0.5-0.2-0.5-0.5V51.2c0-0.3,0.2-0.5,0.5-0.5h0.7c0.3,0,0.5,0.2,0.5,0.5V62h3.9
		c0.3,0,0.5,0.2,0.5,0.5V63c0,0.3-0.2,0.5-0.5,0.5H139.9z"/>
	<path class="st0" d="M148.7,63.5c-0.3,0-0.5-0.2-0.5-0.5V51.2c0-0.3,0.2-0.5,0.5-0.5h1.6c0.3,0,0.5,0.2,0.6,0.5l1.9,6
		c0.4,1.2,0.5,2.2,0.6,2.8h0c0.1-0.7,0.1-1.5,0.6-2.8l1.9-6c0.1-0.3,0.4-0.5,0.6-0.5h1.6c0.3,0,0.5,0.2,0.5,0.5V63
		c0,0.3-0.2,0.5-0.5,0.5h-0.7c-0.3,0-0.5-0.2-0.5-0.5V56c0-2.1,0.1-3.5,0.1-3.9h0c-0.1,0.4-0.5,2.3-1,3.7l-1.7,4.9
		c-0.1,0.3-0.4,0.5-0.6,0.5H153c-0.3,0-0.6-0.2-0.6-0.5l-1.6-4.7c-0.5-1.5-0.9-3.5-1-3.9h0c0,0.6,0.1,2.1,0.1,3.9v7
		c0,0.3-0.2,0.5-0.5,0.5H148.7z"/>
	<path class="st0" d="M162.7,63.5c-0.3,0-0.5-0.2-0.5-0.5V51.2c0-0.3,0.2-0.5,0.5-0.5h0.8c0.3,0,0.5,0.1,0.7,0.4l3.3,6.8
		c0.4,0.7,1,2.3,1.2,3.1h0c-0.1-0.9-0.2-2.3-0.2-3.6v-6.3c0-0.3,0.2-0.5,0.5-0.5h0.6c0.3,0,0.5,0.2,0.5,0.5V63
		c0,0.3-0.2,0.5-0.5,0.5h-0.8c-0.3,0-0.5-0.1-0.7-0.4l-3.1-6.2c-0.8-1.7-1-2.4-1.4-3.5h0c0.1,0.9,0.2,2.3,0.2,3.8V63
		c0,0.3-0.2,0.5-0.5,0.5H162.7z"/>
	<path class="st0" d="M178,63.7c-3.2,0-4.8-2.2-4.8-6.6c0-4.3,1.6-6.7,4.7-6.7s4.7,2.3,4.7,6.6C182.7,61.5,181.1,63.7,178,63.7z
		 M177.9,62.4c2.1,0,2.9-1.7,2.9-5.2c0-3.6-0.8-5.3-2.9-5.3c-2.1,0-2.9,1.7-2.9,5.2C175,60.7,175.8,62.4,177.9,62.4z"/>
	<path class="st0" d="M186.2,63.5c-0.3,0-0.5-0.2-0.5-0.5V51.2c0-0.3,0.2-0.5,0.5-0.5h3.3c2.6,0,3.9,1.4,3.9,3.8
		c0,2.5-1.1,3.9-3.7,3.9h-2.2V63c0,0.3-0.2,0.5-0.5,0.5H186.2z M187.4,57.1h2c1.4,0,2.1-0.6,2.1-2.4c0-1.8-0.6-2.4-2.2-2.4h-1.9
		V57.1z"/>
	<path class="st0" d="M204.9,57.1c0,3.6-1,5.6-3,6.3l3.1,0.8c0.3,0.1,0.4,0.4,0.3,0.6l-0.2,0.7c-0.1,0.2-0.3,0.3-0.6,0.2l-5.7-2.1
		c-2.1-0.8-3.3-2.6-3.3-6.4c0-4.3,1.6-6.7,4.7-6.7C203.2,50.5,204.9,52.8,204.9,57.1z M200.2,62.4c2.1,0,2.9-1.7,2.9-5.2
		c0-3.6-0.8-5.3-2.9-5.3c-2.1,0-2.9,1.7-2.9,5.2C197.3,60.7,198.1,62.4,200.2,62.4z"/>
	<path class="st0" d="M208.4,63.5c-0.3,0-0.5-0.2-0.5-0.5V51.2c0-0.3,0.2-0.5,0.5-0.5h3.1c2.4,0,3.9,1.1,3.9,3.6
		c0,1.9-0.8,2.9-2.4,3.4c0.6,0.2,1.1,0.8,1.6,2.1l1.1,3.2c0.1,0.2-0.1,0.4-0.3,0.4h-0.9c-0.3,0-0.6-0.2-0.6-0.4l-1.1-3.1
		c-0.6-1.6-1.1-1.9-1.9-1.9h-1.2v5c0,0.3-0.2,0.5-0.5,0.5H208.4z M209.6,56.6h1.8c1.7,0,2.2-0.7,2.2-2.3c0-1.5-0.6-2.1-2.2-2.1h-1.8
		V56.6z"/>
	<path class="st0" d="M221.3,63.7c-1.3,0-2.6-0.4-3.4-1c-0.2-0.1-0.3-0.4-0.1-0.7l0.2-0.4c0.1-0.2,0.4-0.3,0.6-0.1
		c0.8,0.6,1.5,0.8,2.6,0.8c1.7,0,2.3-0.8,2.3-2.1c0-1.6-0.9-2-2.4-2.6c-2.1-0.8-3.1-1.7-3.1-3.8c0-2.2,1.4-3.3,3.6-3.3
		c1.2,0,2,0.2,2.7,0.6c0.2,0.1,0.3,0.4,0.2,0.7l-0.2,0.5c-0.1,0.2-0.4,0.3-0.6,0.2c-0.6-0.3-1.1-0.5-1.9-0.5c-1.2,0-2,0.5-2,1.8
		c0,1.3,0.5,1.7,2,2.3c2,0.8,3.5,1.5,3.5,4.1C225.3,62,224.4,63.7,221.3,63.7z"/>
	<path class="st0" d="M231,63.7c-1.3,0-2.6-0.4-3.4-1c-0.2-0.1-0.3-0.4-0.1-0.7l0.2-0.4c0.1-0.2,0.4-0.3,0.6-0.1
		c0.8,0.6,1.5,0.8,2.6,0.8c1.7,0,2.3-0.8,2.3-2.1c0-1.6-0.9-2-2.4-2.6c-2.1-0.8-3.1-1.7-3.1-3.8c0-2.2,1.4-3.3,3.6-3.3
		c1.2,0,2,0.2,2.7,0.6c0.2,0.1,0.3,0.4,0.2,0.7l-0.2,0.5c-0.1,0.2-0.4,0.3-0.6,0.2c-0.6-0.3-1.1-0.5-1.9-0.5c-1.2,0-2,0.5-2,1.8
		c0,1.3,0.5,1.7,2,2.3c2,0.8,3.5,1.5,3.5,4.1C234.9,62,234,63.7,231,63.7z M231,49.7c-0.3,0-0.6-0.1-0.8-0.4l-1.6-1.6
		c-0.2-0.2-0.2-0.5,0-0.8c0.2-0.3,0.5-0.3,0.7-0.1l1.8,1.3l1.8-1.3c0.2-0.1,0.5-0.1,0.7,0.1c0.2,0.2,0.1,0.6,0,0.8l-1.6,1.6
		c-0.2,0.2-0.5,0.4-0.8,0.4H231z"/>
	<path class="st0" d="M240.2,63.5c-0.3,0-0.5-0.2-0.5-0.5V52.2h-2.5c-0.3,0-0.5-0.2-0.5-0.5v-0.5c0-0.3,0.2-0.5,0.5-0.5h6.8
		c0.3,0,0.5,0.2,0.5,0.5v0.5c0,0.3-0.2,0.5-0.5,0.5h-2.5V63c0,0.3-0.2,0.5-0.5,0.5H240.2z"/>
	<path class="st0" d="M250.4,63.7c-1.8,0-3.5-0.9-3.5-3.9v-8.6c0-0.3,0.2-0.5,0.5-0.5h0.7c0.3,0,0.5,0.2,0.5,0.5v8.3
		c0,1.9,0.4,2.7,2,2.7c1.3,0,2.3-0.7,2.8-1.2v-9.8c0-0.3,0.2-0.5,0.5-0.5h0.7c0.3,0,0.5,0.2,0.5,0.5V63c0,0.3-0.2,0.5-0.5,0.5h-0.3
		c-0.3,0-0.5-0.2-0.6-0.5l-0.2-0.7C252.8,63,251.8,63.7,250.4,63.7z"/>
	<path class="st0" d="M261.8,63.5c-0.3,0-0.5-0.2-0.6-0.5l-3.5-11.8c-0.1-0.2,0.1-0.5,0.4-0.5h0.9c0.3,0,0.5,0.2,0.6,0.5l2,7
		c0.4,1.3,0.5,2.1,0.7,2.9h0c0.2-0.9,0.4-1.6,0.8-2.9l1.9-7c0.1-0.3,0.3-0.5,0.6-0.5h0.8c0.2,0,0.4,0.2,0.4,0.5L263.1,63
		c-0.1,0.3-0.3,0.5-0.6,0.5H261.8z"/>
	<path class="st0" d="M271.5,63.5c-0.3,0-0.5-0.2-0.6-0.5l-2.6-11.8c0-0.2,0.1-0.5,0.4-0.5h0.9c0.3,0,0.5,0.2,0.6,0.5l1.2,6
		c0.4,2,0.6,3.6,0.7,4.6h0c0.2-1.3,0.4-2.7,0.7-4.4l1.3-6.2c0.1-0.3,0.3-0.5,0.6-0.5h1c0.3,0,0.5,0.2,0.6,0.5l1.3,6.2
		c0.3,1.6,0.5,3.2,0.6,4.3h0c0.1-1.1,0.4-2.8,0.8-4.7l1.1-5.9c0.1-0.3,0.3-0.5,0.6-0.5h0.7c0.2,0,0.4,0.2,0.4,0.5L279.2,63
		c-0.1,0.3-0.3,0.5-0.6,0.5h-1.1c-0.3,0-0.5-0.2-0.6-0.5l-1.2-5.9c-0.3-1.6-0.6-3.4-0.6-4.2h0c-0.1,0.6-0.4,3.1-0.6,4.1l-1.3,5.9
		c-0.1,0.3-0.3,0.5-0.6,0.5H271.5z"/>
	<path class="st0" d="M283.5,63.5c-0.2,0-0.4-0.2-0.3-0.4l3.3-6.5l-2.8-5.4c-0.1-0.2,0-0.4,0.3-0.4h1c0.3,0,0.6,0.2,0.7,0.4l1.9,4
		l2-4c0.1-0.3,0.4-0.4,0.7-0.4h0.9c0.2,0,0.4,0.2,0.2,0.5l-2.8,5.3l3.4,6.6c0.1,0.2,0,0.4-0.3,0.4h-1c-0.3,0-0.6-0.2-0.7-0.4
		l-2.5-5.1l-2.5,5.1c-0.1,0.3-0.4,0.4-0.7,0.4H283.5z"/>
	<path class="st0" d="M297.3,63.5c-0.3,0-0.5-0.2-0.5-0.5v-4.7l-3.4-7.2c-0.1-0.2,0.1-0.4,0.3-0.4h1c0.3,0,0.6,0.2,0.7,0.4l1.6,3.7
		c0.3,0.7,0.6,1.4,0.7,2c0.2-0.6,0.4-1.3,0.7-2l1.6-3.7c0.1-0.3,0.4-0.4,0.7-0.4h0.9c0.2,0,0.4,0.2,0.3,0.4l-3.4,7.2V63
		c0,0.3-0.2,0.5-0.5,0.5H297.3z"/>
	<path class="st0" d="M303.9,63.5c-0.3,0-0.5-0.2-0.5-0.5v-0.3c0-0.3,0.1-0.6,0.2-0.9l5.2-9.5h-4.6c-0.3,0-0.5-0.2-0.5-0.5v-0.5
		c0-0.3,0.2-0.5,0.5-0.5h6.1c0.3,0,0.5,0.2,0.5,0.5v0.4c0,0.3-0.1,0.6-0.2,0.9l-5.1,9.5h4.9c0.3,0,0.5,0.2,0.5,0.5V63
		c0,0.3-0.2,0.5-0.5,0.5H303.9z"/>
	<path class="st0" d="M313.1,63.5c-0.3,0-0.5-0.2-0.5-0.5v-0.3c0-0.3,0.1-0.6,0.2-0.9l5.2-9.5h-4.6c-0.3,0-0.5-0.2-0.5-0.5v-0.5
		c0-0.3,0.2-0.5,0.5-0.5h6.1c0.3,0,0.5,0.2,0.5,0.5v0.4c0,0.3-0.1,0.6-0.2,0.9l-5.1,9.5h4.9c0.3,0,0.5,0.2,0.5,0.5V63
		c0,0.3-0.2,0.5-0.5,0.5H313.1z M316.5,49.7c-0.3,0-0.6-0.1-0.8-0.4l-1.6-1.6c-0.2-0.2-0.2-0.5,0-0.8c0.2-0.3,0.5-0.3,0.7-0.1
		l1.8,1.3l1.8-1.3c0.2-0.1,0.5-0.1,0.7,0.1c0.2,0.2,0.1,0.6,0,0.8l-1.6,1.6c-0.2,0.2-0.5,0.4-0.8,0.4H316.5z"/>
	<path class="st0" d="M3.1,85.9c-1.8,0-2.8-1-2.8-2.9C0.3,81,1.6,80,4.6,80h0.8v-0.7c0-1-0.1-1.7-1.3-1.7c-0.8,0-1.6,0.3-2.3,0.6
		c-0.2,0.1-0.5,0-0.6-0.2l-0.2-0.4c-0.1-0.2,0-0.5,0.2-0.7c0.8-0.4,1.8-0.8,3.1-0.8C6,76.2,7,77,7,79v6.2c0,0.3-0.2,0.5-0.5,0.5H6.2
		c-0.3,0-0.5-0.2-0.6-0.5l-0.1-0.5C4.9,85.4,4.1,85.9,3.1,85.9z M3.3,84.7c0.9,0,1.6-0.6,2-1.1v-2.5H4.8c-2.3,0-2.8,0.6-2.8,1.9
		C2,84.3,2.4,84.7,3.3,84.7z"/>
	<path class="st0" d="M14.2,85.9c-1,0-2-0.5-2.6-1.1l-0.1,0.4c-0.1,0.3-0.3,0.5-0.6,0.5h-0.3c-0.3,0-0.5-0.2-0.5-0.5V72.8
		c0-0.3,0.2-0.5,0.5-0.5h0.6c0.3,0,0.5,0.2,0.5,0.5v4.6c0.7-0.7,1.5-1.2,2.5-1.2c1.8,0,3.2,1,3.2,4.8C17.4,84.5,16.4,85.9,14.2,85.9
		z M13.8,84.6c1.3,0,1.9-0.5,1.9-3.5c0-3-0.5-3.6-1.7-3.6c-0.9,0-1.5,0.5-2.2,1.1v5C12.3,84.2,13,84.6,13.8,84.6z"/>
	<path class="st0" d="M23.2,85.9c-2.4,0-3.7-1.6-3.7-4.9c0-3.5,1.4-4.9,3.7-4.9c0.9,0,1.6,0.2,2.3,0.7c0.2,0.2,0.2,0.5,0.1,0.7
		L25.3,78c-0.2,0.2-0.5,0.2-0.7,0.1c-0.4-0.3-0.8-0.5-1.4-0.5c-1.4,0-1.9,0.6-1.9,3.5c0,2.9,0.6,3.5,2.1,3.5c0.6,0,1-0.2,1.4-0.5
		c0.2-0.2,0.5-0.1,0.7,0.1l0.3,0.4c0.2,0.2,0.2,0.5,0,0.7C25,85.7,24.3,85.9,23.2,85.9z"/>
	<path class="st0" d="M31.2,85.9c-2.4,0-3.7-1.6-3.7-4.9c0-3.5,1.4-4.9,3.7-4.9c0.9,0,1.6,0.2,2.3,0.7c0.2,0.2,0.2,0.5,0.1,0.7
		L33.3,78c-0.2,0.2-0.5,0.2-0.7,0.1c-0.4-0.3-0.8-0.5-1.4-0.5c-1.4,0-1.9,0.6-1.9,3.5c0,2.9,0.6,3.5,2.1,3.5c0.6,0,1-0.2,1.4-0.5
		c0.2-0.2,0.5-0.1,0.7,0.1l0.3,0.4c0.2,0.2,0.2,0.5,0,0.7C33,85.7,32.3,85.9,31.2,85.9z M30.9,75.2c-0.3,0-0.6-0.1-0.8-0.4l-1.6-1.6
		c-0.2-0.2-0.2-0.5,0-0.8c0.2-0.3,0.5-0.3,0.7-0.1l1.8,1.3l1.8-1.3c0.2-0.1,0.5-0.1,0.7,0.1c0.2,0.2,0.1,0.6,0,0.8l-1.6,1.6
		c-0.2,0.2-0.5,0.4-0.8,0.4H30.9z"/>
	<path class="st0" d="M39.2,85.9c-2.4,0-3.7-1.6-3.7-4.9c0-3.5,1.4-4.9,3.7-4.9c0.9,0,1.6,0.2,2.3,0.7c0.2,0.2,0.2,0.5,0.1,0.7
		L41.3,78c-0.2,0.2-0.5,0.2-0.7,0.1c-0.4-0.3-0.8-0.5-1.4-0.5c-1.4,0-1.9,0.6-1.9,3.5c0,2.9,0.6,3.5,2.1,3.5c0.6,0,1-0.2,1.4-0.5
		c0.2-0.2,0.5-0.1,0.7,0.1l0.3,0.4c0.2,0.2,0.2,0.5,0,0.7C41,85.7,40.3,85.9,39.2,85.9z M37.8,75c-0.2,0.1-0.5,0-0.7-0.2L37,74.7
		c-0.1-0.2-0.1-0.5,0.1-0.7l2.8-1.9c0.1-0.1,0.2-0.1,0.2-0.1c0.1,0,0.3,0.1,0.4,0.2l0.4,0.7c0.1,0.2,0,0.5-0.2,0.6L37.8,75z"/>
	<path class="st0" d="M47,85.9c-1.8,0-3.2-1-3.2-4.8c0-3.5,1-4.9,3.2-4.9c1,0,1.9,0.6,2.5,1.1v-4.5c0-0.3,0.2-0.5,0.5-0.5h0.6
		c0.3,0,0.5,0.2,0.5,0.5v12.4c0,0.3-0.2,0.5-0.5,0.5h-0.3c-0.3,0-0.5-0.2-0.6-0.5l-0.1-0.5C48.9,85.5,48,85.9,47,85.9z M47.3,84.6
		c0.9,0,1.5-0.4,2.2-1v-5c-0.5-0.5-1.3-1-2.1-1c-1.3,0-1.9,0.5-1.9,3.5S46,84.6,47.3,84.6z"/>
	<path class="st0" d="M56.8,75.1c-0.3,0-0.5-0.2-0.5-0.5v-0.2c0-0.3,0.2-0.5,0.5-0.5h2.7v-1.1c0-0.3,0.2-0.5,0.5-0.5h0.6
		c0.3,0,0.5,0.2,0.5,0.5v1.1h0.6c0.3,0,0.5,0.2,0.5,0.5v0.2c0,0.3-0.2,0.5-0.5,0.5h-0.6v10.1c0,0.3-0.2,0.5-0.5,0.5h-0.3
		c-0.3,0-0.5-0.2-0.6-0.5l-0.1-0.5c-0.7,0.8-1.6,1.2-2.6,1.2c-1.8,0-3.2-1-3.2-4.8c0-3.5,1-4.9,3.2-4.9c1,0,1.9,0.6,2.5,1.1v-2.2
		H56.8z M57.3,84.6c0.9,0,1.5-0.4,2.2-1v-5c-0.5-0.5-1.3-1-2.1-1c-1.3,0-1.9,0.5-1.9,3.5S56,84.6,57.3,84.6z"/>
	<path class="st0" d="M67.5,85.9c-2.4,0-3.8-1.4-3.8-4.9c0-3.5,1.4-4.9,3.6-4.9c2.2,0,3.5,1.3,3.5,4.6v0.3c0,0.2-0.1,0.3-0.3,0.3
		h-5.1c0,2.5,0.6,3.2,2.1,3.2c0.8,0,1.3-0.2,1.8-0.6c0.2-0.2,0.5-0.1,0.7,0.1l0.3,0.4c0.1,0.2,0.1,0.5-0.1,0.7
		C69.5,85.7,68.7,85.9,67.5,85.9z M67.3,77.5c-1.1,0-1.7,0.6-1.9,2.8h3.7C69.1,78.1,68.7,77.5,67.3,77.5z"/>
	<path class="st0" d="M73,77.7c-0.3,0-0.5-0.2-0.5-0.5v-0.3c0-0.3,0.2-0.5,0.5-0.5h0.5V75c0-2.1,1.1-2.8,2.5-2.8
		c0.5,0,1.1,0.1,1.5,0.3c0.2,0.1,0.4,0.4,0.2,0.6l-0.1,0.3c-0.1,0.2-0.4,0.4-0.7,0.3c-0.2-0.1-0.5-0.1-0.7-0.1
		c-0.8,0-1.1,0.4-1.1,1.3v1.5h1.3c0.3,0,0.5,0.2,0.5,0.5v0.3c0,0.3-0.2,0.5-0.5,0.5h-1.3v7.5c0,0.3-0.2,0.5-0.5,0.5H74
		c-0.3,0-0.5-0.2-0.5-0.5v-7.5H73z"/>
	<path class="st0" d="M81.9,89.4c-2.7,0-3.8-1-3.8-2.6c0-1,0.6-1.6,1.2-2c-0.5-0.3-0.7-0.7-0.7-1.3c0-0.9,0.5-1.5,1-1.9
		c-0.8-0.5-1.2-1.3-1.2-2.4c0-2,1.3-3,3.3-3c0.6,0,1,0.1,1.4,0.2h2.3c0.3,0,0.5,0.2,0.5,0.5v0c0,0.3-0.2,0.5-0.4,0.6l-0.8,0.2
		c0.2,0.4,0.4,1,0.4,1.5c0,2-1.2,2.9-3.3,2.9c-0.4,0-0.8,0-1.2-0.1c-0.3,0.3-0.5,0.8-0.5,1.1c0,0.3,0.2,0.5,0.6,0.5h1.6
		c2.1,0,3.3,0.9,3.3,2.7C85.7,88.3,84.5,89.4,81.9,89.4z M80.5,85.2c-0.4,0.3-0.7,0.8-0.7,1.5c0,1,0.3,1.5,2.1,1.5
		c1.5,0,2.2-0.5,2.2-1.7c0-1-0.6-1.3-1.6-1.3H80.5z M81.8,81c1.1,0,1.6-0.5,1.6-1.8c0-1.3-0.5-1.7-1.7-1.7c-1.1,0-1.6,0.5-1.6,1.8
		C80.2,80.5,80.8,81,81.8,81z"/>
	<path class="st0" d="M88.8,85.7c-0.3,0-0.5-0.2-0.5-0.5V72.8c0-0.3,0.2-0.5,0.5-0.5h0.6c0.3,0,0.5,0.2,0.5,0.5v4.7
		c0.8-0.8,1.6-1.3,2.7-1.3c1.3,0,2.2,0.7,2.2,2.3v6.8c0,0.3-0.2,0.5-0.5,0.5h-0.6c-0.3,0-0.5-0.2-0.5-0.5V79c0-1.1-0.3-1.4-1.1-1.4
		c-0.7,0-1.6,0.5-2.2,1.1v6.5c0,0.3-0.2,0.5-0.5,0.5H88.8z"/>
	<path class="st0" d="M99,85.7c-0.3,0-0.5-0.2-0.5-0.5v-7.6l-0.9-0.1c-0.3,0-0.5-0.3-0.5-0.6v-0.1c0-0.3,0.2-0.5,0.5-0.5h2
		c0.3,0,0.5,0.2,0.5,0.5v8.3c0,0.3-0.2,0.5-0.5,0.5H99z M99.3,74.7c-0.6,0-1.1-0.5-1.1-1.1c0-0.6,0.5-1.1,1.1-1.1
		c0.6,0,1.1,0.5,1.1,1.1C100.5,74.2,100,74.7,99.3,74.7z"/>
	<path class="st0" d="M103.7,89.3c-0.2,0.1-0.5,0.1-0.7-0.2l-0.2-0.3c-0.1-0.2-0.1-0.5,0.1-0.7c0.8-0.6,1-1.2,1-2.7v-7.8l-0.9-0.1
		c-0.3,0-0.5-0.3-0.5-0.6v-0.1c0-0.3,0.2-0.5,0.5-0.5h2c0.3,0,0.5,0.2,0.5,0.5v8.6C105.6,87.8,105,88.6,103.7,89.3z M104.8,74.7
		c-0.6,0-1.1-0.5-1.1-1.1c0-0.6,0.5-1.1,1.1-1.1c0.6,0,1.1,0.5,1.1,1.1C105.9,74.2,105.4,74.7,104.8,74.7z"/>
	<path class="st0" d="M109.4,85.7c-0.3,0-0.5-0.2-0.5-0.5V72.8c0-0.3,0.2-0.5,0.5-0.5h0.6c0.3,0,0.5,0.2,0.5,0.5v12.4
		c0,0.3-0.2,0.5-0.5,0.5H109.4z M114.6,85.7c-0.3,0-0.6-0.2-0.7-0.4l-2.9-4.5c-0.1-0.2-0.1-0.6,0-0.8l2.4-3.2
		c0.2-0.2,0.5-0.4,0.8-0.4h0.8c0.2,0,0.3,0.2,0.2,0.4l-2.7,3.6l3.3,4.9c0.1,0.2,0,0.4-0.2,0.4H114.6z"/>
	<path class="st0" d="M119.6,85.9c-1.2,0-1.7-0.6-1.7-2.3V72.8c0-0.3,0.2-0.5,0.5-0.5h0.6c0.3,0,0.5,0.2,0.5,0.5v11.1
		c0,0.5,0.2,0.6,0.6,0.6c0.1,0,0.1,0,0.2,0c0.1,0,0.2,0.1,0.2,0.1l0.1,0.5c0,0.3-0.1,0.5-0.4,0.6C120.1,85.9,119.8,85.9,119.6,85.9z
		"/>
	<path class="st0" d="M123.5,85.7c-0.3,0-0.5-0.2-0.5-0.5v-8.3c0-0.3,0.2-0.5,0.5-0.5h0.3c0.3,0,0.5,0.2,0.6,0.5l0.1,0.7
		c0.8-0.8,1.6-1.4,2.7-1.4c0.9,0,1.6,0.4,2,1.3c0.9-0.8,1.8-1.3,2.7-1.3c1.2,0,2.1,0.7,2.1,2.3v6.8c0,0.3-0.2,0.5-0.5,0.5h-0.6
		c-0.3,0-0.5-0.2-0.5-0.5V79c0-1.1-0.3-1.4-1-1.4c-0.7,0-1.4,0.5-2.1,1v6.6c0,0.3-0.2,0.5-0.5,0.5h-0.6c-0.3,0-0.5-0.2-0.5-0.5V79
		c0-1.1-0.3-1.4-1-1.4c-0.7,0-1.4,0.5-2.1,1.1v6.5c0,0.3-0.2,0.5-0.5,0.5H123.5z"/>
	<path class="st0" d="M137.7,85.7c-0.3,0-0.5-0.2-0.5-0.5v-8.3c0-0.3,0.2-0.5,0.5-0.5h0.3c0.3,0,0.5,0.2,0.6,0.5l0.1,0.7
		c0.8-0.8,1.7-1.4,2.8-1.4c1.3,0,2.2,0.7,2.2,2.3v6.8c0,0.3-0.2,0.5-0.5,0.5h-0.6c-0.3,0-0.5-0.2-0.5-0.5V79c0-1.1-0.3-1.4-1.1-1.4
		c-0.7,0-1.6,0.5-2.2,1.1v6.5c0,0.3-0.2,0.5-0.5,0.5H137.7z"/>
	<path class="st0" d="M150.2,85.9c-2.3,0-3.8-1.4-3.8-4.9c0-3.5,1.5-4.9,3.8-4.9c2.3,0,3.8,1.4,3.8,4.9
		C153.9,84.5,152.4,85.9,150.2,85.9z M150.2,84.7c1.4,0,2.1-0.8,2.1-3.6c0-2.9-0.7-3.6-2.1-3.6c-1.4,0-2.1,0.7-2.1,3.6
		C148.1,83.9,148.8,84.7,150.2,84.7z"/>
	<path class="st0" d="M157.1,89.4c-0.3,0-0.5-0.2-0.5-0.5v-12c0-0.3,0.2-0.5,0.5-0.5h0.3c0.3,0,0.5,0.2,0.6,0.5l0.1,0.6
		c0.7-0.8,1.6-1.3,2.6-1.3c1.8,0,3.2,1,3.2,4.8c0,3.5-1,4.9-3.2,4.9c-1,0-1.9-0.5-2.5-1v4c0,0.3-0.2,0.5-0.5,0.5H157.1z M160.2,84.6
		c1.3,0,1.9-0.5,1.9-3.5c0-3-0.5-3.6-1.7-3.6c-0.9,0-1.5,0.5-2.2,1.1v5C158.7,84.2,159.5,84.6,160.2,84.6z"/>
	<path class="st0" d="M172.2,89.4c-0.3,0-0.5-0.2-0.5-0.5v-4.1c-0.7,0.7-1.5,1.1-2.5,1.1c-1.8,0-3.2-1-3.2-4.8c0-3.5,1-4.9,3.2-4.9
		c1,0,2,0.6,2.6,1.2l0.1-0.5c0.1-0.3,0.3-0.5,0.6-0.5h0.3c0.3,0,0.5,0.2,0.5,0.5v12c0,0.3-0.2,0.5-0.5,0.5H172.2z M169.5,84.6
		c0.9,0,1.5-0.4,2.2-1v-5c-0.5-0.5-1.3-1-2.1-1c-1.3,0-1.9,0.5-1.9,3.5S168.3,84.6,169.5,84.6z"/>
	<path class="st0" d="M177.1,85.7c-0.3,0-0.5-0.2-0.5-0.5v-8.3c0-0.3,0.2-0.5,0.5-0.5h0.3c0.3,0,0.5,0.2,0.6,0.5l0.2,0.8
		c0.7-0.9,1.5-1.5,2.6-1.5c0.1,0,0.1,0,0.2,0c0.1,0,0.1,0.1,0.1,0.2l-0.1,1.3c0,0.1-0.1,0.2-0.3,0.2c-0.1,0-0.2,0-0.3,0
		c-0.9,0-1.4,0.3-2.1,0.9v6.3c0,0.3-0.2,0.5-0.5,0.5H177.1z"/>
	<path class="st0" d="M185.4,85.9c-1,0-2-0.3-2.7-0.7c-0.2-0.1-0.3-0.4-0.2-0.7l0.2-0.4c0.1-0.2,0.4-0.3,0.6-0.2
		c0.6,0.4,1.3,0.6,2.1,0.6c1.3,0,1.6-0.5,1.6-1.4c0-1-0.5-1.2-2-1.6c-1.3-0.4-2.4-1-2.4-2.9c0-1.4,0.9-2.5,2.9-2.5
		c0.9,0,1.6,0.1,2.1,0.4c0.2,0.1,0.4,0.4,0.2,0.6l-0.2,0.4c-0.1,0.2-0.4,0.4-0.6,0.3c-0.5-0.2-1-0.3-1.5-0.3c-1,0-1.5,0.4-1.5,1.1
		c0,0.9,0.4,1.1,1.7,1.4c1.4,0.4,2.7,0.9,2.7,3C188.6,85.1,187.5,85.9,185.4,85.9z"/>
	<path class="st0" d="M193.4,85.9c-1,0-2-0.3-2.7-0.7c-0.2-0.1-0.3-0.4-0.2-0.7l0.2-0.4c0.1-0.2,0.4-0.3,0.6-0.2
		c0.6,0.4,1.3,0.6,2.1,0.6c1.3,0,1.6-0.5,1.6-1.4c0-1-0.5-1.2-2-1.6c-1.3-0.4-2.4-1-2.4-2.9c0-1.4,0.9-2.5,2.9-2.5
		c0.9,0,1.6,0.1,2.1,0.4c0.2,0.1,0.4,0.4,0.2,0.6l-0.2,0.4c-0.1,0.2-0.4,0.4-0.6,0.3c-0.5-0.2-1-0.3-1.5-0.3c-1,0-1.5,0.4-1.5,1.1
		c0,0.9,0.4,1.1,1.7,1.4c1.4,0.4,2.7,0.9,2.7,3C196.7,85.1,195.6,85.9,193.4,85.9z M193.8,75.2c-0.3,0-0.6-0.1-0.8-0.4l-1.6-1.6
		c-0.2-0.2-0.2-0.5,0-0.8c0.2-0.3,0.5-0.3,0.7-0.1l1.8,1.3l1.8-1.3c0.2-0.1,0.5-0.1,0.7,0.1c0.2,0.2,0.1,0.6,0,0.8l-1.6,1.6
		c-0.2,0.2-0.5,0.4-0.8,0.4H193.8z"/>
	<path class="st0" d="M198.9,77.7c-0.3,0-0.5-0.2-0.5-0.5v-0.3c0-0.3,0.2-0.5,0.5-0.5h0.6v-1.9c0-0.3,0.2-0.5,0.5-0.6l0.7-0.1
		c0.2-0.1,0.5,0.1,0.5,0.4v2.3h1.4c0.3,0,0.5,0.2,0.5,0.5v0.3c0,0.3-0.2,0.5-0.5,0.5H201v6.1c0,0.6,0.2,0.9,0.8,0.9
		c0.2,0,0.4,0,0.6-0.1c0.2-0.1,0.5,0.1,0.6,0.3l0.1,0.3c0.1,0.3-0.1,0.5-0.3,0.6c-0.3,0.1-0.6,0.2-1,0.2c-1.3,0-2.2-0.5-2.2-2v-6.2
		H198.9z"/>
	<path class="st0" d="M207.7,85.9c-1.3,0-2.4-0.8-2.4-2.4v-6.7c0-0.3,0.2-0.5,0.5-0.5h0.6c0.3,0,0.5,0.2,0.5,0.5v6.2
		c0,1.1,0.4,1.5,1.2,1.5c0.7,0,1.5-0.5,2.2-1.1v-6.5c0-0.3,0.2-0.5,0.5-0.5h0.6c0.3,0,0.5,0.2,0.5,0.5v8.3c0,0.3-0.2,0.5-0.5,0.5
		h-0.3c-0.3,0-0.5-0.2-0.6-0.5l-0.1-0.7C209.7,85.4,208.8,85.9,207.7,85.9z"/>
	<path class="st0" d="M217.7,85.7c-0.3,0-0.5-0.2-0.6-0.5l-2.8-8.3c-0.1-0.2,0.1-0.5,0.3-0.5h0.8c0.3,0,0.5,0.2,0.6,0.5l1.4,4.8
		c0.2,0.7,0.4,1.8,0.6,2.4h0c0.1-0.6,0.4-1.7,0.6-2.4l1.4-4.8c0.1-0.3,0.3-0.5,0.6-0.5h0.7c0.2,0,0.4,0.2,0.3,0.5l-2.8,8.3
		c-0.1,0.3-0.4,0.5-0.6,0.5H217.7z"/>
	<path class="st0" d="M225.9,85.7c-0.3,0-0.5-0.2-0.6-0.5l-2.1-8.3c-0.1-0.2,0.1-0.5,0.4-0.5h0.7c0.3,0,0.5,0.2,0.6,0.5l1,4.3
		c0.2,0.8,0.4,2,0.5,2.6h0c0.1-0.8,0.3-1.9,0.4-2.5l1.1-4.5c0.1-0.3,0.3-0.5,0.6-0.5h0.7c0.3,0,0.5,0.2,0.6,0.5l1.1,4.3
		c0.2,1,0.5,2.4,0.5,2.6h0c0-0.3,0.3-1.8,0.5-2.6l1-4.4c0.1-0.3,0.3-0.5,0.6-0.5h0.6c0.2,0,0.4,0.2,0.4,0.5l-2.2,8.3
		c-0.1,0.3-0.3,0.5-0.6,0.5h-0.6c-0.3,0-0.5-0.2-0.6-0.5l-1.1-4.5c-0.2-0.9-0.4-2.1-0.6-2.7h0c0,0.2-0.3,1.9-0.5,2.7l-1.1,4.5
		c-0.1,0.3-0.3,0.5-0.6,0.5H225.9z"/>
	<path class="st0" d="M236.3,85.7c-0.2,0-0.4-0.2-0.2-0.4l2.7-4.7l-2.3-3.8c-0.1-0.2,0-0.4,0.2-0.4h0.9c0.3,0,0.6,0.2,0.7,0.4l0.5,1
		c0.4,0.8,0.6,1.1,0.9,1.7h0c0.2-0.6,0.4-0.9,0.8-1.7l0.5-1c0.1-0.3,0.4-0.4,0.7-0.4h0.8c0.2,0,0.4,0.2,0.2,0.4l-2.3,3.8l2.7,4.7
		c0.1,0.2,0,0.4-0.2,0.4h-0.9c-0.3,0-0.6-0.2-0.7-0.4l-0.9-1.7c-0.4-0.7-0.6-1.2-0.9-1.8h0c-0.2,0.5-0.4,0.9-0.9,1.7l-0.9,1.7
		c-0.1,0.3-0.4,0.4-0.7,0.4H236.3z"/>
	<path class="st0" d="M246.1,89.4c-0.3,0.1-0.5-0.1-0.6-0.4l-0.1-0.4c-0.1-0.3,0.1-0.5,0.3-0.6c1.1-0.4,1.6-0.9,2.1-2.4h0
		c-0.2,0-0.4-0.1-0.5-0.4l-2.6-8.5c-0.1-0.2,0.1-0.5,0.3-0.5h0.8c0.3,0,0.5,0.2,0.6,0.5l1.4,5c0.2,0.7,0.4,1.8,0.6,2.5h0
		c0.1-0.7,0.3-1.6,0.6-2.5l1.5-5c0.1-0.3,0.4-0.5,0.6-0.5h0.7c0.2,0,0.4,0.2,0.3,0.5l-2.9,9.1C248.4,88.5,247.6,89.1,246.1,89.4z"/>
	<path class="st0" d="M254.2,85.7c-0.3,0-0.5-0.2-0.5-0.5v-0.5c0-0.3,0.1-0.6,0.3-0.9l4.1-6.1h-3.5c-0.3,0-0.5-0.2-0.5-0.5v-0.3
		c0-0.3,0.2-0.5,0.5-0.5h4.6c0.3,0,0.5,0.2,0.5,0.5v0.5c0,0.3-0.1,0.6-0.3,0.9l-4.1,6.1h4c0.3,0,0.5,0.2,0.5,0.5v0.3
		c0,0.3-0.2,0.5-0.5,0.5H254.2z"/>
	<path class="st0" d="M262.2,85.7c-0.3,0-0.5-0.2-0.5-0.5v-0.5c0-0.3,0.1-0.6,0.3-0.9l4.1-6.1h-3.5c-0.3,0-0.5-0.2-0.5-0.5v-0.3
		c0-0.3,0.2-0.5,0.5-0.5h4.6c0.3,0,0.5,0.2,0.5,0.5v0.5c0,0.3-0.1,0.6-0.3,0.9l-4.1,6.1h4c0.3,0,0.5,0.2,0.5,0.5v0.3
		c0,0.3-0.2,0.5-0.5,0.5H262.2z M264.9,75.2c-0.3,0-0.6-0.1-0.8-0.4l-1.6-1.6c-0.2-0.2-0.2-0.5,0-0.8c0.2-0.3,0.5-0.3,0.7-0.1
		l1.8,1.3l1.8-1.3c0.2-0.1,0.5-0.1,0.7,0.1c0.2,0.2,0.1,0.6,0,0.8l-1.6,1.6c-0.2,0.2-0.5,0.4-0.8,0.4H264.9z"/>
	<path class="st0" d="M0.4,107.9c-0.2,0-0.4-0.2-0.3-0.5l3.6-11.8c0.1-0.3,0.4-0.5,0.6-0.5h0.9c0.3,0,0.5,0.2,0.6,0.5l3.6,11.8
		c0.1,0.2-0.1,0.5-0.4,0.5H8.1c-0.3,0-0.5-0.2-0.6-0.5l-0.9-3.2H2.7l-0.9,3.2c-0.1,0.3-0.3,0.5-0.6,0.5H0.4z M4.7,93.6
		c-1.3,0-2.2-0.9-2.5-1.9c-0.1-0.2,0.1-0.5,0.3-0.6l0.1,0c0.3-0.1,0.6,0.1,0.7,0.3c0.3,0.5,0.6,0.7,1.4,0.7c0.7,0,1.1-0.3,1.4-0.7
		c0.1-0.3,0.4-0.4,0.7-0.3l0.1,0c0.2,0.1,0.4,0.3,0.3,0.6C6.9,92.7,6,93.6,4.7,93.6z M3.8,100.6l-0.6,2.2h3.1l-0.6-2.2
		c-0.6-2-0.7-2.7-0.9-3.7h0C4.5,97.9,4.3,98.6,3.8,100.6z"/>
	<path class="st0" d="M11.1,107.9c-0.2,0-0.4-0.2-0.3-0.5l3.6-11.8c0.1-0.3,0.4-0.5,0.6-0.5h0.9c0.3,0,0.5,0.2,0.6,0.5l3.6,11.8
		c0.1,0.2-0.1,0.5-0.4,0.5h-0.9c-0.3,0-0.5-0.2-0.6-0.5l-0.9-3.2h-3.9l-0.9,3.2c-0.1,0.3-0.3,0.5-0.6,0.5H11.1z M13.6,93.9
		c-0.2,0.1-0.5,0.1-0.7-0.1c-0.2-0.2-0.1-0.6,0-0.8l1.6-1.6c0.2-0.2,0.5-0.4,0.8-0.4h0.1c0.3,0,0.6,0.1,0.8,0.4l1.6,1.6
		c0.2,0.2,0.2,0.5,0,0.8c-0.2,0.3-0.5,0.3-0.7,0.1l-1.8-1.3L13.6,93.9z M14.5,100.6l-0.6,2.2h3.1l-0.6-2.2c-0.6-2-0.7-2.7-0.9-3.7h0
		C15.2,97.9,15,98.6,14.5,100.6z"/>
	<path class="st0" d="M23.1,107.9c-0.3,0-0.5-0.2-0.5-0.5V95.7c0-0.3,0.2-0.5,0.5-0.5h5.6c0.3,0,0.5,0.2,0.5,0.5v0.5
		c0,0.3-0.2,0.5-0.5,0.5h-4.3v3.9h3.4c0.3,0,0.5,0.2,0.5,0.5v0.5c0,0.3-0.2,0.5-0.5,0.5h-3.4v4.5h4.6c0.3,0,0.5,0.2,0.5,0.5v0.5
		c0,0.3-0.2,0.5-0.5,0.5H23.1z M24,93.9c-0.2,0.1-0.5,0.1-0.7-0.1c-0.2-0.2-0.1-0.6,0-0.8l1.6-1.6c0.2-0.2,0.5-0.4,0.8-0.4h0.1
		c0.3,0,0.6,0.1,0.8,0.4l1.6,1.6c0.2,0.2,0.2,0.5,0,0.8c-0.2,0.3-0.5,0.3-0.7,0.1l-1.8-1.3L24,93.9z"/>
	<path class="st0" d="M36.4,108.2c-3.2,0-4.8-2.2-4.8-6.6c0-4.3,1.6-6.7,4.7-6.7s4.7,2.3,4.7,6.6C41.1,105.9,39.6,108.2,36.4,108.2z
		 M36.4,106.8c2.1,0,2.9-1.7,2.9-5.2c0-3.6-0.8-5.3-2.9-5.3c-2.1,0-2.9,1.7-2.9,5.2C33.5,105.1,34.3,106.8,36.4,106.8z M34.5,93.9
		C34.3,94,34,94,33.8,93.7c-0.2-0.2-0.1-0.6,0-0.8l1.6-1.6c0.2-0.2,0.5-0.4,0.8-0.4h0.1c0.3,0,0.6,0.1,0.8,0.4l1.6,1.6
		c0.2,0.2,0.2,0.5,0,0.8c-0.2,0.3-0.5,0.3-0.7,0.1l-1.8-1.3L34.5,93.9z"/>
	<path class="st0" d="M54.6,94c0.2,0.4,0.3,0.9,0.3,1.5c0,1-0.6,1.8-1.9,1.6c0.8,1,1.4,2.5,1.4,4.4c0,4.3-2.6,6.6-5.8,6.6
		c-3.3,0-5.6-2.6-5.6-6.3c0-4,2.5-6.6,5.8-6.6c0.7,0,1.4,0.1,1.9,0.3c0.6,0.2,1.5,0.7,2.1,0.7c0.6,0,0.8-0.3,0.8-0.8
		c0-0.4-0.1-0.9-0.3-1.2L54.6,94z M52.7,101.6c0-2.5-1.3-5.1-4-5.1c-2.7,0-4,2.5-4,5.2c0,2.6,1.4,5.1,4,5.1
		C51.3,106.8,52.7,104.5,52.7,101.6z"/>
	<path class="st0" d="M67.3,93.5c0.2,0.4,0.3,0.9,0.3,1.4c0,0.9-0.6,1.5-1.7,1.6l-0.3,0v6.3c0,3.8-2,5.4-4.7,5.4
		c-2.6,0-4.5-1.5-4.5-5.3v-7.3h1.6v7.4c0,2.8,1.2,4,2.9,4c1.9,0,3-1.2,3-4v-7.4h1.5c0.6,0,0.9-0.2,0.9-0.7c0-0.4-0.1-0.7-0.3-1.1
		L67.3,93.5z"/>
	<path class="st0" d="M71.4,108.2c-1.8,0-2.8-1-2.8-2.9c0-2.1,1.2-3.1,4.3-3.1h0.8v-0.7c0-1-0.1-1.7-1.3-1.7c-0.8,0-1.6,0.3-2.3,0.6
		c-0.2,0.1-0.5,0-0.6-0.2l-0.2-0.4c-0.1-0.2,0-0.5,0.2-0.7c0.8-0.4,1.8-0.8,3.1-0.8c1.8,0,2.8,0.8,2.8,2.8v6.2
		c0,0.3-0.2,0.5-0.5,0.5h-0.3c-0.3,0-0.5-0.2-0.6-0.5l-0.1-0.5C73.2,107.6,72.4,108.2,71.4,108.2z M72.2,96.8
		c-1.3,0-2.2-0.9-2.5-1.9c-0.1-0.2,0.1-0.5,0.3-0.6l0.1,0c0.3-0.1,0.6,0.1,0.7,0.3c0.3,0.5,0.6,0.7,1.4,0.7c0.7,0,1.1-0.3,1.4-0.7
		c0.1-0.3,0.4-0.4,0.7-0.3l0.1,0c0.2,0.1,0.4,0.3,0.3,0.6C74.4,95.9,73.5,96.8,72.2,96.8z M71.6,106.9c0.9,0,1.6-0.6,2-1.1v-2.5
		h-0.6c-2.3,0-2.8,0.6-2.8,1.9C70.3,106.5,70.7,106.9,71.6,106.9z"/>
	<path class="st0" d="M80.6,108.2c-1.8,0-2.8-1-2.8-2.9c0-2.1,1.2-3.1,4.3-3.1h0.8v-0.7c0-1-0.1-1.7-1.3-1.7c-0.8,0-1.6,0.3-2.3,0.6
		c-0.2,0.1-0.5,0-0.6-0.2l-0.2-0.4c-0.1-0.2,0-0.5,0.2-0.7c0.8-0.4,1.8-0.8,3.1-0.8c1.8,0,2.8,0.8,2.8,2.8v6.2
		c0,0.3-0.2,0.5-0.5,0.5h-0.3c-0.3,0-0.5-0.2-0.6-0.5l-0.1-0.5C82.4,107.6,81.6,108.2,80.6,108.2z M79.6,97.1
		c-0.2,0.1-0.5,0.1-0.7-0.1c-0.2-0.2-0.1-0.6,0-0.8l1.6-1.6c0.2-0.2,0.5-0.4,0.8-0.4h0.1c0.3,0,0.6,0.1,0.8,0.4l1.6,1.6
		c0.2,0.2,0.2,0.5,0,0.8c-0.2,0.3-0.5,0.3-0.7,0.1l-1.8-1.3L79.6,97.1z M80.8,106.9c0.9,0,1.6-0.6,2-1.1v-2.5h-0.6
		c-2.3,0-2.8,0.6-2.8,1.9C79.5,106.5,79.9,106.9,80.8,106.9z"/>
	<path class="st0" d="M90.8,108.2c-2.4,0-3.8-1.4-3.8-4.9c0-3.5,1.4-4.9,3.6-4.9c2.2,0,3.5,1.3,3.5,4.6v0.3c0,0.2-0.1,0.3-0.3,0.3
		h-5.1c0,2.5,0.6,3.2,2.1,3.2c0.8,0,1.3-0.2,1.8-0.6c0.2-0.2,0.5-0.1,0.7,0.1l0.3,0.4c0.1,0.2,0.1,0.5-0.1,0.7
		C92.7,107.9,92,108.2,90.8,108.2z M88.8,97.1c-0.2,0.1-0.5,0.1-0.7-0.1c-0.2-0.2-0.1-0.6,0-0.8l1.6-1.6c0.2-0.2,0.5-0.4,0.8-0.4
		h0.1c0.3,0,0.6,0.1,0.8,0.4l1.6,1.6c0.2,0.2,0.2,0.5,0,0.8c-0.2,0.3-0.5,0.3-0.7,0.1l-1.8-1.3L88.8,97.1z M90.6,99.7
		c-1.1,0-1.7,0.6-1.9,2.8h3.7C92.4,100.3,91.9,99.7,90.6,99.7z"/>
	<path class="st0" d="M99.9,108.2c-2.3,0-3.8-1.4-3.8-4.9c0-3.5,1.5-4.9,3.8-4.9c2.3,0,3.8,1.4,3.8,4.9
		C103.7,106.8,102.2,108.2,99.9,108.2z M98.1,97.1c-0.2,0.1-0.5,0.1-0.7-0.1c-0.2-0.2-0.1-0.6,0-0.8l1.6-1.6
		c0.2-0.2,0.5-0.4,0.8-0.4h0.1c0.3,0,0.6,0.1,0.8,0.4l1.6,1.6c0.2,0.2,0.2,0.5,0,0.8c-0.2,0.3-0.5,0.3-0.7,0.1l-1.8-1.3L98.1,97.1z
		 M99.9,106.9c1.4,0,2.1-0.8,2.1-3.6c0-2.9-0.7-3.6-2.1-3.6c-1.4,0-2.1,0.7-2.1,3.6C97.8,106.1,98.5,106.9,99.9,106.9z"/>
	<path class="st0" d="M114.6,97.5c0.2,0.4,0.3,0.8,0.3,1.4c0,1-0.6,1.7-1.7,1.6c0.6,0.7,0.9,1.8,0.9,3c0,3.3-2.3,4.8-4.5,4.8
		c-2.4,0-4.3-1.8-4.3-4.6c0-3,2-4.8,4.4-4.8c0.6,0,1,0.1,1.5,0.3c0.4,0.1,1,0.5,1.6,0.5c0.5,0,0.7-0.3,0.7-0.7
		c0-0.4-0.1-0.8-0.3-1.1L114.6,97.5z M107,103.5c0,2,1.1,3.4,2.7,3.4c1.6,0,2.7-1.5,2.7-3.5c0-1.5-0.8-3.4-2.7-3.4
		C107.9,100,107,101.8,107,103.5z"/>
	<path class="st0" d="M125.2,97c0.2,0.4,0.3,0.8,0.3,1.3c0,0.9-0.7,1.5-1.6,1.6l-0.2,0v5.6c0,0.9,0,1.7,0.1,2.4h-1.4l-0.1-1.5h0
		c-0.4,0.7-1.4,1.7-3,1.7c-1.4,0-3.1-0.8-3.1-3.9V99h1.6v5c0,1.7,0.5,2.9,2,2.9c1.1,0,1.9-0.8,2.1-1.5c0.1-0.2,0.1-0.5,0.1-0.8V99
		h1.3c0.6,0,0.9-0.3,0.9-0.7c0-0.4-0.1-0.7-0.3-1.1L125.2,97z"/>
	<path class="st0" d="M127,107.9c-0.3,0-0.5-0.2-0.5-0.5V107c0-0.3,0.2-0.5,0.5-0.5h1.9v-8.3l-1.9,0.9c-0.2,0.1-0.6,0-0.7-0.2
		c-0.2-0.3-0.1-0.6,0.1-0.7l2.4-1.8c0.2-0.2,0.6-0.3,0.9-0.3h0.3c0.3,0,0.5,0.2,0.5,0.5v10h1.6c0.3,0,0.5,0.2,0.5,0.5v0.4
		c0,0.3-0.2,0.5-0.5,0.5H127z"/>
	<path class="st0" d="M135,107.9c-0.3,0-0.5-0.2-0.5-0.5v-0.6c0-0.3,0.1-0.6,0.4-0.8c4.2-3.7,5-4.9,5-6.7c0-1.4-0.7-2.1-2-2.1
		c-1,0-1.7,0.3-2.4,0.6c-0.2,0.1-0.5,0-0.6-0.2l-0.2-0.3c-0.1-0.2,0-0.5,0.2-0.7c1-0.6,2-0.9,3.1-0.9c2,0,3.6,1,3.6,3.4
		c0,2.2-1.1,3.8-5.2,7.2h4.9c0.3,0,0.5,0.2,0.5,0.5v0.5c0,0.3-0.2,0.5-0.5,0.5H135z"/>
	<path class="st0" d="M146.8,109.1c-0.9,0-1.9-0.1-2.7-0.4c-0.3-0.1-0.4-0.3-0.4-0.6l0.1-0.4c0.1-0.3,0.3-0.4,0.6-0.4
		c0.7,0.2,1.6,0.3,2.3,0.3c2,0,2.7-0.7,2.7-2.6c0-1.9-0.9-2.4-2.8-2.4h-0.4c-0.2,0-0.3-0.1-0.3-0.3v-0.6c0-0.2,0.2-0.4,0.4-0.4h0.5
		c1.7,0,2.3-0.7,2.3-2.2c0-1.2-0.6-1.9-2-1.9c-0.8,0-1.6,0.2-2.4,0.5c-0.2,0.1-0.5,0-0.6-0.2l-0.1-0.3c-0.1-0.2,0-0.5,0.2-0.6
		c1-0.5,2-0.7,3.1-0.7c2.2,0,3.5,1.4,3.5,3.1c0,1.2-0.4,2.4-1.8,3c1.4,0.4,2.2,1.7,2.2,3.1C151.3,107.6,150,109.1,146.8,109.1z"/>
	<path class="st0" d="M153.9,106.1c-0.3,0-0.5-0.2-0.5-0.5V105c0-0.3,0.1-0.6,0.2-0.9l3.3-7.5c0.1-0.2,0.4-0.4,0.7-0.4h0.8
		c0.2,0,0.4,0.2,0.3,0.4l-3.6,8h4.1v-4.4c0-0.3,0.2-0.5,0.5-0.6l0.7-0.1c0.3-0.1,0.5,0.1,0.5,0.4v4.7h0.9c0.3,0,0.5,0.2,0.5,0.5v0.5
		c0,0.3-0.2,0.5-0.5,0.5h-0.9v2.4c0,0.3-0.2,0.5-0.5,0.5h-0.7c-0.3,0-0.5-0.2-0.5-0.5v-2.4H153.9z"/>
	<path class="st0" d="M166.6,109.1c-0.9,0-1.6-0.2-2.3-0.4c-0.3-0.1-0.4-0.4-0.4-0.6l0.1-0.4c0.1-0.3,0.3-0.4,0.6-0.4
		c0.7,0.2,1.3,0.3,2.1,0.3c2.1,0,3.1-1.1,3.1-3c0-1.9-1-2.6-2.9-2.6c-0.6,0-1.3,0.1-1.8,0.2c-0.2,0.1-0.4-0.1-0.4-0.4l0.5-5.4
		c0-0.3,0.2-0.5,0.5-0.5h5c0.3,0,0.5,0.2,0.5,0.5v0.5c0,0.3-0.2,0.5-0.5,0.5h-4.1l-0.3,3.3c0.3-0.1,0.7-0.1,1-0.1
		c2.5,0,4.3,1.3,4.3,3.8C171.5,107.5,169.7,109.1,166.6,109.1z"/>
	<path class="st0" d="M178,108.2c-2.5,0-4.2-1.9-4.2-5.3c0-4.7,2.2-6.9,6.1-7.8c0.3-0.1,0.5,0.1,0.6,0.4l0.1,0.3
		c0.1,0.2-0.1,0.5-0.3,0.6c-2.6,0.8-4.1,1.7-4.6,4.5c0.7-0.7,1.6-1.1,2.7-1.1c2.1,0,3.8,1.6,3.8,4.1
		C182.1,106.6,180.3,108.2,178,108.2z M178,101.1c-1.1,0-1.8,0.4-2.5,1c0,0.3,0,0.6,0,1c0,2.8,0.9,3.9,2.5,3.9
		c1.6,0,2.4-1.1,2.4-2.9C180.3,102.1,179.5,101.1,178,101.1z"/>
	<path class="st0" d="M186.8,108.6c0,0.3-0.3,0.5-0.5,0.4l-0.8-0.1c-0.3,0-0.5-0.3-0.4-0.5c0.6-5.3,2.7-8.8,4.4-10.8h-5.3
		c-0.3,0-0.5-0.2-0.5-0.5v-0.5c0-0.3,0.2-0.5,0.5-0.5h6.5c0.3,0,0.5,0.2,0.5,0.5v0.5c0,0.3-0.1,0.6-0.3,0.9
		C188.9,100.4,187.2,104.2,186.8,108.6z"/>
	<path class="st0" d="M197.2,108.2c-2.7,0-4.2-1.5-4.2-3.6c0-1.8,1-2.7,2.5-3.4c-1.6-0.8-2-2.1-2-3.1c0-2,1.3-3.2,3.7-3.2
		c2.3,0,3.6,1.3,3.6,3.1c0,1.3-0.6,2.3-2.3,3.1c2,0.8,2.7,2,2.7,3.6C201.3,106.9,199.7,108.2,197.2,108.2z M197.8,102.4l-1.3-0.5
		c-1.1,0.6-1.8,1.3-1.8,2.7c0,1.7,0.9,2.4,2.5,2.4c1.5,0,2.3-0.8,2.3-2C199.6,103.8,199.2,103,197.8,102.4z M195.3,98.1
		c0,1.1,0.3,1.6,1.8,2.3l0.4,0.2c1.4-0.8,1.7-1.5,1.7-2.5c0-1.2-0.7-1.9-2-1.9C195.9,96.2,195.3,96.9,195.3,98.1z"/>
	<path class="st0" d="M205.4,109.1c-0.3,0.1-0.5-0.1-0.6-0.4l-0.1-0.3c-0.1-0.2,0.1-0.5,0.3-0.6c2.6-0.7,4.2-1.7,4.7-4.5
		c-0.7,0.6-1.6,1-2.6,1c-2.3,0-3.8-1.7-3.8-4.1c0-2.8,1.8-4.3,4.1-4.3c2.5,0,4.2,1.8,4.2,5.3C211.7,105.9,209.6,108.1,205.4,109.1z
		 M207.4,103c1.1,0,1.9-0.4,2.6-1c0-0.3,0-0.7,0-1.1c0-2.8-1-3.8-2.5-3.8c-1.6,0-2.3,1.1-2.3,2.9C205.2,102.1,206,103,207.4,103z"/>
	<path class="st0" d="M218.7,108.1c-2.9,0-4.6-2-4.6-6.1c0-4,1.7-6.2,4.6-6.2c2.9,0,4.6,2,4.6,6.1
		C223.2,106.1,221.6,108.1,218.7,108.1z M218.7,106.8c2,0,2.8-1.4,2.8-4.7c0-3.3-0.8-4.8-2.8-4.8c-2,0-2.8,1.5-2.8,4.7
		C215.8,105.3,216.6,106.8,218.7,106.8z"/>
	<path class="st0" d="M1.8,121.9c-0.8,0-1.3-0.6-1.3-1.6c0-1.2,0.4-2.3,1.8-2.9c0.2-0.1,0.4,0,0.5,0.2c0.1,0.3,0,0.5-0.2,0.7
		c-0.4,0.3-0.7,0.7-0.7,1.2c0.4,0,1.1,0.4,1.1,1.2C3,121.4,2.5,121.9,1.8,121.9z"/>
	<path class="st0" d="M7.5,126.3c-0.3,0-0.5-0.2-0.5-0.5v-1.2c0-1.3,0.4-1.9,1.3-2.6l0.1-0.1c0.7-0.5,1.1-0.8,1.1-2
		c0-1-0.4-1.4-1.5-1.4c-0.7,0-1.4,0.3-1.9,0.6c-0.2,0.1-0.5,0.1-0.6-0.2l-0.2-0.4c-0.1-0.2-0.1-0.5,0.2-0.7c0.7-0.4,1.6-0.8,2.6-0.8
		c1.8,0,3,0.8,3,2.8c0,1.7-0.8,2.3-1.7,2.9l-0.3,0.2c-0.6,0.4-0.7,0.9-0.7,1.6v1c0,0.3-0.2,0.5-0.5,0.5H7.5z M7.7,130.3
		c-0.7,0-1.2-0.5-1.2-1.2c0-0.7,0.5-1.2,1.2-1.2c0.7,0,1.2,0.5,1.2,1.2C8.9,129.8,8.4,130.3,7.7,130.3z"/>
	<path class="st0" d="M14.6,117.2c0.8,0,1.3,0.6,1.3,1.6c0,1.2-0.4,2.3-1.8,2.9c-0.2,0.1-0.4,0-0.5-0.2c-0.1-0.3,0-0.5,0.2-0.7
		c0.4-0.3,0.7-0.7,0.7-1.2c-0.4,0-1.1-0.4-1.1-1.2C13.4,117.7,14,117.2,14.6,117.2z"/>
	<path class="st0" d="M19.6,121.9c-0.8,0-1.3-0.6-1.3-1.6c0-1.2,0.4-2.3,1.8-2.9c0.2-0.1,0.4,0,0.6,0.2c0.1,0.2,0,0.5-0.2,0.7
		c-0.4,0.3-0.7,0.7-0.7,1.2c0.4,0,1.1,0.4,1.1,1.2C20.7,121.4,20.2,121.9,19.6,121.9z M23.2,121.9c-0.8,0-1.3-0.6-1.3-1.6
		c0-1.2,0.4-2.3,1.8-2.9c0.2-0.1,0.4,0,0.6,0.2c0.1,0.2,0,0.5-0.2,0.7c-0.4,0.3-0.7,0.7-0.7,1.2c0.4,0,1.1,0.4,1.1,1.2
		C24.4,121.4,23.8,121.9,23.2,121.9z"/>
	<path class="st0" d="M28.1,130.3c-0.7,0-1.2-0.5-1.2-1.2c0-0.7,0.5-1.2,1.2-1.2c0.7,0,1.2,0.5,1.2,1.2
		C29.3,129.8,28.8,130.3,28.1,130.3z M28,126.3c-0.3,0-0.5-0.2-0.5-0.5l-0.4-7.9c0-0.3,0.2-0.5,0.5-0.5h1c0.3,0,0.5,0.2,0.5,0.5
		l-0.4,7.9c0,0.3-0.2,0.5-0.5,0.5H28z"/>
	<path class="st0" d="M32.6,121.8c-0.2,0.1-0.4,0-0.6-0.2c-0.1-0.2,0-0.5,0.2-0.7c0.4-0.3,0.7-0.7,0.7-1.2c-0.4,0-1.1-0.4-1.1-1.2
		c0-0.7,0.5-1.2,1.1-1.2c0.8,0,1.3,0.6,1.3,1.6C34.3,120.1,33.9,121.2,32.6,121.8z M36.2,121.8c-0.2,0.1-0.4,0-0.6-0.2
		c-0.1-0.2,0-0.5,0.2-0.7c0.4-0.3,0.7-0.7,0.7-1.2c-0.4,0-1.1-0.4-1.1-1.2c0-0.7,0.5-1.2,1.1-1.2c0.8,0,1.3,0.6,1.3,1.6
		C38,120.1,37.6,121.2,36.2,121.8z"/>
	<path class="st0" d="M44.7,132.7c-0.1,0.2-0.4,0.3-0.6,0.2c-2.4-1.4-3.7-4-3.7-8.3c0-4.5,1.3-7.1,3.7-8.5c0.2-0.1,0.5,0,0.6,0.2
		l0.1,0.1c0.1,0.2,0.1,0.6-0.1,0.7c-1.7,1.3-2.5,3.4-2.5,7.4c0,4.1,0.8,6.1,2.5,7.3c0.2,0.2,0.3,0.5,0.1,0.7L44.7,132.7z"/>
	<path class="st0" d="M49.6,124.6c-1.7,0-2.9-1.3-2.9-3.2c0-1.9,1.1-3.2,2.8-3.2c1.7,0,2.8,1.3,2.8,3.2
		C52.4,123.3,51.3,124.6,49.6,124.6z M49.6,123.4c0.9,0,1.3-0.6,1.3-1.9c0-1.6-0.4-2.1-1.3-2.1c-0.9,0-1.3,0.6-1.3,1.9
		C48.2,122.9,48.7,123.4,49.6,123.4z M49.6,130.1c-0.2,0-0.4-0.2-0.2-0.4l6.6-11c0.1-0.2,0.4-0.4,0.7-0.4h0.5c0.2,0,0.4,0.2,0.2,0.4
		l-6.6,11c-0.1,0.2-0.4,0.4-0.7,0.4H49.6z M57.3,130.3c-1.7,0-2.9-1.3-2.9-3.2c0-1.9,1.1-3.2,2.8-3.2c1.7,0,2.8,1.3,2.8,3.2
		C60.1,129.1,59,130.3,57.3,130.3z M57.3,129.2c0.9,0,1.3-0.6,1.3-1.9c0-1.6-0.4-2.1-1.3-2.1c-0.9,0-1.3,0.6-1.3,1.9
		C55.9,128.7,56.4,129.2,57.3,129.2z"/>
	<path class="st0" d="M62.8,132.9c-0.2,0.1-0.5,0-0.6-0.2l-0.1-0.1c-0.1-0.2-0.1-0.6,0.1-0.7c1.7-1.2,2.5-3.2,2.5-7.3
		c0-4.1-0.8-6.2-2.5-7.4c-0.2-0.2-0.3-0.5-0.1-0.7l0.1-0.1c0.1-0.2,0.4-0.3,0.6-0.2c2.4,1.4,3.7,4.1,3.7,8.5
		C66.6,128.9,65.2,131.5,62.8,132.9z"/>
	<path class="st0" d="M69.8,133c-0.3,0-0.5-0.2-0.5-0.5v-15.5c0-0.3,0.2-0.5,0.5-0.5h2.4c0.3,0,0.5,0.2,0.5,0.5v0.3
		c0,0.3-0.2,0.5-0.5,0.5h-1.3v14h1.3c0.3,0,0.5,0.2,0.5,0.5v0.3c0,0.3-0.2,0.5-0.5,0.5H69.8z"/>
	<path class="st0" d="M75.4,122.8c-0.3,0-0.5-0.2-0.5-0.5v-0.4c0-0.3,0.2-0.5,0.5-0.5h1.4l0.4-2.6c0-0.3,0.3-0.5,0.6-0.5h0.3
		c0.3,0,0.4,0.2,0.4,0.5l-0.4,2.6h2.1l0.4-2.6c0-0.3,0.3-0.5,0.6-0.5h0.3c0.3,0,0.4,0.2,0.4,0.5l-0.4,2.6h1.1c0.3,0,0.5,0.2,0.5,0.5
		v0.4c0,0.3-0.2,0.5-0.5,0.5h-1.3l-0.4,2.7h1.1c0.3,0,0.5,0.2,0.5,0.5v0.4c0,0.3-0.2,0.5-0.5,0.5h-1.4l-0.4,2.8
		c0,0.3-0.3,0.5-0.6,0.5h-0.3c-0.3,0-0.4-0.2-0.4-0.5l0.4-2.8h-2.1l-0.4,2.8c0,0.3-0.3,0.5-0.6,0.5H76c-0.3,0-0.4-0.2-0.4-0.5
		l0.4-2.8h-1.1c-0.3,0-0.5-0.2-0.5-0.5V126c0-0.3,0.2-0.5,0.5-0.5h1.3l0.4-2.7H75.4z M77.9,122.8l-0.4,2.7h2.1l0.4-2.7H77.9z"/>
	<path class="st0" d="M85.3,133c-0.3,0-0.5-0.2-0.5-0.5v-0.3c0-0.3,0.2-0.5,0.5-0.5h1.3v-14h-1.3c-0.3,0-0.5-0.2-0.5-0.5v-0.3
		c0-0.3,0.2-0.5,0.5-0.5h2.4c0.3,0,0.5,0.2,0.5,0.5v15.5c0,0.3-0.2,0.5-0.5,0.5H85.3z"/>
	<path class="st0" d="M94.5,133c-1.2,0-2.2-0.6-2.2-2.3v-3.8c0-1-0.3-1.3-1.1-1.4c-0.3,0-0.5-0.3-0.5-0.5v-0.4
		c0-0.3,0.2-0.5,0.5-0.5c0.8-0.1,1.1-0.4,1.1-1.4v-3.8c0-1.8,1-2.3,2.2-2.3h0.9c0.3,0,0.5,0.2,0.5,0.5v0.3c0,0.3-0.2,0.5-0.5,0.5
		h-0.6c-0.7,0-0.9,0.3-0.9,1.2v3.8c0,1.5-0.6,1.8-1.4,1.9v0c0.8,0.1,1.4,0.4,1.4,1.9v3.9c0,0.9,0.1,1.2,0.9,1.2h0.6
		c0.3,0,0.5,0.2,0.5,0.5v0.3c0,0.3-0.2,0.5-0.5,0.5H94.5z"/>
	<path class="st0" d="M104,133.1c-4.1,0-6.1-2.4-6.1-6.7c0-4.5,2.6-7.9,7.3-7.9c4.1,0,6.1,2.6,6.1,6.4c0,3.5-1,5.4-3.3,5.4
		c-1.5,0-2.2-0.8-2.4-1.9c-0.7,0.8-1.6,1.6-2.8,1.6c-0.9,0-1.7-0.8-1.7-2.6c0-0.6,0.1-1.2,0.2-1.9c0.6-2.7,1.6-3.8,3.4-3.8
		c0.9,0,1.6,0.5,1.9,0.9l0-0.2c0.1-0.3,0.3-0.5,0.6-0.5h0.6c0.2,0,0.4,0.2,0.4,0.5l-1,4.8c-0.1,0.3-0.1,0.6-0.1,0.8
		c0,0.8,0.4,1.1,0.9,1.1c1.3,0,1.9-1.3,1.9-4.1c0-3.4-1.1-5.2-4.6-5.2c-4,0-5.7,2.9-5.7,6.7c0,3.8,1.2,5.4,4.6,5.4
		c0.9,0,1.5-0.1,2.1-0.3c0.3-0.1,0.5,0.1,0.6,0.3l0.1,0.2c0.1,0.2-0.1,0.5-0.3,0.6C105.7,133,104.9,133.1,104,133.1z M103.2,128.8
		c0.8,0,1.6-0.7,2.2-1.3l0.9-4c-0.4-0.3-0.9-0.7-1.5-0.7c-1.1,0-1.5,0.7-2,2.8c-0.2,0.9-0.3,1.6-0.3,2.1
		C102.6,128.5,102.8,128.8,103.2,128.8z"/>
	<path class="st0" d="M113.6,133c-0.3,0-0.5-0.2-0.5-0.5v-0.3c0-0.3,0.2-0.5,0.5-0.5h0.6c0.7,0,0.9-0.3,0.9-1.2v-3.9
		c0-1.5,0.6-1.8,1.4-1.9v0c-0.8-0.1-1.4-0.4-1.4-1.9v-3.8c0-0.9-0.1-1.2-0.9-1.2h-0.6c-0.3,0-0.5-0.2-0.5-0.5v-0.3
		c0-0.3,0.2-0.5,0.5-0.5h0.9c1.2,0,2.2,0.6,2.2,2.3v3.8c0,1,0.3,1.3,1.1,1.4c0.3,0,0.5,0.3,0.5,0.5v0.4c0,0.3-0.2,0.5-0.5,0.5
		c-0.8,0.1-1.1,0.4-1.1,1.4v3.8c0,1.8-1,2.3-2.2,2.3H113.6z"/>
	<path class="st0" d="M120.3,132.9c-0.2,0-0.4-0.2-0.4-0.5l4.1-15.9c0.1-0.3,0.3-0.5,0.6-0.5h0.5c0.2,0,0.4,0.2,0.4,0.5l-4.1,15.9
		c-0.1,0.3-0.3,0.5-0.6,0.5H120.3z"/>
	<path class="st0" d="M131.5,130.4c-3,0-4.3-1.6-4.3-3.8c0-1.8,0.9-2.9,2.7-3.8l-0.1-0.2c-0.8-1-1.3-1.7-1.3-2.8
		c0-1.7,1.2-2.8,3.1-2.8c1.8,0,3.1,1,3.1,2.9c0,1.4-0.9,2.3-2.5,3.1l2.7,3.2c0.2-0.7,0.4-1.4,0.5-2.3c0-0.3,0.3-0.5,0.5-0.4l0.6,0.1
		c0.3,0,0.5,0.3,0.4,0.5c-0.2,1.4-0.5,2.5-0.9,3.4l1.8,2.1c0.1,0.1,0,0.4-0.2,0.4h-1.2c-0.3,0-0.6-0.1-0.8-0.4l-0.6-0.7
		C134.2,129.9,133,130.4,131.5,130.4z M131.6,129.1c1.1,0,1.9-0.4,2.5-1.2l-3.4-4.1c-1.2,0.6-1.6,1.5-1.6,2.8
		C129,128.1,129.6,129.1,131.6,129.1z M130.2,119.9c0,0.7,0.4,1.3,0.9,1.8l0.4,0.5c1.1-0.7,1.5-1.2,1.5-2.1c0-1.1-0.5-1.6-1.3-1.6
		C130.7,118.4,130.2,119,130.2,119.9z"/>
	<path class="st0" d="M143.9,132.9c-0.3,0-0.5-0.2-0.6-0.5l-4.1-15.9c-0.1-0.2,0.1-0.5,0.4-0.5h0.5c0.3,0,0.5,0.2,0.6,0.5l4.1,15.9
		c0.1,0.2-0.1,0.5-0.4,0.5H143.9z"/>
	<path class="st0" d="M151.1,128.5c-0.1,0.1-0.2,0.1-0.4,0.1c-0.1,0-0.2,0-0.3-0.1l-3.5-3.1c-0.2-0.2-0.3-0.4-0.3-0.6v0
		c0-0.2,0.1-0.5,0.3-0.6l3.5-3.1c0.1-0.1,0.2-0.1,0.3-0.1c0.1,0,0.3,0.1,0.4,0.2l0.3,0.3c0.2,0.2,0.2,0.5,0,0.7l-3.1,2.8l3.1,2.8
		c0.2,0.2,0.2,0.5,0,0.7L151.1,128.5z"/>
	<path class="st0" d="M154.1,126c-0.3,0-0.5-0.2-0.5-0.5v-0.7c0-0.3,0.2-0.5,0.5-0.5h2.6c0.3,0,0.5,0.2,0.5,0.5v0.7
		c0,0.3-0.2,0.5-0.5,0.5H154.1z"/>
	<path class="st0" d="M163,128.7c-0.3,0-0.5-0.2-0.5-0.5v-2.8H160c-0.3,0-0.5-0.2-0.5-0.5v-0.4c0-0.3,0.2-0.5,0.5-0.5h2.5v-2.8
		c0-0.3,0.2-0.5,0.5-0.5h0.5c0.3,0,0.5,0.2,0.5,0.5v2.8h2.5c0.3,0,0.5,0.2,0.5,0.5v0.4c0,0.3-0.2,0.5-0.5,0.5H164v2.8
		c0,0.3-0.2,0.5-0.5,0.5H163z"/>
	<path class="st0" d="M170.2,125.4c-0.3,0-0.5-0.2-0.5-0.5v-0.4c0-0.3,0.2-0.5,0.5-0.5h6.5c0.3,0,0.5,0.2,0.5,0.5v0.4
		c0,0.3-0.2,0.5-0.5,0.5H170.2z M173.5,122.6c-0.7,0-1.2-0.5-1.2-1.2c0-0.7,0.5-1.2,1.2-1.2c0.7,0,1.2,0.5,1.2,1.2
		C174.7,122,174.1,122.6,173.5,122.6z M173.5,129.3c-0.7,0-1.2-0.5-1.2-1.2c0-0.7,0.5-1.2,1.2-1.2c0.7,0,1.2,0.5,1.2,1.2
		C174.7,128.8,174.1,129.3,173.5,129.3z"/>
	<path class="st0" d="M181.4,128c-0.1,0.1-0.2,0.1-0.3,0.1c-0.1,0-0.2-0.1-0.3-0.1l-0.3-0.3c-0.2-0.2-0.2-0.5,0-0.7l2.1-2.2
		l-2.1-2.2c-0.2-0.2-0.2-0.5,0-0.7l0.3-0.3c0.1-0.1,0.2-0.1,0.3-0.1c0.1,0,0.2,0,0.3,0.1l2.1,2.2l2-2.2c0.1-0.1,0.2-0.1,0.3-0.1
		c0.1,0,0.2,0,0.3,0.1l0.3,0.3c0.2,0.2,0.2,0.5,0,0.7l-2.1,2.2l2.1,2.2c0.2,0.2,0.2,0.5,0,0.7l-0.3,0.3c-0.1,0.1-0.2,0.1-0.3,0.1
		c-0.1,0-0.2-0.1-0.3-0.1l-2.1-2.2L181.4,128z"/>
	<path class="st0" d="M190.2,123.6c-0.3,0-0.5-0.2-0.5-0.5v-0.4c0-0.3,0.2-0.5,0.5-0.5h6.5c0.3,0,0.5,0.2,0.5,0.5v0.4
		c0,0.3-0.2,0.5-0.5,0.5H190.2z M190.2,127.3c-0.3,0-0.5-0.2-0.5-0.5v-0.4c0-0.3,0.2-0.5,0.5-0.5h6.5c0.3,0,0.5,0.2,0.5,0.5v0.4
		c0,0.3-0.2,0.5-0.5,0.5H190.2z"/>
	<path class="st0" d="M200.8,128.5c-0.1,0.1-0.2,0.1-0.3,0.1c-0.1,0-0.3-0.1-0.4-0.2l-0.3-0.3c-0.2-0.2-0.2-0.5,0-0.7l3.1-2.8
		l-3.1-2.8c-0.2-0.2-0.2-0.5,0-0.7l0.3-0.3c0.1-0.1,0.2-0.1,0.4-0.1c0.1,0,0.2,0,0.3,0.1l3.5,3.1c0.2,0.2,0.3,0.4,0.3,0.6v0
		c0,0.2-0.1,0.5-0.3,0.6L200.8,128.5z"/>
	<path class="st0" d="M210.7,126.5c-2.5,0-4.1-1.9-4.1-4.8s1.7-4.8,4.1-4.8c2.5,0,4.1,1.9,4.1,4.8S213.2,126.5,210.7,126.5z
		 M210.7,125.7c2,0,3.1-1.5,3.1-3.9c0-2.5-1.1-4-3.1-4c-2,0-3.1,1.5-3.1,4C207.6,124.2,208.7,125.7,210.7,125.7z M209.5,124.3
		c-0.3,0-0.5-0.2-0.5-0.5v-4.4c0-0.3,0.2-0.5,0.5-0.5h1.1c1.3,0,1.8,0.6,1.8,1.5c0,0.9-0.3,1.2-0.9,1.4c0.3,0.1,0.5,0.4,0.7,0.9
		l0.3,1c0.1,0.3-0.1,0.5-0.3,0.5H212c-0.3,0-0.5-0.2-0.6-0.5l-0.3-1.1c-0.1-0.5-0.3-0.7-0.6-0.7h-0.4v1.7c0,0.3-0.2,0.5-0.5,0.5
		H209.5z M210.1,121.3h0.6c0.5,0,0.7-0.2,0.7-0.7c0-0.5-0.2-0.7-0.7-0.7h-0.6V121.3z"/>
	<path class="st0" d="M222.9,130.5c-3.6,0-5.9-2.7-5.9-6.9c0-4.2,2.4-6.9,5.9-6.9c3.5,0,5.9,2.7,5.9,6.9
		C228.8,127.8,226.4,130.5,222.9,130.5z M222.9,129.6c3,0,4.9-2.4,4.9-6c0-3.6-1.9-6-4.9-6c-3,0-4.8,2.3-4.8,6
		C218,127.2,219.9,129.6,222.9,129.6z M222.9,127.9c-2,0-3.2-1.3-3.2-4.2c0-3.2,1.3-4.2,3.2-4.2c0.8,0,1.5,0.3,2.1,0.9
		c0.2,0.2,0.1,0.5,0,0.7l-0.2,0.2c-0.2,0.2-0.5,0.1-0.7,0c-0.4-0.4-0.7-0.5-1.3-0.5c-1.1,0-1.6,0.4-1.6,3c0,2.5,0.5,3,1.7,3
		c0.5,0,0.9-0.2,1.2-0.5c0.2-0.2,0.5-0.2,0.7-0.1l0.2,0.2c0.2,0.2,0.2,0.5,0.1,0.6C224.6,127.5,223.9,127.9,222.9,127.9z"/>
	<path class="st0" d="M234.6,132.6c-0.3,0-0.5-0.2-0.5-0.5v-1.7c-1.1-0.1-2.2-0.4-3-1c-0.2-0.1-0.3-0.5-0.1-0.7l0.2-0.3
		c0.1-0.2,0.5-0.3,0.7-0.1c0.7,0.5,1.4,0.8,2.3,0.8v-4.4c-1.9-0.7-2.9-1.5-2.9-3.4s1.1-3,2.9-3.1v-2c0-0.3,0.2-0.5,0.5-0.5h0.2
		c0.3,0,0.5,0.2,0.5,0.5v2c0.8,0.1,1.5,0.3,2.1,0.6c0.2,0.1,0.3,0.4,0.2,0.6l-0.2,0.4c-0.1,0.2-0.4,0.3-0.7,0.2
		c-0.4-0.2-0.9-0.4-1.4-0.5v3.8c1.7,0.7,3.1,1.5,3.1,3.7c0,1.8-0.8,3.1-3,3.4v1.7c0,0.3-0.2,0.5-0.5,0.5H234.6z M232.8,121.1
		c0,1,0.4,1.3,1.3,1.7v-3.4C233.2,119.6,232.8,120.2,232.8,121.1z M236.6,127.1c0-1.2-0.4-1.6-1.4-2v3.9
		C236.3,128.8,236.6,128.2,236.6,127.1z"/>
	<path class="st0" d="M240.8,123.4c-0.3,0-0.5-0.2-0.5-0.5v-0.3c0-0.3,0.2-0.5,0.5-0.5h1.4c0.5-2.6,1.9-4.1,4.5-4.1
		c1,0,1.9,0.2,2.6,0.6c0.2,0.1,0.3,0.4,0.1,0.6l-0.2,0.3c-0.2,0.2-0.5,0.3-0.7,0.2c-0.5-0.3-1.1-0.4-1.8-0.4c-1.8,0-2.6,0.9-2.8,2.7
		h3.4c0.3,0,0.5,0.2,0.5,0.5v0.3c0,0.3-0.2,0.5-0.5,0.5h-3.5v1.6h3.5c0.3,0,0.5,0.2,0.5,0.5v0.3c0,0.3-0.2,0.5-0.5,0.5h-3.4
		c0.3,1.9,1.1,2.8,2.9,2.8c0.7,0,1.4-0.2,1.9-0.6c0.2-0.1,0.5-0.1,0.7,0.1l0.2,0.3c0.1,0.2,0.1,0.5-0.1,0.7
		c-0.7,0.5-1.7,0.8-2.7,0.8c-2.6,0-4.1-1.4-4.6-4.2h-1.4c-0.3,0-0.5-0.2-0.5-0.5v-0.3c0-0.3,0.2-0.5,0.5-0.5h1.3c0-0.2,0-0.4,0-0.7
		c0-0.3,0-0.6,0-0.9H240.8z"/>
	<path class="st0" d="M252.3,124.9c-0.3,0-0.5-0.2-0.5-0.5V124c0-0.3,0.2-0.5,0.5-0.5h0.6c-0.2-0.6-0.4-1.3-0.4-2.1
		c0-2.2,1.5-3.3,3.5-3.3c1.2,0,2.1,0.3,3,0.9c0.2,0.1,0.3,0.4,0.2,0.7l-0.2,0.3c-0.1,0.2-0.4,0.3-0.6,0.2c-0.6-0.4-1.3-0.6-2.3-0.6
		c-1.3,0-2,0.6-2,1.8c0,0.7,0.2,1.4,0.4,2.1h3.1c0.3,0,0.5,0.2,0.5,0.5v0.5c0,0.3-0.2,0.5-0.5,0.5H255c0.1,0.4,0.2,0.9,0.2,1.3
		c0,1-0.3,1.8-1.2,2.5h5c0.3,0,0.5,0.2,0.5,0.5v0.5c0,0.3-0.2,0.5-0.5,0.5h-6.6c-0.3,0-0.5-0.2-0.5-0.5v-0.5c0-0.3,0.2-0.6,0.4-0.7
		c1-0.5,1.4-1.2,1.4-2.1c0-0.5-0.1-0.9-0.2-1.4H252.3z"/>
	<path class="st0" d="M262.2,127.2c-0.3,0-0.5-0.2-0.5-0.5v-0.3c0-0.3,0.2-0.5,0.5-0.5h2.8v-0.4l-0.6-1.1h-2.3
		c-0.3,0-0.5-0.2-0.5-0.5v-0.3c0-0.3,0.2-0.5,0.5-0.5h1.7l-2.2-4.4c-0.1-0.2,0-0.4,0.3-0.4h1c0.3,0,0.6,0.2,0.7,0.4l1.6,3.3
		c0.3,0.7,0.6,1.4,0.8,2.1c0.2-0.6,0.4-1.4,0.7-2.1l1.6-3.4c0.1-0.3,0.4-0.4,0.7-0.4h0.9c0.2,0,0.4,0.2,0.3,0.4l-2.2,4.4h1.7
		c0.3,0,0.5,0.2,0.5,0.5v0.3c0,0.3-0.2,0.5-0.5,0.5h-2.3l-0.6,1.1v0.4h2.9c0.3,0,0.5,0.2,0.5,0.5v0.3c0,0.3-0.2,0.5-0.5,0.5h-2.9
		v2.5c0,0.3-0.2,0.5-0.5,0.5h-0.7c-0.3,0-0.5-0.2-0.5-0.5v-2.5H262.2z"/>
	<path class="st0" d="M276.1,132.6c-0.3,0-0.5-0.2-0.5-0.5v-1.8c-2-0.3-3.2-1.8-3.2-4.8c0-3.2,1.2-4.6,3.2-4.8v-1.8
		c0-0.3,0.2-0.5,0.5-0.5h0.2c0.3,0,0.5,0.2,0.5,0.5v1.8c0.8,0,1.4,0.3,2,0.7c0.2,0.2,0.2,0.5,0.1,0.7l-0.3,0.3
		c-0.2,0.2-0.5,0.2-0.7,0.1c-0.3-0.3-0.7-0.4-1.1-0.4v7.1c0.5-0.1,0.9-0.3,1.2-0.5c0.2-0.2,0.5-0.1,0.7,0.1l0.3,0.3
		c0.2,0.2,0.2,0.5,0,0.7c-0.6,0.5-1.2,0.7-2.1,0.8v1.7c0,0.3-0.2,0.5-0.5,0.5H276.1z M274.2,125.5c0,2.4,0.4,3.3,1.5,3.5V122
		C274.6,122.2,274.2,123,274.2,125.5z"/>
	<path class="st0" d="M282.6,124.6c-0.7,0-1.3-0.6-1.3-1.3c0-0.7,0.6-1.3,1.3-1.3c0.7,0,1.3,0.6,1.3,1.3
		C283.9,124.1,283.4,124.6,282.6,124.6z M282.6,130.3c-0.7,0-1.3-0.6-1.3-1.3c0-0.7,0.6-1.3,1.3-1.3c0.7,0,1.3,0.6,1.3,1.3
		C283.9,129.8,283.4,130.3,282.6,130.3z"/>
	<path class="st0" d="M288.2,124.6c-0.7,0-1.3-0.6-1.3-1.3c0-0.7,0.6-1.3,1.3-1.3c0.7,0,1.3,0.6,1.3,1.3
		C289.4,124.1,288.9,124.6,288.2,124.6z M287.6,132.5c-0.2,0.1-0.4,0-0.6-0.3c-0.1-0.2,0-0.5,0.2-0.7c0.4-0.3,0.8-0.7,0.7-1.3
		c-0.4,0-1.1-0.4-1.1-1.3c0-0.7,0.5-1.3,1.2-1.3c0.8,0,1.4,0.7,1.4,1.7C289.5,130.7,289,131.9,287.6,132.5z"/>
	<path class="st0" d="M293,132.5c-0.2,0.1-0.4,0-0.6-0.2c-0.1-0.2,0-0.6,0.2-0.7c0.4-0.3,0.8-0.7,0.7-1.3c-0.4,0-1.1-0.4-1.1-1.3
		c0-0.7,0.5-1.3,1.2-1.3c0.8,0,1.4,0.7,1.4,1.7C294.8,130.7,294.3,131.9,293,132.5z"/>
	<path class="st0" d="M298.6,130.3c-0.7,0-1.3-0.6-1.3-1.3c0-0.7,0.6-1.3,1.3-1.3c0.7,0,1.3,0.6,1.3,1.3
		C299.9,129.8,299.4,130.3,298.6,130.3z"/>
	<path class="st0" d="M304.4,123.9c-0.1,0.2-0.5,0.3-0.7,0.1l-0.2-0.1c-0.2-0.2-0.3-0.5-0.1-0.7l1.3-2l-2.1-0.7
		c-0.3-0.1-0.4-0.4-0.3-0.6l0.1-0.2c0.1-0.2,0.4-0.4,0.6-0.3l2,0.8v-2.3c0-0.3,0.2-0.5,0.5-0.5h0.3c0.3,0,0.5,0.2,0.5,0.5v2.3l2-0.7
		c0.2-0.1,0.5,0.1,0.6,0.3l0.1,0.2c0.1,0.2-0.1,0.5-0.3,0.6l-2.1,0.7l1.3,1.9c0.1,0.2,0.1,0.5-0.1,0.7l-0.2,0.1
		c-0.2,0.1-0.5,0.1-0.6-0.1l-1.3-1.9L304.4,123.9z"/>
</g>
</svg>
