<?xml version="1.0" encoding="utf-8"?>
<!-- Generator: Adobe Illustrator 23.0.1, SVG Export Plug-In . SVG Version: 6.00 Build 0)  -->
<svg version="1.1" id="Layer_1" xmlns="http://www.w3.org/2000/svg" xmlns:xlink="http://www.w3.org/1999/xlink" x="0px" y="0px"
	 viewBox="0 0 150 36" style="enable-background:new 0 0 150 36;" xml:space="preserve">
<style type="text/css">
	.st0{fill:#FFFFFF;}
	.st1{fill:#FB5A17;}
	.st2{fill-rule:evenodd;clip-rule:evenodd;fill:#FFFFFF;}
</style>
<g>
	<path class="st0" d="M36.1,18c0,9.6-7.8,17.4-17.4,17.4C9.1,35.4,1.3,27.6,1.3,18c0-9.6,7.8-17.4,17.4-17.4
		C28.3,0.6,36.1,8.4,36.1,18"/>
	<path class="st1" d="M56.3,20c-1.1,0-2-0.9-2-2c0-1.1,0.9-2,2-2l0,0v0h0.9V0.6h-0.9v0c-9.6,0-17.4,7.8-17.4,17.4
		c0,9.6,7.8,17.4,17.4,17.4v0h0.9V20H56.3L56.3,20z"/>
	<path class="st0" d="M79.8,10.5c0-2.6-1.6-4.9-4.8-4.9c-3.2,0-4.8,2.3-4.8,4.9c0,2.6,1.6,4.9,4.8,4.9
		C78.2,15.4,79.8,13.1,79.8,10.5 M82.8,10.5c0,4.5-3.6,7.7-7.8,7.7c-4.2,0-7.8-3.2-7.8-7.7c0-4.5,3.6-7.7,7.8-7.7
		C79.2,2.7,82.8,6,82.8,10.5 M87.8,18c-1.4,0-2.9-0.4-4-0.9c0,0,0.4-2.3,0.4-2.3c1.2,0.6,2.2,1,3.5,1c1,0,1.8-0.3,1.8-1
		c0-1.8-5.6-0.6-5.6-4.7c0-1.6,1.2-3.3,4.4-3.3c1.3,0,2.4,0.3,3.4,0.7c0,0,0,2.3,0,2.3C90.7,9.2,89.6,9,88.5,9c-1,0-1.5,0.4-1.5,0.8
		c0,1.8,5.4,0.6,5.4,4.7C92.4,16,91.4,18,87.8,18 M99.4,9c-1.8,0-2.8,1.2-2.8,2.4v3.8c0.6,0.3,1.4,0.5,2.3,0.5
		c2.3,0,3.4-1.5,3.4-3.5C102.3,10.2,101.3,9,99.4,9 M98.9,18c-1.7,0-3.5-0.4-5-1.2V3.1h2.7v4.8c0.6-0.6,1.8-1.2,3.2-1.2
		c2.9,0,5.2,1.7,5.2,5.5C105,16.1,102.1,18,98.9,18 M114.8,12.4c0-1.5-0.9-3.1-3-3.1c-2.1,0-3,1.6-3,3.1c0,1.5,0.9,3.1,3,3.1
		C113.9,15.5,114.8,13.9,114.8,12.4 M106.1,12.4c0-3.2,2.3-5.7,5.7-5.7c3.3,0,5.7,2.5,5.7,5.7c0,3.2-2.3,5.7-5.7,5.7
		C108.5,18,106.1,15.6,106.1,12.4 M121.7,10.3v7.5H119V7h2.3l0.1,1c0.9-0.7,2.3-1.2,3.7-1.2l-0.5,2.6
		C123.6,9.3,122.3,9.9,121.7,10.3 M133.7,10.9c0-0.9-0.7-1.7-1.9-1.7c-1,0-2.1,0.5-2.7,0.8v7.7h-2.7V7h2.3l0.1,1
		c0.9-0.7,2.3-1.2,3.6-1.2c2,0,4.1,0.6,4.1,4.3v6.8h-2.7C133.7,17.8,133.7,10.9,133.7,10.9z M140.5,11.1h5.6
		c-0.3-1.1-1.2-2.1-2.7-2.1C141.9,9,140.9,10,140.5,11.1 M143.3,6.7c3.6,0,5.4,2.7,5.4,5.6v0.8h-8.4c0.3,1.5,1.5,2.6,3.6,2.6
		c1.4,0,2.6-0.5,3.7-1.1l0.9,2.1c-1.4,0.9-3,1.4-4.9,1.4c-4.1,0-6-2.6-6-5.6C137.7,9.1,140.1,6.7,143.3,6.7 M81.3,32.1
		c-1.4,2.1-3.4,3.3-6.3,3.3c-4.2,0-7.8-3.2-7.8-7.7c0-4.5,3.6-7.7,7.8-7.7c2.8,0,4.8,1.2,6.2,3.2L79.2,25c-0.8-1.4-2.1-2.3-4.1-2.3
		c-3.2,0-4.8,2.3-4.8,4.9c0,2.6,1.6,4.9,4.8,4.9c2,0,3.2-0.8,4.1-2.1L81.3,32.1L81.3,32.1z"/>
	<path class="st2" d="M82.8,20.3h2.7V35h-2.7L82.8,20.3z"/>
	<path class="st0" d="M92.5,33c1.9,0,2.8-1.3,2.8-2.8v-3c-0.8-0.5-1.7-0.9-2.7-0.9c-2.2,0-3,1.8-3,3.5C89.6,31.4,90.5,33,92.5,33
		 M92.3,23.9c1.4,0,2.5,0.5,3.3,1.1l0.1-0.8H98V35h-2.7v-0.9c-0.7,0.7-1.9,1.1-3.1,1.1c-2.9,0-5.3-1.7-5.3-5.5
		C86.9,26.2,89.5,23.9,92.3,23.9 M102.6,27.5V35h-2.7V24.2h2.3l0.1,1c0.9-0.7,2.3-1.2,3.7-1.2l-0.5,2.6
		C104.6,26.5,103.2,27.1,102.6,27.5 M109.9,35h-2.7V20.3h2.7v8.5l4.1-4.7h3.2l-4.3,4.9l5.1,6h-3.6l-4.5-5.4V35z"/>
	<path class="st0" d="M119.7,28.3h5.6c-0.3-1.1-1.2-2.1-2.7-2.1C121.1,26.2,120.1,27.2,119.7,28.3 M122.5,23.9
		c3.6,0,5.4,2.7,5.4,5.6v0.8h-8.4c0.3,1.5,1.5,2.6,3.6,2.6c1.4,0,2.6-0.5,3.7-1.1l0.9,2.1c-1.4,0.9-3,1.4-4.9,1.4
		c-4.1,0-6-2.6-6-5.6C116.8,26.3,119.3,23.9,122.5,23.9"/>
</g>
</svg>
