<?xml version="1.0" encoding="utf-8"?>
<!-- Generator: Adobe Illustrator 23.0.1, SVG Export Plug-In . SVG Version: 6.00 Build 0)  -->
<svg version="1.1" id="Layer_1" xmlns="http://www.w3.org/2000/svg" xmlns:xlink="http://www.w3.org/1999/xlink" x="0px" y="0px"
	 viewBox="0 0 320 147" style="enable-background:new 0 0 320 147;" xml:space="preserve">
<style type="text/css">
	.st0{fill:#FFFFFF;}
</style>
<g>
	<path class="st0" d="M9,58.2v-1.1h1.5l-1.2-2.7H3.9l-1.2,2.7h1.5v1.1H0v-1.1h1.5l4.3-9.6H4.2v-1.1h3.1l4.6,10.7h1.5v1.1H9z
		 M6.7,47.8l-2.4,5.7H9L6.7,47.8z"/>
	<path class="st0" d="M18.7,46.4c0.8,0,1.6,0.1,2.3,0.6c0.8,0.6,1.2,1.4,1.2,2.3c0,1.1-0.6,2.1-1.6,2.6c1.4,0.5,2.2,1.7,2.2,3.1
		c0,0.9-0.4,1.8-1,2.4c-0.8,0.7-1.6,0.8-2.7,0.8h-5.1v-1.1h1.5v-9.6h-1.5v-1.1H18.7z M18.3,51.5c0.7,0,1.3,0,1.9-0.5
		c0.5-0.4,0.7-0.9,0.7-1.6c0-0.6-0.2-1.2-0.8-1.6c-0.5-0.4-1.1-0.3-1.8-0.3h-1.9v4H18.3z M18.5,57.1c0.8,0,1.5,0,2.1-0.4
		c0.6-0.4,0.8-1.2,0.8-1.8c0-0.7-0.3-1.5-0.9-1.9c-0.6-0.4-1.4-0.4-2.1-0.4h-1.9v4.6H18.5z"/>
	<path class="st0" d="M33.6,49.3c-0.9-1.3-2.5-2-4.1-2c-2.8,0-5,2.2-5,4.9c0,2.7,2.1,5,4.9,5c1.6,0,3.2-0.8,4.1-2.1h1.3
		c-1,2-3.1,3.3-5.4,3.3c-1.6,0-3.2-0.7-4.4-1.8c-1.2-1.2-1.8-2.8-1.8-4.4c0-1.7,0.7-3.2,1.8-4.4c1-1.1,2.6-1.7,4.3-1.7
		c1.6,0,3.1,0.6,4.1,1.7v-1.4h1.1v2.9H33.6z"/>
	<path class="st0" d="M37.1,47.5h-1.5v-1.1h5.2c1.7,0,3,0.4,4.2,1.6c1.2,1.1,1.7,2.7,1.7,4.3c0,1.6-0.6,3.1-1.7,4.2
		c-1.2,1.3-2.5,1.7-4.3,1.7h-5.2v-1.1h1.5V47.5z M40.6,57.1c1.4,0,2.6-0.2,3.6-1.3c0.9-0.9,1.4-2.2,1.4-3.5c0-1.3-0.5-2.7-1.5-3.6
		c-1-1-2-1.2-3.4-1.2h-2.4v9.6H40.6z"/>
	<path class="st0" d="M47.4,51.8H49v-4.3h-1.5v-1.1h5.2c1.7,0,3,0.4,4.2,1.6c1.2,1.1,1.7,2.7,1.7,4.3c0,1.6-0.6,3.1-1.7,4.2
		c-1.2,1.3-2.5,1.7-4.3,1.7h-5.2v-1.1H49v-4.4h-1.5V51.8z M50.1,51.8h2.7v0.9h-2.7v4.4h2.3c1.4,0,2.6-0.2,3.6-1.3
		c0.9-0.9,1.4-2.2,1.4-3.5c0-1.3-0.5-2.7-1.5-3.6c-1-1-2-1.2-3.4-1.2h-2.4V51.8z"/>
	<path class="st0" d="M67.6,55.2v3h-8.3v-1.1h1.5v-9.6h-1.5v-1.1h8.3v3h-1.2v-1.9H62v4.3h4.5v1H62v4.4h4.4v-1.9H67.6z"/>
	<path class="st0" d="M71.3,57.1h1.5v1.1h-4.2v-1.1h1.5v-9.6h-1.5v-1.1h8.3v3.1h-1.2v-2h-4.4v4.3h4.5v1h-4.5V57.1z"/>
	<path class="st0" d="M88.2,49.4c-1.1-1.4-2.6-2.1-4.3-2.1c-2.8,0-5,2.2-5,4.9c0,2.8,2.1,5,5,5c2.2,0,4.2-1.4,4.7-3.5h-5.9v-1H90
		v5.5h-1.1v-2.7c-1,1.9-2.9,3-5,3c-2,0-4.2-1.2-5.2-3c-0.3-0.5-0.9-1.8-0.9-3.2c0-1.7,0.7-3.3,1.7-4.3c1.2-1.2,2.7-1.8,4.5-1.8
		c1.6,0,3.2,0.7,4.2,1.8v-1.5h1.1v3H88.2z"/>
	<path class="st0" d="M99.2,47.5h-1.5v-1.1h4.2v1.1h-1.5v9.6h1.5v1.1h-4.2v-1.1h1.5v-4.4h-5.9v4.4h1.5v1.1h-4.2v-1.1h1.5v-9.6h-1.5
		v-1.1h4.2v1.1h-1.5v4.3h5.9V47.5z"/>
	<path class="st0" d="M105.2,57.1h1.5v1.1h-4.2v-1.1h1.5v-9.6h-1.5v-1.1h4.2v1.1h-1.5V57.1z"/>
	<path class="st0" d="M108.7,55.5c0.1,1,0.9,1.8,1.9,1.8c0.6,0,1.2-0.3,1.5-0.8c0.5-0.6,0.4-1.3,0.4-1.9v-7.1H111v-1.1h4.2v1.1h-1.5
		v7.3c0,0.9,0,1.6-0.7,2.4c-0.6,0.8-1.5,1.2-2.5,1.2c-1.7,0-3.1-1.2-3.1-2.9H108.7z"/>
	<path class="st0" d="M126.8,58.2h-4.3v-1.1h1.4l-5.1-4.8v4.8h1.5v1.1h-4.2v-1.1h1.5v-9.6h-1.5v-1.1h4.2v1.1h-1.5v4.4l4.8-4.4h-1.3
		v-1.1h4.3v1.1h-1.4l-5.1,4.5l5.4,5.1h1.4V58.2z"/>
	<path class="st0" d="M135.4,55.2v3h-7.7v-1.1h1.5v-9.6h-1.5v-1.1h4.2v1.1h-1.5v9.6h3.9v-1.9H135.4z"/>
	<path class="st0" d="M138.8,57.1h1.6v1.1h-4.2v-1.1h1.5v-9.6h-1.5v-1.1h3.3l4.3,10l4.7-10h3.3v1.1h-1.5v9.6h1.5v1.1h-4.2v-1.1h1.5
		v-9.2l-4.8,10.3h-0.9L138.8,48V57.1z"/>
	<path class="st0" d="M163.3,58.2h-1.2l-7-9.8v8.8h1.5v1.1h-4.2v-1.1h1.5v-9.6h-1.5v-1.1h2.7l7.1,9.9v-8.8h-1.5v-1.1h4.2v1.1h-1.5
		V58.2z"/>
	<path class="st0" d="M165.6,52.3c0-3.4,2.8-6.2,6.2-6.2c3.4,0,6.2,2.7,6.2,6.1c0,3.4-2.7,6.2-6.2,6.2
		C168.3,58.4,165.6,55.7,165.6,52.3z M176.7,52.2c0-2.7-2.2-4.9-5-4.9c-2.8,0-5,2.2-5,4.9c0,2.8,2.2,5,5,5v0
		C174.5,57.2,176.7,55,176.7,52.2z"/>
	<path class="st0" d="M181.5,57.1h1.5v1.1h-4.2v-1.1h1.5v-9.6h-1.5v-1.1h4.8c1,0,1.9,0.2,2.7,0.8c0.9,0.6,1.4,1.7,1.4,2.8
		c0,1-0.4,1.9-1.1,2.7c-0.8,0.8-1.7,0.9-2.8,0.9h-2.2V57.1z M183.6,52.4c0.7,0,1.4,0,2-0.5c0.6-0.5,0.9-1.2,0.9-1.9
		c0-0.7-0.4-1.5-0.9-1.9c-0.6-0.5-1.2-0.6-2-0.6h-2.1v4.9H183.6z"/>
	<path class="st0" d="M201.9,56.1v2.4c-1.4,0-2.7-0.4-3.8-1.2c-1.1,0.7-2.3,1.1-3.6,1.1c-3.5,0-6.1-2.8-6.1-6.2
		c0-3.4,2.7-6.1,6.1-6.1c3.4,0,6.2,2.7,6.2,6.1c0,1.6-0.6,3.2-1.8,4.4c0.6,0.4,1.3,0.7,2.1,0.8v-1.3H201.9z M199.5,52.3
		c0-2.8-2.2-5-5-5c-2.7,0-5,2.2-5,4.9c0,0.4,0.1,0.9,0.2,1.4c0.8-0.3,1.7-0.4,2.5-0.4c2.3,0,4,1.2,5.6,2.7
		C199,54.9,199.5,53.7,199.5,52.3z M196.8,56.2c-0.7-0.6-1.3-1.2-2.1-1.5c-0.7-0.4-1.6-0.6-2.4-0.6c-0.8,0-1.5,0.1-2.2,0.4
		c0.8,1.6,2.6,2.7,4.4,2.7c1,0,1.9-0.2,2.7-0.7L196.8,56.2z"/>
	<path class="st0" d="M212.4,58.2h-2.3l-3.6-5.1h0.4c0.9,0,1.7,0,2.5-0.4c0.8-0.5,1.3-1.4,1.3-2.4c0-0.8-0.3-1.6-0.9-2.1
		c-0.7-0.6-1.5-0.7-2.3-0.7h-2.3v9.6h1.4v1.1h-4.1v-1.1h1.5v-9.6h-1.5v-1.1h5.1c1.1,0,2.1,0.1,3,0.9c0.9,0.8,1.3,1.8,1.3,3
		c0,2-1.6,3.6-3.6,3.6l2.5,3.2h1.6V58.2z"/>
	<path class="st0" d="M218.8,49.2c-0.1-1.3-1.1-2.1-2.3-2.1c-1.2,0-2.3,0.8-2.3,2.1c0,0.6,0.3,1.3,0.8,1.6c0.5,0.4,1.3,0.5,2,0.7
		c0.9,0.2,1.7,0.4,2.4,1c0.7,0.6,1.1,1.5,1.1,2.4c0,0.8-0.1,1.5-0.7,2.1c-0.7,0.9-1.7,1.4-2.9,1.4c-1.1,0-2.1-0.5-2.7-1.4v1.2h-1V55
		h1c0.1,1.4,1.2,2.3,2.6,2.3c1.3,0,2.5-1,2.5-2.3c0-1.7-1.3-2.1-2.7-2.5c-0.8-0.2-1.6-0.4-2.2-0.9c-0.8-0.6-1.2-1.5-1.2-2.5
		c0-0.8,0.3-1.4,0.6-1.9c0.6-0.9,1.7-1.3,2.9-1.3c0.9,0,1.9,0.4,2.3,1.3v-1h1v2.8H218.8z"/>
	<path class="st0" d="M227.1,49.2c-0.1-1.3-1.1-2.1-2.3-2.1c-1.2,0-2.3,0.8-2.3,2.1c0,0.6,0.3,1.3,0.8,1.6c0.5,0.4,1.3,0.5,2,0.7
		c0.9,0.2,1.7,0.4,2.4,1c0.7,0.6,1.1,1.5,1.1,2.4c0,0.8-0.1,1.5-0.7,2.1c-0.7,0.9-1.7,1.4-2.9,1.4c-1.1,0-2.1-0.5-2.7-1.4v1.2h-1V55
		h1c0.1,1.4,1.2,2.3,2.6,2.3c1.3,0,2.5-1,2.5-2.3c0-1.7-1.3-2.1-2.7-2.5c-0.8-0.2-1.6-0.4-2.2-0.9c-0.8-0.6-1.2-1.5-1.2-2.5
		c0-0.8,0.3-1.4,0.6-1.9c0.6-0.9,1.7-1.3,2.9-1.3c0.9,0,1.9,0.4,2.3,1.3v-1h1v2.8H227.1z M225.4,44.9h-0.6l-2.8-2.3h1.4l1.8,1.4
		l1.8-1.4h1.4L225.4,44.9z"/>
	<path class="st0" d="M234.3,57.1h1.5v1.1h-4.2v-1.1h1.5v-9.6h-2.6v2.1h-1v-3.1h8.3v3.1h-1v-2.1h-2.6V57.1z"/>
	<path class="st0" d="M247.7,54.3c0,1.1-0.2,2-0.9,2.9c-0.7,0.8-1.8,1.2-2.9,1.2c-1.1,0-2.1-0.4-2.9-1.2c-0.8-0.9-1-1.9-1-3.1v-6.6
		h-1.5v-1.1h4.1v1.1h-1.4V54c0,0.8,0,1.5,0.5,2.2c0.5,0.7,1.3,1,2.2,1c0.8,0,1.5-0.3,2-0.9c0.5-0.7,0.6-1.5,0.6-2.3v-6.5h-1.4v-1.1
		h4.1v1.1h-1.5V54.3z"/>
	<path class="st0" d="M256.7,58.2h-1.3l-4.2-10.7h-1.5v-1.1h4.2v1.1h-1.5l3.6,9l3.7-9h-1.5v-1.1h4.1v1.1H261L256.7,58.2z"/>
	<path class="st0" d="M274.9,58.2h-1.3l-2.6-9.4l-2.7,9.4h-1.2L264,47.5h-1.4v-1.1h4.2v1.1h-1.5l2.5,8.9l2.8-10h0.9l2.8,9.9l2.5-8.9
		h-1.6v-1.1h4.2v1.1h-1.5L274.9,58.2z"/>
	<path class="st0" d="M290.1,57.1h1.4v1.1h-4.2v-1.1h1.5l-3-4.1l-3,4.1h1.4v1.1H280v-1.1h1.5l3.6-5l-3.4-4.6h-1.4v-1.1h4.2v1.1h-1.4
		l2.7,3.8l2.7-3.8H287v-1.1h4.2v1.1h-1.4l-3.4,4.6L290.1,57.1z"/>
	<path class="st0" d="M298.1,57.1h1.5v1.1h-4.2v-1.1h1.5v-2.9l-3.6-6.7H292v-1.1h4.1v1.1h-1.5l2.9,5.6l2.8-5.6h-1.5v-1.1h4.1v1.1
		h-1.4l-3.4,6.7V57.1z"/>
	<path class="st0" d="M311.4,58.2h-8v-1l6.1-9.7h-4.9v2h-1v-3.1h7.4v0.9l-6.1,9.7h5.5v-2h1V58.2z"/>
	<path class="st0" d="M320,58.2h-8v-1l6.1-9.7h-4.9v2h-1v-3.1h7.4v0.9l-6.1,9.7h5.5v-2h1V58.2z M316.3,44.9h-0.6l-2.8-2.3h1.4
		L316,44l1.8-1.4h1.4L316.3,44.9z"/>
	<path class="st0" d="M8.1,81.1c-0.8,1.3-2,2-3.5,2c-1.6,0-3-0.8-3.8-2c-0.4-0.7-0.7-1.5-0.7-2.5c0-1.3,0.4-1.8,0.7-2.5
		c0.7-1.3,2.2-2,3.7-2s2.8,0.7,3.5,2v-1.9h2.5v1H9.2v6.6h1.4v1H8.1V81.1z M1.2,78.7c0,1.9,1.6,3.4,3.4,3.4c2,0,3.5-1.5,3.5-3.5
		c0-1.9-1.6-3.4-3.4-3.4C2.8,75.2,1.2,76.7,1.2,78.7z"/>
	<path class="st0" d="M13.6,76.2c0.7-1.3,2-2.1,3.4-2.1c2.5,0,4.5,2,4.5,4.5c0,0.9-0.3,1.8-0.7,2.5c-0.6,1-2.1,2-3.7,2
		c-1.5,0-2.8-0.7-3.6-2v1.8H11v-1h1.5v-9.7H11v-1h2.5V76.2z M20.4,78.6c0-1.9-1.5-3.4-3.4-3.4c-2,0-3.5,1.5-3.5,3.4
		c0,1.9,1.6,3.4,3.5,3.4C18.9,82.1,20.4,80.5,20.4,78.6z"/>
	<path class="st0" d="M30.4,76.9h-1c-0.6-1-1.8-1.7-3-1.7c-1.9,0-3.4,1.6-3.4,3.5c0,1.9,1.6,3.4,3.5,3.4c1.2,0,2.5-0.7,3-1.8h1.2
		c-0.6,1.8-2.4,2.9-4.3,2.9c-2.5,0-4.5-2-4.5-4.5c0-1.2,0.5-2.4,1.3-3.2c0.8-0.8,1.9-1.4,3.2-1.4c1.2,0,2.2,0.5,3,1.4v-1.2h1V76.9z"
		/>
	<path class="st0" d="M39.1,81.1c-0.7,1.3-2,2.1-3.5,2.1c-1.4,0-3-0.9-3.7-2.1c-0.4-0.7-0.8-1.6-0.8-2.5c0-2.4,2-4.5,4.4-4.5
		c1.5,0,2.9,0.8,3.6,2.1v-4.1h-1.5v-1h2.5v10.8h1.5v1h-2.5V81.1z M39.2,78.6c0-1.9-1.6-3.4-3.5-3.4c-1.9,0-3.5,1.6-3.5,3.5
		c0,1.9,1.6,3.5,3.5,3.5C37.7,82.1,39.2,80.6,39.2,78.6z"/>
	<path class="st0" d="M50.6,80.5c-0.7,1.6-2.3,2.7-4.1,2.7c-2.5,0-4.5-2-4.5-4.5c0-2.5,1.9-4.6,4.5-4.6c2.6,0,4.5,2,4.5,4.5V79h-7.9
		c0.1,1.8,1.6,3.2,3.4,3.2c1.3,0,2.4-0.6,3-1.7H50.6z M50,78.1c-0.2-1.8-1.8-3-3.5-3c-1.7,0-3.1,1.4-3.3,3H50z"/>
	<path class="st0" d="M54.2,81.9h1.5v1h-4v-1h1.5v-6.6h-1.5v-1.1h1.5v-0.1c0-1,0-1.8,0.8-2.5c0.6-0.5,1.3-0.7,2.1-0.7v1
		c-0.4,0-0.9,0.1-1.2,0.4c-0.6,0.4-0.6,1.1-0.6,1.7v0.2h1.5v1.1h-1.5V81.9z"/>
	<path class="st0" d="M58.4,83.9c0.5,1.1,1.7,1.7,2.9,1.7c0.9,0,1.8-0.4,2.4-1.1c0.7-0.8,0.9-1.5,0.9-2.6V81c-0.7,1.3-2,2.1-3.5,2.1
		c-1.2,0-3.1-0.7-3.8-2.1c-0.3-0.6-0.6-1.4-0.6-2.4c0-1,0.3-1.9,0.7-2.5c0.9-1.2,2.3-2,3.8-2c1.5,0,2.8,0.8,3.5,2v-1.8H67v1h-1.5
		v6.4c0,1.3-0.1,2.3-1.1,3.3c-0.9,1-2.1,1.4-3.4,1.4c-1.7,0-3.5-0.9-4-2.6H58.4z M64.6,78.6c0-1.9-1.5-3.5-3.5-3.5
		c-1.9,0-3.5,1.6-3.5,3.5c0,1.9,1.6,3.5,3.5,3.5C63,82.1,64.6,80.5,64.6,78.6z"/>
	<path class="st0" d="M70,75.9c0.6-1.1,1.6-1.8,2.9-1.8c1,0,1.9,0.4,2.6,1.2c0.8,0.9,0.8,1.9,0.8,3v3.6h1.5v1h-4v-1h1.5v-3.1
		c0-0.8,0-1.6-0.4-2.3c-0.4-0.8-1.3-1.2-2.2-1.2c-0.8,0-1.5,0.3-2,0.9C70,76.8,70,77.5,70,78.5v3.4h1.4v1h-4v-1h1.5v-9.7h-1.5v-1H70
		V75.9z"/>
	<path class="st0" d="M80.6,81.9H82v1h-4v-1h1.5v-6.6H78v-1h2.5V81.9z M80.6,72.9h-1.1v-1.7h1.1V72.9z"/>
	<path class="st0" d="M84.9,82.8c0,2-0.5,3.1-2.6,3.5v-1c1.6-0.3,1.5-1.6,1.5-2.9v-7h-1.4v-1h2.5V82.8z M84.9,72.9h-1.1v-1.7h1.1
		V72.9z"/>
	<path class="st0" d="M88.8,78.1l3.2-2.8h-1.3v-1h4.1v1h-1.4l-3.2,3l3.6,3.7h1.6v1h-4.3v-1h1.2l-3.5-3.5v3.5h1.3v1h-3.9v-1h1.5v-9.7
		h-1.5v-1h2.6V78.1z"/>
	<path class="st0" d="M98.4,81.9h1.4v1h-4.1v-1h1.6v-9.7h-1.5v-1h2.5V81.9z"/>
	<path class="st0" d="M103,75.8c0.5-1,1.4-1.6,2.6-1.6c1.2,0,2.2,0.6,2.7,1.6l0.2,0.3c0.5-1.2,1.7-2,2.9-2c1.7,0,2.6,0.7,3.1,2
		c0.2,0.5,0.2,1,0.2,1.9v3.9h1.5v1h-4v-1h1.5v-3.6c0-0.8-0.1-1.8-0.5-2.3c-0.5-0.6-1.2-0.8-1.8-0.8c-0.6,0-1.4,0.3-1.8,0.8
		c-0.6,0.6-0.6,1.2-0.6,2v3.9h1.5v1h-4v-1h1.5v-3.7c0-1-0.3-1.9-0.5-2.2c-0.4-0.7-1.2-0.8-1.8-0.8c-0.8,0-1.4,0.3-1.8,0.8
		c-0.5,0.6-0.6,1.3-0.6,2.1v3.8h1.5v1h-4v-1h1.5v-6.6h-1.5v-1h2.5V75.8z"/>
	<path class="st0" d="M119.1,75.8c0.5-1.1,1.7-1.7,2.9-1.7c1,0,2.4,0.5,3,1.7c0.2,0.4,0.5,1.2,0.5,2.3v3.9h1.5v1h-4v-1h1.5v-3.5
		c0-0.8,0-1.5-0.4-2.2c-0.5-0.8-1.4-1.1-2.3-1.1c-0.8,0-1.5,0.3-2,0.9c-0.6,0.7-0.6,1.4-0.6,2.2v3.6h1.4v1h-4v-1h1.5v-6.6h-1.5v-1
		h2.5V75.8z"/>
	<path class="st0" d="M127.4,78.7c0-2.5,2-4.5,4.6-4.5c2.5,0,4.5,2,4.5,4.5c0,2.5-2,4.6-4.5,4.6C129.5,83.2,127.4,81.1,127.4,78.7z
		 M135.4,78.6c0-1.9-1.5-3.4-3.4-3.4c-1.9,0-3.5,1.5-3.5,3.4c0,1.9,1.5,3.5,3.4,3.5C133.9,82.1,135.4,80.5,135.4,78.6z"/>
	<path class="st0" d="M139.6,76.2c0.8-1.4,2-2.1,3.6-2.1c1.4,0,2.9,0.6,3.7,2.1c0.3,0.6,0.7,1.4,0.7,2.4c0,2.5-2,4.5-4.4,4.5
		c-1.5,0-2.9-0.8-3.6-2.1v4h1.4v1h-4v-1h1.5v-9.8H137v-1h2.5V76.2z M146.5,78.6c0-2.1-1.6-3.6-3.4-3.5c-1.9,0.1-3.5,1.4-3.5,3.5
		c0,1.9,1.5,3.5,3.5,3.5C144.9,82.1,146.5,80.6,146.5,78.6z"/>
	<path class="st0" d="M155.9,81.1c-0.7,1.3-2.1,2-3.6,2c-2.5,0-4.4-2-4.4-4.5c0-0.8,0.2-1.6,0.6-2.4c0.6-1.1,2-2.1,3.8-2.1
		c1.5,0,2.8,0.7,3.6,2.1v-1.9h2.5v1H157v9.8h1.5v1h-4v-1h1.4V81.1z M156,78.6c0-1.7-1.5-3.5-3.5-3.5c-2-0.1-3.4,1.4-3.4,3.5
		c0,1.9,1.6,3.5,3.5,3.5C154.4,82.1,155.9,80.6,156,78.6z"/>
	<path class="st0" d="M161.4,76c0.4-1.2,1.5-1.7,2.8-1.8v1c-1.9,0.2-2.8,1.3-2.8,3.1v3.5h1.4v1h-4v-1h1.5v-6.6h-1.5v-1h2.5V76z"/>
	<path class="st0" d="M169.7,76.5c0-0.9-0.9-1.5-1.8-1.5c-0.9,0-1.7,0.5-1.7,1.5c0,1.1,1,1.4,1.9,1.5c0.7,0.1,1.4,0.3,2,0.6
		c0.7,0.4,1.1,1.1,1.1,1.9c0,0.6-0.2,1-0.4,1.3c-0.4,0.8-1.5,1.3-2.5,1.3c-1,0-1.9-0.4-2.4-1.3v1H165v-2.5h0.9
		c0.1,1.1,1,1.8,2.2,1.8c1,0,1.9-0.6,1.9-1.6c0-1.2-1-1.4-2-1.6c-0.7-0.1-1.4-0.3-1.9-0.6c-0.6-0.4-1-1.1-1-1.8
		c0-0.6,0.1-1.1,0.4-1.5c0.5-0.7,1.5-1,2.3-1c0.8,0,1.5,0.3,2,1v-0.8h0.9v2.2H169.7z"/>
	<path class="st0" d="M175.3,72.8h-0.6l-2.8-2.3h1.4l1.8,1.4l1.8-1.4h1.4L175.3,72.8z M176.6,76.5c0-0.9-0.9-1.5-1.8-1.5
		c-0.9,0-1.7,0.5-1.7,1.5c0,1.1,1,1.4,1.9,1.5c0.7,0.1,1.4,0.3,2,0.6c0.7,0.4,1.1,1.1,1.1,1.9c0,0.6-0.2,1-0.4,1.3
		c-0.4,0.8-1.5,1.3-2.5,1.3c-1,0-1.9-0.4-2.4-1.3v1h-0.9v-2.5h0.9c0.1,1.1,1,1.8,2.2,1.8c1,0,1.9-0.6,1.9-1.6c0-1.2-1-1.4-2-1.6
		c-0.7-0.1-1.4-0.3-1.9-0.6c-0.6-0.4-1-1.1-1-1.8c0-0.6,0.1-1.1,0.4-1.5c0.5-0.7,1.5-1,2.3-1s1.5,0.3,2,1v-0.8h0.9v2.2H176.6z"/>
	<path class="st0" d="M181.3,81.9h2v1h-3.1v-7.6h-1.7v-1h1.7v-3.1h1.1v3.1h1.9v1h-1.9V81.9z"/>
	<path class="st0" d="M191.5,81.5c-0.6,1.1-1.6,1.7-2.9,1.7c-1.3,0-2.4-0.8-3-1.7c-0.3-0.5-0.4-1.1-0.4-2.1v-4.1h-1.4v-1h2.5v4.7
		c0,0.8,0,1.6,0.5,2.3c0.5,0.7,1.2,1,2.1,0.9c0.9-0.1,1.5-0.4,1.9-0.9c0.6-0.7,0.6-1.3,0.6-2.2v-3.7h-1.4v-1h2.5v7.6h1.5v1h-2.6
		V81.5z"/>
	<path class="st0" d="M200.1,82.9h-1.2l-3.1-7.6h-1.5v-1h4v1H197l2.5,6.3l2.6-6.3h-1.4v-1h3.9v1h-1.4L200.1,82.9z"/>
	<path class="st0" d="M215.3,82.9h-1.1l-1.9-6l-2.2,6H209l-2.6-7.6h-1.5v-1h3.9v1h-1.4l2.2,6.2l2.2-6.4h0.9l2,6.3l2.2-6.1h-1.4v-1
		h3.9v1h-1.5L215.3,82.9z"/>
	<path class="st0" d="M227.7,81.9h1.4v1h-3.9v-1h1.2l-1.8-2.5l-1.8,2.5h1.2v1h-3.9v-1h1.4l2.5-3.3l-2.5-3.3h-1.4v-1h3.9v1h-1.2
		l1.9,2.5l1.8-2.5h-1.3v-1h3.9v1h-1.3l-2.4,3.3L227.7,81.9z"/>
	<path class="st0" d="M234.3,85.1h1.4v1h-4v-1h1.4l0.9-2.1l-3.1-7.7h-1.4v-1h4v1h-1.4l2.4,6.3l2.6-6.3h-1.4v-1h3.9v1h-1.4
		L234.3,85.1z"/>
	<path class="st0" d="M246.9,80.3v2.6h-6.6V82l5-6.7h-3.7V77h-1v-2.7h6.1v1l-4.9,6.6h4.1v-1.6H246.9z"/>
	<path class="st0" d="M253.8,80.3v2.6h-6.6V82l5-6.7h-3.7V77h-1v-2.7h6.1v1l-4.9,6.6h4.1v-1.6H253.8z M250.8,72.8h-0.6l-2.8-2.3h1.4
		l1.8,1.4l1.8-1.4h1.4L250.8,72.8z"/>
	<path class="st0" d="M9,107.7v-1.1h1.5l-1.2-2.7H3.9l-1.2,2.7h1.5v1.1H0v-1.1h1.5L5.7,97H4.2v-1.1h3.1l4.6,10.7h1.5v1.1H9z
		 M8.5,94.4L6.7,93l-1.8,1.4H3.5l2.8-2.3H7l2.9,2.3H8.5z M6.7,97.2l-2.4,5.7H9L6.7,97.2z"/>
	<path class="st0" d="M22.1,104.6v3h-8.3v-1.1h1.5V97h-1.5v-1.1h8.3v3h-1.2V97h-4.4v4.3H21v1h-4.5v4.4h4.4v-1.9H22.1z M19.8,94.4
		L18,93l-1.8,1.4h-1.4l2.8-2.3h0.6l2.9,2.3H19.8z"/>
	<path class="st0" d="M23,101.8c0-3.4,2.8-6.2,6.2-6.2c3.4,0,6.2,2.7,6.2,6.1c0,3.4-2.7,6.2-6.2,6.2C25.8,107.9,23,105.2,23,101.8z
		 M34.2,101.7c0-2.7-2.2-4.9-5-4.9c-2.8,0-5,2.2-5,4.9c0,2.8,2.2,5,5,5v0C32,106.7,34.2,104.5,34.2,101.7z M31.1,94.4L29.3,93
		l-1.8,1.4h-1.4l2.8-2.3h0.6l2.9,2.3H31.1z"/>
	<path class="st0" d="M44.1,105.9c-0.8,1.3-2,2-3.5,2c-1.6,0-3-0.8-3.8-2c-0.4-0.7-0.7-1.5-0.7-2.5c0-1.3,0.4-1.8,0.7-2.5
		c0.7-1.3,2.2-2,3.7-2s2.8,0.7,3.5,2V99h2.5v1h-1.4v6.6h1.4v1h-2.5V105.9z M37.2,103.4c0,1.9,1.5,3.4,3.4,3.4c2,0,3.5-1.5,3.5-3.5
		c0-1.9-1.6-3.4-3.4-3.4C38.7,99.9,37.2,101.5,37.2,103.4z M43.1,97.5l-1.8-1.4l-1.8,1.4h-1.4l2.8-2.3h0.6l2.9,2.3H43.1z"/>
	<path class="st0" d="M55.6,105.3c-0.7,1.6-2.3,2.7-4.1,2.7c-2.5,0-4.5-2-4.5-4.5c0-2.5,1.9-4.6,4.5-4.6c2.6,0,4.5,2,4.5,4.5v0.3H48
		c0.1,1.8,1.6,3.2,3.4,3.2c1.3,0,2.4-0.6,3-1.7H55.6z M54.9,102.9c-0.2-1.8-1.8-3-3.5-3c-1.7,0-3.1,1.4-3.3,3H54.9z M53.3,97.5
		l-1.8-1.4l-1.8,1.4h-1.4l2.8-2.3h0.6l2.9,2.3H53.3z"/>
	<path class="st0" d="M56.5,103.4c0-2.5,2-4.5,4.6-4.5c2.5,0,4.5,2,4.5,4.5c0,2.5-2,4.6-4.5,4.6C58.5,107.9,56.5,105.9,56.5,103.4z
		 M64.5,103.4c0-1.9-1.5-3.4-3.4-3.4c-1.9,0-3.5,1.5-3.5,3.4c0,1.9,1.5,3.5,3.4,3.5C63,106.8,64.5,105.3,64.5,103.4z M62.9,97.5
		l-1.8-1.4l-1.8,1.4H58l2.8-2.3h0.6l2.9,2.3H62.9z"/>
	<path class="st0" d="M71.5,106.7h1.5v1h-4.3v-1h1.5v-9.8h-2.3v-0.9h3.4V106.7z"/>
	<path class="st0" d="M83.9,104.8v2.9h-7.5v-1l5-4.8c0.7-0.7,1.4-1.4,1.4-2.5c0-1.5-1.1-2.6-2.6-2.6c-1.6,0-2.7,1.3-2.6,2.8h-1.1
		c-0.1-2.2,1.6-3.9,3.8-3.9c0.9,0,1.9,0.4,2.6,1c0.7,0.7,1.1,1.7,1.1,2.7c0,1.5-0.9,2.4-1.9,3.3l-4.2,4h4.9v-1.8H83.9z"/>
	<path class="st0" d="M86.7,98.4c0-1.7,1.5-2.9,3.1-2.9c1.6,0,3.1,1.2,3.1,2.9c0,1.1-0.5,2.1-1.6,2.5c1.4,0.4,2.3,1.8,2.3,3.2
		c0,2.1-1.7,3.7-3.8,3.7c-2.1,0-3.8-1.5-3.9-3.6h1.2c0.1,1.4,1.2,2.5,2.6,2.5c1.5,0,2.7-1.2,2.7-2.7c0-1.5-1.4-2.6-2.8-2.6h-0.6
		v-0.9h0.6c0.6,0,1.1-0.1,1.5-0.4s0.7-0.9,0.7-1.5c0-1.2-0.8-2-2-2c-1,0-1.9,0.8-1.9,1.9H86.7z"/>
	<path class="st0" d="M103.6,104.8h-1.7v1.9h1.6v1h-4.2v-1h1.5v-1.9H95v-1l5.5-7.9h1.4v7.9h1.7V104.8z M100.8,97.3l-4.5,6.5h4.5
		V97.3z"/>
	<path class="st0" d="M105.9,104.5c0.3,1.4,1.5,2.4,2.9,2.4c1.6,0,3.1-1.3,3.1-2.9c0-1.7-1.3-3-3-3c-1,0-1.9,0.4-2.5,1.2l-1-0.2
		l1.1-6h5.8v1h-4.9l-0.7,3.8c0.7-0.6,1.6-0.9,2.5-0.9c2.2,0,4,1.8,4,4c0,2.4-1.9,4.1-4.2,4.1c-2.1,0-3.8-1.4-4.1-3.4H105.9z"/>
	<path class="st0" d="M120,95.9l-3,4.4c0.6-0.4,1-0.6,1.7-0.6c2.2,0,3.9,1.8,3.9,3.9c0,2.3-1.7,4.2-4.1,4.2c-2.4,0-4.2-1.9-4.2-4.3
		c0-1,0.4-1.8,1-2.7l3.5-5.1H120z M121.5,103.8c0-1.7-1.3-3.1-3-3.1c-1.7,0-3,1.4-3,3c0,1.7,1.3,3,3,3
		C120.1,106.8,121.5,105.5,121.5,103.8z"/>
	<path class="st0" d="M131.6,95.9V97l-4.8,10.7h-1.3l4.9-10.7h-4.8v2.1h-1.1v-3.1H131.6z"/>
	<path class="st0" d="M134.4,98.6c0-1.8,1.5-3,3.2-3c1.6,0,3,1.3,3,2.9c0,1.2-0.6,2.1-1.6,2.6c1.3,0.4,2.3,1.7,2.3,3.2
		c0,2.1-1.7,3.7-3.8,3.7s-3.8-1.5-3.8-3.6c0-1.5,0.9-2.7,2.3-3.2C135.1,100.7,134.4,99.8,134.4,98.6z M140.1,104.3
		c0-1.4-1.2-2.6-2.6-2.6c-1.4,0-2.6,1.2-2.6,2.6c0,1.5,1.2,2.6,2.6,2.6C139,106.9,140.1,105.7,140.1,104.3z M139.6,98.7
		c0-1.1-0.9-2-2-2s-2,0.9-2,2s0.9,2,2,2S139.6,99.8,139.6,98.7z"/>
	<path class="st0" d="M145.5,107.7l3-4.4c-0.5,0.3-1,0.5-1.7,0.5c-2.2,0-3.9-1.9-3.9-4c0-2.3,1.9-4.2,4.2-4.2c2.3,0,4.2,1.9,4.2,4.2
		c0,1.1-0.3,1.9-1,2.8l-3.4,5.1H145.5z M150.2,99.7c0-1.6-1.4-3-3-3c-1.7,0-3.1,1.3-3.1,3c0,1.7,1.3,3.1,3.1,3.1
		C148.9,102.8,150.2,101.4,150.2,99.7z"/>
	<path class="st0" d="M160.8,103.6c0,1.2-0.2,2.1-1,3c-0.8,0.8-1.9,1.4-3.1,1.4c-1.1,0-2.1-0.4-2.9-1.2c-0.9-0.9-1.2-1.9-1.2-3.1
		v-3.7c0-1.2,0.2-2.1,1.1-3c0.8-0.9,1.9-1.4,3.1-1.4c1.1,0,2.1,0.4,2.9,1.2c0.9,0.9,1.2,1.9,1.2,3.1V103.6z M153.8,103.6
		c0,0.8,0.1,1.5,0.6,2.1c0.5,0.7,1.4,1.2,2.3,1.2c0.9,0,1.9-0.4,2.4-1.2c0.4-0.6,0.5-1.3,0.5-2v-3.7c0-0.8-0.1-1.5-0.6-2.1
		c-0.5-0.7-1.4-1.2-2.4-1.2c-0.9,0-1.8,0.4-2.4,1.2c-0.4,0.6-0.5,1.3-0.5,2V103.6z"/>
	<path class="st0" d="M2.7,123.7h-1l-1.2-3h1L2.7,123.7z"/>
	<path class="st0" d="M7,129.5c0-1.5,0.6-2.4,1.7-3.3c0.7-0.7,1.3-1.2,1.3-2.2c0-1.4-1.1-2.5-2.5-2.5c-1.4,0-2.5,1.2-2.5,2.6H3.8
		c0-2,1.6-3.7,3.7-3.7c2,0,3.7,1.6,3.7,3.6c0,1.4-0.7,2-1.6,2.9c-0.8,0.8-1.4,1.5-1.4,2.7H7z M8.1,132.4H7v-1.8h1.2V132.4z"/>
	<path class="st0" d="M12.4,123.7l1.2-3h1l-1.2,3H12.4z"/>
	<path class="st0" d="M17.9,123.7h-1l-1.2-3h1L17.9,123.7z M20,123.7h-1l-1.2-3h1.1L20,123.7z"/>
	<path class="st0" d="M22.4,129.4h-1.1v-8.8h1.1V129.4z M22.4,132.4h-1.1v-1.8h1.1V132.4z"/>
	<path class="st0" d="M23.6,123.7l1.2-3h1l-1.2,3H23.6z M25.7,123.7l1.2-3h1l-1.2,3H25.7z"/>
	<path class="st0" d="M33.5,134.6c-2.7-1.2-4.4-4.1-4.4-7c0-1.6,0.5-3.1,1.4-4.4c0.7-1,1.8-2.1,3-2.5v1.3c-1.9,1.2-3.1,3.3-3.1,5.6
		c0,2.3,1.2,4.5,3.1,5.7V134.6z"/>
	<path class="st0" d="M34.8,123.1c0-1.5,1.3-2.7,2.7-2.7c1.5,0,2.7,1.2,2.7,2.7c0,1.5-1.2,2.7-2.7,2.7
		C36,125.9,34.8,124.6,34.8,123.1z M39.3,123.1c0-0.9-0.8-1.7-1.7-1.7c-1,0-1.8,0.7-1.8,1.7c0,1,0.8,1.8,1.8,1.8
		C38.5,124.9,39.3,124.1,39.3,123.1z M37.8,132.4l5.2-11.8h0.9l-5.2,11.8H37.8z M41.4,129.8c0-1.5,1.3-2.7,2.7-2.7
		c1.5,0,2.7,1.2,2.7,2.7c0,1.5-1.2,2.7-2.7,2.7C42.6,132.6,41.4,131.4,41.4,129.8z M45.9,129.9c0-1-0.8-1.7-1.7-1.7
		c-1,0-1.8,0.7-1.8,1.7c0,1,0.8,1.8,1.8,1.8C45.2,131.7,45.9,130.9,45.9,129.9z"/>
	<path class="st0" d="M48,120.6c1.2,0.5,2.2,1.5,3,2.5c0.9,1.3,1.4,2.8,1.4,4.4c0,2.9-1.7,5.8-4.4,7v-1.3c2-1.2,3.1-3.4,3.1-5.7
		c0-2.3-1.2-4.4-3.1-5.6V120.6z"/>
	<path class="st0" d="M57.3,134.5h-3.7v-13.9h3.7v1.1h-2.5v11.7h2.5V134.5z"/>
	<path class="st0" d="M63.8,132.4H63l0.6-4.3h-2l-0.6,4.3h-0.8l0.6-4.3h-2.3v-0.8h2.5l0.2-1.9h-2.3v-0.8h2.4l0.6-4h0.8l-0.5,4h2
		l0.6-4h0.8l-0.5,4H67v0.8h-2.3l-0.2,1.9h2.1v0.8h-2.3L63.8,132.4z M62,125.4l-0.2,1.9h2l0.2-1.9H62z"/>
	<path class="st0" d="M70.6,133.4v-11.7h-2.5v-1.1h3.7v13.9h-3.7v-1.1H70.6z"/>
	<path class="st0" d="M75.5,132.6c0,1,0.3,1.5,1.3,1.8c-0.7,0-1.2,0-1.8-0.4c-0.6-0.4-0.6-1.1-0.6-1.7v-3c0-0.5,0-0.8-0.3-1.2
		c-0.2-0.3-0.6-0.5-1-0.5c0.3,0,0.6-0.2,0.8-0.4c0.5-0.4,0.5-0.9,0.5-1.4v-2.7c0-1.8,0.5-2.5,2.4-2.4c-1,0.3-1.3,0.9-1.3,1.8v2.8
		c0,1.1-0.2,1.9-1.4,2.2c1.2,0.3,1.4,0.9,1.4,2.1V132.6z"/>
	<path class="st0" d="M90.3,130.4c-1.2,1.5-3.1,2.2-5,2.2c-1.6,0-3.4-0.6-4.7-1.6c-1.3-1.1-2-2.8-2-4.5c0-3.5,3.1-6.2,6.6-6.2
		c3,0,5.7,2,5.7,5.1c0,1.1-0.2,2-0.9,2.9c-0.6,0.8-1.7,1.5-2.8,1.5c-0.7,0-1-0.4-1-1c-0.6,0.7-1.3,1.1-2.3,1.1
		c-1.6,0-2.5-1.4-2.5-2.8c0-2,1.7-4.1,3.9-4.1c0.9,0,1.7,0.5,2,1.3l0.3-0.8h0.8l-1.2,4.2c-0.1,0.3-0.2,0.6-0.2,0.8
		c0,0.4,0.2,0.6,0.6,0.6c0.7,0,1.4-0.6,1.8-1c0.7-0.8,0.9-1.7,0.9-2.7c0-1.3-0.5-2.3-1.4-3.1c-1-0.9-2.3-1.3-3.7-1.3
		c-1.6,0-2.9,0.5-4.1,1.6c-1.2,1.1-1.8,2.4-1.8,4c0,3.3,2.6,5.5,6,5.5c1.8,0,3.6-0.7,4.7-2.1L90.3,130.4z M85.6,128.6
		c0.4-0.4,0.6-0.8,0.8-1.3c0.2-0.5,0.5-1.6,0.5-2.1c0-0.9-0.7-1.5-1.6-1.5c-1.8,0-3,1.9-3,3.4c0,1.1,0.7,2,1.9,2
		C84.7,129.1,85.2,128.9,85.6,128.6z"/>
	<path class="st0" d="M94.1,122.5c0-1-0.3-1.5-1.3-1.8c1.9-0.1,2.4,0.6,2.4,2.4v2.7c0,0.5,0,1,0.5,1.4c0.2,0.2,0.5,0.3,0.8,0.4
		c-0.4,0.1-0.7,0.3-1,0.5c-0.3,0.4-0.3,0.7-0.3,1.2v3c0,0.6,0,1.3-0.6,1.7c-0.6,0.4-1.1,0.4-1.8,0.4c1-0.3,1.3-0.8,1.3-1.8v-3
		c0-1.1,0.2-1.8,1.4-2.1c-1.2-0.3-1.4-1.1-1.4-2.2V122.5z"/>
	<path class="st0" d="M97.8,135.6l7.3-15h0.9l-7.4,15H97.8z"/>
	<path class="st0" d="M117.2,132.6l-2.7-2.6c-0.8,1.6-1.8,2.7-3.7,2.7c-1.9,0-3.5-1.5-3.5-3.4c0-1.7,1.4-2.8,2.8-3.5l-0.2-0.2
		c-0.8-0.7-1.4-1.4-1.4-2.5c0-1.5,1.3-2.7,2.8-2.7c1.5,0,2.7,1.2,2.7,2.6c0,1.5-1.1,2.3-2.3,2.9l2.6,2.5l1.5-3.3h2.1v1h-1.4
		l-1.5,3.1l2.8,2.7L117.2,132.6z M110.9,126.5c-1.2,0.5-2.3,1.3-2.3,2.7c0,1.3,1.1,2.4,2.4,2.4c1.6,0,2.2-1.1,2.8-2.4L110.9,126.5z
		 M111.1,125.2c0.9-0.4,1.9-1,1.9-2.1c0-0.9-0.7-1.7-1.7-1.7c-0.9,0-1.7,0.7-1.7,1.7c0,0.9,0.5,1.3,1.1,1.9L111.1,125.2z"/>
	<path class="st0" d="M120,120.6h1.1l4.9,11.8h-1.1L120,120.6z"/>
	<path class="st0" d="M138,131.1l-8.9-4.1v-1l8.9-4.1v1l-7.7,3.5l7.7,3.5V131.1z"/>
	<path class="st0" d="M139.5,128.7v-1.1h4.1v1.1H139.5z"/>
	<path class="st0" d="M148.9,126v-3.7h1v3.7h3.7v1h-3.7v3.7h-1V127h-3.7v-1H148.9z"/>
	<path class="st0" d="M156.2,127v-1h8.3v1H156.2z M160.9,122.9v1.8h-1v-1.8H160.9z M159.9,128.3h1v1.8h-1V128.3z"/>
	<path class="st0" d="M170.5,126.5l-3-3l0.7-0.7l3,3l3-3l0.7,0.7l-3,3l3,3l-0.7,0.7l-3-3l-3,3l-0.7-0.7L170.5,126.5z"/>
	<path class="st0" d="M186.3,124.8v1h-8.4v-1H186.3z M186.3,127.2v1h-8.4v-1H186.3z"/>
	<path class="st0" d="M196.3,126.5l-7.8-3.5v-1l8.9,4.1v1l-8.9,4.1v-1L196.3,126.5z"/>
	<path class="st0" d="M199.2,126.5c0-3.4,2.8-6.1,6.1-6.1c3.4,0,6.1,2.8,6.1,6.2c0,3.4-2.8,6.1-6.1,6.1S199.2,129.8,199.2,126.5z
		 M205.3,131.8c2.9,0,5.2-2.4,5.2-5.3c0-3-2.4-5.3-5.3-5.3c-2.9,0-5.2,2.4-5.2,5.3C200,129.5,202.4,131.8,205.3,131.8L205.3,131.8z
		 M208.5,130.1h-1.2l-2-3.3h-1.6v3.3h-1v-7.3h3.3c0.6,0,1.2,0,1.7,0.3c0.6,0.3,0.9,1,0.9,1.7c0,1.4-0.9,2-2.2,2L208.5,130.1z
		 M205.7,126c0.9,0,1.9-0.1,1.9-1.3c0-1.1-1-1.2-1.8-1.2h-2v2.5H205.7z"/>
	<path class="st0" d="M212.7,126.5c0-3.4,2.7-6.1,6.1-6.1c3.3,0,6.1,2.7,6.1,6.1c0,3.5-2.7,6.2-6.1,6.2
		C215.4,132.7,212.7,129.8,212.7,126.5z M218.8,131.8c2.9,0,5.2-2.4,5.2-5.3c0-3-2.3-5.4-5.3-5.4c-2.9,0-5.2,2.4-5.2,5.3
		C213.5,129.4,215.9,131.8,218.8,131.8L218.8,131.8z M222.1,128.1c-0.5,1.4-1.9,2.1-3.3,2.1c-2.1,0-3.4-1.5-3.4-3.6
		c0-2.2,1.5-3.8,3.7-3.8c1.3,0,2.8,0.6,3.1,2l-1.1,0.3c-0.2-1-1-1.6-2-1.6c-1.7,0-2.5,1.5-2.5,3c0,1.6,0.8,2.9,2.5,2.9
		c1.1,0,1.8-0.6,2.2-1.7L222.1,128.1z"/>
	<path class="st0" d="M232.4,123.5c0-0.9-0.8-1.8-1.7-2v4.3c1.9,0.3,3.3,1.5,3.3,3.5c0,1.9-1.5,3.2-3.3,3.4v1.5h-1v-1.5
		c-0.9-0.3-1.4-0.6-1.9-1.3v1.1h-0.9v-3.2h0.9c0,1.1,0.9,2,1.9,2.4v-4.9l-0.5-0.2c-0.7-0.2-1.3-0.4-1.8-1c-0.5-0.5-0.7-1.3-0.7-2
		c0-1.7,1.4-3,3.1-3.1v-1.6h1v1.6c0.7,0.2,1.4,0.5,1.7,1.2v-1h0.9v2.8H232.4z M229.7,121.5c-1,0-1.8,1-1.8,2c0,1.2,0.8,1.8,1.8,2.1
		V121.5z M230.7,131.6c1.2-0.1,2.1-1.1,2.1-2.3c0-1.3-0.9-2.1-2.1-2.3V131.6z"/>
	<path class="st0" d="M242,126v0.9h-3.3c0.7,0.7,1.3,1.4,1.3,2.5c0,0.8-0.3,1.5-0.8,2h1.4c0.7,0,1.5,0,2.1-0.5
		c0.6-0.4,0.9-1.1,0.9-1.9c0-0.2,0-0.4-0.1-0.6h1.1c0.1,0.2,0.1,0.5,0.1,0.7c0,1-0.4,1.8-1.1,2.4c-0.8,0.7-1.7,0.8-2.8,0.8h-4.8v-1
		h1.9c0.7-0.4,1-1.2,1-2c0-1.1-0.8-1.8-1.5-2.5h-2.1V126h1.5c-0.4-0.6-0.6-1.2-0.6-1.9c0-2,1.8-3.7,3.8-3.7c1.2,0,2.1,0.5,2.8,1.4
		v-1.1h1.1v2.9h-1.1c-0.2-1.3-1.4-2.1-2.6-2.1c-1.6,0-2.8,1.2-2.8,2.8c0,0.7,0.3,1.3,0.8,1.8H242z"/>
	<path class="st0" d="M247.8,132.4v-1h1.3v-2.9l-0.3-0.6h-3.3v-0.7h3l-0.4-0.9h-2.6v-0.7h2.2l-1.7-3.9h-1.2v-1h3.5v1h-1.3l2.5,5.7
		l2.3-5.7h-1.3v-1h3.5v1h-1.2l-1.6,3.9h2.2v0.7H251l-0.4,0.9h3v0.7h-3.3l-0.2,0.6v2.9h1.3v1H247.8z"/>
	<path class="st0" d="M261.4,125.1c-0.3-0.6-1-1-1.6-1.1v5.1c0.7-0.2,1.2-0.5,1.6-1.1h1.2c-0.5,1.2-1.6,1.9-2.8,2.2v1.5h-1v-1.5
		c-1.8-0.2-3.3-1.8-3.3-3.7c0-1.9,1.4-3.4,3.3-3.7v-1.5h1v1.5c0.7,0.1,1.4,0.4,1.9,1V123h0.8v2.1H261.4z M258.8,124
		c-1.3,0.2-2.2,1.3-2.2,2.6c0,1.3,0.9,2.3,2.2,2.6V124z"/>
	<path class="st0" d="M266.9,126.4h-1.1v-1.8h1.1V126.4z M266.9,132.4h-1.1v-1.8h1.1V132.4z"/>
	<path class="st0" d="M269.5,134l1.2-3h1l-1.2,3H269.5z M271.8,126.4h-1.1v-1.8h1.1V126.4z"/>
	<path class="st0" d="M275.1,134l1.2-3h1l-1.2,3H275.1z"/>
	<path class="st0" d="M281.7,132.4h-1.1v-1.8h1.1V132.4z"/>
	<path class="st0" d="M288.7,123.1H287l0.9,1.4l-0.6,0.4l-0.8-1.4l-0.8,1.5l-0.6-0.3l0.8-1.4l-1.7,0v-0.7h1.7l-0.9-1.4l0.6-0.4
		l0.9,1.5l0.9-1.5l0.6,0.3l-0.9,1.5l1.7,0V123.1z"/>
</g>
<path class="st0" d="M10.4,25.9H-0.2v-4.5h2.7V4.9h-2.7V0.4h10.7v4.5H7.7v16.5h2.7V25.9z M0.2,25.4h9.7v-3.5H7.2V4.4h2.7V0.9H0.2
	v3.5H3v17.5H0.2V25.4z"/>
<path class="st0" d="M27,25.9H16.3v-4.5H19V5.1h-3.2v3.6h-4.3V0.4h20.1v8.4h-4.3V5.1h-3.2v16.2H27V25.9z M16.8,25.4h9.7v-3.5h-2.7
	V4.6h4.2v3.6h3.3V0.9H12.1v7.4h3.3V4.6h4.2v17.2h-2.7V25.4z"/>
<path class="st0" d="M45.7,26.4c-3.4,0-6.9-1.5-9.3-3.9c-2.5-2.5-3.8-5.9-3.8-9.5c0-7.3,5.8-13.2,13-13.2c2.9,0,5.5,1,7.5,2.7V0.3
	h4.4v8.5h-4.9l-0.1-0.1c-1.3-2.2-4-3.7-6.7-3.7c-4.5,0-7.9,3.4-7.9,8c0,4.4,3.5,8,7.9,8c2.8,0,5.4-1.4,6.8-3.7l0.1-0.1h5.6l-0.1,0.3
	C56.5,22.6,51.3,26.4,45.7,26.4z M45.6,0.2c-6.9,0-12.5,5.7-12.5,12.7c0,3.5,1.3,6.7,3.7,9.2c2.4,2.4,5.7,3.8,9,3.8
	c5.2,0,10.1-3.4,11.8-8.2h-4.7c-1.6,2.4-4.2,3.8-7.2,3.8c-4.6,0-8.4-3.8-8.4-8.5c0-4.8,3.6-8.5,8.4-8.5c2.8,0,5.6,1.5,7,3.8H57V0.8
	h-3.4v2.9l-0.4-0.4C51.2,1.3,48.6,0.2,45.6,0.2z"/>
<path class="st0" d="M69.9,21.6h2.7v-17h-2.7v-4h10.2v4h-2.7v16.7h6v-3.3h4.8v7.6H69.9V21.6z"/>
<path class="st0" d="M108,21.6h2.4v4h-6.3v-2.3c-1.2,1.8-3.5,2.8-5.6,2.8c-2,0-3.9-0.8-5.2-2.4c-1.4-1.6-1.6-3.4-1.6-5.4v-7.4h-2.4
	V7h6.7v10.1c0,1.2,0,2.5,0.7,3.5c0.7,1.1,1.9,1.6,3.1,1.6c1.2,0,2.4-0.6,3.1-1.5c0.8-1.1,0.8-2.4,0.8-3.7v-6h-2.4V7h6.7V21.6z"/>
<path class="st0" d="M118.4,9.6c1.3-2,3.4-3,5.8-3c5.3,0,9.6,4.3,9.6,9.6c0,2.4-0.9,4.8-2.5,6.6c-1.6,1.8-4.2,3-6.6,3
	c-2.5,0-4.8-1-6.3-3.1v2.8h-6.7v-4h2.4v-17h-2.4v-4h6.7V9.6z M118.2,16.2c0,3.3,2.6,5.8,5.8,5.8c3.1,0,5.6-2.7,5.6-5.7
	c0-3.1-2.6-5.7-5.7-5.7C120.8,10.6,118.2,13.1,118.2,16.2z"/>
<path class="st0" d="M150.2,23.1c-1.4,2.1-3.6,3-6,3c-5.3,0-9.6-4.4-9.6-9.7c0-5.4,4.3-9.9,9.8-9.9c2.4,0,4.5,1.1,5.8,3.1V7h6.7v4
	h-2.3v10.7h2.3v4h-6.7V23.1z M150.3,16.2c0-3.1-2.6-5.6-5.6-5.6c-3.2,0-5.6,2.6-5.6,5.8c0,3,2.6,5.6,5.6,5.6
	C147.8,22,150.3,19.4,150.3,16.2z"/>
<path class="st0" d="M164.8,21.6h2.4v4h-9.3v-4h2.6v-17h-2.4v-4h6.7V21.6z"/>
<path class="st0" d="M175.2,21.6h2.4v4h-9.1v-4h2.4V10.9h-2.4V7h6.7V21.6z M175.2,5.2h-4.3V0.7h4.3V5.2z"/>
<path class="st0" d="M181.3,10.9h-2.4V7h6.7v2.7c1.1-2.1,3.2-3.1,5.5-3.1c2,0,4,0.8,5.4,2.3c1.5,1.7,1.6,3.4,1.6,5.5v7.3h2.4v4h-9.1
	v-4h2.4v-6c0-1.2,0-2.3-0.7-3.4c-0.8-1-2-1.5-3.3-1.5c-1.3,0-2.6,0.5-3.4,1.6c-0.8,1-0.8,2.7-0.8,3.9v5.4h2.4v4h-9.1v-4h2.4V10.9z"
	/>
<path class="st0" d="M237.5,25.6h-3.9v-3.8c-1.9,2.9-5.2,4.3-8.7,4.3c-7.2,0-13-5.8-13-13c0-3.4,1.2-6.5,3.5-9
	c2.4-2.5,5.9-4.1,9.4-4.1c3,0,5.6,1,7.9,3V0.7h3.9V8h-5.2c-1.6-2.1-3.8-3.3-6.5-3.3c-4.6,0-8.2,3.6-8.2,8.2c0,4.6,3.6,8.4,8.2,8.4
	c3.3,0,6.1-1.8,7.3-4.9H223v-4h14.5V25.6z"/>
<path class="st0" d="M245.4,10.1c1.1-2.2,3.2-3.3,5.6-3.4v4.4c-1.4,0.1-2.6,0.4-3.7,1.4c-1.4,1.2-1.6,2.7-1.6,4.4v4.7h2.4v4H239v-4
	h2.4V10.9H239V7h6.4V10.1z"/>
<path class="st0" d="M267.8,23.1c-1.4,2.1-3.6,3-6,3c-5.3,0-9.6-4.4-9.6-9.7c0-5.4,4.3-9.9,9.8-9.9c2.4,0,4.5,1.1,5.8,3.1V7h6.7v4
	h-2.3v10.7h2.3v4h-6.7V23.1z M267.8,16.2c0-3.1-2.6-5.6-5.6-5.6c-3.2,0-5.6,2.6-5.6,5.8c0,3,2.6,5.6,5.6,5.6
	C265.3,22,267.8,19.4,267.8,16.2z"/>
<path class="st0" d="M277.8,10.9h-2.4V7h6.7v2.9c1.4-2.1,3.6-3.1,6.1-3.1c5.3,0,9.5,4.3,9.5,9.6c0,5.1-4.1,9.5-9.3,9.5
	c-2.4,0-4.8-0.9-6.3-2.9v5.5h2.4v4h-9.1v-4h2.4V10.9z M293.3,16.4c0-3-2.4-5.7-5.5-5.7c-3.1,0-5.7,2.4-5.7,5.7
	c0,3.1,2.5,5.6,5.6,5.6C290.8,22,293.3,19.4,293.3,16.4z"/>
<path class="st0" d="M305.2,9.8c1.2-2.1,3.2-3.2,5.6-3.2c2.2,0,4,1,5.3,2.7c1.4,1.9,1.5,3.7,1.5,5.9v6.4h2.4v4h-9.1v-4h2.4v-5.3
	c0-1.4,0.1-2.7-0.6-3.9c-0.8-1.2-2-1.7-3.4-1.7c-1.3,0-2.4,0.5-3.2,1.5c-0.9,1.2-0.9,2.3-0.9,3.7v5.7h2.4v4h-9.1v-4h2.4v-17h-2.4v-4
	h6.7V9.8z"/>
</svg>
