<?xml version="1.0" encoding="utf-8"?>
<!-- Generator: Adobe Illustrator 23.0.1, SVG Export Plug-In . SVG Version: 6.00 Build 0)  -->
<svg version="1.1" id="Layer_1" xmlns="http://www.w3.org/2000/svg" xmlns:xlink="http://www.w3.org/1999/xlink" x="0px" y="0px"
	 viewBox="0 0 320 100" style="enable-background:new 0 0 320 100;" xml:space="preserve">
<style type="text/css">
	.st0{fill:#FFFFFF;}
</style>
<g>
	<g>
		<path class="st0" d="M118.1,16.9c-1,1-2.1,1.6-3.4,1.9c-0.9,0.2-1.7,0.2-2.7,0.1c-1.2-0.1-2.3-0.5-3.3-1.3
			c-0.8-0.6-1.4-1.3-1.9-2.2c-0.4-0.7-0.6-1.3-0.8-2.1c-0.2-1.1-0.1-2,0.2-3.1c0.7-2.4,2.5-4.1,4.9-4.6c1.4-0.3,2.6-0.3,4,0.1
			c1,0.3,1.8,0.7,2.5,1.4c0.5,0.4,0.8,0.9,1.1,1.4c0.3,0.7,0.5,1.3,0.4,2.1h-4.4c-0.1-0.6-0.4-1-0.8-1.4c-0.6-0.5-1.4-0.5-2-0.1
			c-0.4,0.3-0.7,0.7-0.9,1.2c-0.4,1.2-0.4,2.3-0.1,3.5c0.1,0.5,0.4,0.9,0.8,1.3c0.4,0.4,1,0.6,1.6,0.5c0.4-0.1,0.7-0.2,0.9-0.5
			c0.3-0.3,0.4-0.6,0.5-1c0-0.3,0.1-0.5,0.1-0.8h4.6C119.5,14.7,119.1,15.9,118.1,16.9"/>
		<rect x="100.6" y="0.7" class="st0" width="4.8" height="3.4"/>
		<rect x="100.6" y="5.8" class="st0" width="4.8" height="12.8"/>
		<path class="st0" d="M90.7,7.2c0.6-0.5,1.2-0.9,2-1.3c1.2-0.6,2.5-0.7,3.8-0.3C97.9,6,98.9,7,99.3,8.4c0.2,0.7,0.3,1.3,0.3,2v8.2
			h-5.1v-7.4c0-0.2,0-0.5-0.1-0.7c-0.1-0.4-0.4-0.7-0.8-0.9c-0.9-0.4-1.9,0-2.4,0.8c-0.2,0.3-0.3,0.7-0.3,1.1v7.1H86V5.8h4.6
			L90.7,7.2"/>
		<path class="st0" d="M34.4,7.2c0.6-0.5,1.2-0.9,2-1.3c1.2-0.6,2.5-0.7,3.8-0.3C41.5,6,42.6,7,43,8.4c0.2,0.7,0.3,1.3,0.3,2v8.2
			h-5.1v-7.4c0-0.2,0-0.5-0.1-0.7c-0.1-0.4-0.4-0.7-0.8-0.9c-0.9-0.4-1.9,0-2.4,0.8c-0.2,0.3-0.3,0.7-0.3,1.1v7.1h-4.9V5.8h4.6
			L34.4,7.2"/>
		<path class="st0" d="M64.4,13.9c0.4,0.1,0.7,0.1,1,0.3c0.3,0.1,0.5,0.3,0.6,0.6c0.1,0.3,0,0.6-0.3,0.9c-0.2,0.2-0.5,0.4-0.8,0.4
			c-0.4,0.1-0.8,0-1.3-0.1c-0.2-0.1-0.4-0.2-0.5-0.3c-0.2-0.2-0.4-0.4-0.4-0.7c-0.1-0.2-0.1-0.4-0.1-0.7h-4.7v0.3
			c0,0.4,0.1,0.8,0.2,1.2c0.2,0.6,0.5,1.1,1,1.6c0.6,0.6,1.3,1,2.1,1.2c1.7,0.5,3.3,0.6,5,0.3c0.8-0.1,1.5-0.4,2.3-0.7
			c0.3-0.2,0.6-0.4,0.9-0.6c1.3-1.1,1.7-2.7,1.2-4.3c-0.2-0.6-0.5-1-1-1.5c-0.6-0.6-1.3-0.9-2.1-1.2c-0.2,0-0.3-0.1-0.5-0.1
			c-1-0.3-1.9-0.5-2.9-0.6c-0.3,0-0.5-0.1-0.8-0.1c-0.1,0-0.2-0.1-0.3-0.1c-0.3-0.1-0.4-0.5-0.3-0.8c0,0,0,0,0,0
			c0.2-0.3,0.4-0.5,0.7-0.5c0.5-0.2,1-0.1,1.5,0c0.5,0.2,0.8,0.6,0.8,1.2h4.5c0-0.6-0.1-1-0.3-1.5c-0.2-0.5-0.5-0.9-0.9-1.3
			c-0.4-0.3-0.7-0.5-1.2-0.7c-0.4-0.2-0.8-0.3-1.3-0.4c-1.1-0.2-2.1-0.2-3.2-0.2c-0.6,0-1.2,0.1-1.8,0.3c-0.8,0.2-1.5,0.5-2.2,1.1
			c-0.6,0.5-1,1-1.2,1.7C58.1,8.8,58,9.1,58,9.4c0,0.6,0.1,1,0.3,1.6c0.4,0.9,1,1.6,2,2c0.5,0.2,0.9,0.3,1.4,0.4
			C62.6,13.6,63.4,13.7,64.4,13.9"/>
		<path class="st0" d="M8.7,13.1H5.4V8.9h2.1c0.4,0,0.7,0,1.1,0c0.6,0,1-0.3,1.4-0.7c0.2-0.2,0.3-0.5,0.3-0.8c0-0.3,0-0.5,0-0.7
			C10.3,5.7,9.5,5,8.6,5H5.4v13.6H0V0.7h8.8c0.4,0,0.7,0,1,0c2.3,0.1,4.3,1.4,5.3,3.6c0.5,1.1,0.7,2.2,0.6,3.4
			c-0.3,2.6-2.1,4.6-4.6,5.1C10.3,13,9.5,13.1,8.7,13.1"/>
		<path class="st0" d="M79.7,5.6c-0.5-0.1-0.9-0.1-1.4-0.1c-0.5,0-0.9,0-1.4,0.1c-1.5,0.2-2.7,0.8-3.7,1.8c-1.1,1.1-1.8,2.4-1.9,4
			c-0.1,1,0,1.8,0.3,2.8c0.4,1.4,1.1,2.6,2.3,3.5c0.8,0.6,1.6,1,2.5,1.2c0.7,0.2,1.3,0.2,2,0.2c0.7,0,1.3-0.1,2-0.2
			c1-0.2,1.7-0.6,2.5-1.2l-2.7-3c-0.4,1-1.6,1.4-2.5,1c-0.4-0.2-0.8-0.5-1-1c-0.2-0.4-0.3-0.8-0.4-1.2c-0.1-0.9-0.1-1.7,0.1-2.6
			c0.1-0.5,0.2-0.8,0.5-1.2c0.6-0.9,1.7-1.1,2.6-0.5c0.2,0.1,0.4,0.3,0.5,0.5c0.3,0.4,0.4,0.8,0.5,1.2c0.2,0.9,0.2,1.7,0.1,2.6
			c-0.1,0.4-0.2,0.8-0.4,1.2l2.7,3c1.2-0.9,1.9-2,2.3-3.5c0.3-0.9,0.3-1.8,0.2-2.8c-0.1-1.6-0.8-2.9-1.9-4
			C82.3,6.4,81.2,5.8,79.7,5.6"/>
		<path class="st0" d="M57.4,17.6c-0.1-1.1-0.1-1.9-0.1-3c0-1.4,0-2.6-0.1-3.9c0-0.7-0.1-1.4-0.3-2.1c-0.2-1-0.8-1.7-1.7-2.2
			c-0.5-0.3-1-0.5-1.6-0.6c-1.8-0.4-3.5-0.4-5.3-0.1c-0.5,0.1-0.9,0.2-1.4,0.4c-1.1,0.5-1.9,1.3-2.3,2.5c-0.1,0.4-0.2,0.9-0.1,1.3
			c0,0.1,0,0.2,0.1,0.2l4.3,0.1c0-0.3,0-0.5,0.1-0.8c0.1-0.4,0.4-0.7,0.8-0.8c0.6-0.2,1.1-0.2,1.7,0c0.4,0.1,0.7,0.4,0.8,0.8
			c0.1,0.2,0,0.5-0.1,0.7c-0.1,0.2-0.3,0.3-0.5,0.4c-0.1,0-0.2,0.1-0.4,0.1c-0.6,0.2-1.1,0.3-1.7,0.4c-0.5,0.1-0.9,0.2-1.4,0.3
			c-0.7,0.1-1.2,0.3-1.8,0.5c-0.6,0.2-1,0.5-1.5,0.9c-0.6,0.5-0.9,1.2-1,1.9c-0.1,0.5-0.1,1,0.1,1.5c0.3,1.3,1.2,2.3,2.5,2.7
			c1.5,0.4,2.8,0.4,4.2-0.2c0.7-0.3,1.2-0.7,1.7-1.2l-0.3-2.2c-0.2,0.3-0.5,0.6-0.8,0.7c-0.3,0.2-0.6,0.2-1,0.3
			c-0.3,0-0.6,0-0.9-0.1c-0.2-0.1-0.4-0.2-0.6-0.4c-0.1-0.2-0.2-0.3-0.3-0.5c-0.1-0.3,0-0.6,0.3-0.8c0.2-0.1,0.3-0.2,0.5-0.3
			c0.5-0.2,0.9-0.3,1.4-0.5c0.6-0.2,1.1-0.4,1.7-0.6c0.1,0.5,0.1,0.9,0,1.3c0,0.3-0.2,0.6-0.3,0.9l0.3,2.2c0.1,0.3,0.2,0.6,0.3,0.9
			c0.1,0.2,0.1,0.3,0.3,0.4h4.7C57.5,18.3,57.4,18,57.4,17.6"/>
		<path class="st0" d="M28.8,17.6c-0.1-1.1-0.1-1.9-0.1-3c0-1.4,0-2.6-0.1-3.9c0-0.7-0.1-1.4-0.3-2.1c-0.2-1-0.8-1.7-1.7-2.2
			c-0.5-0.3-1-0.5-1.6-0.6c-1.8-0.4-3.5-0.4-5.3-0.1c-0.5,0.1-0.9,0.2-1.4,0.4c-1.1,0.5-1.9,1.3-2.3,2.5C15.9,9,15.9,9.4,16,9.9
			c0,0.1,0,0.2,0.1,0.2l4.3,0.1c0-0.3,0-0.5,0.1-0.8c0.1-0.4,0.4-0.7,0.8-0.8c0.6-0.2,1.1-0.2,1.7,0c0.4,0.1,0.7,0.4,0.8,0.8
			c0.1,0.2,0,0.5-0.1,0.7c-0.1,0.2-0.3,0.3-0.5,0.4c-0.1,0-0.2,0.1-0.4,0.1c-0.6,0.2-1.1,0.3-1.7,0.4c-0.5,0.1-0.9,0.2-1.4,0.3
			c-0.6,0.1-1.2,0.3-1.8,0.5c-0.6,0.2-1,0.5-1.5,0.9c-0.6,0.5-0.9,1.2-1,1.9c-0.1,0.5-0.1,1,0.1,1.5c0.3,1.3,1.2,2.3,2.5,2.7
			c1.4,0.4,2.8,0.4,4.2-0.2c0.7-0.3,1.2-0.7,1.7-1.2l-0.3-2.2c-0.2,0.3-0.5,0.6-0.8,0.7c-0.3,0.2-0.6,0.2-1,0.3
			c-0.3,0-0.6,0-0.9-0.1c-0.2-0.1-0.4-0.2-0.6-0.4c-0.1-0.2-0.2-0.3-0.3-0.5c-0.1-0.3,0-0.6,0.3-0.8c0.2-0.1,0.3-0.2,0.5-0.3
			c0.5-0.2,0.9-0.3,1.4-0.5c0.6-0.2,1.1-0.4,1.7-0.6c0.1,0.5,0.1,0.9,0,1.3c0,0.3-0.1,0.6-0.3,0.9l0.3,2.2c0.1,0.3,0.2,0.6,0.3,0.9
			c0.1,0.2,0.1,0.3,0.3,0.4h4.7C28.9,18.3,28.8,18,28.8,17.6"/>
	</g>
</g>
<g>
	<path class="st0" d="M137.2,43l-0.5-2.3h-2.7l-0.5,2.3h-1.9l2.8-11.5h1.8l2.8,11.5H137.2z M135.4,34.3l-1,4.8h2L135.4,34.3z"/>
	<path class="st0" d="M145.3,42.3c-0.5,0.5-1.2,0.7-2.3,0.7h-2.9V31.5h2.9c1.1,0,1.8,0.2,2.2,0.7c0.5,0.5,0.7,1.1,0.7,2.4
		c0,0.8-0.1,1.5-0.7,2c-0.2,0.2-0.4,0.3-0.6,0.4c0.2,0.1,0.5,0.3,0.6,0.4c0.5,0.5,0.7,1.2,0.7,2.3C146,41.1,145.8,41.7,145.3,42.3z
		 M142.9,33.2H142v3.1h0.9c0.9,0,1.3-0.5,1.3-1.6C144.2,33.6,143.8,33.2,142.9,33.2z M142.8,37.8H142v3.6h0.9c1,0,1.4-0.5,1.4-1.8
		C144.2,38.3,143.8,37.8,142.8,37.8z"/>
	<path class="st0" d="M152.4,42.4c-0.5,0.5-1.1,0.7-2,0.7c-1.1,0-1.8-0.4-2.2-1c-0.8-0.9-0.8-2.2-0.8-4.9s0.1-4,0.8-4.9
		c0.5-0.6,1.2-1,2.2-1c0.9,0,1.5,0.3,2,0.7c0.6,0.5,0.9,1.4,0.9,2.4h-1.8c0-0.4-0.1-0.8-0.3-1.1c-0.2-0.3-0.4-0.4-0.9-0.4
		s-0.7,0.2-0.9,0.4c-0.4,0.5-0.4,1.7-0.4,3.8c0,2.1,0,3.3,0.4,3.8c0.2,0.3,0.4,0.4,0.9,0.4s0.7-0.2,0.9-0.4c0.2-0.3,0.3-0.7,0.3-1.1
		h1.8C153.3,41,153,41.9,152.4,42.4z"/>
	<path class="st0" d="M160,42.1c-0.5,0.5-1.1,1-2.2,1h-2.9V31.5h2.9c1.1,0,1.8,0.4,2.2,1c0.8,0.9,0.8,2.1,0.8,4.8
		S160.8,41.2,160,42.1z M158.6,33.6c-0.2-0.3-0.5-0.5-0.9-0.5h-1.1v8.2h1.1c0.4,0,0.7-0.2,0.9-0.5c0.4-0.5,0.4-1.7,0.4-3.7
		C159,35.3,159,34.2,158.6,33.6z"/>
	<path class="st0" d="M162.5,43V31.5h4.8v1.6h-3v3.3h2.6v1.6h-2.6v3.3h3V43H162.5z"/>
	<path class="st0" d="M170.7,33.2v3.3h2.6v1.6h-2.6v5h-1.8V31.5h4.8v1.6H170.7z"/>
	<path class="st0" d="M178,43.2c-1.1,0-1.8-0.4-2.2-1c-0.8-0.9-0.8-2.2-0.8-4.9s0.1-4,0.8-4.9c0.5-0.6,1.2-1,2.2-1
		c0.9,0,1.6,0.3,2.1,0.8c0.6,0.6,0.9,1.4,0.9,2.4h-1.8c0-0.6-0.1-1.6-1.1-1.6c-0.4,0-0.7,0.2-0.9,0.4c-0.4,0.5-0.4,1.7-0.4,3.8
		c0,2.1,0,3.3,0.4,3.8c0.2,0.3,0.4,0.4,0.9,0.4c0.8,0,1.1-0.7,1.1-1.5v-1.8H178v-1.5h2.9V40C181,42.1,179.8,43.2,178,43.2z"/>
	<path class="st0" d="M186.7,43v-5h-2.2v5h-1.8V31.5h1.8v4.8h2.2v-4.8h1.8V43H186.7z"/>
	<path class="st0" d="M190.4,43V31.5h1.8V43H190.4z"/>
	<path class="st0" d="M197.8,42.3c-0.5,0.6-1.3,0.9-2.3,0.9c-0.9,0-1.7-0.3-2.3-0.9l1.3-1.2c0.2,0.3,0.6,0.5,1,0.5
		c0.7,0,1.3-0.5,1.3-1.5v-8.5h1.8V40C198.6,41,198.4,41.7,197.8,42.3z"/>
	<path class="st0" d="M205,43l-1.9-4.7l-0.9,1.8v3h-1.8V31.5h1.8V37l2.5-5.4h1.8l-2.3,4.8L207,43H205z"/>
	<path class="st0" d="M208.1,43V31.5h1.8v9.9h3V43H208.1z"/>
	<path class="st0" d="M220.2,43v-7.2l-1.6,4.7h-1l-1.5-4.6V43h-1.8V31.5h1.6l2.2,6l2.2-6h1.6V43H220.2z"/>
	<path class="st0" d="M228.4,43l-2.7-6.8V43h-1.8V31.5h1.6l2.7,6.8v-6.8h1.8V43H228.4z"/>
	<path class="st0" d="M237,42.2c-0.5,0.6-1.2,1-2.2,1c-1.1,0-1.8-0.4-2.2-1c-0.8-0.9-0.8-2.2-0.8-4.9s0.1-4,0.8-4.9
		c0.5-0.6,1.2-1,2.2-1c1.1,0,1.8,0.4,2.2,1c0.8,0.9,0.8,2.2,0.8,4.9S237.8,41.3,237,42.2z M235.6,33.5c-0.2-0.3-0.4-0.4-0.9-0.4
		s-0.7,0.2-0.9,0.4c-0.3,0.5-0.4,1.7-0.4,3.8c0,2.1,0.1,3.3,0.4,3.8c0.2,0.3,0.4,0.4,0.9,0.4s0.7-0.2,0.9-0.4
		c0.3-0.5,0.4-1.7,0.4-3.8C236,35.2,236,34,235.6,33.5z"/>
	<path class="st0" d="M242.3,38.5h-1.1V43h-1.8V31.5h2.9c2.1,0,3,1.1,3,3.5C245.3,37.5,244.4,38.5,242.3,38.5z M242.3,33.2h-1v3.7h1
		c1,0,1.2-0.7,1.2-1.9C243.5,33.9,243.3,33.2,242.3,33.2z"/>
	<path class="st0" d="M252.3,43.4l-0.9-0.8c-0.4,0.3-1,0.5-1.8,0.5c-1.1,0-1.7-0.4-2.2-1c-0.8-0.9-0.8-2.2-0.8-4.9s0.1-4,0.8-4.9
		c0.5-0.6,1.2-1,2.2-1c1.1,0,1.8,0.4,2.2,1c0.8,0.9,0.8,2.2,0.8,4.9c0,2.6-0.1,3.5-0.5,4.3l1,0.8L252.3,43.4z M250.4,33.5
		c-0.2-0.3-0.4-0.4-0.9-0.4c-0.4,0-0.7,0.2-0.9,0.4c-0.4,0.5-0.4,1.7-0.4,3.8c0,2.1,0,3.3,0.4,3.8c0.2,0.3,0.4,0.4,0.9,0.4
		c0.2,0,0.3,0,0.4-0.1l-0.6-0.5l0.8-1l0.5,0.4c0.1-0.6,0.2-1.5,0.2-3.1C250.8,35.2,250.8,34,250.4,33.5z"/>
	<path class="st0" d="M258.6,43l-1.5-4.7h-1V43h-1.8V31.5h2.9c2.1,0,2.9,1,2.9,3.4c0,1.4-0.3,2.4-1.3,3l1.7,5.1H258.6z M257.2,33.2
		h-1.1v3.5h1.1c1,0,1.1-0.8,1.1-1.8C258.3,34,258.2,33.2,257.2,33.2z"/>
	<path class="st0" d="M266.8,42.4c-0.5,0.5-1.2,0.8-2.2,0.8c-1,0-1.7-0.3-2.2-0.8c-0.5-0.5-0.7-1.3-0.7-2.5h1.8c0,0.6,0.1,1,0.3,1.3
		c0.2,0.2,0.4,0.3,0.8,0.3c0.4,0,0.7-0.1,0.9-0.3c0.2-0.3,0.3-0.7,0.3-1.3c0-1.2-0.2-1.5-1.1-1.9l-1.4-0.6c-1.2-0.5-1.6-1.1-1.6-2.9
		c0-1,0.3-1.9,0.9-2.4c0.5-0.4,1.1-0.7,2-0.7c0.9,0,1.6,0.2,2.1,0.7c0.6,0.6,0.8,1.4,0.8,2.5h-1.8c0-0.5,0-0.9-0.3-1.2
		c-0.2-0.2-0.4-0.3-0.8-0.3c-0.4,0-0.6,0.1-0.8,0.3c-0.2,0.2-0.3,0.6-0.3,1.1c0,0.9,0.1,1.2,1,1.6l1.4,0.5c1.4,0.6,1.7,1.3,1.7,3.2
		C267.6,41,267.4,41.8,266.8,42.4z"/>
	<path class="st0" d="M272.2,33.2V43h-1.8v-9.9h-1.9v-1.6h5.7v1.6H272.2z"/>
	<path class="st0" d="M280.4,42.3c-0.5,0.6-1.3,0.8-2.1,0.8s-1.6-0.3-2.1-0.8c-0.5-0.5-0.8-1.2-0.8-2.1v-8.7h1.8v8.8
		c0,0.8,0.5,1.2,1.1,1.2c0.6,0,1.1-0.4,1.1-1.2v-8.8h1.8v8.7C281.2,41.1,280.9,41.8,280.4,42.3z"/>
	<path class="st0" d="M286.5,43h-1.9l-2.5-11.5h2l1.5,8.7l1.5-8.7h2L286.5,43z"/>
	<path class="st0" d="M298.4,43h-1.9l-1.6-8.7l-1.6,8.7h-1.9l-2.2-11.5h2l1.1,8.7l1.6-8.7h2l1.6,8.7l1.1-8.7h2L298.4,43z"/>
	<path class="st0" d="M305.5,43l-1.3-4.1l-1.3,4.1h-2l2.3-6l-2.1-5.5h2l1.1,3.8l1.1-3.8h2l-2.1,5.5l2.3,6H305.5z"/>
	<path class="st0" d="M311.7,38.5V43h-1.8v-4.5l-2.2-7h2l1.1,4.6l1.1-4.6h2L311.7,38.5z"/>
	<path class="st0" d="M314.4,43v-1.4l3.1-8.5h-2.9v-1.6h4.8v1.4l-3.1,8.5h3.1V43H314.4z"/>
	<path class="st0" d="M135.7,62.4v-0.7c-0.1,0.2-0.3,0.4-0.5,0.6c-0.3,0.2-0.5,0.3-1,0.3c-0.7,0-1.2-0.2-1.6-0.7
		c-0.3-0.4-0.5-1.1-0.5-1.9c0-0.8,0.3-1.5,0.8-1.9c0.4-0.4,1-0.6,2-0.6h0.8v-1.2c0-0.6-0.3-1-0.8-1c-0.3,0-0.4,0.1-0.6,0.2
		c-0.2,0.2-0.3,0.4-0.3,0.8h-1.7c0-0.7,0.2-1.3,0.7-1.8c0.4-0.4,1.1-0.7,1.8-0.7c0.7,0,1.4,0.2,1.8,0.6c0.5,0.5,0.7,1.1,0.7,2v6
		H135.7z M135.6,58.7H135c-0.4,0-0.6,0-0.9,0.3c-0.2,0.2-0.3,0.6-0.3,1c0,0.8,0.3,1.2,0.9,1.2c0.5,0,0.9-0.4,0.9-1.1V58.7z"/>
	<path class="st0" d="M143.5,61.9c-0.4,0.5-0.9,0.7-1.5,0.7c-0.3,0-0.6-0.1-0.9-0.2c-0.2-0.1-0.5-0.4-0.6-0.5v0.6h-1.6V50.9h1.7v3.5
		c0.1-0.2,0.3-0.3,0.5-0.5c0.2-0.1,0.5-0.2,0.9-0.2c0.6,0,1.1,0.2,1.5,0.7c0.6,0.7,0.6,1.9,0.6,3.7C144.1,60,144,61.2,143.5,61.9z
		 M142.1,55.7c-0.1-0.2-0.4-0.3-0.6-0.3c-0.2,0-0.4,0.1-0.6,0.2c-0.2,0.2-0.3,0.4-0.3,0.8V60c0,0.4,0.1,0.6,0.3,0.8
		c0.1,0.1,0.3,0.2,0.6,0.2c0.3,0,0.5-0.1,0.6-0.3c0.2-0.3,0.3-0.9,0.3-2.5C142.4,56.6,142.3,55.9,142.1,55.7z"/>
	<path class="st0" d="M149.7,61.9c-0.4,0.4-1,0.6-1.8,0.6c-0.8,0-1.5-0.2-2-0.9c-0.5-0.7-0.6-2.1-0.6-3.5s0.1-2.7,0.6-3.5
		c0.5-0.7,1.2-0.9,2-0.9c0.7,0,1.3,0.1,1.8,0.6c0.5,0.5,0.7,1.2,0.8,2h-1.7c0-0.3,0-0.6-0.2-0.8c-0.1-0.2-0.4-0.3-0.6-0.3
		c-0.3,0-0.5,0.1-0.7,0.4c-0.2,0.4-0.2,1.2-0.2,2.5c0,1.3,0,2.1,0.2,2.5c0.1,0.2,0.4,0.3,0.7,0.3c0.3,0,0.5-0.1,0.6-0.3
		c0.2-0.2,0.2-0.5,0.2-0.8h1.7C150.4,60.7,150.1,61.5,149.7,61.9z"/>
	<path class="st0" d="M155,62.4v-0.6c-0.1,0.2-0.4,0.4-0.6,0.5c-0.2,0.2-0.5,0.2-0.9,0.2c-0.6,0-1.1-0.2-1.5-0.7
		c-0.6-0.7-0.6-1.9-0.6-3.7c0-1.8,0-3,0.6-3.7c0.4-0.5,0.8-0.7,1.5-0.7c0.3,0,0.6,0.1,0.9,0.2c0.2,0.1,0.4,0.3,0.5,0.5v-3.5h1.7
		v11.5H155z M154.9,56.4c0-0.4-0.1-0.6-0.3-0.8c-0.2-0.2-0.3-0.2-0.6-0.2c-0.3,0-0.5,0.1-0.6,0.3c-0.2,0.3-0.3,0.9-0.3,2.5
		c0,1.6,0,2.2,0.3,2.5c0.1,0.2,0.4,0.3,0.6,0.3c0.2,0,0.4-0.1,0.6-0.2c0.2-0.2,0.3-0.4,0.3-0.8V56.4z"/>
	<path class="st0" d="M159.8,58.7c0,1,0,1.7,0.3,2c0.1,0.2,0.4,0.3,0.7,0.3c0.3,0,0.5-0.1,0.6-0.3c0.1-0.2,0.2-0.5,0.2-0.8h1.7
		c0,0.8-0.2,1.4-0.7,2c-0.5,0.5-1,0.7-1.8,0.7c-0.8,0-1.3-0.2-1.8-0.7c-0.7-0.7-0.8-2.1-0.8-3.7c0-1.5,0.1-3,0.8-3.7
		c0.5-0.5,1.1-0.7,1.8-0.7c0.7,0,1.3,0.1,1.8,0.7c0.7,0.7,0.8,2.2,0.8,4.2H159.8z M161.3,55.7c-0.1-0.2-0.3-0.3-0.7-0.3
		c-0.3,0-0.5,0.1-0.7,0.3c-0.2,0.3-0.2,0.8-0.2,1.8h1.8C161.6,56.4,161.5,55.9,161.3,55.7z"/>
	<path class="st0" d="M166.7,55.5v7H165v-7h-0.9v-1.3h0.9v-0.7c0-1,0.3-1.6,0.9-2.1c0.6-0.4,1.2-0.5,2-0.5v1.5
		c-0.8,0-1.2,0.4-1.2,1.1v0.6h1.2v1.3H166.7z"/>
	<path class="st0" d="M173.8,62.6c0,1.1-0.3,1.7-0.7,2.2c-0.4,0.4-1.1,0.7-1.8,0.7c-0.7,0-1.4-0.2-1.8-0.7c-0.5-0.5-0.7-1.2-0.7-1.9
		h1.7c0,0.3,0.1,0.6,0.2,0.8c0.1,0.2,0.4,0.3,0.6,0.3c0.3,0,0.5-0.1,0.6-0.3c0.2-0.2,0.2-0.5,0.2-1v-1.5c-0.1,0.2-0.3,0.3-0.5,0.5
		c-0.2,0.2-0.5,0.2-0.9,0.2c-0.6,0-1.1-0.2-1.5-0.6c-0.5-0.6-0.7-1.6-0.7-3.4c0-1.8,0.1-2.8,0.7-3.4c0.4-0.4,0.8-0.6,1.5-0.6
		c0.3,0,0.6,0.1,0.9,0.2c0.2,0.1,0.4,0.3,0.5,0.5v-0.5h1.6V62.6z M172.1,56.4c0-0.4-0.1-0.6-0.3-0.8c-0.2-0.2-0.3-0.2-0.6-0.2
		c-0.2,0-0.5,0.1-0.6,0.3c-0.2,0.3-0.3,0.8-0.3,2.2s0,1.9,0.3,2.2c0.2,0.2,0.4,0.3,0.6,0.3c0.2,0,0.4-0.1,0.6-0.2
		c0.2-0.2,0.3-0.4,0.3-0.8V56.4z"/>
	<path class="st0" d="M178.9,62.4v-6.1c0-0.7-0.4-1-0.8-1c-0.5,0-0.8,0.3-0.8,1v6.1h-1.7V50.9h1.7v3.5c0.1-0.2,0.3-0.4,0.5-0.5
		c0.2-0.1,0.5-0.2,0.9-0.2c0.7,0,1.2,0.2,1.6,0.7c0.3,0.4,0.5,0.9,0.5,1.8v6.1H178.9z"/>
	<path class="st0" d="M182.1,52.8V51h1.9v1.9H182.1z M182.2,62.4v-8.3h1.7v8.3H182.2z"/>
	<path class="st0" d="M186.5,64.9c-0.6,0.4-1.2,0.5-2,0.5v-1.5c0.8,0,1.2-0.3,1.2-1.1v-8.6h1.7v8.7C187.3,63.9,187,64.5,186.5,64.9z
		 M185.5,52.8V51h1.9v1.9H185.5z"/>
	<path class="st0" d="M192.9,62.4l-1.4-3.6l-0.7,1.1v2.4H189V50.9h1.7v6.6l2.1-3.6h1.8l-2.1,3.4l2.2,5.1H192.9z"/>
	<path class="st0" d="M196.6,61.9c-0.5-0.4-0.9-1-0.9-2.1v-8.9h1.7v8.8c0,0.8,0.4,1.1,1.2,1.1v1.5C197.8,62.4,197.1,62.4,196.6,61.9
		z"/>
	<path class="st0" d="M206.5,62.4v-6.1c0-0.7-0.4-1-0.9-1c-0.5,0-0.8,0.3-0.8,1v6.1h-1.7v-6.1c0-0.7-0.4-1-0.8-1
		c-0.5,0-0.8,0.3-0.8,1v6.1h-1.7v-8.5h1.6v0.6c0.1-0.2,0.4-0.4,0.6-0.5c0.2-0.1,0.5-0.2,0.9-0.2c0.7,0,1.3,0.3,1.7,0.9
		c0.2-0.2,0.5-0.5,0.8-0.6c0.3-0.1,0.6-0.2,0.9-0.2c0.8,0,1.2,0.2,1.6,0.7c0.3,0.4,0.5,0.9,0.5,1.8v6.1H206.5z"/>
	<path class="st0" d="M213.2,62.4v-6.1c0-0.7-0.4-1-0.8-1s-0.8,0.3-0.8,1v6.1h-1.7v-8.5h1.6v0.6c0.1-0.2,0.4-0.4,0.6-0.5
		c0.2-0.1,0.5-0.2,0.9-0.2c0.7,0,1.2,0.2,1.6,0.7c0.3,0.4,0.5,0.9,0.5,1.8v6.1H213.2z"/>
	<path class="st0" d="M221,61.7c-0.5,0.7-1.2,0.9-2,0.9c-0.8,0-1.5-0.2-2-0.9c-0.5-0.7-0.6-2.1-0.6-3.5s0.1-2.7,0.6-3.5
		c0.5-0.7,1.2-0.9,2-0.9c0.8,0,1.5,0.2,2,0.9c0.5,0.7,0.6,2.1,0.6,3.5S221.5,60.9,221,61.7z M219.6,55.7c-0.1-0.2-0.4-0.4-0.7-0.4
		c-0.3,0-0.5,0.1-0.7,0.4c-0.2,0.4-0.2,1.2-0.2,2.5c0,1.3,0,2.1,0.2,2.5c0.1,0.2,0.4,0.3,0.7,0.3c0.3,0,0.5-0.1,0.7-0.3
		c0.2-0.4,0.2-1.3,0.2-2.5C219.9,56.9,219.8,56.1,219.6,55.7z"/>
	<path class="st0" d="M227.6,61.9c-0.4,0.5-0.9,0.7-1.5,0.7c-0.3,0-0.6-0.1-0.9-0.2c-0.2-0.1-0.4-0.3-0.5-0.5v3.5H223V53.9h1.6v0.6
		c0.1-0.2,0.4-0.4,0.6-0.5c0.2-0.1,0.5-0.2,0.9-0.2c0.6,0,1.1,0.2,1.5,0.7c0.5,0.7,0.6,1.9,0.6,3.7C228.2,60,228.1,61.2,227.6,61.9z
		 M226.2,55.7c-0.1-0.2-0.4-0.3-0.6-0.3c-0.2,0-0.4,0.1-0.6,0.2c-0.2,0.2-0.3,0.4-0.3,0.8V60c0,0.4,0.1,0.6,0.3,0.8
		c0.1,0.1,0.3,0.2,0.6,0.2c0.3,0,0.5-0.1,0.6-0.3c0.2-0.3,0.3-0.9,0.3-2.5C226.5,56.6,226.4,55.9,226.2,55.7z"/>
	<path class="st0" d="M232.8,65.4v-3.5c-0.1,0.2-0.3,0.3-0.5,0.5c-0.2,0.1-0.5,0.2-0.9,0.2c-0.6,0-1.1-0.2-1.5-0.7
		c-0.6-0.7-0.6-1.9-0.6-3.7c0-1.8,0-3,0.6-3.7c0.4-0.5,0.9-0.7,1.5-0.7c0.3,0,0.6,0.1,0.9,0.2c0.2,0.1,0.5,0.4,0.6,0.5v-0.6h1.6
		v11.5H232.8z M232.8,56.4c0-0.4-0.1-0.6-0.3-0.8c-0.1-0.1-0.3-0.2-0.6-0.2c-0.3,0-0.5,0.1-0.6,0.3c-0.2,0.3-0.3,0.9-0.3,2.5
		c0,1.6,0,2.2,0.3,2.5c0.1,0.2,0.4,0.3,0.6,0.3c0.2,0,0.4-0.1,0.6-0.2c0.2-0.2,0.3-0.4,0.3-0.8V56.4z"/>
	<path class="st0" d="M239.3,55.5c-0.8,0-1.4,0.5-1.4,1.5v5.5h-1.7v-8.5h1.6v0.9c0.2-0.3,0.5-0.5,0.7-0.7c0.4-0.2,0.8-0.4,1.3-0.4
		v1.7H239.3z"/>
	<path class="st0" d="M245,61.9c-0.5,0.5-1.1,0.7-1.9,0.7c-0.7,0-1.4-0.2-1.9-0.7c-0.5-0.5-0.8-1.1-0.8-1.9h1.7
		c0,0.3,0.1,0.6,0.3,0.8c0.2,0.2,0.4,0.3,0.6,0.3c0.3,0,0.5-0.1,0.7-0.2c0.2-0.1,0.2-0.4,0.2-0.7c0-0.2,0-0.4-0.2-0.6
		c-0.1-0.2-0.4-0.4-0.7-0.5l-1.1-0.5c-0.6-0.3-1-0.6-1.2-1c-0.2-0.3-0.3-0.7-0.3-1.2c0-0.8,0.3-1.4,0.7-1.8c0.5-0.5,1.1-0.7,1.8-0.7
		c0.7,0,1.4,0.2,1.8,0.6c0.5,0.4,0.7,1,0.7,1.9H244c0-0.4-0.1-0.6-0.2-0.8c-0.2-0.2-0.4-0.3-0.6-0.3c-0.3,0-0.5,0.1-0.6,0.2
		c-0.2,0.2-0.2,0.4-0.2,0.6c0,0.2,0,0.4,0.1,0.5c0.1,0.2,0.3,0.4,0.6,0.5l1.1,0.5c0.6,0.3,1,0.5,1.2,0.9c0.2,0.3,0.4,0.8,0.4,1.4
		C245.8,60.8,245.5,61.4,245,61.9z"/>
	<path class="st0" d="M248.3,61.9c-0.5-0.4-0.9-1.1-0.9-2.1v-4.4h-0.9v-1.3h0.9v-2.4h1.7v2.4h1.2v1.3h-1.2v4.3
		c0,0.8,0.4,1.1,1.2,1.1v1.5C249.6,62.4,248.9,62.4,248.3,61.9z"/>
	<path class="st0" d="M255,62.4v-0.6c-0.1,0.2-0.4,0.4-0.6,0.5c-0.2,0.1-0.5,0.2-0.9,0.2c-0.7,0-1.2-0.2-1.6-0.7
		c-0.3-0.4-0.5-0.9-0.5-1.8v-6.1h1.7v6.1c0,0.7,0.4,1,0.8,1s0.8-0.3,0.8-1v-6.1h1.7v8.5H255z"/>
	<path class="st0" d="M261.4,62.4h-1.8l-2.1-8.5h1.9l1.1,5.8l1.1-5.8h1.9L261.4,62.4z"/>
	<path class="st0" d="M270.9,62.4h-1.7l-1-5.5l-1,5.5h-1.7l-1.9-8.5h1.9l0.9,5.8l1-5.8h1.5l1.1,5.8l0.9-5.8h1.9L270.9,62.4z"/>
	<path class="st0" d="M277.2,62.4l-1.1-2.6l-1.1,2.6h-1.9l2-4.3l-1.9-4.2h1.9l1,2.6l1-2.6h1.9l-1.9,4.2l2,4.3H277.2z"/>
	<path class="st0" d="M282.9,63.5c-0.4,1.7-1.6,1.9-3.2,1.9v-1.5c0.7,0,1.3-0.1,1.5-0.9l0.1-0.6l-2.1-8.5h1.9l1.1,5.8l1.1-5.8h1.9
		L282.9,63.5z"/>
	<path class="st0" d="M285.8,62.4v-1.3l2.5-5.7H286v-1.5h4.2v1.3l-2.5,5.7h2.5v1.5H285.8z"/>
	<path class="st0" d="M134.5,81.8v-9.5l-1.7,1.3v-1.9l1.7-1.4h1.7v11.5H134.5z"/>
	<path class="st0" d="M138.9,81.8v-1.5l2.9-5.6c0.3-0.5,0.5-1.2,0.5-2.1c0-0.7-0.4-1-0.8-1c-0.5,0-0.9,0.3-0.9,1v0.7h-1.7v-0.7
		c0-0.9,0.3-1.5,0.7-1.9c0.5-0.4,1.2-0.7,1.9-0.7s1.3,0.2,1.8,0.6c0.5,0.4,0.8,1.1,0.8,2c0,0.8-0.3,1.8-0.6,2.5l-2.6,5h3.2v1.5
		H138.9z"/>
	<path class="st0" d="M149.7,81.3c-0.5,0.4-1.1,0.7-1.8,0.7c-0.7,0-1.4-0.2-1.9-0.7c-0.5-0.4-0.7-1-0.7-1.9v-0.7h1.7v0.7
		c0,0.7,0.4,1,0.9,1c0.2,0,0.4-0.1,0.6-0.3c0.2-0.2,0.3-0.6,0.3-1.6c0-1.2-0.1-1.6-0.3-1.8c-0.1-0.2-0.4-0.3-0.6-0.3h-0.6V75h0.6
		c0.2,0,0.4-0.1,0.5-0.2c0.2-0.3,0.3-0.6,0.3-1.5c0-0.8,0-1.1-0.2-1.4c-0.1-0.2-0.3-0.3-0.6-0.3c-0.5,0-0.8,0.3-0.8,0.9v0.8h-1.7
		v-0.7c0-0.9,0.3-1.5,0.7-1.9c0.5-0.5,1.1-0.7,1.8-0.7c0.8,0,1.4,0.2,1.8,0.6c0.5,0.5,0.7,1.3,0.7,2.4c0,0.8,0,1.3-0.3,1.8
		c-0.1,0.3-0.4,0.5-0.6,0.7c0.3,0.2,0.5,0.4,0.7,0.7c0.3,0.5,0.4,1.1,0.4,2.1C150.4,79.9,150.3,80.6,149.7,81.3z"/>
	<path class="st0" d="M156.4,80.1v1.8h-1.7v-1.8h-3.2v-1.5l3-8.2h1.7l-2.9,8.2h1.4v-2.1h1.7v2.1h0.8v1.5H156.4z"/>
	<path class="st0" d="M162.6,81.3c-0.4,0.5-1.1,0.7-1.8,0.7c-0.7,0-1.4-0.2-1.8-0.7c-0.5-0.4-0.7-1-0.7-1.9v-0.6h1.7v0.6
		c0,0.7,0.4,1,0.9,1c0.2,0,0.5-0.1,0.6-0.3c0.2-0.3,0.3-0.7,0.3-2c0-1.2,0-1.7-0.2-2c-0.2-0.2-0.4-0.4-0.7-0.4c-0.5,0-0.9,0.3-0.9,1
		V77h-1.6v-6.6h5v1.5h-3.4V75c0.1-0.2,0.4-0.4,0.6-0.5c0.2-0.1,0.5-0.2,0.8-0.2c0.7,0,1.2,0.2,1.6,0.7c0.4,0.5,0.5,1.2,0.5,3.2
		C163.4,79.6,163.4,80.5,162.6,81.3z"/>
	<path class="st0" d="M169.3,81.1c-0.5,0.6-1.2,0.9-2.1,0.9c-0.9,0-1.6-0.3-2-0.9c-0.4-0.6-0.6-1.3-0.6-2.7c0-1,0.2-2,0.5-2.7l2-5.3
		h1.8l-1.9,4.7c0.2-0.1,0.5-0.2,0.7-0.2c0.6,0,1.1,0.2,1.5,0.7c0.4,0.5,0.6,1.1,0.6,2.8C169.9,79.9,169.7,80.5,169.3,81.1z
		 M167.9,76.5c-0.1-0.2-0.4-0.3-0.6-0.3c-0.2,0-0.5,0.1-0.6,0.3c-0.2,0.3-0.3,0.9-0.3,1.8c0,0.9,0,1.5,0.3,1.8
		c0.1,0.2,0.4,0.3,0.6,0.3c0.2,0,0.5-0.1,0.6-0.3c0.2-0.3,0.3-0.9,0.3-1.8C168.2,77.4,168.1,76.8,167.9,76.5z"/>
	<path class="st0" d="M173.4,81.8h-1.7l3-10h-2v1.5h-1.6v-3.1h5.4v1.4L173.4,81.8z"/>
	<path class="st0" d="M182.1,81.3c-0.4,0.4-1.1,0.7-1.8,0.7c-0.7,0-1.4-0.2-1.8-0.7c-0.7-0.7-0.8-1.4-0.8-2.7c0-1,0.1-1.5,0.3-2
		c0.2-0.3,0.4-0.5,0.7-0.7c-0.3-0.2-0.5-0.4-0.6-0.7c-0.2-0.5-0.3-1-0.3-1.8c0-1.1,0.2-1.9,0.7-2.5c0.5-0.5,1.1-0.7,1.8-0.7
		c0.7,0,1.3,0.2,1.8,0.7c0.6,0.6,0.7,1.3,0.7,2.5c0,0.8-0.1,1.3-0.3,1.8c-0.1,0.3-0.4,0.5-0.6,0.7c0.3,0.2,0.5,0.4,0.7,0.7
		c0.3,0.5,0.3,1.1,0.3,2C182.8,79.9,182.8,80.6,182.1,81.3z M180.9,76.8c-0.1-0.2-0.4-0.3-0.6-0.3c-0.2,0-0.5,0.1-0.6,0.3
		c-0.2,0.3-0.3,0.7-0.3,1.7c0,0.9,0,1.4,0.3,1.7c0.1,0.2,0.4,0.3,0.6,0.3c0.2,0,0.5-0.1,0.6-0.3c0.2-0.3,0.3-0.8,0.3-1.7
		C181.1,77.5,181.1,77.1,180.9,76.8z M180.8,71.9c-0.1-0.1-0.3-0.2-0.5-0.2c-0.2,0-0.4,0.1-0.5,0.2c-0.2,0.2-0.3,0.5-0.3,1.5
		c0,1,0.1,1.3,0.3,1.5c0.1,0.1,0.3,0.2,0.5,0.2c0.2,0,0.4-0.1,0.5-0.2c0.2-0.2,0.3-0.5,0.3-1.5C181,72.4,181,72.1,180.8,71.9z"/>
	<path class="st0" d="M188.8,76.5l-2,5.3h-1.8l1.9-4.7c-0.2,0.1-0.5,0.2-0.7,0.2c-0.6,0-1.1-0.2-1.5-0.7c-0.4-0.5-0.6-1.1-0.6-2.8
		c0-1.5,0.2-2.1,0.6-2.7c0.5-0.6,1.2-0.9,2-0.9c0.9,0,1.6,0.3,2,0.9c0.4,0.6,0.6,1.3,0.6,2.7C189.3,74.9,189.1,75.8,188.8,76.5z
		 M187.3,72c-0.1-0.2-0.4-0.3-0.6-0.3c-0.2,0-0.5,0.1-0.6,0.3c-0.2,0.3-0.3,0.9-0.3,1.8c0,0.9,0,1.5,0.3,1.8
		c0.1,0.2,0.4,0.3,0.6,0.3c0.2,0,0.5-0.1,0.6-0.3c0.2-0.3,0.3-0.9,0.3-1.8C187.6,73,187.6,72.3,187.3,72z"/>
	<path class="st0" d="M195,81.3c-0.5,0.4-1.1,0.7-1.8,0.7c-0.7,0-1.4-0.2-1.8-0.7c-0.5-0.4-0.7-1-0.7-1.9v-6.6
		c0-0.9,0.3-1.5,0.7-1.9c0.5-0.4,1.1-0.7,1.8-0.7c0.7,0,1.4,0.2,1.8,0.7c0.5,0.4,0.7,1,0.7,1.9v6.6C195.8,80.3,195.5,80.9,195,81.3z
		 M194.1,72.7c0-0.7-0.4-1-0.8-1c-0.5,0-0.9,0.3-0.9,1v6.7c0,0.7,0.4,1,0.9,1c0.5,0,0.8-0.3,0.8-1V72.7z"/>
</g>
<g>
	<path class="st0" d="M137.7,19.7h-4.9V0.9h4.9c1.6,0,2.8,0.5,3.7,1.6c1.4,1.6,1.4,4.1,1.4,7.6v0.4c0,3.5,0,6-1.4,7.6
		C140.5,19.1,139.3,19.7,137.7,19.7z M133.3,19.2h4.4c1.4,0,2.5-0.5,3.4-1.4l0,0c1.3-1.4,1.3-3.9,1.3-7.3v-0.4c0-3.4,0-5.8-1.3-7.3
		c-0.9-1-1.9-1.4-3.4-1.4h-4.4V19.2z M137.6,17.1h-1.9V3.5h1.9c0.7,0,1.3,0.3,1.7,0.9l0,0c0.6,0.9,0.7,2.5,0.7,5.9
		c0,3.4-0.1,5.1-0.7,6C138.9,16.8,138.3,17.1,137.6,17.1z M136.2,16.6h1.4c0.7,0,1.1-0.3,1.3-0.6c0.5-0.8,0.6-2.4,0.6-5.7
		c0-3.2-0.1-4.9-0.6-5.6c-0.2-0.3-0.6-0.6-1.3-0.6h-1.4V16.6z"/>
	<path class="st0" d="M148.3,19.7h-3.4V0.9h3.4V19.7z M145.4,19.2h2.4V1.4h-2.4V19.2z"/>
	<path class="st0" d="M161.1,19.7h-3l-3.9-9.8v9.8h-3.4V0.9h3l3.9,9.8V0.9h3.4V19.7z M158.5,19.2h2.1V1.4h-2.4V12l-0.5,0.1
		l-4.2-10.7h-2.1v17.8h2.4V8.6l0.5-0.1L158.5,19.2z"/>
	<path class="st0" d="M172.9,19.9c-1.6,0-2.8-0.5-3.7-1.6c-1.4-1.6-1.4-4.2-1.4-7.7v-0.4c0-3.6,0-6.2,1.4-7.8c1-1.1,2.2-1.6,3.7-1.6
		c1.4,0,2.4,0.4,3.4,1.2c0.9,0.9,1.5,2.3,1.5,4l0,0.3h-3.4l0-0.2c0-0.8-0.2-1.3-0.4-1.6c-0.2-0.4-0.6-0.6-1.1-0.6
		c-0.5,0-0.9,0.2-1.1,0.6c-0.5,0.8-0.6,2.7-0.6,5.9c0,3.2,0.1,5.1,0.6,5.9c0.2,0.4,0.6,0.6,1.1,0.6c0.5,0,0.9-0.2,1.1-0.5
		c0.2-0.4,0.4-0.9,0.4-1.7l0-0.2h3.4l0,0.3c-0.1,1.7-0.6,3.2-1.6,4.1l0,0C175.3,19.5,174.3,19.9,172.9,19.9z M172.9,1.2
		c-1.4,0-2.5,0.4-3.4,1.5c-1.3,1.4-1.3,4-1.3,7.5v0.4c0,3.5,0,6,1.3,7.4c0.9,1,1.9,1.5,3.4,1.5c1.2,0,2.2-0.3,3-1.1
		c0.8-0.7,1.3-2,1.4-3.5h-2.4c-0.1,0.7-0.2,1.3-0.5,1.7c-0.3,0.5-0.8,0.8-1.6,0.8c-0.7,0-1.2-0.3-1.6-0.8c-0.6-0.9-0.7-2.8-0.7-6.2
		c0-3.4,0.1-5.3,0.7-6.2c0.3-0.5,0.9-0.8,1.6-0.8c0.7,0,1.2,0.2,1.5,0.8c0.3,0.4,0.4,0.9,0.5,1.7h2.4c-0.1-1.5-0.6-2.7-1.4-3.4
		C175.1,1.5,174.2,1.2,172.9,1.2z"/>
	<path class="st0" d="M184.4,19.9c-1.6,0-2.8-0.5-3.7-1.6c-1.4-1.6-1.4-4.2-1.4-7.8v-0.4c0-3.6,0-6.2,1.4-7.8c1-1.1,2.2-1.6,3.7-1.6
		s2.8,0.5,3.7,1.6c1.4,1.6,1.4,4.2,1.4,7.8v0.4c0,3.6,0,6.2-1.4,7.8C187.1,19.3,185.9,19.9,184.4,19.9z M184.4,1.2
		c-1.4,0-2.5,0.4-3.4,1.5c-1.3,1.4-1.3,4-1.3,7.4v0.4c0,3.5,0,6,1.3,7.4c0.9,1,1.9,1.5,3.4,1.5c1.4,0,2.5-0.4,3.4-1.5l0,0
		c1.3-1.4,1.3-4,1.3-7.4v-0.4c0-3.5,0-6-1.3-7.4C186.8,1.6,185.8,1.2,184.4,1.2z M184.4,17.3c-0.7,0-1.2-0.3-1.6-0.8
		c-0.6-0.9-0.7-2.8-0.7-6.2c0-3.4,0.1-5.3,0.7-6.2c0.3-0.5,0.9-0.8,1.6-0.8c0.7,0,1.3,0.3,1.6,0.8l0,0c0.6,0.9,0.7,2.6,0.7,6.2
		c0,3.5-0.1,5.3-0.7,6.2C185.6,17,185.1,17.3,184.4,17.3z M184.4,3.8c-0.5,0-0.9,0.2-1.1,0.6c-0.5,0.8-0.6,2.7-0.6,5.9
		c0,3.2,0.1,5.1,0.6,5.9c0.2,0.4,0.6,0.6,1.1,0.6c0.5,0,0.9-0.2,1.2-0.6c0.5-0.8,0.6-2.5,0.6-5.9c0-3.4-0.1-5.1-0.6-5.9
		C185.3,4,184.9,3.8,184.4,3.8z"/>
	<path class="st0" d="M201.8,19.7h-3L195,9.9v9.8h-3.4V0.9h3l3.9,9.8V0.9h3.4V19.7z M199.2,19.2h2.1V1.4h-2.4V12l-0.5,0.1l-4.2-10.7
		h-2.1v17.8h2.4V8.6l0.5-0.1L199.2,19.2z"/>
	<path class="st0" d="M209.3,19.7h-4.9V0.9h4.9c1.6,0,2.8,0.5,3.7,1.6c1.4,1.6,1.4,4.1,1.4,7.6v0.4c0,3.5,0,6-1.4,7.6
		C212.1,19.1,210.9,19.7,209.3,19.7z M204.9,19.2h4.4c1.4,0,2.5-0.5,3.4-1.4l0,0c1.3-1.4,1.3-3.9,1.3-7.3v-0.4c0-3.4,0-5.8-1.3-7.3
		c-0.9-1-1.9-1.4-3.4-1.4h-4.4V19.2z M209.2,17.1h-1.9V3.5h1.9c0.7,0,1.3,0.3,1.7,0.9l0,0c0.6,0.9,0.7,2.5,0.7,5.9
		c0,3.4-0.1,5.1-0.7,6C210.5,16.8,209.9,17.1,209.2,17.1z M207.8,16.6h1.4c0.7,0,1.1-0.3,1.3-0.6c0.5-0.8,0.6-2.4,0.6-5.7
		c0-3.2-0.1-4.9-0.6-5.6c-0.2-0.3-0.6-0.6-1.3-0.6h-1.4V16.6z"/>
	<path class="st0" d="M225.7,19.9c-1.6,0-2.7-0.5-3.7-1.6c-1.4-1.6-1.4-4.2-1.4-7.7v-0.4c0-3.6,0-6.2,1.4-7.8c1-1.1,2.2-1.6,3.7-1.6
		c1.4,0,2.4,0.4,3.4,1.2c0.9,0.9,1.5,2.3,1.5,4l0,0.3h-3.4l0-0.2c0-0.8-0.2-1.3-0.4-1.6c-0.2-0.4-0.6-0.6-1.1-0.6
		c-0.5,0-0.9,0.2-1.1,0.6c-0.5,0.8-0.6,2.7-0.6,5.9c0,3.2,0.1,5.1,0.6,5.9c0.2,0.4,0.6,0.6,1.1,0.6c0.5,0,0.9-0.2,1.1-0.5
		c0.2-0.4,0.4-0.9,0.4-1.7l0-0.2h3.4l0,0.3c-0.1,1.7-0.6,3.2-1.6,4.1l0,0C228.2,19.5,227.1,19.9,225.7,19.9z M225.7,1.2
		c-1.4,0-2.5,0.4-3.4,1.5c-1.3,1.4-1.3,4-1.3,7.4v0.4c0,3.5,0,6,1.3,7.4c0.9,1,1.9,1.5,3.4,1.5c1.2,0,2.2-0.3,3-1.1
		c0.8-0.7,1.3-2,1.4-3.5h-2.4c-0.1,0.7-0.2,1.3-0.5,1.7c-0.3,0.5-0.8,0.8-1.6,0.8c-0.7,0-1.2-0.3-1.6-0.8c-0.6-0.9-0.7-2.8-0.7-6.2
		c0-3.4,0.1-5.3,0.7-6.2c0.3-0.5,0.9-0.8,1.6-0.8c0.7,0,1.2,0.2,1.5,0.8c0.3,0.4,0.4,0.9,0.5,1.7h2.4c-0.1-1.5-0.6-2.7-1.4-3.4
		C227.9,1.5,227,1.2,225.7,1.2z"/>
	<path class="st0" d="M237.2,19.9c-1.6,0-2.7-0.5-3.7-1.6c-1.4-1.6-1.4-4.2-1.4-7.8v-0.4c0-3.6,0-6.2,1.4-7.8
		c0.6-0.7,1.7-1.6,3.7-1.6c1.6,0,2.7,0.5,3.7,1.6c1.4,1.6,1.4,4.2,1.4,7.8v0.4c0,3.6,0,6.2-1.4,7.8l0,0
		C240,19.3,238.8,19.9,237.2,19.9z M237.2,1.2c-1.4,0-2.5,0.4-3.4,1.5c-1.3,1.4-1.3,4-1.3,7.4v0.4c0,3.5,0,6,1.3,7.4
		c0.9,1,1.9,1.5,3.4,1.5c1.4,0,2.5-0.4,3.4-1.5l0,0c1.3-1.4,1.3-3.9,1.3-7.4v-0.4c0-3.5,0-6-1.3-7.4C239.7,1.6,238.6,1.2,237.2,1.2z
		 M237.2,17.3c-0.7,0-1.2-0.3-1.6-0.8c-0.6-0.9-0.7-2.8-0.7-6.2c0-3.4,0.1-5.3,0.7-6.2c0.3-0.5,0.9-0.8,1.6-0.8
		c0.7,0,1.3,0.3,1.6,0.8l0,0c0.6,0.9,0.7,2.6,0.7,6.2c0,3.5-0.1,5.3-0.7,6.2C238.5,17,237.9,17.3,237.2,17.3z M237.2,3.8
		c-0.5,0-0.9,0.2-1.1,0.6c-0.5,0.8-0.6,2.7-0.6,5.9c0,3.2,0.1,5.1,0.6,5.9c0.2,0.4,0.6,0.6,1.1,0.6c0.5,0,0.9-0.2,1.2-0.6
		c0.5-0.8,0.6-2.5,0.6-5.9c0-3.4-0.1-5.1-0.6-5.9C238.1,4,237.8,3.8,237.2,3.8z"/>
	<path class="st0" d="M252.6,19.7h-8.2V0.9h3.4v15.7h4.8V19.7z M244.9,19.2h7.2v-2.1h-4.8V1.4h-2.4V19.2z"/>
	<path class="st0" d="M259.2,19.7h-4.9V0.9h4.9c1.6,0,2.8,0.5,3.7,1.6c1.4,1.6,1.4,4.1,1.4,7.6v0.4c0,3.5,0,6-1.4,7.6
		C261.9,19.1,260.7,19.7,259.2,19.7z M254.8,19.2h4.4c1.4,0,2.5-0.5,3.4-1.4l0,0c1.3-1.4,1.3-3.9,1.3-7.3v-0.4c0-3.4,0-5.8-1.3-7.3
		c-0.9-1-1.9-1.4-3.4-1.4h-4.4V19.2z M259.1,17.1h-1.9V3.5h1.9c0.7,0,1.3,0.3,1.7,0.9l0,0c0.6,0.9,0.7,2.5,0.7,5.9
		c0,3.4-0.1,5.1-0.7,6C260.4,16.8,259.8,17.1,259.1,17.1z M257.6,16.6h1.4c0.7,0,1.1-0.3,1.3-0.6c0.5-0.8,0.6-2.4,0.6-5.7
		c0-3.2-0.1-4.9-0.6-5.6c-0.2-0.3-0.6-0.6-1.3-0.6h-1.4V16.6z"/>
</g>
</svg>
