<?xml version="1.0" encoding="utf-8"?>
<!-- Generator: Adobe Illustrator 23.0.1, SVG Export Plug-In . SVG Version: 6.00 Build 0)  -->
<svg version="1.1" id="Layer_1" xmlns="http://www.w3.org/2000/svg" xmlns:xlink="http://www.w3.org/1999/xlink" x="0px" y="0px"
	 viewBox="0 0 320 122" style="enable-background:new 0 0 320 122;" xml:space="preserve">
<style type="text/css">
	.st0{fill:#FFFFFF;}
</style>
<g>
	<path class="st0" d="M4.2,59.2l-0.5-2.7H1.4l-0.5,2.7H0l2.2-9.7h0.7L5,59.2H4.2z M2.5,50.9l-1,4.9h2L2.5,50.9z"/>
	<path class="st0" d="M9.5,58.6c-0.4,0.4-0.9,0.6-1.7,0.6H6.1v-9.7h1.7c0.8,0,1.3,0.1,1.6,0.6C9.9,50.5,10,51,10,52
		c0,0.7-0.1,1.3-0.6,1.8C9.2,54,9,54.1,8.8,54.1c0.3,0.1,0.5,0.2,0.7,0.4c0.5,0.5,0.6,1.2,0.6,2C10.1,57.7,9.9,58.2,9.5,58.6z
		 M7.8,50.2h-1v3.6h1c0.9,0,1.4-0.5,1.4-1.8C9.2,50.6,8.7,50.2,7.8,50.2z M7.8,54.5h-1v4h1c0.9,0,1.4-0.4,1.4-2
		C9.3,55.1,8.7,54.5,7.8,54.5z"/>
	<path class="st0" d="M14.9,58.8c-0.3,0.3-0.8,0.5-1.3,0.5c-0.6,0-1.1-0.2-1.4-0.6c-0.6-0.6-0.7-1.3-0.7-4.4c0-3.1,0.1-3.8,0.7-4.4
		c0.3-0.4,0.8-0.6,1.4-0.6c0.6,0,1.1,0.2,1.4,0.5c0.4,0.4,0.6,1.1,0.6,1.8h-0.8c0-0.5-0.1-1-0.4-1.3c-0.2-0.2-0.4-0.3-0.8-0.3
		c-0.4,0-0.7,0.1-0.9,0.4c-0.4,0.5-0.5,1-0.5,3.9s0.1,3.4,0.5,3.9c0.2,0.2,0.5,0.4,0.9,0.4c0.4,0,0.7-0.1,0.8-0.3
		c0.3-0.3,0.4-0.8,0.4-1.3h0.8C15.6,57.7,15.4,58.4,14.9,58.8z"/>
	<path class="st0" d="M20.3,58.8c-0.3,0.3-0.8,0.5-1.3,0.5c-0.6,0-1.1-0.2-1.4-0.6c-0.6-0.6-0.7-1.3-0.7-4.4c0-3.1,0.1-3.8,0.7-4.4
		c0.3-0.4,0.8-0.6,1.4-0.6s1.1,0.2,1.4,0.5c0.4,0.4,0.6,1.1,0.6,1.8h-0.8c0-0.5-0.1-1-0.4-1.3c-0.2-0.2-0.4-0.3-0.8-0.3
		s-0.7,0.1-0.9,0.4c-0.4,0.5-0.5,1-0.5,3.9s0.1,3.4,0.5,3.9c0.2,0.2,0.5,0.4,0.9,0.4s0.7-0.1,0.8-0.3c0.3-0.3,0.4-0.8,0.4-1.3H21
		C21,57.7,20.8,58.4,20.3,58.8z M19.3,48.9h-0.7l-1.2-1.8h0.7l0.8,1.2l0.8-1.2h0.7L19.3,48.9z"/>
	<path class="st0" d="M25.7,58.8c-0.3,0.3-0.8,0.5-1.3,0.5c-0.6,0-1.1-0.2-1.4-0.6c-0.6-0.6-0.7-1.3-0.7-4.4c0-3.1,0.1-3.8,0.7-4.4
		c0.3-0.4,0.8-0.6,1.4-0.6s1.1,0.2,1.4,0.5c0.4,0.4,0.6,1.1,0.6,1.8h-0.8c0-0.5-0.1-1-0.4-1.3c-0.2-0.2-0.4-0.3-0.8-0.3
		s-0.7,0.1-0.9,0.4c-0.4,0.5-0.5,1-0.5,3.9s0.1,3.4,0.5,3.9c0.2,0.2,0.5,0.4,0.9,0.4s0.7-0.1,0.8-0.3c0.3-0.3,0.4-0.8,0.4-1.3h0.8
		C26.3,57.7,26.1,58.4,25.7,58.8z M24.6,48.8H24l0.9-1.8h0.8L24.6,48.8z"/>
	<path class="st0" d="M31.3,58.6c-0.3,0.3-0.8,0.6-1.4,0.6h-2v-9.7h2c0.6,0,1.1,0.2,1.4,0.6c0.6,0.6,0.7,1.3,0.7,4.3
		C32,57.4,31.9,58,31.3,58.6z M30.7,50.5c-0.2-0.2-0.5-0.3-0.9-0.3h-1.1v8.3h1.1c0.4,0,0.7-0.1,0.9-0.3c0.4-0.4,0.5-1,0.5-3.8
		C31.2,51.6,31.1,51,30.7,50.5z"/>
	<path class="st0" d="M37.1,58.6c-0.3,0.3-0.8,0.6-1.4,0.6h-2v-4.5H33V54h0.7v-4.5h2c0.6,0,1.1,0.2,1.4,0.6c0.6,0.6,0.7,1.4,0.7,4.3
		C37.8,57.3,37.8,58,37.1,58.6z M36.5,50.5c-0.2-0.2-0.5-0.3-0.9-0.3h-1.2V54h1.2v0.7h-1.2v3.8h1.2c0.4,0,0.7-0.1,0.9-0.3
		c0.4-0.5,0.5-1,0.5-3.8S37,51,36.5,50.5z"/>
	<path class="st0" d="M39.5,59.2v-9.7h3.4v0.7h-2.6V54h2.2v0.7h-2.2v3.8h2.6v0.7H39.5z"/>
	<path class="st0" d="M45.3,50.2V54h2.2v0.7h-2.2v4.5h-0.8v-9.7h3.4v0.7H45.3z"/>
	<path class="st0" d="M51.1,59.3c-0.6,0-1.1-0.2-1.4-0.6c-0.6-0.6-0.7-1.3-0.7-4.4c0-3.1,0.1-3.8,0.7-4.4c0.3-0.4,0.8-0.6,1.4-0.6
		c0.6,0,1.1,0.2,1.4,0.5c0.4,0.4,0.6,1.1,0.6,1.8h-0.8c0-0.8-0.2-1.6-1.2-1.6c-0.4,0-0.7,0.1-0.9,0.4c-0.4,0.5-0.5,1-0.5,3.9
		s0.1,3.4,0.5,3.9c0.2,0.2,0.5,0.4,0.9,0.4c0.7,0,1.2-0.5,1.2-1.5v-2.4h-1.2v-0.7h2v3.1C53.1,58.6,52.2,59.3,51.1,59.3z"/>
	<path class="st0" d="M58,59.2v-4.6h-2.4v4.6h-0.8v-9.7h0.8v4.4H58v-4.4h0.8v9.7H58z"/>
	<path class="st0" d="M60.7,59.2v-9.7h0.8v9.7H60.7z"/>
	<path class="st0" d="M65.6,58.7c-0.4,0.4-0.9,0.6-1.5,0.6c-0.7,0-1.2-0.2-1.5-0.7l0.6-0.5c0.2,0.3,0.6,0.5,1,0.5
		c0.7,0,1.2-0.5,1.2-1.5v-7.6h0.8v7.6C66.1,57.8,65.9,58.4,65.6,58.7z"/>
	<path class="st0" d="M71.5,59.2l-1.9-4.8l-0.9,1.9v2.9h-0.8v-9.7h0.8v5.3l2.6-5.3h0.9l-2,4l2.2,5.7H71.5z"/>
	<path class="st0" d="M73.5,59.2v-9.7h0.8v9h2.6v0.7H73.5z"/>
	<path class="st0" d="M83,59.2v-7.8l-1.8,5.1h-0.6l-1.7-5v7.7h-0.8v-9.7h0.8l2,5.7l2.1-5.7h0.8v9.7H83z"/>
	<path class="st0" d="M89.2,59.2l-2.7-7.6v7.6h-0.8v-9.7h0.8l2.7,7.6v-7.6H90v9.7H89.2z"/>
	<path class="st0" d="M95.3,58.7c-0.3,0.4-0.8,0.6-1.5,0.6c-0.6,0-1.1-0.2-1.4-0.6c-0.6-0.6-0.7-1.3-0.7-4.4c0-3.1,0.1-3.8,0.7-4.4
		c0.3-0.4,0.8-0.6,1.4-0.6c0.6,0,1.1,0.2,1.5,0.6c0.6,0.6,0.7,1.3,0.7,4.4C96,57.4,95.9,58.1,95.3,58.7z M94.7,50.5
		c-0.2-0.2-0.5-0.4-0.9-0.4c-0.4,0-0.7,0.1-0.9,0.4c-0.4,0.5-0.5,1-0.5,3.9s0.1,3.4,0.5,3.9c0.2,0.2,0.5,0.4,0.9,0.4
		c0.4,0,0.7-0.1,0.9-0.4c0.4-0.5,0.5-1,0.5-3.9S95.1,50.9,94.7,50.5z"/>
	<path class="st0" d="M99.6,54.9h-1.1v4.3h-0.8v-9.7h1.9c1.1,0,2.1,0.4,2.1,2.7C101.7,54.5,100.7,54.9,99.6,54.9z M99.5,50.2h-1.1v4
		h1.1c0.8,0,1.3-0.3,1.3-2C100.9,50.6,100.3,50.2,99.5,50.2z"/>
	<path class="st0" d="M107.1,59.5l-0.8-0.6c-0.3,0.2-0.8,0.4-1.3,0.4c-0.6,0-1.1-0.2-1.4-0.6c-0.6-0.6-0.7-1.3-0.7-4.4
		c0-3.1,0.1-3.8,0.7-4.4c0.3-0.4,0.8-0.6,1.4-0.6s1.1,0.2,1.5,0.6c0.6,0.6,0.7,1.3,0.7,4.4c0,2.7-0.1,3.5-0.4,4.1l0.8,0.6
		L107.1,59.5z M106,50.4c-0.2-0.2-0.5-0.3-0.9-0.3c-0.4,0-0.7,0.1-0.9,0.3c-0.4,0.5-0.5,1-0.5,3.9s0.1,3.4,0.5,3.9
		c0.2,0.2,0.5,0.3,0.9,0.3c0.3,0,0.5-0.1,0.7-0.2l-0.8-0.7l0.4-0.5l0.7,0.6c0.2-0.5,0.3-1.2,0.3-3.5C106.4,51.5,106.4,50.9,106,50.4
		z"/>
	<path class="st0" d="M112.4,59.2l-1.4-4.4h-1.3v4.4h-0.8v-9.7h1.9c1.2,0,2.1,0.4,2.1,2.7c0,1.5-0.4,2.2-1.2,2.5l1.5,4.5H112.4z
		 M110.9,50.2h-1.1v3.9h1.1c1,0,1.3-0.7,1.3-2C112.1,50.9,111.8,50.2,110.9,50.2z"/>
	<path class="st0" d="M118.1,58.8c-0.3,0.3-0.8,0.5-1.5,0.5c-0.7,0-1.2-0.2-1.5-0.5c-0.4-0.4-0.6-0.9-0.6-2h0.8
		c0,0.7,0.1,1.2,0.4,1.5c0.2,0.2,0.5,0.3,0.9,0.3c0.4,0,0.7-0.1,0.9-0.3c0.3-0.3,0.4-0.8,0.4-1.5c0-1.2-0.2-1.7-1-2l-1-0.4
		c-1-0.4-1.3-1-1.3-2.4c0-0.8,0.2-1.5,0.7-1.9c0.4-0.3,0.8-0.5,1.4-0.5c0.6,0,1.1,0.2,1.5,0.5c0.5,0.5,0.6,1,0.6,1.9h-0.8
		c0-0.6-0.1-1-0.4-1.3c-0.2-0.2-0.5-0.4-0.9-0.4c-0.4,0-0.7,0.1-0.8,0.3c-0.3,0.3-0.4,0.8-0.4,1.4c0,1.1,0.2,1.4,1,1.8l1,0.4
		c1,0.4,1.3,1.2,1.3,2.6C118.7,57.7,118.5,58.3,118.1,58.8z"/>
	<path class="st0" d="M123.5,58.8c-0.3,0.3-0.8,0.5-1.5,0.5c-0.7,0-1.2-0.2-1.5-0.5c-0.4-0.4-0.6-0.9-0.6-2h0.8
		c0,0.7,0.1,1.2,0.4,1.5c0.2,0.2,0.5,0.3,0.9,0.3c0.4,0,0.7-0.1,0.9-0.3c0.3-0.3,0.4-0.8,0.4-1.5c0-1.2-0.2-1.7-1-2l-1-0.4
		c-1-0.4-1.3-1-1.3-2.4c0-0.8,0.2-1.5,0.7-1.9c0.4-0.3,0.8-0.5,1.4-0.5c0.6,0,1.1,0.2,1.5,0.5c0.5,0.5,0.6,1,0.6,1.9h-0.8
		c0-0.6-0.1-1-0.4-1.3c-0.2-0.2-0.5-0.4-0.9-0.4c-0.4,0-0.7,0.1-0.8,0.3c-0.3,0.3-0.4,0.8-0.4,1.4c0,1.1,0.2,1.4,1,1.8l1,0.4
		c1,0.4,1.3,1.2,1.3,2.6C124.1,57.7,123.9,58.3,123.5,58.8z M122.4,48.9h-0.7l-1.2-1.8h0.7l0.8,1.2l0.8-1.2h0.7L122.4,48.9z"/>
	<path class="st0" d="M127.3,50.2v9h-0.8v-9h-1.6v-0.7h4.1v0.7H127.3z"/>
	<path class="st0" d="M133.6,58.7c-0.4,0.4-0.9,0.6-1.4,0.6c-0.5,0-1.1-0.2-1.4-0.6c-0.4-0.4-0.6-0.9-0.6-1.6v-7.7h0.8v7.8
		c0,0.8,0.5,1.3,1.2,1.3c0.7,0,1.2-0.5,1.2-1.3v-7.8h0.8v7.7C134.1,57.9,133.9,58.4,133.6,58.7z"/>
	<path class="st0" d="M137.9,59.2h-0.8l-2.1-9.7h0.9l1.6,8.3l1.6-8.3h0.9L137.9,59.2z"/>
	<path class="st0" d="M146.5,59.2h-0.8l-1.6-8.3l-1.6,8.3h-0.8l-1.5-9.7h0.9l1,8.3l1.6-8.3h0.9l1.6,8.3l1-8.3h0.9L146.5,59.2z"/>
	<path class="st0" d="M152,59.2l-1.4-4.2l-1.4,4.2h-0.9l1.8-5.1l-1.7-4.7h0.9l1.2,3.8l1.3-3.8h0.9l-1.7,4.7l1.8,5.1H152z"/>
	<path class="st0" d="M155.6,55.1v4.1h-0.8v-4.1l-1.7-5.6h0.9l1.2,4.4l1.2-4.4h0.9L155.6,55.1z"/>
	<path class="st0" d="M157.8,59.2v-0.6l2.8-8.4H158v-0.7h3.4v0.6l-2.8,8.4h2.8v0.7H157.8z"/>
	<path class="st0" d="M162.2,59.2v-0.6l2.8-8.4h-2.6v-0.7h3.4v0.6l-2.8,8.4h2.8v0.7H162.2z M164.5,48.9h-0.7l-1.2-1.8h0.7l0.8,1.2
		l0.8-1.2h0.7L164.5,48.9z"/>
	<path class="st0" d="M169.5,59.2v-0.6c-0.1,0.2-0.3,0.4-0.4,0.5c-0.2,0.2-0.5,0.3-0.8,0.3c-0.4,0-0.8-0.1-1.1-0.5
		c-0.3-0.3-0.5-0.8-0.5-1.6c0-0.7,0.2-1.2,0.6-1.6c0.3-0.3,0.7-0.5,1.4-0.5h0.8V54c0-0.8-0.3-1.2-1-1.2c-0.3,0-0.5,0.1-0.6,0.3
		c-0.2,0.2-0.3,0.5-0.3,1h-0.8c0-0.5,0.1-1,0.5-1.4c0.3-0.3,0.7-0.5,1.2-0.5c0.5,0,1,0.1,1.2,0.4c0.3,0.3,0.5,0.8,0.5,1.4v5.2H169.5
		z M169.5,55.8h-0.8c-0.4,0-0.6,0.1-0.8,0.3c-0.2,0.2-0.4,0.7-0.4,1.1c0,0.8,0.3,1.4,1,1.4c0.6,0,1-0.5,1-1.3V55.8z"/>
	<path class="st0" d="M174.9,58.8c-0.3,0.3-0.7,0.5-1.1,0.5c-0.3,0-0.6-0.1-0.8-0.2c-0.1-0.1-0.3-0.3-0.4-0.4v0.5h-0.8v-9.7h0.8v3.3
		c0.1-0.1,0.2-0.3,0.4-0.4c0.2-0.1,0.5-0.2,0.8-0.2c0.4,0,0.8,0.2,1.1,0.5c0.4,0.5,0.5,1.3,0.5,3.1
		C175.4,57.5,175.3,58.3,174.9,58.8z M174.3,53.1c-0.1-0.2-0.4-0.3-0.7-0.3c-0.3,0-0.5,0.1-0.7,0.3c-0.2,0.2-0.3,0.5-0.3,1v3.4
		c0,0.4,0.1,0.8,0.3,1c0.2,0.2,0.4,0.3,0.7,0.3c0.3,0,0.5-0.1,0.7-0.3c0.3-0.4,0.4-1,0.4-2.6S174.6,53.5,174.3,53.1z"/>
	<path class="st0" d="M179.7,58.9c-0.3,0.3-0.7,0.4-1.2,0.4s-1-0.2-1.3-0.5c-0.4-0.5-0.5-1.4-0.5-3c0-1.6,0.1-2.5,0.5-3
		c0.3-0.4,0.8-0.6,1.3-0.6s0.9,0.1,1.2,0.4c0.4,0.4,0.5,0.9,0.5,1.5h-0.7c0-0.4,0-0.7-0.3-1c-0.2-0.2-0.4-0.3-0.7-0.3
		c-0.3,0-0.6,0.1-0.7,0.3c-0.3,0.4-0.3,1.1-0.3,2.6c0,1.5,0,2.2,0.3,2.6c0.2,0.2,0.4,0.3,0.7,0.3c0.3,0,0.5-0.1,0.7-0.3
		c0.2-0.2,0.3-0.6,0.3-1h0.7C180.1,58,180,58.5,179.7,58.9z"/>
	<path class="st0" d="M184.3,58.9c-0.3,0.3-0.7,0.4-1.2,0.4c-0.5,0-1-0.2-1.3-0.5c-0.4-0.5-0.5-1.4-0.5-3c0-1.6,0.1-2.5,0.5-3
		c0.3-0.4,0.8-0.6,1.3-0.6c0.5,0,0.9,0.1,1.2,0.4c0.4,0.4,0.5,0.9,0.5,1.5H184c0-0.4,0-0.7-0.3-1c-0.2-0.2-0.4-0.3-0.7-0.3
		c-0.3,0-0.6,0.1-0.7,0.3c-0.3,0.4-0.3,1.1-0.3,2.6c0,1.5,0,2.2,0.3,2.6c0.2,0.2,0.4,0.3,0.7,0.3c0.3,0,0.5-0.1,0.7-0.3
		c0.2-0.2,0.3-0.6,0.3-1h0.7C184.8,58,184.7,58.5,184.3,58.9z M183.4,51.3h-0.7l-1.2-1.8h0.7l0.8,1.2l0.8-1.2h0.7L183.4,51.3z"/>
	<path class="st0" d="M188.9,58.9c-0.3,0.3-0.7,0.4-1.2,0.4s-1-0.2-1.3-0.5c-0.4-0.5-0.5-1.4-0.5-3c0-1.6,0.1-2.5,0.5-3
		c0.3-0.4,0.8-0.6,1.3-0.6s0.9,0.1,1.2,0.4c0.4,0.4,0.5,0.9,0.5,1.5h-0.7c0-0.4,0-0.7-0.3-1c-0.2-0.2-0.4-0.3-0.7-0.3
		c-0.3,0-0.6,0.1-0.7,0.3c-0.3,0.4-0.3,1.1-0.3,2.6c0,1.5,0,2.2,0.3,2.6c0.2,0.2,0.4,0.3,0.7,0.3c0.3,0,0.5-0.1,0.7-0.3
		c0.2-0.2,0.3-0.6,0.3-1h0.7C189.4,58,189.3,58.5,188.9,58.9z M188,51.2h-0.7l0.9-1.8h0.8L188,51.2z"/>
	<path class="st0" d="M193.3,59.2v-0.6c-0.1,0.2-0.3,0.3-0.4,0.4c-0.2,0.2-0.5,0.2-0.8,0.2c-0.4,0-0.8-0.2-1.1-0.5
		c-0.4-0.5-0.5-1.4-0.5-3.1c0-1.7,0.1-2.6,0.5-3.1c0.2-0.3,0.6-0.5,1.1-0.5c0.3,0,0.6,0.1,0.8,0.2c0.1,0.1,0.3,0.3,0.4,0.4v-3.3h0.8
		v9.7H193.3z M193.3,54c0-0.5-0.1-0.8-0.3-1c-0.2-0.2-0.4-0.3-0.7-0.3c-0.3,0-0.5,0.1-0.7,0.3c-0.3,0.4-0.4,1-0.4,2.6
		c0,1.6,0,2.2,0.4,2.6c0.1,0.2,0.4,0.3,0.7,0.3c0.3,0,0.5-0.1,0.7-0.3c0.2-0.2,0.3-0.5,0.3-1V54z"/>
	<path class="st0" d="M198.3,59.2v-0.6c-0.1,0.2-0.3,0.3-0.4,0.4c-0.2,0.2-0.5,0.2-0.8,0.2c-0.4,0-0.8-0.2-1.1-0.5
		c-0.4-0.5-0.5-1.4-0.5-3.1c0-1.7,0.1-2.6,0.5-3.1c0.2-0.3,0.6-0.5,1.1-0.5c0.3,0,0.6,0.1,0.8,0.2c0.1,0.1,0.3,0.3,0.4,0.4v-1.5
		h-1.2v-0.6h1.2v-1.2h0.8v1.2h0.8v0.6h-0.8v8H198.3z M198.3,54c0-0.5-0.1-0.8-0.3-1c-0.2-0.2-0.4-0.3-0.7-0.3
		c-0.3,0-0.5,0.1-0.7,0.3c-0.3,0.4-0.4,1-0.4,2.6c0,1.6,0,2.2,0.4,2.6c0.1,0.2,0.4,0.3,0.7,0.3c0.3,0,0.5-0.1,0.7-0.3
		c0.2-0.2,0.3-0.5,0.3-1V54z"/>
	<path class="st0" d="M201.4,55.8c0,1.4,0,2.1,0.4,2.5c0.1,0.2,0.4,0.3,0.7,0.3c0.3,0,0.5-0.1,0.7-0.3c0.2-0.2,0.3-0.6,0.3-1h0.7
		c0,0.7-0.1,1.1-0.5,1.5c-0.3,0.3-0.8,0.5-1.3,0.5c-0.5,0-0.9-0.2-1.3-0.5c-0.4-0.5-0.6-1.4-0.6-3.1c0-1.7,0.1-2.6,0.6-3.1
		c0.3-0.3,0.7-0.5,1.2-0.5s0.9,0.2,1.2,0.5c0.5,0.5,0.6,1.4,0.6,3.2H201.4z M203.2,53.1c-0.1-0.2-0.4-0.3-0.7-0.3
		c-0.3,0-0.5,0.1-0.7,0.3c-0.3,0.3-0.3,0.9-0.3,2.1h2.1C203.5,54,203.4,53.5,203.2,53.1z"/>
	<path class="st0" d="M206.7,52.9v6.3h-0.8v-6.3h-0.8v-0.6h0.8v-0.9c0-0.6,0.2-1.1,0.5-1.4c0.4-0.4,0.9-0.4,1.4-0.4v0.7
		c-0.8,0-1.2,0.4-1.2,1.2v0.9h1.2v0.6H206.7z"/>
	<path class="st0" d="M212.1,59.4c0,1.2-0.1,1.7-0.5,2.1c-0.3,0.3-0.7,0.5-1.2,0.5c-0.5,0-0.9-0.1-1.3-0.5c-0.4-0.4-0.5-0.8-0.5-1.5
		h0.8c0,0.4,0.1,0.7,0.3,1c0.2,0.2,0.4,0.3,0.7,0.3c0.3,0,0.5-0.1,0.7-0.3c0.3-0.3,0.3-0.7,0.3-1.6v-0.9c-0.1,0.1-0.2,0.3-0.4,0.4
		c-0.2,0.1-0.4,0.2-0.8,0.2c-0.4,0-0.8-0.1-1.1-0.5c-0.4-0.5-0.5-1.3-0.5-3c0-1.8,0.1-2.5,0.5-3c0.3-0.3,0.6-0.5,1.1-0.5
		c0.3,0,0.6,0.1,0.8,0.2c0.1,0.1,0.3,0.3,0.4,0.4v-0.5h0.7V59.4z M211.3,54c0-0.5-0.1-0.8-0.3-1c-0.2-0.2-0.4-0.3-0.7-0.3
		c-0.3,0-0.5,0.1-0.7,0.3c-0.3,0.4-0.4,1-0.4,2.5c0,1.5,0,2.2,0.4,2.5c0.1,0.2,0.4,0.3,0.7,0.3c0.3,0,0.5-0.1,0.7-0.2
		c0.2-0.2,0.3-0.5,0.3-1V54z"/>
	<path class="st0" d="M216.4,59.2V54c0-0.8-0.4-1.1-1-1.1s-1,0.4-1,1.1v5.2h-0.8v-9.7h0.8v3.3c0.1-0.1,0.3-0.3,0.4-0.4
		c0.2-0.1,0.5-0.2,0.8-0.2c0.5,0,0.8,0.2,1.1,0.5c0.3,0.3,0.4,0.7,0.4,1.4v5.2H216.4z"/>
	<path class="st0" d="M218.7,50.7v-1h1v1H218.7z M218.8,59.2v-6.9h0.8v6.9H218.8z"/>
	<path class="st0" d="M221.6,61.5c-0.4,0.4-0.9,0.4-1.4,0.4v-0.7c0.7,0,1.1-0.3,1.1-1.2v-7.9h0.8v7.9
		C222.1,60.8,221.9,61.2,221.6,61.5z M221.2,50.7v-1h1v1H221.2z"/>
	<path class="st0" d="M227,59.2l-1.5-3.6l-0.9,1.4v2.2h-0.8v-9.7h0.8v6.4l2.2-3.6h0.8l-1.6,2.7l1.9,4.3H227z"/>
	<path class="st0" d="M229.3,58.8c-0.3-0.3-0.5-0.7-0.5-1.4v-7.9h0.8v7.9c0,0.7,0.4,1.2,1.1,1.2v0.7
		C230.2,59.2,229.7,59.1,229.3,58.8z"/>
	<path class="st0" d="M237.1,59.2V54c0-0.8-0.4-1.1-1-1.1c-0.5,0-1,0.4-1,1.1v5.2h-0.8V54c0-0.8-0.4-1.1-1-1.1s-1,0.4-1,1.1v5.2
		h-0.8v-6.9h0.8v0.6c0.1-0.1,0.3-0.3,0.4-0.4c0.2-0.1,0.5-0.2,0.8-0.2c0.5,0,1,0.3,1.3,0.7c0.1-0.2,0.3-0.4,0.5-0.5
		c0.2-0.1,0.5-0.2,0.8-0.2c0.6,0,0.9,0.2,1.2,0.5c0.3,0.3,0.4,0.7,0.4,1.4v5.2H237.1z"/>
	<path class="st0" d="M242.2,59.2V54c0-0.8-0.4-1.1-1-1.1s-1,0.4-1,1.1v5.2h-0.8v-6.9h0.8v0.6c0.1-0.1,0.3-0.3,0.4-0.4
		c0.2-0.1,0.5-0.2,0.8-0.2c0.5,0,0.8,0.2,1.1,0.5c0.3,0.3,0.4,0.7,0.4,1.4v5.2H242.2z"/>
	<path class="st0" d="M247.5,58.8c-0.3,0.4-0.7,0.5-1.3,0.5c-0.6,0-1-0.2-1.3-0.5c-0.4-0.5-0.5-1.4-0.5-3c0-1.6,0.1-2.5,0.5-3
		c0.3-0.4,0.7-0.6,1.3-0.6c0.6,0,1,0.2,1.3,0.6c0.4,0.5,0.5,1.4,0.5,3C248,57.4,247.9,58.3,247.5,58.8z M246.9,53.1
		c-0.1-0.2-0.4-0.3-0.7-0.3s-0.5,0.1-0.7,0.3c-0.3,0.4-0.3,1.1-0.3,2.6c0,1.5,0,2.2,0.3,2.6c0.2,0.2,0.4,0.3,0.7,0.3
		s0.5-0.1,0.7-0.3c0.3-0.4,0.4-1.1,0.4-2.6C247.2,54.2,247.2,53.5,246.9,53.1z"/>
	<path class="st0" d="M252.5,58.8c-0.3,0.3-0.6,0.5-1.1,0.5c-0.3,0-0.6-0.1-0.8-0.2c-0.1-0.1-0.3-0.3-0.4-0.4V62h-0.8v-9.7h0.8v0.6
		c0.1-0.1,0.3-0.3,0.4-0.4c0.2-0.1,0.5-0.2,0.8-0.2c0.4,0,0.8,0.2,1.1,0.5c0.4,0.5,0.5,1.4,0.5,3.1C253,57.5,252.9,58.3,252.5,58.8z
		 M251.9,53.1c-0.1-0.2-0.4-0.3-0.7-0.3c-0.3,0-0.5,0.1-0.7,0.3c-0.2,0.2-0.3,0.5-0.3,1v3.4c0,0.4,0.1,0.8,0.3,1
		c0.2,0.2,0.4,0.3,0.7,0.3c0.3,0,0.5-0.1,0.7-0.3c0.3-0.4,0.4-1,0.4-2.6C252.2,54.2,252.2,53.5,251.9,53.1z"/>
	<path class="st0" d="M257,62v-3.3c-0.1,0.1-0.2,0.3-0.4,0.4c-0.2,0.1-0.5,0.2-0.8,0.2c-0.5,0-0.8-0.2-1.1-0.5
		c-0.4-0.5-0.5-1.4-0.5-3.1c0-1.7,0.1-2.6,0.5-3.1c0.3-0.3,0.7-0.5,1.1-0.5c0.3,0,0.6,0.1,0.8,0.2c0.1,0.1,0.3,0.3,0.4,0.4v-0.6h0.7
		V62H257z M257,54c0-0.5-0.1-0.8-0.3-1c-0.2-0.2-0.4-0.3-0.7-0.3c-0.3,0-0.5,0.1-0.7,0.3c-0.3,0.4-0.4,1-0.4,2.6
		c0,1.6,0,2.2,0.4,2.6c0.1,0.2,0.4,0.3,0.7,0.3c0.3,0,0.5-0.1,0.7-0.3c0.2-0.2,0.3-0.5,0.3-1V54z"/>
	<path class="st0" d="M261.5,52.9c-0.8,0-1.4,0.5-1.4,1.4v5h-0.8v-6.9h0.8V53c0.1-0.1,0.2-0.3,0.3-0.4c0.3-0.3,0.7-0.4,1.2-0.4v0.7
		H261.5z"/>
	<path class="st0" d="M265.4,58.8c-0.3,0.3-0.8,0.5-1.3,0.5s-1-0.2-1.3-0.5c-0.4-0.4-0.5-0.9-0.5-1.5h0.8c0,0.4,0.1,0.8,0.4,1
		c0.2,0.2,0.4,0.3,0.7,0.3c0.3,0,0.6-0.1,0.8-0.3c0.2-0.2,0.3-0.5,0.3-0.9c0-0.3-0.1-0.5-0.2-0.7c-0.2-0.2-0.4-0.4-0.7-0.6l-0.9-0.5
		c-0.4-0.2-0.7-0.6-0.9-0.8c-0.1-0.3-0.2-0.5-0.2-0.9c0-0.5,0.2-1,0.5-1.3c0.3-0.3,0.7-0.5,1.2-0.5c0.5,0,0.9,0.1,1.2,0.5
		c0.3,0.3,0.5,0.8,0.5,1.5h-0.8c0-0.5-0.1-0.8-0.3-1c-0.2-0.2-0.4-0.3-0.7-0.3c-0.3,0-0.5,0.1-0.7,0.3c-0.2,0.2-0.3,0.5-0.3,0.8
		c0,0.2,0,0.4,0.1,0.6c0.1,0.2,0.3,0.3,0.6,0.5l0.9,0.5c0.4,0.2,0.8,0.5,0.9,0.8c0.2,0.3,0.3,0.7,0.3,1.1
		C266,58,265.8,58.4,265.4,58.8z"/>
	<path class="st0" d="M270,58.8c-0.3,0.3-0.8,0.5-1.3,0.5s-1-0.2-1.3-0.5c-0.4-0.4-0.5-0.9-0.5-1.5h0.8c0,0.4,0.1,0.8,0.4,1
		c0.2,0.2,0.4,0.3,0.7,0.3c0.3,0,0.6-0.1,0.8-0.3c0.2-0.2,0.3-0.5,0.3-0.9c0-0.3-0.1-0.5-0.2-0.7c-0.2-0.2-0.4-0.4-0.7-0.6l-0.9-0.5
		c-0.4-0.2-0.7-0.6-0.9-0.8c-0.1-0.3-0.2-0.5-0.2-0.9c0-0.5,0.2-1,0.5-1.3c0.3-0.3,0.7-0.5,1.2-0.5c0.5,0,0.9,0.1,1.2,0.5
		c0.3,0.3,0.5,0.8,0.5,1.5h-0.8c0-0.5-0.1-0.8-0.3-1c-0.2-0.2-0.4-0.3-0.7-0.3c-0.3,0-0.5,0.1-0.7,0.3c-0.2,0.2-0.3,0.5-0.3,0.8
		c0,0.2,0,0.4,0.1,0.6c0.1,0.2,0.3,0.3,0.6,0.5l0.9,0.5c0.4,0.2,0.8,0.5,0.9,0.8c0.2,0.3,0.3,0.7,0.3,1.1
		C270.6,58,270.4,58.4,270,58.8z M269.1,51.3h-0.7l-1.2-1.8h0.7l0.8,1.2l0.8-1.2h0.7L269.1,51.3z"/>
	<path class="st0" d="M272.6,58.8c-0.3-0.3-0.5-0.8-0.5-1.4v-4.5h-0.8v-0.6h0.8v-2h0.8v2h1.2v0.6h-1.2v4.5c0,0.8,0.4,1.2,1.2,1.2
		v0.7C273.5,59.2,273,59.1,272.6,58.8z"/>
	<path class="st0" d="M277.9,59.2v-0.6c-0.1,0.2-0.3,0.3-0.4,0.4c-0.2,0.1-0.5,0.2-0.8,0.2c-0.5,0-0.8-0.2-1.1-0.5
		c-0.3-0.3-0.4-0.7-0.4-1.4v-5.2h0.8v5.2c0,0.8,0.4,1.1,1,1.1s1-0.4,1-1.1v-5.2h0.8v6.9H277.9z"/>
	<path class="st0" d="M281.9,59.2h-0.8l-1.6-6.9h0.8l1.2,5.7l1.2-5.7h0.8L281.9,59.2z"/>
	<path class="st0" d="M288.7,59.2h-0.8l-1-5.7l-1,5.7H285l-1.3-6.9h0.9l0.9,5.7l1-5.7h0.8l1.1,5.7l0.9-5.7h0.9L288.7,59.2z"/>
	<path class="st0" d="M293.4,59.2l-1.1-2.9l-1.1,2.9h-0.8l1.5-3.5l-1.4-3.4h0.8l1,2.8l1-2.8h0.8l-1.5,3.4l1.6,3.5H293.4z"/>
	<path class="st0" d="M296.6,60.5c-0.3,1.1-1,1.4-2,1.4v-0.7c0.7,0,1.1-0.3,1.3-0.9l0.3-1.2l-1.7-6.9h0.8l1.2,5.7l1.2-5.7h0.8
		L296.6,60.5z"/>
	<path class="st0" d="M299,59.2v-0.6l2.3-5.7h-2.2v-0.7h3v0.6l-2.3,5.7h2.3v0.7H299z"/>
	<path class="st0" d="M302.7,59.2v-0.6l2.3-5.7h-2.2v-0.7h3v0.6l-2.3,5.7h2.3v0.7H302.7z M304.7,51.3h-0.7l-1.2-1.8h0.7l0.8,1.2
		l0.8-1.2h0.7L304.7,51.3z"/>
	<path class="st0" d="M4.2,79.7L3.7,77H1.4l-0.5,2.7H0L2.2,70h0.7L5,79.7H4.2z M2.5,71.4l-1,4.9h2L2.5,71.4z"/>
	<path class="st0" d="M8,79.7h-2V70h3.7v0.7H6.9v3.6H8c1.4,0,2.1,0.7,2.1,2.7C10.1,79.2,9.2,79.7,8,79.7z M8,75H6.9v4H8
		c1,0,1.3-0.7,1.3-2S9,75,8,75z"/>
	<path class="st0" d="M15.2,79.1c-0.4,0.4-0.9,0.6-1.7,0.6h-1.7V70h1.7c0.8,0,1.3,0.1,1.7,0.6c0.4,0.4,0.5,0.9,0.5,2
		c0,0.7-0.1,1.3-0.6,1.8c-0.2,0.2-0.4,0.3-0.6,0.4c0.3,0.1,0.5,0.2,0.7,0.4c0.5,0.5,0.6,1.3,0.6,2C15.7,78.2,15.6,78.7,15.2,79.1z
		 M13.5,70.7h-1v3.6h1c0.9,0,1.4-0.5,1.4-1.8C14.9,71.1,14.4,70.7,13.5,70.7z M13.5,75h-1v4h1c0.9,0,1.4-0.4,1.4-2
		C14.9,75.5,14.4,75,13.5,75z"/>
	<path class="st0" d="M18.2,70.7v9h-0.8V70h3.3v0.7H18.2z"/>
	<path class="st0" d="M22.8,70.7v9H22V70h2.5v-1.2h0.8v1.9H22.8z"/>
	<path class="st0" d="M30.6,81.3v-1.6h-4.1v1.6h-0.8v-2.3h0.6c0.5-1.3,0.8-2.9,0.8-4.8V70h3.5v9h0.7v2.3H30.6z M29.8,70.7h-2v3.6
		c0,1.8-0.2,3.3-0.7,4.7h2.7V70.7z"/>
	<path class="st0" d="M35.2,79.7H35v-0.7h0.2c1,0,1.3-0.6,1.3-2.1c0-1.4-0.4-2.1-1.3-2.1h-1v4.9h-0.8v-9h-1.4V70h4v0.7h-1.8V74h1.1
		c1.4,0,2.1,0.7,2.1,2.8C37.3,79,36.5,79.7,35.2,79.7z"/>
	<path class="st0" d="M38.9,79.7V70h3.4v0.7h-2.6v3.8h2.2v0.7h-2.2v3.8h2.6v0.7H38.9z"/>
	<path class="st0" d="M43.8,79.7V70h3.4v0.7h-2.6v3.8h2.2v0.7h-2.2v3.8h2.6v0.7H43.8z M44.1,69v-0.9H45V69H44.1z M46,69v-0.9h0.9V69
		H46z"/>
	<path class="st0" d="M52,79.3c-0.3,0.3-0.7,0.5-1.3,0.5c-0.6,0-1.1-0.2-1.4-0.6c-0.6-0.6-0.7-1.3-0.7-4.4c0-3.1,0.1-3.8,0.7-4.4
		c0.3-0.4,0.8-0.6,1.4-0.6c0.6,0,1.1,0.2,1.4,0.5c0.4,0.4,0.6,1.1,0.6,1.8h-0.8c0-0.5-0.1-1-0.4-1.3c-0.2-0.2-0.4-0.3-0.8-0.3
		s-0.7,0.1-0.9,0.3c-0.4,0.4-0.5,0.9-0.5,3.5h2v0.7h-2c0,2.6,0.1,3.1,0.5,3.5c0.2,0.2,0.5,0.3,0.9,0.3s0.7-0.1,0.8-0.3
		c0.3-0.3,0.4-0.8,0.4-1.3h0.8C52.7,78.2,52.5,78.9,52,79.3z"/>
	<path class="st0" d="M54.1,79.7h-0.9l2.9-5.1L53.4,70h0.9l2.7,4.7L54.1,79.7z M57.1,79.7V70h0.8v9.7H57.1z M60.7,79.7l-2.8-5.1
		l2.6-4.7h0.9l-2.6,4.6l2.8,5.1H60.7z"/>
	<path class="st0" d="M65.5,79.2c-0.3,0.4-0.8,0.5-1.4,0.5c-0.6,0-1-0.2-1.4-0.5c-0.5-0.5-0.7-1.1-0.7-1.9h0.8c0,0.5,0.1,1,0.4,1.3
		c0.2,0.2,0.5,0.3,0.8,0.3c0.4,0,0.7-0.1,0.9-0.3c0.3-0.4,0.4-0.9,0.4-1.6c0-1-0.1-1.3-0.4-1.7c-0.2-0.2-0.5-0.3-0.8-0.3h-0.8v-0.7
		h0.8c0.3,0,0.6-0.1,0.8-0.3c0.3-0.3,0.4-0.6,0.4-1.6c0-0.7,0-1.2-0.4-1.6c-0.2-0.2-0.5-0.3-0.8-0.3c-0.4,0-0.6,0.1-0.8,0.3
		c-0.3,0.3-0.4,0.8-0.4,1.3H62c0-0.8,0.2-1.4,0.6-1.8c0.3-0.3,0.8-0.5,1.4-0.5c0.6,0,1.1,0.2,1.4,0.5c0.5,0.6,0.6,1.2,0.6,2.1
		c0,1-0.1,1.4-0.4,1.8c-0.2,0.2-0.4,0.4-0.6,0.5c0.3,0.1,0.5,0.3,0.6,0.5c0.3,0.4,0.5,0.8,0.5,1.9C66.1,78.1,66,78.7,65.5,79.2z"/>
	<path class="st0" d="M71,79.2c-0.3,0.3-0.8,0.5-1.5,0.5c-0.7,0-1.2-0.2-1.5-0.5c-0.4-0.4-0.6-0.9-0.6-2h0.8c0,0.7,0.1,1.2,0.4,1.5
		c0.2,0.2,0.5,0.3,0.9,0.3c0.4,0,0.7-0.1,0.9-0.3c0.3-0.3,0.4-0.8,0.4-1.5c0-1.2-0.2-1.7-1-2l-1-0.4c-1-0.4-1.3-1-1.3-2.4
		c0-0.8,0.2-1.5,0.7-1.9c0.4-0.3,0.8-0.5,1.4-0.5c0.6,0,1.1,0.2,1.5,0.5c0.5,0.5,0.6,1,0.6,1.9h-0.8c0-0.6-0.1-1-0.4-1.3
		c-0.2-0.2-0.5-0.4-0.9-0.4c-0.4,0-0.7,0.1-0.8,0.3c-0.3,0.3-0.4,0.8-0.4,1.4c0,1.1,0.2,1.4,1,1.8l1,0.4c1,0.4,1.3,1.2,1.3,2.6
		C71.6,78.1,71.4,78.8,71,79.2z"/>
	<path class="st0" d="M73.2,79.7V70H74v7.6l2.6-7.6h0.8v9.7h-0.8v-7.6l-2.6,7.6H73.2z"/>
	<path class="st0" d="M79.2,79.7V70H80v9.7H79.2z"/>
	<path class="st0" d="M80.9,69v-0.9h0.9V69H80.9z M81.9,79.7V70h0.8v9.7H81.9z M82.8,69v-0.9h0.9V69H82.8z"/>
	<path class="st0" d="M84.6,79.7V70h0.8v7.6L88,70h0.8v9.7H88v-7.6l-2.6,7.6H84.6z M86.7,69.4c-0.9,0-1.4-0.4-1.5-1.4h0.7
		c0.1,0.5,0.4,0.8,0.9,0.8c0.5,0,0.8-0.3,0.9-0.8h0.7C88.2,68.9,87.6,69.4,86.7,69.4z"/>
	<path class="st0" d="M92.8,79.2c-0.4,0.4-0.9,0.6-1.5,0.6c-0.7,0-1.2-0.2-1.5-0.7l0.6-0.5c0.2,0.3,0.6,0.5,1,0.5
		c0.7,0,1.2-0.5,1.2-1.5V70h0.8v7.6C93.4,78.3,93.2,78.8,92.8,79.2z"/>
	<path class="st0" d="M95.2,79.7V70H96v9.7H95.2z M98.9,79.7L96,74.6l2.7-4.7h0.9l-2.8,4.6l3,5.1H98.9z"/>
	<path class="st0" d="M104.4,79.7v-9h-1.9v4.4c0,4.2-1,4.6-2.1,4.6h-0.2v-0.7h0.1c0.7,0,1.4-0.2,1.4-4v-5h3.5v9.7H104.4z"/>
	<path class="st0" d="M112.6,79.7h-1.9v-9h-2v4.4c0,4.2-1,4.6-2.1,4.6h-0.2v-0.7h0.1c0.7,0,1.4-0.2,1.4-4v-5h3.5v4.3h1.1
		c1.2,0,2.1,0.4,2.1,2.7C114.7,79.2,113.7,79.7,112.6,79.7z M112.5,75h-1.1v4h1.1c0.8,0,1.3-0.4,1.3-2C113.8,75.3,113.3,75,112.5,75
		z"/>
	<path class="st0" d="M121.1,79.7v-7.8l-1.8,5.1h-0.6l-1.7-5v7.7h-0.8V70h0.8l2,5.7l2.1-5.7h0.8v9.7H121.1z"/>
	<path class="st0" d="M127,79.7v-4.6h-2.4v4.6h-0.8V70h0.8v4.4h2.4V70h0.8v9.7H127z"/>
	<path class="st0" d="M134.8,79.7h-1.9V75h-2.4v4.7h-0.8V70h0.8v4.3h2.4V70h0.8v4.3h1.1c1.4,0,2.1,0.7,2.1,2.7
		C136.9,79.2,136,79.7,134.8,79.7z M134.9,75h-1.1v4h1.1c1,0,1.3-0.7,1.3-2S135.8,75,134.9,75z"/>
	<path class="st0" d="M141.9,79.2c-0.3,0.4-0.8,0.6-1.5,0.6c-0.6,0-1.1-0.2-1.4-0.6c-0.6-0.6-0.7-1.3-0.7-4.4c0-3.1,0.1-3.8,0.7-4.4
		c0.3-0.4,0.8-0.6,1.4-0.6c0.6,0,1.1,0.2,1.5,0.6c0.6,0.6,0.7,1.3,0.7,4.4C142.6,77.9,142.5,78.6,141.9,79.2z M141.3,70.9
		c-0.2-0.2-0.5-0.4-0.9-0.4s-0.7,0.1-0.9,0.4c-0.4,0.5-0.5,1-0.5,3.9c0,2.9,0.1,3.4,0.5,3.9c0.2,0.2,0.5,0.4,0.9,0.4
		s0.7-0.1,0.9-0.4c0.4-0.5,0.5-1,0.5-3.9C141.8,72,141.7,71.4,141.3,70.9z"/>
	<path class="st0" d="M147.5,79.7v-9h-2.4v9h-0.8V70h4v9.7H147.5z"/>
	<path class="st0" d="M152.1,75.4H151v4.3h-0.8V70h1.9c1.1,0,2.1,0.4,2.1,2.7C154.2,74.9,153.2,75.4,152.1,75.4z M152,70.7H151v4
		h1.1c0.8,0,1.3-0.3,1.3-2C153.4,71,152.8,70.7,152,70.7z"/>
	<path class="st0" d="M159,79.3c-0.3,0.3-0.8,0.5-1.3,0.5c-0.6,0-1.1-0.2-1.4-0.6c-0.6-0.6-0.7-1.3-0.7-4.4c0-3.1,0.1-3.8,0.7-4.4
		c0.3-0.4,0.8-0.6,1.4-0.6c0.6,0,1.1,0.2,1.4,0.5c0.4,0.4,0.6,1.1,0.6,1.8h-0.8c0-0.5-0.1-1-0.4-1.3c-0.2-0.2-0.4-0.3-0.8-0.3
		c-0.4,0-0.7,0.1-0.9,0.4c-0.4,0.5-0.5,1-0.5,3.9c0,2.9,0.1,3.4,0.5,3.9c0.2,0.2,0.5,0.4,0.9,0.4c0.4,0,0.7-0.1,0.8-0.3
		c0.3-0.3,0.4-0.8,0.4-1.3h0.8C159.7,78.2,159.5,78.9,159,79.3z"/>
	<path class="st0" d="M162.9,70.7v9h-0.8v-9h-1.6V70h4.1v0.7H162.9z"/>
	<path class="st0" d="M169.7,79.7v-3.3c0-1.3-0.5-1.7-1.4-1.7h-0.9v4.9h-0.8v-9h-1.4V70h4v0.7h-1.8V74h1c1.4,0,2.2,0.6,2.2,2.2v3.4
		H169.7z"/>
	<path class="st0" d="M173.5,78.3c-0.4,1.2-0.9,1.4-2,1.4v-0.7c0.7,0,1-0.2,1.3-1l0.4-1.4l-2-6.6h0.9l1.5,5.5l1.5-5.5h0.9
		L173.5,78.3z"/>
	<path class="st0" d="M178.4,78.3c-0.4,1.2-0.9,1.4-2,1.4v-0.7c0.7,0,1-0.2,1.3-1l0.4-1.4l-2-6.6h0.9l1.5,5.5L180,70h0.9L178.4,78.3
		z M178.5,69.4c-0.9,0-1.4-0.4-1.5-1.4h0.7c0.1,0.5,0.4,0.8,0.9,0.8c0.5,0,0.8-0.3,0.9-0.8h0.7C180,68.9,179.5,69.4,178.5,69.4z"/>
	<path class="st0" d="M184.7,78.6v1.2h-0.8v-1.2c-2-0.1-2.5-1.4-2.5-4.1c0-2.7,0.5-4,2.5-4.1v-0.8h0.8v0.8c2,0.1,2.5,1.4,2.5,4.1
		C187.2,77.2,186.7,78.5,184.7,78.6z M183.9,71.1c-1.4,0.1-1.7,1-1.7,3.4c0,2.3,0.3,3.3,1.7,3.3V71.1z M184.7,71.1v6.7
		c1.4-0.1,1.7-1,1.7-3.3C186.4,72.1,186.1,71.2,184.7,71.1z"/>
	<path class="st0" d="M191.4,79.7l-1.4-4.2l-1.4,4.2h-0.9l1.8-5.1l-1.7-4.7h0.9l1.2,3.8l1.3-3.8h0.9l-1.7,4.7l1.8,5.1H191.4z"/>
	<path class="st0" d="M197.4,81.6v-1.9h-3.9V70h0.8v9h2.4v-9h0.8v9h0.7v2.6H197.4z"/>
	<path class="st0" d="M202.5,79.7V76c-0.5,0.1-0.9,0.1-1.3,0.1c-1.1,0-1.8-0.5-1.8-2.1V70h0.8V74c0,1.2,0.5,1.4,1.1,1.4
		c0.4,0,0.8,0,1.2-0.1V70h0.8v9.7H202.5z"/>
	<path class="st0" d="M207.5,79.7v1.9h-0.8v-1.9h-1.6V70h0.8v9h2.4v-9h0.8v9.7H207.5z"/>
	<path class="st0" d="M211,79.7V70h0.8v9h2.2v-9h0.8v9h2.2v-9h0.8v9.7H211z"/>
	<path class="st0" d="M226.7,78.9h0.7v2.6h-0.8v-1.9h-6.8V70h0.8v9h2.2v-9h0.8v9h2.2v-9h0.8V78.9z"/>
	<path class="st0" d="M227.9,70h2.3v4.3h1.1c1.4,0,2.1,0.7,2.1,2.7c0,2.3-0.9,2.7-2.1,2.7h-1.9v-9h-1.5V70z M231.3,75h-1.1v4h1.1
		c1,0,1.3-0.7,1.3-2S232.3,75,231.3,75z"/>
	<path class="st0" d="M236.9,79.7H235V70h0.8v4.3h1.1c1.4,0,2.1,0.7,2.1,2.7C239,79.2,238,79.7,236.9,79.7z M236.9,75h-1.1v4h1.1
		c1,0,1.3-0.7,1.3-2S237.9,75,236.9,75z M239.9,79.7V70h0.8v9.7H239.9z"/>
	<path class="st0" d="M244.5,79.7h-1.9V70h0.8v4.3h1.1c1.4,0,2.1,0.7,2.1,2.7C246.6,79.2,245.7,79.7,244.5,79.7z M244.5,75h-1.1v4
		h1.1c1,0,1.3-0.7,1.3-2S245.5,75,244.5,75z"/>
	<path class="st0" d="M249,74.4h2.1c0-2.5-0.1-3.1-0.5-3.5c-0.2-0.2-0.5-0.4-0.9-0.4c-0.4,0-0.7,0.1-0.8,0.3
		c-0.3,0.3-0.4,0.8-0.4,1.3h-0.8c0-0.7,0.2-1.4,0.6-1.8c0.3-0.3,0.8-0.5,1.4-0.5c0.6,0,1.1,0.2,1.4,0.6c0.6,0.6,0.7,1.3,0.7,4.4
		c0,3.1-0.1,3.8-0.7,4.4c-0.3,0.4-0.8,0.6-1.4,0.6c-0.6,0-1-0.2-1.3-0.5c-0.5-0.4-0.7-1.1-0.7-1.9h0.8c0,0.5,0.1,1,0.4,1.3
		c0.2,0.2,0.4,0.3,0.8,0.3c0.4,0,0.7-0.1,0.9-0.4c0.4-0.4,0.4-1,0.5-3.5H249V74.4z"/>
	<path class="st0" d="M259.2,79.2c-0.3,0.4-0.8,0.6-1.5,0.6c-0.6,0-1.1-0.2-1.4-0.6c-0.6-0.6-0.7-1.3-0.7-4.1h-1.3v4.6h-0.8V70h0.8
		v4.4h1.3c0-2.7,0.1-3.4,0.7-4c0.3-0.4,0.8-0.6,1.4-0.6c0.6,0,1.1,0.2,1.5,0.6c0.6,0.6,0.7,1.3,0.7,4.4
		C259.9,77.9,259.8,78.6,259.2,79.2z M258.7,70.9c-0.2-0.2-0.5-0.4-0.9-0.4c-0.4,0-0.7,0.1-0.9,0.4c-0.4,0.5-0.5,1-0.5,3.9
		c0,2.9,0.1,3.4,0.5,3.9c0.2,0.2,0.5,0.4,0.9,0.4c0.4,0,0.7-0.1,0.9-0.4c0.4-0.5,0.5-1,0.5-3.9C259.1,72,259.1,71.4,258.7,70.9z"/>
	<path class="st0" d="M260.7,79.7l1.5-4.5c-0.8-0.3-1.2-1-1.2-2.5c0-2.3,0.9-2.7,2.1-2.7h1.9v9.7h-0.8v-4.4h-1.3l-1.4,4.4H260.7z
		 M263.1,74.6h1.1v-3.9h-1.1c-1,0-1.3,0.7-1.3,2C261.8,73.9,262.1,74.6,263.1,74.6z"/>
	<path class="st0" d="M269.2,79.7V79c-0.1,0.2-0.3,0.4-0.4,0.5c-0.2,0.2-0.5,0.3-0.8,0.3c-0.4,0-0.8-0.1-1.1-0.5
		c-0.3-0.3-0.5-0.8-0.5-1.6c0-0.7,0.2-1.2,0.6-1.6c0.3-0.3,0.7-0.5,1.4-0.5h0.8v-1.2c0-0.8-0.3-1.2-1-1.2c-0.3,0-0.5,0.1-0.6,0.3
		c-0.2,0.2-0.3,0.5-0.3,1h-0.8c0-0.5,0.1-1,0.5-1.4c0.3-0.3,0.7-0.5,1.2-0.5c0.5,0,1,0.1,1.2,0.4c0.3,0.3,0.5,0.8,0.5,1.4v5.2H269.2
		z M269.1,76.3h-0.8c-0.4,0-0.6,0.1-0.8,0.3c-0.2,0.2-0.4,0.7-0.4,1.1c0,0.8,0.3,1.4,1,1.4c0.6,0,1-0.5,1-1.3V76.3z"/>
	<path class="st0" d="M274.5,79.2c-0.3,0.4-0.7,0.5-1.3,0.5c-0.6,0-1-0.2-1.3-0.5c-0.4-0.5-0.5-1.4-0.5-3c0-3.7,0.1-4.4,0.5-5.1
		c0.5-0.8,1.4-1.1,2.8-1.1v0.7c-1.1,0-1.8,0.2-2.1,0.7c-0.3,0.5-0.4,1.1-0.4,2c0.2-0.4,0.7-0.7,1.2-0.7c0.4,0,0.8,0.1,1.1,0.5
		c0.4,0.5,0.5,1.3,0.5,3.1C275,77.8,274.9,78.7,274.5,79.2z M273.9,73.6c-0.1-0.2-0.4-0.3-0.7-0.3c-0.3,0-0.5,0.1-0.7,0.3
		c-0.3,0.4-0.3,1.1-0.3,2.6c0,1.5,0,2.2,0.3,2.6c0.1,0.2,0.4,0.3,0.7,0.3c0.3,0,0.5-0.1,0.7-0.3c0.3-0.4,0.4-1.1,0.4-2.6
		C274.2,74.7,274.2,74,273.9,73.6z"/>
	<path class="st0" d="M279.4,79.2c-0.3,0.3-0.7,0.4-1.4,0.4h-1.6v-6.9h1.6c0.7,0,1,0.1,1.4,0.4c0.3,0.3,0.5,0.7,0.5,1.4
		c0,0.5-0.1,1-0.5,1.3c-0.1,0.1-0.3,0.2-0.4,0.2c0.2,0.1,0.4,0.2,0.5,0.3c0.4,0.3,0.5,0.8,0.5,1.4C279.9,78.5,279.7,78.9,279.4,79.2
		z M278,73.4h-0.8v2.3h0.8c0.7,0,1.1-0.3,1.1-1.2C279.1,73.7,278.7,73.4,278,73.4z M278,76.4h-0.8V79h0.8c0.7,0,1.1-0.3,1.1-1.3
		C279.1,76.7,278.7,76.4,278,76.4z"/>
	<path class="st0" d="M284.2,73.4h-2.1v6.3h-0.8v-6.9h2.9V73.4z"/>
	<path class="st0" d="M286,73.4v6.3h-0.8v-6.9h2.1v-1.6h0.7v2.3H286z"/>
	<path class="st0" d="M292.6,81.4v-1.7h-3.4v1.7h-0.8V79h0.6c0.4-1.1,0.6-1.9,0.6-3.9v-2.3h3.1V79h0.6v2.4H292.6z M291.9,73.4h-1.6
		v1.7c0,2-0.1,2.8-0.5,3.9h2.1V73.4z"/>
	<path class="st0" d="M297.5,81.7c-0.4,0.3-0.8,0.4-1.3,0.4v-0.7c0.6,0,1-0.3,1-1.1v-6c0-0.7-0.4-1.1-1-1.1c-0.5,0-1,0.4-1,1.1v5.2
		h-0.8v-8h-0.8v-0.6h0.8V70h0.8v1.1h2v0.6h-2v1.6c0.1-0.1,0.2-0.3,0.4-0.4c0.2-0.1,0.5-0.2,0.8-0.2c0.5,0,0.8,0.2,1.1,0.5
		c0.3,0.3,0.4,0.7,0.4,1.4v6C298,81.1,297.8,81.5,297.5,81.7z"/>
	<path class="st0" d="M300.1,76.3c0,1.4,0,2.1,0.4,2.5c0.1,0.2,0.4,0.3,0.7,0.3c0.3,0,0.5-0.1,0.7-0.3c0.2-0.2,0.3-0.6,0.3-1h0.7
		c0,0.7-0.1,1.1-0.5,1.5c-0.3,0.3-0.8,0.5-1.3,0.5c-0.5,0-0.9-0.2-1.3-0.5c-0.4-0.5-0.6-1.4-0.6-3.1c0-1.7,0.1-2.6,0.6-3.1
		c0.3-0.3,0.7-0.5,1.2-0.5s0.9,0.2,1.2,0.5c0.5,0.5,0.6,1.4,0.6,3.2H300.1z M301.9,73.6c-0.1-0.2-0.4-0.3-0.7-0.3
		c-0.3,0-0.5,0.1-0.7,0.3c-0.3,0.3-0.3,0.9-0.3,2.1h2.1C302.2,74.5,302.1,73.9,301.9,73.6z"/>
	<path class="st0" d="M304.9,76.3c0,1.4,0,2.1,0.4,2.5c0.1,0.2,0.4,0.3,0.7,0.3c0.3,0,0.5-0.1,0.7-0.3c0.2-0.2,0.3-0.6,0.3-1h0.7
		c0,0.7-0.1,1.1-0.5,1.5c-0.3,0.3-0.8,0.5-1.3,0.5c-0.5,0-0.9-0.2-1.3-0.5c-0.4-0.5-0.6-1.4-0.6-3.1c0-1.7,0.1-2.6,0.6-3.1
		c0.3-0.3,0.7-0.5,1.2-0.5s0.9,0.2,1.2,0.5c0.5,0.5,0.6,1.4,0.6,3.2H304.9z M304.6,71.4v-0.9h0.9v0.9H304.6z M306.6,73.6
		c-0.1-0.2-0.4-0.3-0.7-0.3c-0.3,0-0.5,0.1-0.7,0.3c-0.3,0.3-0.3,0.9-0.3,2.1h2.1C307,74.5,306.9,73.9,306.6,73.6z M306.4,71.4v-0.9
		h0.9v0.9H306.4z"/>
	<path class="st0" d="M309.4,73.2c0.3-0.4,0.8-0.6,1.3-0.6c0.5,0,1,0.2,1.2,0.4c0.3,0.3,0.5,0.9,0.5,1.4h-0.7c0-0.4-0.1-0.7-0.3-1
		c-0.1-0.1-0.4-0.2-0.7-0.2c-0.3,0-0.6,0.1-0.7,0.3c-0.3,0.3-0.3,1-0.3,2.2h1.8v0.7h-1.8c0,1.4,0,2,0.3,2.3c0.2,0.2,0.4,0.3,0.7,0.3
		c0.3,0,0.5-0.1,0.7-0.2c0.2-0.2,0.3-0.6,0.3-1h0.7c0,0.6-0.2,1.2-0.6,1.5c-0.3,0.3-0.7,0.4-1.2,0.4c-0.5,0-1-0.2-1.3-0.6
		c-0.4-0.5-0.5-1.4-0.5-3C308.9,74.6,309,73.7,309.4,73.2z"/>
	<path class="st0" d="M313.9,79.7H313l2.3-3.6l-2.1-3.3h0.8l2.1,3.3L313.9,79.7z M316.1,79.7v-6.9h0.8v6.9H316.1z M319.1,79.7
		l-2.2-3.6l2.1-3.3h0.9l-2.1,3.3l2.3,3.6H319.1z"/>
	<path class="st0" d="M3.4,99.9c-0.3,0.2-0.7,0.4-1.2,0.4c-0.5,0-0.9-0.1-1.2-0.4c-0.4-0.3-0.6-0.9-0.6-1.5h0.8c0,0.4,0.1,0.8,0.3,1
		c0.1,0.1,0.4,0.2,0.7,0.2c0.3,0,0.5-0.1,0.7-0.2c0.2-0.2,0.3-0.5,0.3-1.1c0-0.7-0.1-0.9-0.3-1.1c-0.2-0.2-0.4-0.2-0.7-0.2H1.6v-0.6
		h0.5c0.3,0,0.5-0.1,0.7-0.2c0.2-0.2,0.3-0.5,0.3-1c0-0.5-0.1-0.8-0.3-1.1c-0.1-0.1-0.3-0.2-0.6-0.2c-0.3,0-0.5,0.1-0.7,0.2
		c-0.2,0.2-0.3,0.6-0.3,1H0.4c0-0.6,0.2-1.1,0.5-1.4c0.3-0.3,0.7-0.5,1.3-0.5c0.5,0,0.9,0.1,1.2,0.4c0.4,0.3,0.5,0.8,0.5,1.5
		c0,0.7-0.1,0.9-0.4,1.2c-0.1,0.2-0.3,0.3-0.5,0.4c0.2,0.1,0.4,0.2,0.5,0.3C3.8,97.1,4,97.5,4,98.3C4,99.1,3.8,99.5,3.4,99.9z"/>
	<path class="st0" d="M8.1,99.7c-0.3,0.3-0.8,0.5-1.3,0.5s-1-0.2-1.3-0.5C5.1,99.3,5,98.8,5,98.2h0.8c0,0.4,0.1,0.8,0.4,1
		c0.2,0.2,0.4,0.3,0.7,0.3c0.3,0,0.6-0.1,0.8-0.3c0.2-0.2,0.3-0.5,0.3-0.9c0-0.3-0.1-0.5-0.2-0.7C7.5,97.4,7.3,97.2,7,97l-0.9-0.5
		c-0.4-0.2-0.7-0.6-0.9-0.8C5.1,95.5,5,95.2,5,94.9c0-0.5,0.2-1,0.5-1.3c0.3-0.3,0.7-0.5,1.2-0.5c0.5,0,0.9,0.1,1.2,0.5
		c0.3,0.3,0.5,0.8,0.5,1.5H7.8c0-0.5-0.1-0.8-0.3-1c-0.2-0.2-0.4-0.3-0.7-0.3c-0.3,0-0.5,0.1-0.7,0.3c-0.2,0.2-0.3,0.5-0.3,0.8
		c0,0.2,0,0.4,0.1,0.6C6,95.6,6.3,95.8,6.6,96l0.9,0.5c0.4,0.2,0.8,0.5,0.9,0.8c0.2,0.3,0.3,0.7,0.3,1.1C8.6,98.9,8.4,99.4,8.1,99.7
		z"/>
	<path class="st0" d="M12.8,100.1v-5.3l-2.1,5.3H9.9v-6.9h0.8v5.3l2.1-5.3h0.7v6.9H12.8z"/>
	<path class="st0" d="M15.2,91.6v-1h1v1H15.2z M15.3,100.1v-6.9H16v6.9H15.3z"/>
	<path class="st0" d="M16.8,91.9V91h0.9v0.9H16.8z M17.8,100.1v-6.9h0.8v6.9H17.8z M18.6,91.9V91h0.9v0.9H18.6z"/>
	<path class="st0" d="M23.1,100.1v-5.3l-2.1,5.3h-0.7v-6.9H21v5.3l2.1-5.3h0.7v6.9H23.1z M22,92.2c-0.9,0-1.5-0.4-1.5-1.4h0.7
		c0.1,0.6,0.4,0.8,0.9,0.8s0.8-0.3,0.9-0.8h0.7C23.5,91.8,23,92.2,22,92.2z"/>
	<path class="st0" d="M25.8,102.5c-0.4,0.4-0.9,0.4-1.4,0.4v-0.7c0.7,0,1.1-0.3,1.1-1.2v-7.9h0.8v7.9
		C26.3,101.8,26.1,102.2,25.8,102.5z M25.4,91.6v-1h1v1H25.4z"/>
	<path class="st0" d="M28,100.1v-6.9h0.8v6.9H28z M31,100.1l-2.2-3.6l2.1-3.3h0.8l-2.1,3.3l2.3,3.6H31z"/>
	<path class="st0" d="M35.7,100.1v-6.3h-1.5v3.6c0,2.1-0.7,2.7-1.7,2.7h-0.2v-0.7h0.1c0.5,0,1.1-0.2,1.1-2.2v-4.1h3.1v6.9H35.7z"/>
	<path class="st0" d="M42.7,100.1H41v-6.3h-1.5v3.6c0,2.1-0.7,2.7-1.7,2.7h-0.2v-0.7h0.1c0.5,0,1.1-0.2,1.1-2.2v-4.1h3.1v2.9h0.9
		c1.3,0,1.8,0.7,1.8,2C44.5,99.5,44,100.1,42.7,100.1z M42.6,96.8h-0.9v2.7h0.9c0.7,0,1.1-0.4,1.1-1.3
		C43.7,97.2,43.4,96.8,42.6,96.8z"/>
	<path class="st0" d="M49.8,100.1v-5.3l-1.4,3.3h-0.5l-1.4-3.3v5.3h-0.8v-6.9h0.7l1.7,4.1l1.7-4.1h0.7v6.9H49.8z"/>
	<path class="st0" d="M54.9,100.1v-3.2H53v3.2h-0.8v-6.9H53v3h1.9v-3h0.8v6.9H54.9z"/>
	<path class="st0" d="M61.7,100.1H60v-3.4h-1.9v3.4h-0.8v-6.9h0.8v2.9H60v-2.9h0.8v2.9h0.9c1.3,0,1.8,0.6,1.8,2
		C63.5,99.5,62.9,100.1,61.7,100.1z M61.6,96.8h-0.9v2.7h0.9c0.7,0,1.1-0.4,1.1-1.3C62.7,97.2,62.3,96.8,61.6,96.8z"/>
	<path class="st0" d="M67.5,99.7c-0.3,0.4-0.7,0.5-1.3,0.5c-0.6,0-1-0.2-1.3-0.5c-0.4-0.5-0.5-1.4-0.5-3c0-1.6,0.1-2.5,0.5-3
		c0.3-0.4,0.7-0.6,1.3-0.6c0.6,0,1,0.2,1.3,0.6c0.4,0.5,0.5,1.4,0.5,3C68.1,98.3,68,99.2,67.5,99.7z M66.9,94.1
		c-0.1-0.2-0.4-0.3-0.7-0.3s-0.5,0.1-0.7,0.3c-0.3,0.4-0.3,1.1-0.3,2.6c0,1.5,0,2.2,0.3,2.6c0.2,0.2,0.4,0.3,0.7,0.3
		s0.5-0.1,0.7-0.3c0.3-0.4,0.4-1.1,0.4-2.6C67.3,95.2,67.3,94.5,66.9,94.1z"/>
	<path class="st0" d="M72.1,100.1v-6.3h-1.9v6.3h-0.8v-6.9h3.4v6.9H72.1z"/>
	<path class="st0" d="M77.6,99.8c-0.3,0.3-0.6,0.5-1.1,0.5c-0.3,0-0.6-0.1-0.8-0.2c-0.1-0.1-0.3-0.3-0.4-0.4v3.3h-0.8v-9.7h0.8v0.6
		c0.1-0.1,0.3-0.3,0.4-0.4c0.2-0.1,0.5-0.2,0.8-0.2c0.4,0,0.8,0.2,1.1,0.5c0.4,0.5,0.5,1.4,0.5,3.1C78.2,98.4,78.1,99.3,77.6,99.8z
		 M77,94.1c-0.1-0.2-0.4-0.3-0.7-0.3c-0.3,0-0.5,0.1-0.7,0.3c-0.2,0.2-0.3,0.5-0.3,1v3.4c0,0.4,0.1,0.8,0.3,1
		c0.2,0.2,0.4,0.3,0.7,0.3c0.3,0,0.5-0.1,0.7-0.3c0.3-0.4,0.4-1,0.4-2.6C77.4,95.1,77.3,94.4,77,94.1z"/>
	<path class="st0" d="M82.4,99.8c-0.3,0.3-0.7,0.4-1.2,0.4s-1-0.2-1.3-0.5c-0.4-0.5-0.5-1.4-0.5-3c0-1.6,0.1-2.5,0.5-3
		c0.3-0.4,0.8-0.6,1.3-0.6s0.9,0.1,1.2,0.4c0.4,0.4,0.5,0.9,0.5,1.5h-0.7c0-0.4,0-0.7-0.3-1c-0.2-0.2-0.4-0.3-0.7-0.3
		c-0.3,0-0.6,0.1-0.7,0.3c-0.3,0.4-0.3,1.1-0.3,2.6c0,1.5,0,2.2,0.3,2.6c0.2,0.2,0.4,0.3,0.7,0.3c0.3,0,0.5-0.1,0.7-0.3
		c0.2-0.2,0.3-0.6,0.3-1h0.7C82.9,99,82.7,99.4,82.4,99.8z"/>
	<path class="st0" d="M85.7,93.9v6.3h-0.8v-6.3h-1.4v-0.7H87v0.7H85.7z"/>
	<path class="st0" d="M90.8,100.1v-5.2c0-0.7-0.4-1.1-1-1.1c-0.5,0-1,0.4-1,1.1v5.2h-0.8v-8h-0.8v-0.6h0.8v-1.1h0.8v1.1h2v0.6h-2
		v1.6c0.1-0.1,0.3-0.3,0.4-0.4c0.2-0.1,0.5-0.2,0.8-0.2c0.5,0,0.8,0.2,1.1,0.5c0.3,0.3,0.4,0.7,0.4,1.4v5.2H90.8z"/>
	<path class="st0" d="M94.4,101.5c-0.3,1.1-1,1.4-2,1.4v-0.7c0.7,0,1.1-0.3,1.3-0.9l0.3-1.2l-1.7-6.9h0.8l1.2,5.7l1.2-5.7h0.8
		L94.4,101.5z"/>
	<path class="st0" d="M98.6,101.5c-0.3,1.1-1,1.4-2,1.4v-0.7c0.7,0,1.1-0.3,1.3-0.9l0.3-1.2l-1.7-6.9h0.8l1.2,5.7l1.2-5.7h0.8
		L98.6,101.5z M98.6,92.2c-0.9,0-1.5-0.4-1.5-1.4h0.7c0.1,0.6,0.4,0.8,0.9,0.8c0.5,0,0.8-0.3,0.9-0.8h0.7
		C100,91.8,99.5,92.2,98.6,92.2z"/>
	<path class="st0" d="M105.9,99.6c-0.4,0.4-0.9,0.6-1.6,0.6v2.7h-0.8v-2.7c-0.7,0-1.2-0.2-1.6-0.6c-0.5-0.5-0.7-1.3-0.7-2.9
		c0-1.6,0.1-2.4,0.7-2.9c0.4-0.4,0.9-0.6,1.6-0.6v-2.7h0.8v2.7c0.7,0,1.2,0.2,1.6,0.6c0.6,0.6,0.7,1.3,0.7,3
		C106.5,98.3,106.4,99.1,105.9,99.6z M103.5,93.8c-0.4,0-0.8,0.2-1,0.4c-0.4,0.4-0.5,1-0.5,2.5c0,1.5,0.1,2.1,0.5,2.5
		c0.2,0.2,0.6,0.4,1,0.4V93.8z M105.3,94.2c-0.2-0.2-0.6-0.4-1-0.4v5.7c0.4,0,0.8-0.1,1-0.4c0.4-0.4,0.5-1,0.5-2.5
		C105.8,95.2,105.7,94.5,105.3,94.2z"/>
	<path class="st0" d="M110.2,100.1l-1.1-2.9l-1.1,2.9h-0.8l1.5-3.5l-1.4-3.4h0.8l1,2.8l1-2.8h0.8l-1.5,3.4l1.6,3.5H110.2z"/>
	<path class="st0" d="M115.4,101.8v-1.7h-3.3v-6.9h0.8v6.3h1.9v-6.3h0.8v6.3h0.6v2.4H115.4z"/>
	<path class="st0" d="M119.4,100.1v-2.4c-0.3,0.1-0.7,0.1-1,0.1c-0.8,0-1.5-0.4-1.5-1.5v-3.1h0.8v3c0,0.8,0.4,0.9,0.8,0.9
		c0.3,0,0.6,0,0.9-0.1v-3.8h0.8v6.9H119.4z"/>
	<path class="st0" d="M123.9,100.1v1.7h-0.7v-1.7h-1.3v-6.9h0.8v6.3h1.9v-6.3h0.8v6.9H123.9z"/>
	<path class="st0" d="M127,100.1v-6.9h0.8v6.3h1.6v-6.3h0.8v6.3h1.6v-6.3h0.8v6.9H127z"/>
	<path class="st0" d="M139.6,101.8v-1.7h-5.4v-6.9h0.8v6.3h1.6v-6.3h0.8v6.3h1.6v-6.3h0.8v6.3h0.6v2.4H139.6z"/>
	<path class="st0" d="M143.6,100.1h-1.7v-6.3h-1.2v-0.7h1.9v2.9h0.9c1.3,0,1.8,0.7,1.8,2C145.4,99.5,144.9,100.1,143.6,100.1z
		 M143.6,96.8h-0.9v2.7h0.9c0.7,0,1.1-0.4,1.1-1.3C144.6,97.2,144.3,96.8,143.6,96.8z"/>
	<path class="st0" d="M147.5,93.2v2.9h0.9c1.3,0,1.8,0.7,1.8,2c0,1.4-0.5,2-1.8,2h-1.7v-6.9H147.5z M148.4,96.8h-0.9v2.7h0.9
		c0.7,0,1.1-0.4,1.1-1.3C149.4,97.2,149.1,96.8,148.4,96.8z M150.9,100.1v-6.9h0.8v6.9H150.9z"/>
	<path class="st0" d="M154.2,93.2v2.9h0.9c1.3,0,1.8,0.7,1.8,2c0,1.4-0.5,2-1.8,2h-1.7v-6.9H154.2z M155,96.8h-0.9v2.7h0.9
		c0.7,0,1.1-0.4,1.1-1.3C156.1,97.2,155.8,96.8,155,96.8z"/>
	<path class="st0" d="M160.8,99.7c-0.3,0.4-0.8,0.6-1.3,0.6c-0.5,0-0.9-0.1-1.2-0.4c-0.4-0.3-0.6-0.9-0.6-1.5h0.7
		c0,0.4,0.1,0.8,0.3,1c0.1,0.1,0.4,0.2,0.7,0.2c0.3,0,0.6-0.1,0.7-0.3c0.3-0.3,0.3-1,0.3-2.3h-1.8v-0.7h1.8c0-1.2,0-1.8-0.3-2.2
		c-0.1-0.2-0.4-0.3-0.7-0.3c-0.3,0-0.6,0.1-0.7,0.2c-0.2,0.2-0.3,0.6-0.3,1h-0.7c0-0.6,0.2-1.1,0.5-1.4c0.3-0.2,0.7-0.4,1.2-0.4
		c0.5,0,1,0.2,1.3,0.6c0.4,0.5,0.5,1.4,0.5,3C161.3,98.3,161.2,99.2,160.8,99.7z"/>
	<path class="st0" d="M167.7,99.7c-0.3,0.4-0.7,0.6-1.3,0.6c-0.6,0-1-0.2-1.3-0.6c-0.4-0.5-0.5-1.1-0.5-2.8h-1v3.2h-0.8v-6.9h0.8v3
		h1c0-1.4,0.1-2.2,0.5-2.6c0.3-0.4,0.7-0.6,1.3-0.6c0.6,0,1,0.2,1.3,0.6c0.4,0.5,0.5,1.4,0.5,3C168.2,98.3,168.1,99.2,167.7,99.7z
		 M167.1,94.1c-0.1-0.2-0.4-0.3-0.7-0.3c-0.3,0-0.5,0.1-0.7,0.3c-0.3,0.4-0.4,1.1-0.4,2.6c0,1.5,0,2.2,0.4,2.6
		c0.1,0.2,0.4,0.3,0.7,0.3c0.3,0,0.5-0.1,0.7-0.3c0.3-0.4,0.4-1.1,0.4-2.6C167.4,95.2,167.4,94.5,167.1,94.1z"/>
	<path class="st0" d="M171.9,100.1v-3H171l-1,3h-0.8l1.1-3.1c-0.6-0.3-0.9-0.9-0.9-1.8c0-1.3,0.5-2,1.7-2h1.6v6.9H171.9z
		 M171.9,93.9h-0.8c-0.7,0-1,0.4-1,1.3c0,0.9,0.3,1.3,1,1.3h0.8V93.9z"/>
	<path class="st0" d="M4.2,120.6l-0.5-2.7H1.4l-0.5,2.7H0l2.2-9.7h0.7l2.1,9.7H4.2z M2.6,110.3c-0.9,0-1.4-0.5-1.5-1.4h0.6
		c0.1,0.5,0.4,0.8,0.9,0.8c0.5,0,0.8-0.3,0.9-0.8h0.6C4,109.9,3.5,110.3,2.6,110.3z M2.5,112.3l-1,4.9h2L2.5,112.3z"/>
	<path class="st0" d="M9.5,120.6L9,117.9H6.7l-0.5,2.7H5.3l2.2-9.7h0.7l2.1,9.7H9.5z M8.7,110.2l-0.8-1.3l-0.8,1.3H6.3l1.2-1.8h0.7
		l1.2,1.8H8.7z M7.8,112.3l-1,4.9h2L7.8,112.3z"/>
	<path class="st0" d="M11.4,120.6v-9.7h3.4v0.7h-2.6v3.8h2.2v0.7h-2.2v3.8h2.6v0.7H11.4z M13.9,110.2l-0.8-1.3l-0.8,1.3h-0.7
		l1.2-1.8h0.7l1.2,1.8H13.9z"/>
	<path class="st0" d="M19.7,120.1c-0.3,0.4-0.8,0.6-1.5,0.6s-1.1-0.2-1.4-0.6c-0.6-0.6-0.7-1.3-0.7-4.4c0-3.1,0.1-3.8,0.7-4.4
		c0.3-0.4,0.8-0.6,1.4-0.6s1.1,0.2,1.5,0.6c0.6,0.6,0.7,1.3,0.7,4.4C20.4,118.8,20.3,119.5,19.7,120.1z M19.1,110.2l-0.8-1.3
		l-0.8,1.3h-0.7l1.2-1.8h0.7l1.2,1.8H19.1z M19.1,111.9c-0.2-0.2-0.5-0.4-0.9-0.4c-0.4,0-0.7,0.1-0.9,0.4c-0.4,0.5-0.5,1-0.5,3.9
		s0.1,3.4,0.5,3.9c0.2,0.2,0.5,0.4,0.9,0.4c0.4,0,0.7-0.1,0.9-0.4c0.4-0.5,0.5-1,0.5-3.9S19.5,112.3,19.1,111.9z"/>
	<path class="st0" d="M24.4,120.6V120c-0.1,0.2-0.3,0.4-0.4,0.5c-0.2,0.2-0.5,0.3-0.8,0.3c-0.4,0-0.8-0.1-1.1-0.5
		c-0.3-0.3-0.5-0.8-0.5-1.6c0-0.7,0.2-1.2,0.6-1.6c0.3-0.3,0.7-0.5,1.4-0.5h0.8v-1.2c0-0.8-0.3-1.2-1-1.2c-0.3,0-0.5,0.1-0.6,0.3
		c-0.2,0.2-0.3,0.5-0.3,1h-0.8c0-0.5,0.1-1,0.5-1.4c0.3-0.3,0.7-0.5,1.2-0.5c0.5,0,1,0.1,1.2,0.4c0.3,0.3,0.5,0.8,0.5,1.4v5.2H24.4z
		 M23.5,112.7c-0.9,0-1.4-0.5-1.5-1.4h0.6c0.1,0.5,0.4,0.8,0.9,0.8c0.5,0,0.8-0.3,0.9-0.8H25C24.9,112.2,24.4,112.7,23.5,112.7z
		 M24.4,117.2h-0.8c-0.4,0-0.6,0.1-0.8,0.3c-0.2,0.2-0.4,0.7-0.4,1.1c0,0.8,0.3,1.4,1,1.4c0.6,0,1-0.5,1-1.3V117.2z"/>
	<path class="st0" d="M29.2,120.6V120c-0.1,0.2-0.3,0.4-0.4,0.5c-0.2,0.2-0.5,0.3-0.8,0.3c-0.4,0-0.8-0.1-1.1-0.5
		c-0.3-0.3-0.5-0.8-0.5-1.6c0-0.7,0.2-1.2,0.6-1.6c0.3-0.3,0.7-0.5,1.4-0.5h0.8v-1.2c0-0.8-0.3-1.2-1-1.2c-0.3,0-0.5,0.1-0.6,0.3
		c-0.2,0.2-0.3,0.5-0.3,1h-0.8c0-0.5,0.1-1,0.5-1.4c0.3-0.3,0.7-0.5,1.2-0.5c0.5,0,1,0.1,1.2,0.4c0.3,0.3,0.5,0.8,0.5,1.4v5.2H29.2z
		 M29.1,112.6l-0.8-1.3l-0.8,1.3h-0.7l1.2-1.8h0.7l1.2,1.8H29.1z M29.2,117.2h-0.8c-0.4,0-0.6,0.1-0.8,0.3c-0.2,0.2-0.4,0.7-0.4,1.1
		c0,0.8,0.3,1.4,1,1.4c0.6,0,1-0.5,1-1.3V117.2z"/>
	<path class="st0" d="M32.1,117.2c0,1.4,0,2.1,0.4,2.5c0.1,0.2,0.4,0.3,0.7,0.3c0.3,0,0.5-0.1,0.7-0.3c0.2-0.2,0.3-0.6,0.3-1h0.7
		c0,0.7-0.1,1.1-0.5,1.5c-0.3,0.3-0.8,0.5-1.3,0.5c-0.5,0-0.9-0.2-1.3-0.5c-0.4-0.5-0.6-1.4-0.6-3.1c0-1.7,0.1-2.6,0.6-3.1
		c0.3-0.3,0.7-0.5,1.2-0.5c0.5,0,0.9,0.2,1.2,0.5c0.5,0.5,0.6,1.4,0.6,3.2H32.1z M34,112.6l-0.8-1.3l-0.8,1.3h-0.7l1.2-1.8h0.7
		l1.2,1.8H34z M33.8,114.5c-0.1-0.2-0.4-0.3-0.7-0.3c-0.3,0-0.5,0.1-0.7,0.3c-0.3,0.3-0.3,0.9-0.3,2.1h2.1
		C34.2,115.4,34.1,114.9,33.8,114.5z"/>
	<path class="st0" d="M39.2,120.2c-0.3,0.4-0.7,0.5-1.3,0.5c-0.6,0-1-0.2-1.3-0.5c-0.4-0.5-0.5-1.4-0.5-3c0-1.6,0.1-2.5,0.5-3
		c0.3-0.4,0.7-0.6,1.3-0.6c0.6,0,1,0.2,1.3,0.6c0.4,0.5,0.5,1.4,0.5,3C39.7,118.8,39.6,119.7,39.2,120.2z M38.7,112.6l-0.8-1.3
		l-0.8,1.3h-0.7l1.2-1.8h0.7l1.2,1.8H38.7z M38.6,114.5c-0.1-0.2-0.4-0.3-0.7-0.3c-0.3,0-0.5,0.1-0.7,0.3c-0.3,0.4-0.3,1.1-0.3,2.6
		c0,1.5,0,2.2,0.3,2.6c0.2,0.2,0.4,0.3,0.7,0.3c0.3,0,0.5-0.1,0.7-0.3c0.3-0.4,0.4-1.1,0.4-2.6C39,115.7,38.9,114.9,38.6,114.5z"/>
	<path class="st0" d="M42.6,120.6v-8.8l-1.4,1.2v-0.9l1.4-1.2h0.8v9.7H42.6z"/>
	<path class="st0" d="M45.9,120.6V120l2.3-5.3c0.2-0.5,0.5-1.2,0.5-2c0-0.8-0.4-1.1-1-1.1c-0.5,0-1,0.4-1,1.1v0.7H46v-0.7
		c0-0.6,0.2-1,0.5-1.4c0.3-0.3,0.8-0.5,1.2-0.5c0.5,0,0.9,0.2,1.2,0.5c0.3,0.3,0.5,0.7,0.5,1.4c0,0.7-0.3,1.6-0.6,2.2l-2.2,5h2.7
		v0.7H45.9z"/>
	<path class="st0" d="M53.8,120.2c-0.3,0.3-0.8,0.5-1.2,0.5c-0.5,0-0.9-0.2-1.2-0.5c-0.3-0.3-0.5-0.7-0.5-1.4v-0.7h0.8v0.7
		c0,0.8,0.4,1.1,1,1.1c0.3,0,0.5-0.1,0.7-0.3c0.2-0.3,0.4-0.6,0.4-1.8c0-1.4-0.1-1.6-0.3-1.9c-0.2-0.2-0.4-0.3-0.7-0.3H52v-0.7h0.6
		c0.3,0,0.5-0.1,0.6-0.2c0.2-0.3,0.3-0.6,0.3-1.6c0-0.9-0.1-1.3-0.3-1.5c-0.1-0.2-0.4-0.3-0.6-0.3c-0.5,0-0.9,0.4-0.9,1.1v0.7h-0.8
		v-0.7c0-0.7,0.2-1.1,0.5-1.4c0.3-0.3,0.7-0.5,1.2-0.5c0.5,0,0.9,0.2,1.2,0.5c0.4,0.4,0.5,0.8,0.5,2c0,0.9-0.1,1.3-0.3,1.7
		c-0.1,0.2-0.3,0.4-0.5,0.5c0.2,0.1,0.4,0.3,0.5,0.5c0.3,0.4,0.4,0.7,0.4,2.1S54.3,119.8,53.8,120.2z"/>
	<path class="st0" d="M58.9,118.9v1.7h-0.8v-1.7h-2.6v-0.7l2.5-7.3h0.8l-2.4,7.3h1.8v-2.7h0.8v2.7h0.7v0.7H58.9z"/>
	<path class="st0" d="M63.7,120.2c-0.3,0.3-0.8,0.5-1.2,0.5c-0.5,0-0.9-0.2-1.2-0.4c-0.3-0.3-0.5-0.7-0.5-1.4v-0.6h0.8v0.6
		c0,0.8,0.4,1.2,1,1.2c0.3,0,0.5-0.1,0.7-0.3c0.2-0.3,0.3-0.7,0.3-2.1c0-1.4-0.1-1.8-0.3-2.2c-0.2-0.2-0.4-0.4-0.7-0.4
		c-0.5,0-1,0.5-1,1.1v0.4h-0.7v-5.7h3.3v0.7h-2.6v3.4c0.1-0.2,0.2-0.3,0.4-0.5c0.2-0.1,0.5-0.2,0.7-0.2c0.5,0,0.8,0.2,1.1,0.5
		c0.4,0.5,0.5,1,0.5,2.6C64.3,119.1,64.2,119.7,63.7,120.2z"/>
	<path class="st0" d="M68.7,120.2c-0.3,0.3-0.8,0.5-1.3,0.5c-0.5,0-1-0.2-1.3-0.5c-0.4-0.5-0.5-1-0.5-2.4c0-1.1,0.1-1.9,0.4-2.6
		l1.6-4.2h0.8l-1.6,4.2c0.2-0.2,0.5-0.3,0.8-0.3c0.5,0,0.8,0.2,1.1,0.5c0.4,0.4,0.5,0.8,0.5,2.5C69.2,119.2,69.1,119.7,68.7,120.2z
		 M68.1,115.7c-0.2-0.2-0.4-0.3-0.7-0.3c-0.3,0-0.5,0.1-0.7,0.3c-0.3,0.3-0.3,0.8-0.3,2c0,1.2,0.1,1.7,0.3,2
		c0.2,0.2,0.4,0.3,0.7,0.3c0.3,0,0.5-0.1,0.7-0.3c0.3-0.3,0.3-0.8,0.3-2C68.4,116.6,68.4,116,68.1,115.7z"/>
	<path class="st0" d="M71.6,120.6h-0.8l2.6-9h-2.1v1.6h-0.8v-2.3h3.6v0.6L71.6,120.6z"/>
	<path class="st0" d="M78.5,120.2c-0.3,0.3-0.8,0.5-1.2,0.5c-0.5,0-0.9-0.2-1.2-0.5c-0.4-0.5-0.5-1-0.5-2.3c0-1.3,0.1-1.7,0.4-2
		c0.1-0.2,0.3-0.4,0.5-0.5c-0.2-0.1-0.4-0.3-0.5-0.5c-0.2-0.3-0.3-0.7-0.3-1.7c0-1.1,0.1-1.6,0.5-2c0.3-0.3,0.7-0.5,1.2-0.5
		c0.5,0,0.9,0.2,1.2,0.5c0.4,0.4,0.5,0.9,0.5,2c0,1-0.1,1.3-0.3,1.7c-0.1,0.2-0.3,0.4-0.5,0.5c0.2,0.1,0.4,0.3,0.5,0.5
		c0.3,0.4,0.3,0.7,0.3,2C79,119.3,78.9,119.8,78.5,120.2z M77.9,116c-0.2-0.2-0.4-0.3-0.7-0.3c-0.3,0-0.5,0.1-0.7,0.3
		c-0.3,0.3-0.3,0.6-0.3,1.9c0,1.1,0.1,1.5,0.3,1.8c0.2,0.2,0.4,0.3,0.7,0.3c0.3,0,0.5-0.1,0.7-0.3c0.3-0.3,0.3-0.7,0.3-1.8
		C78.3,116.6,78.2,116.3,77.9,116z M77.9,111.7c-0.2-0.2-0.4-0.2-0.6-0.2c-0.2,0-0.5,0.1-0.6,0.2c-0.2,0.2-0.3,0.6-0.3,1.6
		s0.1,1.3,0.3,1.6c0.1,0.2,0.4,0.2,0.6,0.2c0.2,0,0.5-0.1,0.6-0.2c0.2-0.2,0.3-0.6,0.3-1.6S78.1,112,77.9,111.7z"/>
	<path class="st0" d="M83.6,116.4l-1.6,4.2h-0.8l1.6-4.2c-0.2,0.2-0.5,0.3-0.8,0.3c-0.5,0-0.8-0.2-1.1-0.5c-0.4-0.4-0.5-0.8-0.5-2.5
		c0-1.5,0.1-2,0.5-2.4c0.3-0.3,0.8-0.5,1.3-0.5c0.5,0,1,0.2,1.3,0.5c0.4,0.5,0.5,1,0.5,2.4C84,114.8,83.8,115.6,83.6,116.4z
		 M82.9,111.7c-0.2-0.2-0.4-0.3-0.7-0.3c-0.3,0-0.5,0.1-0.7,0.3c-0.3,0.3-0.3,0.8-0.3,2c0,1.2,0.1,1.7,0.3,2
		c0.2,0.2,0.4,0.3,0.7,0.3c0.3,0,0.5-0.1,0.7-0.3c0.3-0.3,0.3-0.8,0.3-2C83.2,112.6,83.1,112.1,82.9,111.7z"/>
	<path class="st0" d="M88.4,120.2c-0.3,0.3-0.8,0.5-1.2,0.5c-0.5,0-0.9-0.2-1.2-0.5c-0.3-0.3-0.5-0.7-0.5-1.4v-6.2
		c0-0.7,0.2-1.1,0.5-1.4c0.3-0.3,0.8-0.5,1.2-0.5c0.5,0,1,0.2,1.2,0.5c0.3,0.3,0.5,0.7,0.5,1.4v6.2
		C88.8,119.5,88.7,119.9,88.4,120.2z M88.1,112.6c0-0.8-0.4-1.1-1-1.1c-0.5,0-1,0.4-1,1.1v6.3c0,0.8,0.4,1.1,1,1.1
		c0.5,0,1-0.4,1-1.1V112.6z"/>
	<path class="st0" d="M90.4,112.1v-1.3l0.9-0.7v2H90.4z"/>
	<path class="st0" d="M96.2,114.7l-0.8,1.3c-0.2,0.3-0.3,0.6-0.3,1v1.1h-0.8v-1.2c0-0.4,0.1-0.8,0.3-1.1l0.8-1.3
		c0.3-0.5,0.4-0.8,0.4-1.4c0-0.7-0.1-1.1-0.4-1.3c-0.2-0.2-0.4-0.3-0.8-0.3c-0.3,0-0.6,0.1-0.7,0.3c-0.3,0.3-0.4,0.7-0.4,1.2h-0.8
		c0-0.7,0.1-1.2,0.5-1.6c0.3-0.3,0.8-0.5,1.3-0.5c0.6,0,1,0.1,1.3,0.5c0.4,0.4,0.6,0.8,0.6,1.8C96.6,113.8,96.6,114.2,96.2,114.7z
		 M94.3,120.6v-1h1v1H94.3z"/>
	<path class="st0" d="M98,112.8v-1.9h0.9v1.3L98,112.8z"/>
	<path class="st0" d="M100.5,112.1v-1.3l0.9-0.7v2H100.5z M102.5,112.1v-1.3l0.9-0.7v2H102.5z"/>
	<path class="st0" d="M105.4,120.6v-1h1v1H105.4z M105.6,118.1v-7.2h0.8v7.2H105.6z"/>
	<path class="st0" d="M108.1,112.8v-1.9h0.9v1.3L108.1,112.8z M110.1,112.8v-1.9h0.9v1.3L110.1,112.8z"/>
	<path class="st0" d="M113.8,121.9c-0.4-0.4-0.7-0.7-0.9-1.1c-0.2-0.4-0.3-0.9-0.3-1.3V112c0-0.5,0-0.9,0.3-1.3
		c0.2-0.4,0.5-0.7,0.9-1.1l0.5,0.5c-0.3,0.3-0.5,0.5-0.7,0.9c-0.1,0.3-0.2,0.7-0.2,1.1v7.3c0,0.4,0.1,0.8,0.2,1.1
		c0.2,0.3,0.4,0.6,0.7,0.9L113.8,121.9z"/>
	<path class="st0" d="M116.9,115.9c-0.8,0-1.3-0.5-1.3-1.4v-2.4c0-0.8,0.6-1.4,1.3-1.4c0.8,0,1.4,0.5,1.4,1.4v2.4
		C118.3,115.4,117.7,115.9,116.9,115.9z M117.6,112.1c0-0.5-0.2-0.8-0.7-0.8s-0.7,0.3-0.7,0.8v2.4c0,0.5,0.2,0.8,0.7,0.8
		s0.7-0.3,0.7-0.8V112.1z M117.7,120.6H117l3.4-9.7h0.6L117.7,120.6z M121.2,120.7c-0.8,0-1.3-0.5-1.3-1.4V117
		c0-0.8,0.6-1.4,1.3-1.4c0.8,0,1.3,0.5,1.3,1.4v2.4C122.5,120.2,121.9,120.7,121.2,120.7z M121.8,117c0-0.5-0.2-0.8-0.7-0.8
		c-0.4,0-0.7,0.3-0.7,0.8v2.4c0,0.5,0.2,0.8,0.7,0.8c0.4,0,0.7-0.3,0.7-0.8V117z"/>
	<path class="st0" d="M125.2,120.8c-0.2,0.4-0.5,0.7-0.9,1.1l-0.5-0.5c0.3-0.3,0.6-0.5,0.7-0.9c0.1-0.3,0.2-0.7,0.2-1.1v-7.3
		c0-0.5-0.1-0.8-0.2-1.1c-0.2-0.3-0.4-0.6-0.7-0.9l0.5-0.5c0.4,0.4,0.7,0.7,0.9,1.1c0.2,0.4,0.3,0.9,0.3,1.3v7.4
		C125.5,119.9,125.5,120.4,125.2,120.8z"/>
	<path class="st0" d="M127.1,121.6v-11.7h2v0.7h-1.2V121h1.2v0.7H127.1z"/>
	<path class="st0" d="M134.5,114.5l-0.3,2.2h1v0.7h-1.1l-0.4,3.1H133l0.4-3.1H132l-0.4,3.1h-0.7l0.4-3.1h-1v-0.7h1.1l0.3-2.2h-1
		v-0.7h1.1l0.4-3h0.7l-0.4,3h1.4l0.4-3h0.7l-0.4,3h1v0.7H134.5z M132.4,114.5l-0.3,2.2h1.4l0.3-2.2H132.4z"/>
	<path class="st0" d="M136.7,121.6V121h1.2v-10.4h-1.2v-0.7h2v11.7H136.7z"/>
	<path class="st0" d="M142.7,121.6c-0.4,0-0.9-0.2-1.2-0.4c-0.3-0.3-0.5-0.7-0.5-1.3v-2.6c0-0.7-0.4-1.1-0.9-1.1H140v-0.7h0.2
		c0.5,0,0.9-0.4,0.9-1.1v-2.6c0-0.6,0.2-1,0.5-1.3c0.3-0.3,0.7-0.4,1.2-0.4h0.3v0.7h-0.2c-0.5,0-0.9,0.4-0.9,1.1v2.6
		c0,0.6-0.1,1-0.4,1.2c-0.1,0.1-0.2,0.2-0.4,0.2c0.1,0,0.3,0.1,0.4,0.2c0.2,0.3,0.4,0.6,0.4,1.2v2.6c0,0.7,0.4,1.1,0.9,1.1h0.2v0.7
		H142.7z"/>
	<path class="st0" d="M148.9,120.6V120c-0.1,0.2-0.3,0.3-0.4,0.4c-0.2,0.1-0.5,0.2-0.8,0.2c-0.5,0-0.8-0.2-1.1-0.5
		c-0.3-0.3-0.4-0.7-0.4-1.4v-3c0-0.7,0.1-1.1,0.4-1.4c0.3-0.3,0.6-0.5,1.1-0.5c0.4,0,0.6,0.1,0.8,0.2c0.1,0.1,0.3,0.2,0.4,0.4v-1.7
		c0-0.9-0.5-1.3-1.2-1.3h-1.5c-0.7,0-1.2,0.5-1.2,1.3v6.4c0,0.5,0.1,0.8,0.4,1l-0.5,0.5c-0.5-0.4-0.6-0.9-0.6-1.5v-6.4
		c0-0.7,0.2-1.1,0.5-1.4c0.3-0.3,0.8-0.5,1.4-0.5h1.7c0.6,0,1.1,0.2,1.4,0.5c0.3,0.3,0.5,0.7,0.5,1.4v7.8H148.9z M148.9,115.8
		c0-0.8-0.4-1.1-1-1.1c-0.5,0-1,0.4-1,1.1v3.1c0,0.8,0.4,1.1,1,1.1c0.5,0,1-0.4,1-1.1V115.8z"/>
	<path class="st0" d="M153.8,116.1c-0.5,0-0.9,0.4-0.9,1.1v2.6c0,0.6-0.2,1-0.5,1.3c-0.3,0.3-0.7,0.4-1.2,0.4h-0.3v-0.7h0.2
		c0.5,0,0.9-0.4,0.9-1.1v-2.6c0-0.6,0.2-1,0.4-1.2c0.1-0.1,0.2-0.2,0.4-0.2c-0.1,0-0.3-0.1-0.4-0.2c-0.3-0.3-0.4-0.6-0.4-1.2v-2.6
		c0-0.7-0.4-1.1-0.9-1.1h-0.2v-0.7h0.3c0.4,0,0.9,0.2,1.2,0.4c0.3,0.3,0.5,0.7,0.5,1.3v2.6c0,0.7,0.4,1.1,0.9,1.1h0.2v0.7H153.8z"/>
	<path class="st0" d="M155.2,121.6h-0.8l2.5-11.7h0.8L155.2,121.6z"/>
	<path class="st0" d="M163.5,120.6l-0.7-1.1c-0.6,0.8-1.2,1.3-2.3,1.3c-1.2,0-2.2-0.9-2.2-2.3c0-1.2,0.5-2,1.7-3.1
		c-0.9-1.3-1.2-1.8-1.2-2.6c0-1,0.6-2,1.8-2c1.2,0,1.8,0.8,1.8,1.8c0,1.1-0.4,1.8-1.5,2.8l1.8,2.7c0.3-0.6,0.6-1.5,0.6-2.3h0.7
		c-0.1,1.1-0.4,2.2-0.9,3l1.2,1.8H163.5z M160.4,115.9c-0.9,0.9-1.3,1.6-1.3,2.4c0,0.9,0.5,1.7,1.5,1.7c0.7,0,1.2-0.5,1.8-1.2
		L160.4,115.9z M160.6,111.5c-0.8,0-1.1,0.7-1.1,1.2c0,0.5,0.2,0.9,1,2.1c0.7-0.7,1.1-1.2,1.1-2.1
		C161.7,112,161.2,111.5,160.6,111.5z"/>
	<path class="st0" d="M166.9,121.6l-2.5-11.7h0.8l2.5,11.7H166.9z"/>
	<path class="st0" d="M168.2,117.1v-0.7l4-2.3v0.9l-3.1,1.8l3.1,1.8v0.9L168.2,117.1z"/>
	<path class="st0" d="M173.4,117.2v-0.7h2.6v0.7H173.4z"/>
	<path class="st0" d="M180.1,117.2v1.9h-0.7v-1.9h-1.9v-0.7h1.9v-1.9h0.7v1.9h1.9v0.7H180.1z"/>
	<path class="st0" d="M183.3,117.2v-0.7h4.6v0.7H183.3z M185.1,115.4v-1h1v1H185.1z M185.1,119.4v-1h1v1H185.1z"/>
	<path class="st0" d="M193.1,119l-1.6-1.6l-1.6,1.6l-0.5-0.5l1.6-1.6l-1.6-1.6l0.5-0.5l1.6,1.6l1.6-1.6l0.5,0.5l-1.6,1.6l1.6,1.6
		L193.1,119z"/>
	<path class="st0" d="M195.1,116.3v-0.7h4.6v0.7H195.1z M195.1,118.3v-0.7h4.6v0.7H195.1z"/>
	<path class="st0" d="M200.8,119.4v-0.9l3.1-1.8l-3.1-1.8v-0.9l4,2.3v0.7L200.8,119.4z"/>
	<path class="st0" d="M211.1,120.7c-2.7,0-4.9-2.2-4.9-4.9s2.2-4.9,4.9-4.9c2.7,0,4.9,2.2,4.9,4.9S213.8,120.7,211.1,120.7z
		 M211.1,111.4c-2.4,0-4.3,2-4.3,4.4c0,2.4,1.9,4.4,4.3,4.4c2.4,0,4.3-2,4.3-4.4C215.4,113.3,213.5,111.4,211.1,111.4z M212,118.5
		l-0.7-2.4h-0.8v2.4h-0.6V113h1.3c0.4,0,0.7,0.1,0.9,0.3c0.3,0.3,0.4,0.6,0.4,1.2c0,0.7-0.1,0.9-0.4,1.2c-0.1,0.1-0.2,0.1-0.3,0.2
		l0.8,2.5H212z M211.7,113.7c-0.1-0.1-0.3-0.2-0.4-0.2h-0.8v2h0.8c0.2,0,0.3-0.1,0.4-0.2c0.2-0.2,0.2-0.4,0.2-0.8
		C211.9,114.1,211.9,113.9,211.7,113.7z"/>
	<path class="st0" d="M222.9,120.7c-2.7,0-4.9-2.2-4.9-4.9s2.2-4.9,4.9-4.9c2.7,0,4.9,2.2,4.9,4.9S225.6,120.7,222.9,120.7z
		 M222.9,111.4c-2.4,0-4.3,2-4.3,4.4c0,2.4,1.9,4.4,4.3,4.4c2.4,0,4.3-2,4.3-4.4C227.2,113.3,225.3,111.4,222.9,111.4z M223.8,118.2
		c-0.2,0.2-0.5,0.4-0.9,0.4c-0.4,0-0.7-0.2-0.9-0.4c-0.3-0.4-0.4-1-0.4-2.4c0-1.4,0.1-2,0.4-2.4c0.2-0.3,0.6-0.4,0.9-0.4
		c0.4,0,0.7,0.1,0.9,0.4c0.3,0.3,0.4,0.6,0.4,1.2h-0.6c0-0.3,0-0.6-0.2-0.8c-0.1-0.1-0.3-0.2-0.5-0.2c-0.2,0-0.4,0.1-0.5,0.2
		c-0.2,0.3-0.3,0.9-0.3,2c0,1.2,0,1.8,0.3,2c0.1,0.1,0.3,0.2,0.5,0.2c0.2,0,0.4-0.1,0.5-0.2c0.2-0.2,0.2-0.4,0.2-0.8h0.6
		C224.2,117.6,224.1,117.9,223.8,118.2z"/>
	<path class="st0" d="M233,120.2c-0.3,0.3-0.6,0.4-1.1,0.5v1.5h-0.7v-1.5c-0.5,0-0.9-0.2-1.2-0.5c-0.4-0.4-0.6-0.9-0.6-2h0.8
		c0,0.7,0.1,1.1,0.4,1.4c0.1,0.1,0.3,0.3,0.6,0.3v-4.1l-0.4-0.2c-1-0.4-1.3-1-1.3-2.4c0-0.8,0.2-1.5,0.7-1.9
		c0.3-0.3,0.6-0.4,1.1-0.5v-1.2h0.7v1.2c0.5,0.1,0.8,0.2,1.1,0.5c0.5,0.5,0.6,1,0.6,1.9h-0.8c0-0.6-0.1-1-0.4-1.3
		c-0.1-0.1-0.3-0.3-0.5-0.3v3.7l0.4,0.2c1,0.4,1.3,1.2,1.3,2.6C233.6,119.1,233.4,119.7,233,120.2z M231.1,111.6
		c-0.2,0.1-0.4,0.1-0.5,0.3c-0.3,0.3-0.4,0.8-0.4,1.4c0,1.1,0.1,1.4,0.9,1.8V111.6z M231.9,116.2v3.8c0.2-0.1,0.4-0.1,0.5-0.3
		c0.3-0.3,0.4-0.8,0.4-1.5C232.8,116.9,232.6,116.5,231.9,116.2z"/>
	<path class="st0" d="M239.1,120.2c-0.3,0.3-0.8,0.5-1.3,0.5c-0.6,0-1.1-0.2-1.4-0.6c-0.5-0.5-0.7-1.1-0.7-3.1h-0.9v-0.6h0.9v-1.4
		h-0.9v-0.6h0.9c0-2,0.2-2.6,0.7-3.1c0.3-0.4,0.8-0.6,1.4-0.6c0.6,0,1.1,0.2,1.4,0.5c0.4,0.4,0.6,1.1,0.6,1.8h-0.8
		c0-0.8-0.2-1.6-1.2-1.6c-0.4,0-0.7,0.1-0.9,0.4c-0.3,0.4-0.4,0.7-0.4,2.6h1.8v0.6h-1.8v1.4h1.8v0.6h-1.8c0,1.9,0.1,2.2,0.5,2.6
		c0.2,0.2,0.5,0.4,0.9,0.4c1,0,1.2-0.8,1.2-1.6h0.8C239.8,119.2,239.5,119.8,239.1,120.2z"/>
	<path class="st0" d="M241.7,120.6v-4.8h-0.9v-0.6h0.9v-2.3c0-1.4,1-2.2,2-2.2c0.6,0,1.2,0.2,1.5,0.7l-0.6,0.5
		c-0.2-0.3-0.5-0.5-1-0.5c-0.7,0-1.2,0.5-1.2,1.4v2.3h1.2v0.6h-1.2v4.1h2.8v0.7H241.7z"/>
	<path class="st0" d="M248.7,115.1h0.7v0.6h-0.9l-0.3,0.8v0.5h1.1v0.6h-1.1v2.9h-0.8v-2.9h-1.1v-0.6h1.1v-0.5l-0.2-0.8h-0.9v-0.6
		h0.7l-1.3-4.2h0.9l1.2,4.4l1.2-4.4h0.9L248.7,115.1z"/>
	<path class="st0" d="M253.7,118.7c-0.2,0.2-0.6,0.4-0.9,0.4v1.5h-0.6v-1.5c-0.4-0.1-0.7-0.2-1-0.5c-0.4-0.5-0.5-1.3-0.5-2.9
		c0-1.6,0.1-2.4,0.5-2.9c0.2-0.3,0.6-0.4,1-0.5v-1.4h0.6v1.4c0.4,0,0.7,0.2,0.9,0.4c0.4,0.4,0.5,0.9,0.5,1.4h-0.7
		c0-0.3,0-0.7-0.3-0.9c-0.1-0.1-0.2-0.2-0.4-0.2v5.5c0.1,0,0.3-0.1,0.4-0.2c0.2-0.2,0.3-0.5,0.3-0.9h0.7
		C254.2,117.9,254.1,118.4,253.7,118.7z M252.2,113c-0.2,0.1-0.3,0.1-0.4,0.2c-0.3,0.4-0.4,1-0.4,2.5c0,1.4,0,2.1,0.4,2.5
		c0.1,0.1,0.2,0.2,0.4,0.2V113z"/>
	<path class="st0" d="M256,116v-1h1v1H256z M256,120.6v-1h1v1H256z"/>
	<path class="st0" d="M259,116v-1h1v1H259z M259.1,122v-2.4h0.9v1.7L259.1,122z"/>
	<path class="st0" d="M261.7,122v-2.4h0.9v1.7L261.7,122z"/>
	<path class="st0" d="M264.3,120.6v-1h1v1H264.3z"/>
	<path class="st0" d="M270.2,114.3l-1.2-0.7l0,1.7h-0.6l0-1.7l-1.3,0.7l-0.3-0.5l1.3-0.7l-1.3-0.7l0.3-0.5l1.3,0.7l0-1.7h0.6l0,1.7
		l1.2-0.7l0.3,0.5l-1.3,0.7l1.3,0.7L270.2,114.3z"/>
</g>
<path class="st0" d="M15.2,31.6c-1.4,1.6-3.3,2.8-6.6,2.8H0v-34h8.6c3.2,0,5.2,1.2,6.6,2.8c2.3,2.5,2.5,6.3,2.5,14.1
	C17.7,25.2,17.5,29.1,15.2,31.6z M11.2,6.6c-0.5-0.8-1.4-1.4-2.7-1.4H5.3v24.4h3.2c1.3,0,2.2-0.6,2.7-1.4c1.1-1.6,1.1-4.9,1.1-10.8
	C12.4,11.4,12.3,8.2,11.2,6.6z"/>
<path class="st0" d="M22.6,34.4v-34h5.3v34H22.6z"/>
<path class="st0" d="M47,34.4l-8-20.2v20.2h-5.3v-34h4.8l8,20.2V0.4h5.3v34H47z"/>
<path class="st0" d="M74.6,21.1h-3.2v13.3h-5.3v-34h8.6c6.2,0,8.7,3.2,8.7,10.4S80.8,21.1,74.6,21.1z M74.4,5.2h-3v11h3
	c2.9,0,3.6-2.1,3.6-5.5S77.3,5.2,74.4,5.2z"/>
<path class="st0" d="M96.9,13.8c-2.4,0-4.2,1.6-4.2,4.3v16.3h-5.1V9.2h4.9v2.7c0.5-0.8,1.3-1.5,2.2-2c1.1-0.7,2.4-1.1,3.9-1.1v4.9
	H96.9z"/>
<path class="st0" d="M114.4,32.1c-1.5,2.1-3.5,2.7-6,2.7c-2.4,0-4.5-0.6-6-2.7c-1.6-2.2-1.8-6.1-1.8-10.3s0.2-8.1,1.8-10.3
	c1.5-2.1,3.5-2.6,6-2.6c2.4,0,4.5,0.6,6,2.6c1.6,2.2,1.8,6.1,1.8,10.3S116,29.9,114.4,32.1z M110.4,14.4c-0.4-0.7-1.2-1.1-2-1.1
	c-0.8,0-1.5,0.4-2,1.1c-0.7,1.1-0.7,3.7-0.7,7.4s0,6.3,0.7,7.5c0.4,0.7,1.2,1,2,1c0.8,0,1.5-0.3,2-1c0.7-1.1,0.7-3.7,0.7-7.5
	S111,15.5,110.4,14.4z"/>
<path class="st0" d="M137.5,35c-2.9,0-5.1-1-6.8-3c-2.3-2.7-2.5-6.6-2.5-14.6c0-8.1,0.2-11.9,2.5-14.6c1.7-2,3.9-3,6.8-3
	c2.5,0,4.5,0.7,6.1,2.3c1.7,1.6,2.7,4.2,2.8,7.3l0,0.3h-5.8l0-0.2c-0.1-1.5-0.3-2.5-0.8-3.2c-0.5-0.8-1.2-1.1-2.3-1.1
	c-1.1,0-1.8,0.4-2.3,1.2c-1,1.5-1.2,4.8-1.2,11.1s0.2,9.6,1.2,11.1c0.5,0.8,1.3,1.2,2.3,1.2c1.1,0,1.8-0.4,2.3-1.1
	c0.5-0.7,0.7-1.8,0.8-3.2l0-0.2h5.8l0,0.3c-0.1,3.2-1.1,5.8-2.9,7.4C141.9,34.4,140,35,137.5,35z M137.5,0.2c-2.7,0-4.8,0.9-6.4,2.8
	c-2.2,2.6-2.4,6.4-2.4,14.3c0,7.9,0.2,11.7,2.4,14.3c1.6,1.9,3.7,2.8,6.4,2.8c2.4,0,4.2-0.6,5.7-2.1l0,0c1.6-1.5,2.6-3.9,2.7-6.8
	h-4.9c-0.1,1.5-0.4,2.5-0.8,3.2c-0.6,0.9-1.5,1.4-2.7,1.4c-1.3,0-2.2-0.5-2.7-1.4c-1.1-1.6-1.2-4.8-1.2-11.4c0-6.6,0.2-9.8,1.2-11.4
	c0.6-0.9,1.5-1.4,2.7-1.4c1.3,0,2.2,0.4,2.7,1.4c0.5,0.7,0.8,1.7,0.8,3.2h4.9c-0.1-2.9-1.1-5.3-2.6-6.7
	C141.7,0.9,139.9,0.2,137.5,0.2z"/>
<path class="st0" d="M159.1,35c-2.9,0-5.1-1-6.8-3c-2.3-2.8-2.5-6.6-2.5-14.6c0-8,0.2-11.8,2.5-14.6c1.7-2,3.9-3,6.8-3s5.1,1,6.8,3
	c2.3,2.7,2.5,6.3,2.5,14.6c0,8.3-0.2,11.9-2.5,14.6C164.2,34,161.9,35,159.1,35z M159.1,0.2c-2.7,0-4.8,0.9-6.4,2.8
	c-2.2,2.7-2.4,6.4-2.4,14.3c0,7.9,0.2,11.7,2.4,14.3c1.6,1.9,3.7,2.8,6.4,2.8s4.8-0.9,6.4-2.8l0,0c2.2-2.6,2.4-6.2,2.4-14.3
	c0-8.2-0.2-11.7-2.4-14.3C163.9,1.2,161.8,0.2,159.1,0.2z M159.1,30.2c-1.3,0-2.2-0.5-2.7-1.4c-1-1.7-1.2-5.2-1.2-11.4
	c0-6.2,0.2-9.7,1.2-11.4c0.6-0.9,1.5-1.4,2.7-1.4c1.3,0,2.2,0.5,2.8,1.4l0,0c1,1.6,1.2,4.8,1.2,11.4c0,6.6-0.2,9.8-1.2,11.4
	C161.3,29.7,160.4,30.2,159.1,30.2z M159.1,5.1c-1.1,0-1.8,0.4-2.3,1.2c-1,1.6-1.2,5.1-1.2,11.1c0,6,0.2,9.6,1.2,11.1
	c0.5,0.8,1.2,1.2,2.3,1.2c1.1,0,1.9-0.4,2.4-1.2c0.9-1.5,1.1-4.8,1.1-11.1c0-6.3-0.2-9.6-1.1-11.1C161,5.5,160.2,5.1,159.1,5.1z"/>
<path class="st0" d="M191.4,34.7h-5.1l-7.6-19.2v19.2h-5.8V0.1h5.2l7.6,19.1V0.1h5.8V34.7z M186.6,34.2h4.3V0.6H186v20l-0.5,0.1
	l-7.9-20.1h-4.4v33.5h4.8v-20l0.5-0.1L186.6,34.2z"/>
<path class="st0" d="M205.5,34.7h-8.9V0.1h8.9c2.9,0,5,0.9,6.8,2.9c2.3,2.6,2.5,6.1,2.5,14.3c0,8.1-0.2,11.9-2.5,14.4
	C210.6,33.7,208.4,34.7,205.5,34.7z M197.1,34.2h8.4c2.7,0,4.8-0.9,6.4-2.7l0,0c2.2-2.4,2.4-6.1,2.4-14.1c0-8-0.2-11.5-2.4-14
	c-1.6-1.9-3.7-2.7-6.4-2.7h-8.4V34.2z M205.4,29.8H202V5h3.4c1.3,0,2.3,0.5,2.9,1.5c1.1,1.6,1.2,4.7,1.2,10.9c0,6.3-0.1,9.4-1.2,11
	C207.7,29.3,206.6,29.8,205.4,29.8z M202.5,29.3h2.9c1.1,0,2-0.5,2.5-1.3c1-1.6,1.1-5.1,1.1-10.7c0-5.6-0.1-9.1-1.1-10.6l0,0
	c-0.5-0.8-1.4-1.3-2.5-1.3h-2.9V29.3z"/>
<path class="st0" d="M234,34.7h-14.8V0.1H234v5.3H225v9.2h7.7v5.3H225v9.4h8.9V34.7z M219.7,34.2h13.8v-4.3h-8.9V19.4h7.7v-4.3h-7.7
	V5h8.9V0.6h-13.8V34.2z"/>
<path class="st0" d="M256.7,34.7h-5.1L244,15.5v19.2h-5.8V0.1h5.2l7.6,19.1V0.1h5.8V34.7z M251.9,34.2h4.3V0.6h-4.8v20l-0.5,0.1
	L243,0.6h-4.4v33.5h4.8v-20l0.5-0.1L251.9,34.2z"/>
<path class="st0" d="M269.8,35c-3,0-5.2-0.8-6.8-2.3c-1.6-1.6-2.3-3.7-2.3-7.5v-0.2h5.8v0.2c0,1.6,0.1,2.8,0.9,3.7
	c0.3,0.4,1,0.8,2.3,0.8c1.1,0,1.9-0.3,2.4-0.9c0.6-0.7,0.8-1.7,0.8-3.6c0-3.5-0.5-4.3-3-5.4l-4.1-1.7c-3.7-1.5-4.9-3.7-4.9-8.8
	c0-3.2,1-5.7,2.9-7.4c1.6-1.4,3.6-2.1,6-2.1c2.7,0,4.8,0.7,6.3,2.1c1.7,1.7,2.5,4,2.5,7.6v0.2h-5.8V9.6c0-1.6-0.1-2.7-0.8-3.5
	c-0.5-0.6-1.2-0.9-2.2-0.9c-0.9,0-1.6,0.3-2.1,0.9c-0.6,0.6-0.8,1.7-0.8,3.2c0,2.7,0.4,3.5,2.7,4.4l4,1.6c4.1,1.7,5.3,3.9,5.3,9.8
	c0,3.3-0.4,5.8-2.3,7.7v0C275.1,34.2,272.7,35,269.8,35z M261.3,25.4c0,3.4,0.6,5.4,2.1,6.9c1.4,1.4,3.6,2.2,6.4,2.2
	c2.7,0,5-0.8,6.5-2.2c1.5-1.5,2.1-3.5,2.1-7.3c0-5.7-1.1-7.7-5-9.3l-4-1.6c-2.6-1-3-2.1-3-4.8c0-1.6,0.3-2.8,1-3.5
	c0.7-0.7,1.4-1,2.5-1c1.2,0,2,0.4,2.6,1.1c0.8,1,0.9,2.2,0.9,3.5h4.8c0-3.3-0.8-5.5-2.3-7c-1.4-1.3-3.4-2-5.9-2
	c-2.2,0-4.1,0.7-5.7,2c-1.8,1.6-2.7,4-2.7,7c0,4.9,1.1,6.9,4.6,8.3l4.1,1.7c2.8,1.1,3.4,2.1,3.4,5.8c0,1.8-0.2,3-1,3.9
	c-0.6,0.7-1.5,1-2.8,1c-1.5,0-2.3-0.5-2.7-1c-0.8-0.9-1-2.1-1-3.7H261.3z"/>
<path class="st0" d="M297.9,34.7h-14.8V0.1h14.8v5.3h-8.9v9.2h7.7v5.3h-7.7v9.4h8.9V34.7z M283.6,34.2h13.8v-4.3h-8.9V19.4h7.7v-4.3
	h-7.7V5h8.9V0.6h-13.8V34.2z"/>
<path class="st0" d="M310.9,34.7H302V0.1h8.9c2.9,0,5,0.9,6.8,2.9c2.3,2.6,2.5,6.1,2.5,14.3c0,8.1-0.2,11.9-2.5,14.4
	C316,33.7,313.8,34.7,310.9,34.7z M302.5,34.2h8.4c2.7,0,4.8-0.9,6.4-2.7l0,0c2.2-2.4,2.4-6.1,2.4-14.1c0-8-0.2-11.5-2.4-14
	c-1.6-1.9-3.7-2.7-6.4-2.7h-8.4V34.2z M310.8,29.8h-3.4V5h3.4c1.3,0,2.3,0.5,2.9,1.5c1.1,1.6,1.2,4.7,1.2,10.9c0,6.3-0.1,9.4-1.2,11
	C313.1,29.3,312,29.8,310.8,29.8z M307.9,29.3h2.9c1.4,0,2.1-0.7,2.5-1.3c1-1.5,1.1-5.1,1.1-10.7c0-5.6-0.1-9.1-1.1-10.6l0,0
	c-0.4-0.6-1.1-1.3-2.5-1.3h-2.9V29.3z"/>
</svg>
