<?xml version="1.0" encoding="utf-8"?>
<!-- Generator: Adobe Illustrator 23.0.1, SVG Export Plug-In . SVG Version: 6.00 Build 0)  -->
<svg version="1.1" id="Layer_1" xmlns="http://www.w3.org/2000/svg" xmlns:xlink="http://www.w3.org/1999/xlink" x="0px" y="0px"
	 viewBox="0 0 320 334" style="enable-background:new 0 0 320 334;" xml:space="preserve">
<style type="text/css">
	.st0{fill:#FFFFFF;}
	.st1{fill:#006AB0;}
	.st2{fill:#00457C;}
	.st3{fill:#282828;}
	.st4{fill:#343434;}
</style>
<g>
	<g>
		<path class="st0" d="M316.5,43.5c-2.6,2.7-5.5,4.3-9.2,5.1c-2.5,0.5-4.6,0.6-7.1,0.4c-3.3-0.4-6.1-1.4-8.8-3.4
			c-2.2-1.6-3.8-3.4-5.1-5.8c-1.1-1.8-1.7-3.6-2-5.7c-0.5-2.9-0.4-5.5,0.4-8.3c1.7-6.5,6.6-11.1,13.1-12.4c3.7-0.8,7-0.7,10.7,0.3
			c2.6,0.7,4.7,1.8,6.7,3.7c1.3,1.2,2.1,2.3,2.9,3.9c0.9,1.8,1.3,3.5,1.2,5.6h-11.7c-0.3-1.6-1-2.8-2.3-3.8
			c-1.6-1.3-3.7-1.3-5.5-0.3c-1.2,0.7-2,1.7-2.4,3.1c-1,3.2-1.1,6.2-0.2,9.4c0.4,1.4,1,2.4,2,3.4c1.2,1.1,2.6,1.6,4.2,1.3
			c1-0.1,1.8-0.6,2.5-1.3c0.7-0.8,1.1-1.6,1.3-2.6c0.1-0.7,0.2-1.3,0.2-2.1H320C320.2,37.5,319,40.8,316.5,43.5"/>
		<rect x="269.5" class="st0" width="12.8" height="9"/>
		<rect x="269.5" y="13.7" class="st0" width="12.8" height="34.2"/>
		<path class="st0" d="M243,17.3c1.7-1.5,3.3-2.5,5.3-3.5c3.3-1.5,6.6-1.8,10.1-0.8c3.7,1.1,6.4,3.7,7.6,7.5
			c0.6,1.8,0.8,3.4,0.8,5.3v22.1h-13.5V28.1c0-0.7-0.1-1.2-0.3-1.9c-0.3-1.1-1.1-2-2.2-2.5c-2.4-1-5.1-0.1-6.5,2.1
			c-0.5,0.9-0.8,1.9-0.8,3v19.1h-13.1V13.7h12.3L243,17.3"/>
		<path class="st0" d="M92.2,17.3c1.7-1.5,3.3-2.5,5.3-3.5c3.3-1.5,6.6-1.8,10.1-0.8c3.7,1.1,6.4,3.7,7.6,7.5
			c0.6,1.8,0.8,3.4,0.8,5.3v22.1h-13.5V28.1c0-0.7-0.1-1.2-0.3-1.9c-0.4-1.1-1.1-2-2.2-2.5c-2.4-1-5.1-0.1-6.4,2.1
			c-0.6,0.9-0.8,1.9-0.8,3v19.1H79.6V13.7h12.3L92.2,17.3"/>
		<path class="st0" d="M172.6,35.3c1,0.2,1.8,0.4,2.7,0.7c0.8,0.3,1.3,0.9,1.5,1.7c0.2,0.9-0.1,1.7-0.7,2.4c-0.6,0.7-1.4,1-2.3,1.2
			c-1.2,0.2-2.3,0.1-3.4-0.3c-0.6-0.2-1-0.5-1.4-0.8c-0.6-0.5-1-1.1-1.2-1.8c-0.2-0.6-0.3-1.2-0.3-1.8H155v0.7
			c0,1.2,0.2,2.2,0.6,3.3c0.6,1.7,1.5,2.9,2.8,4.2c1.7,1.6,3.5,2.6,5.7,3.2c4.6,1.3,8.8,1.6,13.5,0.9c2.2-0.3,4.1-0.9,6.1-2
			c0.9-0.5,1.6-0.9,2.4-1.6c3.4-2.8,4.6-7.2,3.3-11.4c-0.5-1.6-1.3-2.8-2.6-3.9c-1.7-1.5-3.5-2.5-5.7-3.1c-0.5-0.1-0.9-0.3-1.4-0.4
			c-2.7-0.7-5-1.2-7.7-1.7c-0.7-0.1-1.4-0.2-2.1-0.4c-0.3-0.1-0.6-0.2-0.9-0.3c-0.8-0.3-1.1-1.3-0.8-2c0,0,0-0.1,0.1-0.1
			c0.4-0.7,1-1.2,1.8-1.5c1.4-0.4,2.7-0.4,4.1,0.1c1.3,0.5,2.2,1.7,2.1,3.1h12c0-1.5-0.2-2.7-0.7-4.1c-0.5-1.4-1.3-2.5-2.5-3.4
			c-1-0.8-2-1.4-3.2-1.8c-1.2-0.5-2.2-0.8-3.5-1c-3-0.5-5.5-0.7-8.6-0.5c-1.7,0.1-3.2,0.3-4.9,0.7c-2.3,0.5-4.1,1.4-5.9,2.9
			c-1.6,1.2-2.6,2.7-3.2,4.5c-0.3,0.8-0.4,1.6-0.5,2.5c-0.1,1.5,0.2,2.8,0.7,4.2c1,2.5,2.7,4.3,5.2,5.3c1.3,0.5,2.4,0.8,3.7,1.1
			C167.7,34.5,169.9,34.9,172.6,35.3"/>
		<path class="st0" d="M23.2,33.2h-8.8V21.9h5.7c1.1,0,2,0,3.1-0.1c1.5-0.1,2.7-0.8,3.6-2c0.5-0.6,0.7-1.3,0.9-2.1
			c0.1-0.7,0.1-1.2,0-1.9c-0.2-2.5-2.3-4.4-4.8-4.4h-8.5v36.4H0V0h23.7c0.9,0,1.7,0,2.7,0.1c6.3,0.3,11.4,3.8,14.1,9.6
			c1.4,3,1.9,5.8,1.5,9.1c-0.8,6.9-5.6,12.2-12.3,13.7C27.5,33,25.5,33.2,23.2,33.2"/>
		<path class="st0" d="M213.5,13c-1.4-0.2-2.5-0.3-3.9-0.3c-1.4,0-2.5,0.1-3.9,0.3c-3.9,0.6-7.1,2.2-10,5c-3.1,2.9-4.7,6.4-5.1,10.7
			c-0.2,2.6,0,4.9,0.7,7.4c1.1,3.9,3.1,6.8,6.3,9.3c2.1,1.6,4.2,2.6,6.7,3.1c1.8,0.4,3.4,0.6,5.3,0.6c1.9,0,3.5-0.2,5.3-0.6
			c2.6-0.6,4.7-1.5,6.7-3.1l-7.3-8c-1.2,2.6-4.2,3.8-6.8,2.6c-1.2-0.5-2-1.4-2.6-2.6c-0.5-1.1-0.8-2.1-1-3.3
			c-0.4-2.4-0.3-4.5,0.1-6.9c0.2-1.2,0.7-2.3,1.3-3.3c1.5-2.3,4.6-3,6.9-1.4c0.6,0.4,1,0.8,1.4,1.4c0.7,1.1,1.1,2.1,1.3,3.3
			c0.5,2.4,0.5,4.5,0.1,6.9c-0.2,1.2-0.5,2.2-1,3.3l7.3,8c3.2-2.4,5.2-5.4,6.3-9.3c0.7-2.5,0.9-4.8,0.7-7.4
			c-0.4-4.2-2.1-7.7-5.1-10.7C220.6,15.2,217.4,13.6,213.5,13"/>
		<path class="st0" d="M153.6,45.2c-0.2-2.8-0.3-5.2-0.4-8c-0.1-3.7-0.1-6.9-0.2-10.6c0-2-0.2-3.7-0.7-5.6c-0.6-2.5-2.1-4.5-4.4-5.8
			c-1.4-0.8-2.6-1.3-4.2-1.6c-4.9-1.1-9.2-1.1-14.2-0.3c-1.4,0.2-2.5,0.6-3.9,1.1c-3,1.3-5.1,3.5-6.1,6.7c-0.4,1.2-0.5,2.3-0.3,3.5
			c0,0.2,0.1,0.4,0.2,0.6l11.5,0.3c0-0.7,0.1-1.4,0.3-2c0.4-1.1,1.1-1.8,2.2-2.2c1.5-0.6,3-0.6,4.6-0.1c1,0.3,1.8,1.1,2.1,2.1
			c0.2,0.7,0.1,1.3-0.3,1.8c-0.3,0.5-0.8,0.8-1.3,1c-0.3,0.1-0.6,0.2-1,0.3c-1.6,0.4-2.9,0.7-4.6,1c-1.3,0.2-2.4,0.4-3.7,0.7
			c-1.7,0.3-3.2,0.7-4.9,1.3c-1.5,0.5-2.8,1.2-4,2.3c-1.5,1.4-2.4,3.1-2.7,5.2c-0.2,1.4-0.1,2.6,0.2,4c0.8,3.6,3.3,6.2,6.8,7.2
			c3.9,1.1,7.5,0.9,11.3-0.6c1.8-0.7,3.2-1.8,4.5-3.3l-0.8-5.9c-0.6,0.9-1.3,1.5-2.3,1.9c-0.9,0.4-1.7,0.6-2.7,0.7
			c-0.8,0.1-1.5,0-2.3-0.2c-0.6-0.2-1.1-0.5-1.6-1c-0.4-0.4-0.6-0.9-0.7-1.4c-0.2-0.9,0.1-1.7,0.8-2.3c0.4-0.4,0.9-0.6,1.4-0.8
			c1.3-0.5,2.5-0.9,3.8-1.3c1.7-0.5,3-1,4.6-1.7c0.2,1.2,0.1,2.3,0,3.6c-0.1,0.9-0.4,1.7-0.9,2.4l0.8,5.9c0.3,0.8,0.5,1.5,0.8,2.4
			c0.2,0.5,0.4,0.8,0.7,1.2h12.6C154,47.1,153.7,46.2,153.6,45.2"/>
		<path class="st0" d="M77.1,45.2c-0.2-2.8-0.3-5.2-0.4-8c-0.1-3.7-0.1-6.9-0.1-10.6c0-2-0.2-3.7-0.7-5.6c-0.7-2.5-2.1-4.5-4.4-5.8
			c-1.4-0.8-2.6-1.3-4.2-1.6c-4.9-1.1-9.3-1.1-14.2-0.3c-1.4,0.2-2.5,0.6-3.8,1.1c-3,1.3-5.1,3.5-6.1,6.7c-0.4,1.2-0.5,2.3-0.3,3.5
			c0,0.2,0.1,0.4,0.2,0.6l11.5,0.3c0-0.7,0.1-1.4,0.3-2c0.4-1.1,1.1-1.8,2.2-2.2c1.5-0.6,3-0.6,4.6-0.1c1,0.3,1.8,1.1,2.1,2.1
			c0.2,0.7,0.1,1.3-0.3,1.8c-0.3,0.5-0.8,0.8-1.3,1c-0.3,0.1-0.6,0.2-1,0.3c-1.6,0.4-3,0.7-4.6,1c-1.3,0.2-2.4,0.4-3.7,0.7
			c-1.7,0.3-3.2,0.7-4.9,1.3c-1.5,0.5-2.8,1.2-3.9,2.3c-1.5,1.4-2.4,3.1-2.7,5.2c-0.2,1.4-0.1,2.6,0.2,4c0.8,3.6,3.3,6.2,6.8,7.2
			c3.9,1.1,7.5,0.9,11.3-0.6c1.8-0.7,3.2-1.8,4.5-3.3L63,38.5c-0.6,0.9-1.3,1.5-2.3,1.9c-0.9,0.4-1.7,0.6-2.7,0.7
			c-0.8,0.1-1.5,0-2.3-0.2c-0.7-0.2-1.2-0.5-1.6-1c-0.4-0.4-0.6-0.9-0.7-1.4c-0.2-0.9,0.1-1.7,0.8-2.3c0.5-0.4,0.9-0.6,1.4-0.8
			c1.3-0.5,2.5-0.9,3.8-1.3c1.6-0.5,3-1,4.6-1.7c0.1,1.2,0.1,2.3,0,3.6c-0.1,0.9-0.4,1.7-0.9,2.4l0.8,5.9c0.3,0.8,0.5,1.5,0.8,2.4
			c0.1,0.5,0.4,0.8,0.7,1.2h12.6C77.4,47.1,77.1,46.2,77.1,45.2"/>
	</g>
</g>
<g>
	<path class="st0" d="M10.2,167.7l-1.2-6.1H3.8l-1.2,6.1h-2l5-22.3h1.7l4.9,22.3H10.2z M6.4,148.8L4.1,160h4.5L6.4,148.8z"/>
	<path class="st0" d="M22.3,166.4c-0.9,0.9-2,1.3-3.8,1.3h-4v-22.3h4c1.8,0,2.9,0.3,3.7,1.3c0.9,1,1.3,2.1,1.3,4.4
		c0,1.6-0.2,2.9-1.3,4.1c-0.4,0.4-0.9,0.8-1.4,0.9c0.6,0.2,1.1,0.4,1.6,0.9c1.2,1.2,1.4,2.8,1.4,4.6
		C23.6,164.4,23.2,165.4,22.3,166.4z M18.5,147.1h-2.2v8.3h2.2c2,0,3.1-1.2,3.1-4.1C21.6,148,20.5,147.1,18.5,147.1z M18.5,157h-2.2
		v9.1h2.2c2.1,0,3.3-1,3.3-4.5C21.8,158.3,20.6,157,18.5,157z"/>
	<path class="st0" d="M34.8,166.9c-0.7,0.7-1.7,1.1-3.1,1.1c-1.4,0-2.6-0.5-3.3-1.3c-1.3-1.4-1.6-3-1.6-10.1c0-7.1,0.2-8.6,1.6-10.1
		c0.8-0.8,1.9-1.3,3.3-1.3s2.4,0.4,3.2,1.2c1,1,1.4,2.5,1.4,4.2h-1.8c0-1.1-0.2-2.2-0.9-2.9c-0.4-0.5-1-0.8-1.9-0.8
		c-0.9,0-1.5,0.3-2,0.8c-0.9,1.1-1.1,2.4-1.1,8.9c0,6.5,0.2,7.8,1.1,8.9c0.4,0.5,1.1,0.8,2,0.8c0.9,0,1.5-0.3,1.9-0.8
		c0.7-0.7,0.9-1.8,0.9-2.9h1.8C36.3,164.4,35.8,166,34.8,166.9z"/>
	<path class="st0" d="M47.7,166.4c-0.8,0.8-1.8,1.3-3.3,1.3h-4.6v-22.3h4.6c1.5,0,2.6,0.5,3.3,1.3c1.3,1.4,1.6,2.9,1.6,9.8
		C49.2,163.5,49,165,47.7,166.4z M46.3,147.9c-0.4-0.5-1.1-0.8-2-0.8h-2.6v18.9h2.6c0.9,0,1.6-0.3,2-0.8c1-1,1.1-2.3,1.1-8.7
		C47.4,150.2,47.3,148.9,46.3,147.9z"/>
	<path class="st0" d="M53,167.7v-22.3h7.8v1.7h-5.9v8.6H60v1.7h-5.1v8.7h5.9v1.7H53z"/>
	<path class="st0" d="M66.3,147.1v8.6h5.1v1.7h-5.1v10.3h-1.8v-22.3h7.8v1.7H66.3z"/>
	<path class="st0" d="M79.6,168c-1.4,0-2.6-0.5-3.3-1.3c-1.3-1.4-1.6-3-1.6-10.1c0-7.1,0.2-8.6,1.6-10.1c0.8-0.8,1.9-1.3,3.3-1.3
		c1.4,0,2.5,0.5,3.2,1.2c0.9,1,1.3,2.4,1.4,4.1h-1.8c0-1.8-0.5-3.7-2.8-3.7c-0.9,0-1.5,0.3-2,0.8c-0.9,1.1-1.1,2.4-1.1,8.9
		c0,6.5,0.2,7.8,1.1,8.9c0.4,0.5,1.1,0.8,2,0.8c1.6,0,2.8-1.2,2.8-3.3v-5.5h-2.8v-1.6h4.6v7C84.2,166.3,82.1,168,79.6,168z"/>
	<path class="st0" d="M95.4,167.7v-10.5h-5.5v10.5h-1.8v-22.3h1.8v10.1h5.5v-10.1h1.8v22.3H95.4z"/>
	<path class="st0" d="M101.6,167.7v-22.3h1.8v22.3H101.6z"/>
	<path class="st0" d="M112.7,166.7c-0.9,0.9-2.1,1.3-3.4,1.3c-1.5,0-2.7-0.5-3.5-1.6l1.3-1.2c0.5,0.7,1.3,1.1,2.2,1.1
		c1.6,0,2.8-1.2,2.8-3.4v-17.5h1.8v17.5C114,164.5,113.6,165.8,112.7,166.7z"/>
	<path class="st0" d="M126.4,167.7l-4.3-11L120,161v6.8h-1.8v-22.3h1.8v12.1l5.9-12.1h2l-4.6,9.2l5.2,13.1H126.4z"/>
	<path class="st0" d="M130.9,167.7v-22.3h1.8v20.6h5.9v1.7H130.9z"/>
	<path class="st0" d="M152.8,167.7v-17.9l-4.1,11.7h-1.3l-4-11.4v17.5h-1.8v-22.3h1.8l4.7,13.1l4.7-13.1h1.8v22.3H152.8z"/>
	<path class="st0" d="M167,167.7l-6.2-17.3v17.3h-1.8v-22.3h1.8l6.2,17.3v-17.3h1.8v22.3H167z"/>
	<path class="st0" d="M180.9,166.7c-0.8,0.8-1.9,1.3-3.3,1.3s-2.6-0.5-3.3-1.3c-1.3-1.4-1.6-3-1.6-10.1c0-7.1,0.2-8.6,1.6-10.1
		c0.8-0.8,1.9-1.3,3.3-1.3s2.6,0.5,3.3,1.3c1.3,1.4,1.6,3,1.6,10.1C182.4,163.7,182.2,165.2,180.9,166.7z M179.5,147.7
		c-0.4-0.5-1.1-0.8-2-0.8s-1.5,0.3-2,0.8c-0.9,1.1-1.1,2.4-1.1,8.9c0,6.5,0.2,7.8,1.1,8.9c0.4,0.5,1.1,0.8,2,0.8s1.6-0.3,2-0.8
		c0.9-1.1,1.1-2.4,1.1-8.9C180.6,150.1,180.4,148.8,179.5,147.7z"/>
	<path class="st0" d="M190.7,157.9h-2.5v9.8h-1.8v-22.3h4.4c2.6,0,4.8,1,4.8,6.2C195.5,156.9,193.3,157.9,190.7,157.9z M190.6,147.1
		h-2.4v9.1h2.4c1.8,0,3.1-0.8,3.1-4.5C193.6,147.9,192.4,147.1,190.6,147.1z"/>
	<path class="st0" d="M208,168.5l-1.8-1.4c-0.7,0.6-1.7,0.9-2.9,0.9c-1.4,0-2.6-0.5-3.3-1.3c-1.3-1.4-1.6-3-1.6-10.1
		c0-7.1,0.2-8.6,1.6-10.1c0.8-0.8,1.9-1.3,3.3-1.3s2.6,0.5,3.3,1.3c1.3,1.4,1.6,3,1.6,10.1c0,6.2-0.2,8-1,9.3l1.7,1.5L208,168.5z
		 M205.4,147.7c-0.4-0.5-1.1-0.8-2-0.8s-1.5,0.3-2,0.8c-0.9,1.1-1.1,2.4-1.1,8.9c0,6.6,0.1,7.8,1.1,8.9c0.4,0.5,1.1,0.8,2,0.8
		c0.7,0,1.2-0.1,1.6-0.4l-1.8-1.5l0.9-1.1l1.7,1.4c0.6-1.1,0.6-2.8,0.6-8.1C206.4,150,206.3,148.8,205.4,147.7z"/>
	<path class="st0" d="M220.1,167.7l-3.2-10H214v10h-1.8v-22.3h4.4c2.7,0,4.8,1,4.8,6.2c0,3.4-0.9,5.1-2.8,5.8l3.5,10.3H220.1z
		 M216.6,147.1H214v9h2.6c2.3,0,2.9-1.6,2.9-4.5C219.5,148.8,218.8,147.1,216.6,147.1z"/>
	<path class="st0" d="M233,166.7c-0.8,0.8-1.9,1.2-3.5,1.2c-1.5,0-2.7-0.4-3.5-1.2c-1-1-1.3-2.1-1.3-4.6h1.8c0,1.7,0.2,2.7,0.9,3.3
		c0.5,0.5,1.2,0.8,2.1,0.8c1,0,1.7-0.3,2.1-0.8c0.7-0.8,0.9-1.8,0.9-3.5c0-2.8-0.4-3.8-2.3-4.6l-2.4-1c-2.3-0.9-2.9-2.2-2.9-5.6
		c0-1.9,0.5-3.4,1.5-4.4c0.8-0.8,1.9-1.2,3.2-1.2c1.4,0,2.6,0.4,3.3,1.2c1.1,1.1,1.3,2.4,1.3,4.3h-1.8c0-1.4-0.2-2.3-0.8-3.1
		c-0.4-0.5-1.1-0.8-2-0.8c-0.9,0-1.5,0.3-1.9,0.7c-0.7,0.7-1,1.8-1,3.2c0,2.6,0.4,3.3,2.4,4.2l2.4,1c2.4,1,2.9,2.7,2.9,5.9
		C234.4,164.3,234,165.7,233,166.7z"/>
	<path class="st0" d="M241.9,147.1v20.6h-1.8v-20.6h-3.7v-1.7h9.3v1.7H241.9z"/>
	<path class="st0" d="M256.2,166.7c-0.9,0.8-2,1.3-3.3,1.3s-2.4-0.4-3.3-1.3c-0.8-0.8-1.3-2-1.3-3.6v-17.6h1.8v17.8
		c0,1.9,1.2,3.1,2.8,3.1s2.8-1.2,2.8-3.1v-17.8h1.8v17.6C257.5,164.7,257,165.9,256.2,166.7z"/>
	<path class="st0" d="M266.1,167.7h-1.8l-4.8-22.3h2l3.6,18.9l3.6-18.9h2L266.1,167.7z"/>
	<path class="st0" d="M285.8,167.7h-1.9l-3.7-19l-3.7,19h-1.9l-3.4-22.3h2l2.4,18.9l3.6-18.9h2.1l3.7,18.9l2.3-18.9h2L285.8,167.7z"
		/>
	<path class="st0" d="M298.4,167.7l-3.2-9.6l-3.2,9.6h-2l4.1-11.6l-3.8-10.7h2l2.8,8.8l2.9-8.8h2l-3.9,10.7l4.2,11.6H298.4z"/>
	<path class="st0" d="M306.8,158.4v9.3H305v-9.3l-3.9-12.9h2l2.8,10.2l2.8-10.2h2L306.8,158.4z"/>
	<path class="st0" d="M311.7,167.7v-1.4l6.3-19.2h-5.9v-1.7h7.8v1.4l-6.3,19.2h6.3v1.7H311.7z"/>
	<path class="st0" d="M7.9,205.2v-1.4c-0.2,0.4-0.6,0.8-0.9,1.1c-0.5,0.4-1,0.6-1.9,0.6c-1,0-1.8-0.3-2.5-1.1c-0.6-0.6-1-1.9-1-3.6
		c0-1.5,0.4-2.8,1.3-3.6c0.8-0.7,1.7-1.1,3.1-1.1h1.8v-2.8c0-1.8-0.7-2.7-2.2-2.7c-0.6,0-1.1,0.2-1.4,0.6c-0.5,0.5-0.7,1.2-0.7,2.2
		H1.8c0-1.2,0.3-2.4,1.2-3.3c0.7-0.7,1.6-1.1,2.7-1.1c1.3,0,2.2,0.3,2.8,1c0.7,0.8,1.1,1.8,1.1,3.3v11.8H7.9z M7.9,197.6H6.1
		c-0.8,0-1.4,0.2-1.9,0.7c-0.5,0.5-0.8,1.5-0.8,2.6c0,1.9,0.7,3.1,2.2,3.1c1.4,0,2.3-1.2,2.3-2.9V197.6z"/>
	<path class="st0" d="M20.3,204.4c-0.7,0.7-1.5,1.1-2.5,1.1c-0.7,0-1.3-0.2-1.8-0.5c-0.3-0.2-0.7-0.6-0.9-1v1.3h-1.7V183h1.7v7.6
		c0.2-0.3,0.6-0.7,0.9-0.9c0.5-0.3,1.1-0.5,1.8-0.5c1,0,1.8,0.4,2.5,1.1c1,1.1,1.2,3.1,1.2,7.1C21.5,201.3,21.3,203.2,20.3,204.4z
		 M18.9,191.4c-0.3-0.4-0.9-0.7-1.5-0.7c-0.6,0-1.1,0.2-1.5,0.6c-0.5,0.5-0.8,1.2-0.8,2.2v7.7c0,1,0.3,1.7,0.8,2.2
		c0.4,0.4,0.9,0.6,1.5,0.6c0.7,0,1.2-0.3,1.5-0.7c0.7-0.8,0.8-2.4,0.8-5.9C19.7,193.7,19.6,192.2,18.9,191.4z"/>
	<path class="st0" d="M31.2,204.5c-0.7,0.7-1.6,1-2.8,1c-1.2,0-2.3-0.4-2.9-1.3c-1-1.1-1.2-3.2-1.2-6.9c0-3.8,0.2-5.8,1.2-6.9
		c0.7-0.8,1.7-1.3,2.9-1.3c1.2,0,2.1,0.3,2.8,1c0.9,0.9,1.1,2.2,1.1,3.5h-1.7c0-0.8,0-1.6-0.6-2.2c-0.4-0.4-0.9-0.7-1.6-0.7
		c-0.7,0-1.3,0.3-1.6,0.7c-0.7,0.9-0.8,2.5-0.8,5.9c0,3.4,0.1,5,0.8,5.9c0.3,0.4,0.9,0.7,1.6,0.7c0.6,0,1.1-0.2,1.5-0.6
		c0.5-0.6,0.7-1.3,0.7-2.2h1.7C32.3,202.6,32,203.7,31.2,204.5z"/>
	<path class="st0" d="M41.2,205.2V204c-0.2,0.3-0.6,0.8-0.9,1c-0.5,0.4-1.1,0.6-1.8,0.6c-1,0-1.8-0.4-2.5-1.1
		c-1-1.1-1.2-3.1-1.2-7.1c0-4,0.2-5.9,1.2-7.1c0.6-0.7,1.3-1.1,2.5-1.1c0.7,0,1.4,0.2,1.8,0.5c0.3,0.2,0.6,0.6,0.8,0.9V183H43v22.3
		H41.2z M41.2,193.4c0-1-0.3-1.7-0.7-2.2c-0.4-0.4-0.9-0.6-1.5-0.6c-0.6,0-1.2,0.3-1.5,0.7c-0.7,0.8-0.8,2.3-0.8,5.9
		s0.1,5.1,0.8,5.9c0.3,0.4,0.9,0.7,1.5,0.7c0.6,0,1.1-0.2,1.5-0.6c0.5-0.5,0.7-1.2,0.7-2.2V193.4z"/>
	<path class="st0" d="M48.1,197.6c0,3.3,0.1,4.8,0.8,5.7c0.3,0.4,0.9,0.7,1.6,0.7c0.6,0,1.2-0.2,1.6-0.6c0.5-0.5,0.7-1.3,0.7-2.2
		h1.7c0,1.5-0.3,2.5-1.2,3.3c-0.7,0.7-1.7,1.1-2.9,1.1c-1.2,0-2.2-0.4-2.9-1.2c-1-1.1-1.3-3.3-1.3-7c0-3.8,0.2-5.9,1.3-7.1
		c0.7-0.7,1.6-1.2,2.8-1.2s2.2,0.4,2.8,1.2c1.1,1.2,1.3,3.3,1.3,7.3H48.1z M52,191.4c-0.3-0.4-0.8-0.7-1.6-0.7
		c-0.7,0-1.2,0.3-1.6,0.7c-0.6,0.7-0.7,2-0.8,4.8h4.8C52.8,193.4,52.6,192.1,52,191.4z"/>
	<path class="st0" d="M60,190.7v14.5h-1.8v-14.5h-1.9v-1.4h1.9v-2.2c0-1.5,0.4-2.5,1.2-3.2c0.9-0.8,2.1-1,3.3-1v1.6
		c-1.8,0-2.7,0.9-2.7,2.7v2.2h2.7v1.4H60z"/>
	<path class="st0" d="M72.4,205.7c0,2.7-0.3,3.8-1.2,4.8c-0.7,0.7-1.7,1.2-2.8,1.2c-1.1,0-2.2-0.3-2.9-1.1c-0.8-0.8-1.1-1.9-1.1-3.3
		h1.7c0,0.9,0.1,1.7,0.7,2.3c0.4,0.4,0.9,0.6,1.5,0.6c0.7,0,1.2-0.3,1.6-0.7c0.6-0.6,0.7-1.7,0.7-3.7v-2c-0.2,0.3-0.5,0.7-0.8,0.9
		c-0.5,0.3-1,0.5-1.8,0.5c-1,0-1.8-0.3-2.5-1.1c-1-1.1-1.2-2.9-1.2-6.9s0.2-5.8,1.2-6.9c0.7-0.7,1.5-1.1,2.5-1.1
		c0.8,0,1.3,0.2,1.8,0.5c0.3,0.2,0.7,0.6,0.8,0.9v-1.2h1.7V205.7z M70.6,193.4c0-1-0.2-1.7-0.7-2.2c-0.4-0.4-0.9-0.6-1.5-0.6
		c-0.6,0-1.2,0.3-1.5,0.7c-0.7,0.8-0.8,2.3-0.8,5.8c0,3.5,0.1,5,0.8,5.8c0.3,0.4,0.9,0.7,1.5,0.7c0.6,0,1.2-0.2,1.5-0.6
		c0.5-0.5,0.7-1.2,0.7-2.2V193.4z"/>
	<path class="st0" d="M82.4,205.2v-12c0-1.8-1-2.6-2.2-2.6s-2.2,0.8-2.2,2.6v12h-1.8V183H78v7.6c0.2-0.3,0.6-0.8,0.9-0.9
		c0.5-0.3,1.1-0.6,1.8-0.6c1.1,0,1.8,0.4,2.5,1.1c0.6,0.7,1,1.5,1,3.1v11.9H82.4z"/>
	<path class="st0" d="M87.7,185.7v-2.3h2.2v2.3H87.7z M87.9,205.2v-15.9h1.8v15.9H87.9z"/>
	<path class="st0" d="M94.2,210.6c-0.9,0.8-2,1-3.2,1V210c1.6,0,2.6-0.7,2.6-2.7v-18h1.8v18C95.3,209,94.9,209.9,94.2,210.6z
		 M93.3,185.7v-2.3h2.2v2.3H93.3z"/>
	<path class="st0" d="M106.5,205.2l-3.4-8.3l-2.1,3.3v5h-1.8V183h1.8v14.7l5-8.3h1.9l-3.8,6.1l4.3,9.8H106.5z"/>
	<path class="st0" d="M112,204.2c-0.8-0.7-1.2-1.7-1.2-3.2v-18h1.8v18c0,1.7,0.8,2.7,2.6,2.7v1.6C113.9,205.2,112.8,205.1,112,204.2
		z"/>
	<path class="st0" d="M129.9,205.2v-12c0-1.8-1-2.6-2.2-2.6s-2.2,0.8-2.2,2.6v12h-1.8v-12c0-1.8-1-2.6-2.2-2.6s-2.2,0.8-2.2,2.6v12
		h-1.8v-15.9h1.7v1.3c0.2-0.3,0.6-0.8,0.9-1c0.5-0.3,1.1-0.6,1.8-0.6c1.2,0,2.3,0.7,3,1.7c0.3-0.4,0.7-0.9,1.1-1.1
		c0.5-0.3,1.2-0.6,1.9-0.6c1.3,0,2,0.4,2.7,1.1c0.6,0.7,1,1.5,1,3.1v11.9H129.9z"/>
	<path class="st0" d="M141.5,205.2v-12c0-1.8-1-2.6-2.2-2.6s-2.2,0.8-2.2,2.6v12h-1.8v-15.9h1.7v1.3c0.2-0.3,0.6-0.8,0.9-1
		c0.5-0.3,1.1-0.6,1.8-0.6c1.1,0,1.8,0.4,2.5,1.1c0.6,0.7,1,1.5,1,3.1v11.9H141.5z"/>
	<path class="st0" d="M153.6,204.2c-0.7,0.8-1.7,1.3-2.9,1.3c-1.3,0-2.2-0.4-2.9-1.3c-1-1.2-1.2-3.2-1.2-6.9c0-3.8,0.2-5.8,1.2-6.9
		c0.7-0.8,1.7-1.3,2.9-1.3c1.3,0,2.2,0.4,2.9,1.3c1,1.2,1.2,3.2,1.2,6.9C154.8,201.1,154.5,203.1,153.6,204.2z M152.2,191.4
		c-0.3-0.4-0.9-0.7-1.6-0.7s-1.2,0.3-1.6,0.7c-0.7,0.9-0.8,2.5-0.8,5.9c0,3.4,0.1,5,0.8,5.9c0.3,0.4,0.9,0.7,1.6,0.7
		s1.2-0.3,1.6-0.7c0.7-0.9,0.8-2.5,0.8-5.9C153,193.9,152.9,192.2,152.2,191.4z"/>
	<path class="st0" d="M165,204.4c-0.7,0.7-1.4,1.1-2.5,1.1c-0.7,0-1.3-0.2-1.8-0.5c-0.3-0.2-0.7-0.6-0.9-0.9v7.5h-1.8v-22.3h1.7v1.3
		c0.2-0.3,0.6-0.8,0.9-1c0.5-0.3,1.1-0.6,1.8-0.6c1,0,1.8,0.4,2.5,1.1c1,1.1,1.2,3.1,1.2,7.1C166.2,201.3,166,203.2,165,204.4z
		 M163.6,191.4c-0.3-0.4-0.9-0.7-1.5-0.7c-0.6,0-1.1,0.2-1.5,0.6c-0.5,0.5-0.8,1.2-0.8,2.2v7.7c0,1,0.2,1.7,0.8,2.2
		c0.4,0.4,0.9,0.6,1.5,0.6c0.7,0,1.2-0.3,1.5-0.7c0.7-0.8,0.8-2.3,0.8-5.9S164.3,192.2,163.6,191.4z"/>
	<path class="st0" d="M175.3,211.6v-7.5c-0.2,0.3-0.6,0.8-0.8,0.9c-0.5,0.3-1.1,0.5-1.8,0.5c-1.1,0-1.9-0.5-2.5-1.1
		c-1-1.1-1.2-3.1-1.2-7.1c0-3.9,0.2-6,1.2-7.1c0.7-0.7,1.5-1.1,2.5-1.1c0.7,0,1.3,0.2,1.8,0.6c0.3,0.2,0.7,0.6,0.9,1v-1.3h1.7v22.3
		H175.3z M175.3,193.4c0-1-0.2-1.7-0.7-2.2c-0.4-0.4-0.9-0.6-1.5-0.6c-0.6,0-1.2,0.3-1.5,0.7c-0.7,0.8-0.8,2.3-0.8,5.9
		s0.1,5.1,0.8,5.9c0.3,0.4,0.9,0.7,1.5,0.7c0.6,0,1.1-0.2,1.5-0.6c0.5-0.5,0.7-1.2,0.7-2.2V193.4z"/>
	<path class="st0" d="M185.8,190.7c-1.9,0-3.1,1.2-3.1,3.1v11.4h-1.8v-15.9h1.7v1.7c0.2-0.3,0.5-0.8,0.8-1c0.7-0.7,1.7-0.9,2.7-0.9
		v1.7H185.8z"/>
	<path class="st0" d="M194.7,204.3c-0.8,0.8-1.8,1.2-3,1.2s-2.2-0.4-2.9-1.1c-0.9-0.9-1.3-2.1-1.3-3.4h1.8c0,1,0.2,1.8,0.8,2.3
		c0.4,0.4,1,0.7,1.6,0.7c0.7,0,1.3-0.2,1.8-0.7c0.5-0.5,0.7-1.2,0.7-2c0-0.7-0.1-1.2-0.4-1.7c-0.3-0.5-0.8-1-1.6-1.4l-2-1.1
		c-1-0.6-1.7-1.3-2.1-1.9c-0.3-0.6-0.4-1.2-0.4-2c0-1.2,0.5-2.3,1.2-3c0.7-0.7,1.7-1.1,2.8-1.1c1.2,0,2.1,0.3,2.8,1.1
		c0.8,0.8,1.2,1.9,1.2,3.4H194c0-1.2-0.2-1.8-0.7-2.3c-0.4-0.5-1-0.6-1.6-0.6c-0.7,0-1.3,0.2-1.7,0.6c-0.5,0.5-0.7,1.2-0.7,1.9
		c0,0.5,0.1,1,0.3,1.4c0.2,0.4,0.8,0.8,1.5,1.2l2,1.1c1,0.6,1.7,1.2,2.2,1.9c0.4,0.7,0.6,1.6,0.6,2.5
		C196,202.4,195.5,203.5,194.7,204.3z"/>
	<path class="st0" d="M200.6,204.2c-0.8-0.7-1.2-1.8-1.2-3.2v-10.3h-1.9v-1.4h1.9v-4.7h1.8v4.7h2.7v1.4h-2.7V201
		c0,1.9,1,2.7,2.8,2.7v1.6C202.8,205.2,201.6,205.1,200.6,204.2z"/>
	<path class="st0" d="M212.7,205.2V204c-0.2,0.3-0.6,0.8-0.9,1c-0.5,0.3-1.1,0.6-1.8,0.6c-1.1,0-1.8-0.4-2.5-1.1
		c-0.6-0.7-1-1.6-1-3.2v-11.9h1.8v12c0,1.8,1,2.6,2.2,2.6s2.2-0.8,2.2-2.6v-12h1.7v15.9H212.7z"/>
	<path class="st0" d="M222,205.2h-1.8l-3.7-15.9h1.9l2.7,13.2l2.7-13.2h1.9L222,205.2z"/>
	<path class="st0" d="M237.5,205.2h-1.9l-2.4-13l-2.3,13H229l-3-15.9h2l2,13.2l2.3-13.2h1.8l2.4,13.2l2-13.2h2L237.5,205.2z"/>
	<path class="st0" d="M248.3,205.2l-2.5-6.6l-2.6,6.6h-1.9l3.5-8.1l-3.3-7.8h1.9l2.4,6.3l2.3-6.3h1.9l-3.4,7.8l3.6,8.1H248.3z"/>
	<path class="st0" d="M255.6,208.3c-0.6,2.5-2.2,3.2-4.6,3.2V210c1.7,0,2.6-0.7,2.9-2l0.7-2.8l-3.8-15.8h1.9l2.7,13.1l2.7-13.1h1.9
		L255.6,208.3z"/>
	<path class="st0" d="M261.1,205.2v-1.4l5.4-13h-5.1v-1.6h7v1.4l-5.4,13h5.4v1.6H261.1z"/>
	<path class="st0" d="M5.6,242.8v-20.2l-3.2,2.7v-2.1l3.2-2.7h1.7v22.3H5.6z"/>
	<path class="st0" d="M13.3,242.8v-1.5l5.3-12.2c0.5-1.2,1.1-2.8,1.1-4.7c0-1.8-1-2.6-2.2-2.6c-1.2,0-2.2,0.8-2.2,2.6v1.6h-1.7v-1.6
		c0-1.5,0.4-2.4,1.1-3.1c0.7-0.7,1.7-1.1,2.8-1.1c1.1,0,2.1,0.4,2.8,1.1c0.7,0.7,1.2,1.7,1.2,3.2c0,1.7-0.6,3.6-1.3,5.2l-5,11.5h6.3
		v1.6H13.3z"/>
	<path class="st0" d="M31.4,241.9c-0.7,0.7-1.7,1.1-2.8,1.1c-1.1,0-2.2-0.4-2.8-1.1c-0.7-0.7-1.2-1.6-1.2-3.2v-1.5h1.7v1.6
		c0,1.8,1,2.6,2.2,2.6c0.6,0,1.2-0.2,1.5-0.7c0.6-0.7,0.8-1.5,0.8-4.2c0-3.1-0.2-3.7-0.8-4.4c-0.4-0.4-0.9-0.7-1.6-0.7h-1.3v-1.5
		h1.3c0.6,0,1.1-0.2,1.4-0.5c0.6-0.6,0.8-1.4,0.8-3.6c0-2.2-0.2-3-0.7-3.5c-0.3-0.4-0.8-0.6-1.5-0.6c-1.2,0-2.1,0.9-2.1,2.6v1.6
		h-1.8v-1.5c0-1.5,0.4-2.5,1.1-3.2c0.7-0.7,1.6-1.1,2.7-1.1c1.2,0,2.1,0.4,2.7,1c0.8,0.8,1.2,1.9,1.2,4.6c0,2.2-0.2,3-0.6,3.8
		c-0.3,0.5-0.7,0.9-1.2,1.2c0.5,0.3,1,0.7,1.2,1.1c0.6,0.9,0.8,1.6,0.8,4.7S32.4,240.9,31.4,241.9z"/>
	<path class="st0" d="M43,238.9v3.9h-1.7v-3.9h-5.9v-1.6l5.6-16.8h1.7l-5.6,16.8h4.1v-6.2H43v6.2h1.6v1.6H43z"/>
	<path class="st0" d="M54.1,241.8c-0.7,0.8-1.8,1.2-2.8,1.2c-1.1,0-2.2-0.4-2.8-1c-0.7-0.7-1.2-1.6-1.2-3.2v-1.5H49v1.4
		c0,1.9,1,2.7,2.3,2.7c0.6,0,1.2-0.2,1.5-0.8c0.6-0.7,0.8-1.7,0.8-4.9c0-3.2-0.3-4.2-0.8-4.9c-0.4-0.6-0.9-0.8-1.6-0.8
		c-1.3,0-2.3,1-2.3,2.6v1h-1.6v-13.1H55v1.6h-6.1v7.9c0.2-0.4,0.6-0.7,1-1c0.5-0.3,1.1-0.4,1.7-0.4c1.1,0,1.9,0.5,2.5,1.2
		c0.9,1,1.1,2.3,1.1,6.1C55.3,239.2,55.1,240.6,54.1,241.8z"/>
	<path class="st0" d="M65.5,241.8c-0.6,0.8-1.8,1.2-2.9,1.2c-1.2,0-2.3-0.4-2.9-1.2c-0.9-1.1-1.2-2.3-1.2-5.6c0-2.5,0.3-4.3,0.9-6
		l3.6-9.7h1.7l-3.6,9.6c0.5-0.4,1.1-0.7,1.8-0.7c1.1,0,1.9,0.4,2.5,1.1c0.8,0.9,1.1,1.8,1.1,5.7C66.6,239.5,66.4,240.7,65.5,241.8z
		 M64.1,231.6c-0.4-0.5-1-0.7-1.6-0.7c-0.6,0-1.2,0.2-1.6,0.7c-0.6,0.7-0.8,1.9-0.8,4.6c0,2.7,0.2,3.9,0.8,4.6
		c0.4,0.5,1,0.7,1.6,0.7c0.6,0,1.2-0.2,1.6-0.7c0.6-0.7,0.7-1.9,0.7-4.6C64.8,233.5,64.7,232.3,64.1,231.6z"/>
	<path class="st0" d="M72.1,242.8h-1.8l6-20.7h-4.8v3.6h-1.7v-5.2H78v1.4L72.1,242.8z"/>
	<path class="st0" d="M87.9,241.9c-0.7,0.7-1.8,1.1-2.8,1.1c-1.1,0-2.2-0.4-2.8-1.1c-1-1.1-1.2-2.2-1.2-5.3c0-3.1,0.2-3.8,0.8-4.7
		c0.3-0.4,0.7-0.8,1.3-1.1c-0.5-0.3-1-0.7-1.3-1.2c-0.4-0.8-0.7-1.6-0.7-3.8c0-2.6,0.3-3.8,1.2-4.6c0.7-0.7,1.6-1,2.7-1
		c1.1,0,2.1,0.4,2.7,1c0.9,0.9,1.2,2,1.2,4.6c0,2.2-0.2,3-0.6,3.8c-0.3,0.5-0.8,0.9-1.2,1.2c0.5,0.3,1,0.7,1.2,1.1
		c0.6,0.9,0.8,1.6,0.8,4.7C89.2,239.7,88.9,240.9,87.9,241.9z M86.6,232.3c-0.4-0.4-0.9-0.7-1.5-0.7c-0.6,0-1.2,0.2-1.5,0.7
		c-0.6,0.7-0.8,1.3-0.8,4.3c0,2.6,0.2,3.5,0.8,4.2c0.4,0.4,0.9,0.7,1.5,0.7c0.6,0,1.2-0.2,1.5-0.7c0.6-0.7,0.8-1.6,0.8-4.2
		C87.4,233.6,87.2,233,86.6,232.3z M86.5,222.4c-0.4-0.4-0.9-0.6-1.4-0.6s-1,0.2-1.4,0.6c-0.5,0.6-0.8,1.3-0.8,3.6
		c0,2.2,0.2,3,0.8,3.6c0.3,0.4,0.8,0.5,1.4,0.5s1.1-0.2,1.4-0.5c0.5-0.6,0.8-1.3,0.8-3.6C87.3,223.7,87.1,223,86.5,222.4z"/>
	<path class="st0" d="M99.5,233.1l-3.6,9.7h-1.8l3.6-9.6c-0.5,0.4-1.1,0.7-1.8,0.7c-1.1,0-1.9-0.4-2.5-1.1c-0.8-0.9-1.1-1.8-1.1-5.7
		c0-3.4,0.2-4.5,1.2-5.6c0.7-0.8,1.8-1.2,2.9-1.2c1.2,0,2.2,0.4,2.9,1.2c0.9,1.1,1.1,2.3,1.1,5.6
		C100.4,229.6,100.2,231.4,99.5,233.1z M97.9,222.5c-0.4-0.4-0.9-0.7-1.6-0.7c-0.6,0-1.2,0.2-1.6,0.7c-0.6,0.7-0.8,1.9-0.8,4.6
		s0.1,3.9,0.8,4.6c0.4,0.4,0.9,0.7,1.6,0.7c0.6,0,1.2-0.2,1.6-0.7c0.6-0.7,0.7-1.9,0.7-4.6S98.6,223.2,97.9,222.5z"/>
	<path class="st0" d="M110.5,241.9c-0.7,0.7-1.8,1.1-2.8,1.1c-1.1,0-2.2-0.4-2.8-1.1c-0.7-0.7-1.1-1.6-1.1-3.2v-14.3
		c0-1.5,0.4-2.5,1.1-3.2c0.7-0.7,1.7-1.1,2.8-1.1c1.1,0,2.2,0.4,2.8,1.1c0.7,0.7,1.1,1.6,1.1,3.2v14.3
		C111.6,240.3,111.2,241.2,110.5,241.9z M109.9,224.4c0-1.8-1-2.6-2.2-2.6c-1.2,0-2.2,0.8-2.2,2.6v14.4c0,1.8,1,2.6,2.2,2.6
		c1.2,0,2.2-0.8,2.2-2.6V224.4z"/>
</g>
<g>
	<path class="st0" d="M10.8,134.1h-11V91.2h11c3.6,0,6.3,1.1,8.4,3.6c3.2,3.5,3.2,9.3,3.2,17.4v0.9c0,8.1,0,13.9-3.2,17.4
		C17,133,14.4,134.1,10.8,134.1z M0.2,133.6h10.5c3.4,0,6-1.1,8-3.4l0,0c3-3.4,3-9.1,3-17.1v-0.9c0-8,0-13.7-3-17.1
		c-2.1-2.3-4.6-3.4-8-3.4H0.2V133.6z M10.6,128.1H6.4V97.2h4.2c1.6,0,2.8,0.7,3.6,1.8l0,0c1.3,2,1.5,5.8,1.5,13.5
		c0,7.9-0.2,11.7-1.5,13.7C13.4,127.5,12.2,128.1,10.6,128.1z M6.9,127.6h3.7c1.4,0,2.5-0.6,3.2-1.6c1.2-1.9,1.4-5.8,1.4-13.4
		c0-7.5-0.2-11.4-1.4-13.3c-0.7-1-1.8-1.6-3.2-1.6H6.9V127.6z"/>
	<path class="st0" d="M35.1,134.1h-7.2V91.2h7.2V134.1z M28.4,133.6h6.2V91.7h-6.2V133.6z"/>
	<path class="st0" d="M64.8,134.1h-6.3l-0.1-0.2l-9.5-24v24.2h-7.2V91.2h6.4l9.5,24.1V91.2h7.2V134.1z M58.8,133.6h5.5V91.7h-6.2v25
		l-0.5,0.1l-9.9-25.1h-5.5v41.9h6.2v-25l0.5-0.1L58.8,133.6z"/>
	<path class="st0" d="M92.6,134.6c-4.6,0-7-2.1-8.4-3.7c-3.2-3.6-3.2-9.5-3.2-17.8v-0.9c0-8.3,0-14.3,3.2-17.9
		c1.4-1.6,3.8-3.7,8.4-3.7c3.1,0,5.5,0.9,7.6,2.8c2.1,2,3.4,5.2,3.5,9.1l0,0.3h-7.2l0-0.2c-0.1-1.8-0.4-3.1-1-4
		c-0.6-1-1.5-1.4-2.9-1.4c-1.4,0-2.3,0.5-2.9,1.5c-1.2,2-1.5,6.3-1.5,13.9c0,7.7,0.2,11.9,1.5,13.9c0.6,1,1.6,1.5,2.9,1.5
		c1.4,0,2.3-0.5,2.9-1.4c0.6-0.9,0.9-2.2,1-4l0-0.2h7.2l0,0.3c-0.1,3.9-1.4,7.3-3.6,9.2l0,0C98,133.7,95.7,134.6,92.6,134.6z
		 M92.6,91.2c-3.4,0-5.9,1.1-8,3.5c-3,3.4-3,9.4-3,17.6v0.9c0,8.1,0,14,3,17.4c2.1,2.4,4.6,3.5,8,3.5c2.9,0,5.2-0.8,7.2-2.6
		c2-1.8,3.3-5,3.4-8.6H97c-0.1,1.8-0.4,3.1-1,4.1c-0.7,1.1-1.8,1.7-3.4,1.7c-1.5,0-2.6-0.6-3.4-1.7c-1.3-2.1-1.5-6.4-1.5-14.2
		c0-7.8,0.2-12.1,1.5-14.2c0.7-1.2,1.8-1.7,3.4-1.7c1.6,0,2.6,0.5,3.3,1.7c0.6,0.9,0.9,2.2,1,4h6.2c-0.2-3.6-1.3-6.6-3.3-8.5
		C97.9,92.1,95.6,91.2,92.6,91.2z"/>
	<path class="st0" d="M119.3,134.6c-4.6,0-7-2.1-8.4-3.7c-3.2-3.6-3.2-9.6-3.2-17.8v-0.9c0-8.3,0-14.3,3.2-17.8
		c1.4-1.6,3.8-3.7,8.4-3.7c4.6,0,7,2.1,8.4,3.7c3.2,3.6,3.2,9.6,3.2,17.8v0.9c0,8.3,0,14.3-3.2,17.8l0,0
		C126.3,132.5,123.9,134.6,119.3,134.6z M119.3,91.2c-3.4,0-5.9,1.1-8,3.5c-3,3.4-3,9.3-3,17.5v0.9c0,8.2,0,14.1,3,17.5
		c2.1,2.4,4.6,3.5,8,3.5c3.4,0,5.9-1.1,8-3.5l0,0c3-3.4,3-9.3,3-17.5v-0.9c0-8.2,0-14.1-3-17.5C125.2,92.3,122.7,91.2,119.3,91.2z
		 M119.3,128.6c-1.5,0-2.6-0.6-3.4-1.7c-1.3-2.1-1.5-6.4-1.5-14.2c0-7.8,0.2-12.1,1.5-14.2c0.7-1.2,1.8-1.7,3.4-1.7
		c1.6,0,2.7,0.6,3.4,1.7l0,0c1.3,2,1.5,6,1.5,14.2c0,8.2-0.2,12.2-1.5,14.2C122,128,120.8,128.6,119.3,128.6z M119.3,97.2
		c-1.4,0-2.3,0.5-2.9,1.5c-1.2,2-1.5,6.3-1.5,13.9c0,7.7,0.2,11.9,1.5,13.9c0.6,1,1.6,1.5,2.9,1.5c1.4,0,2.4-0.5,3-1.5
		c1.2-1.9,1.4-6,1.4-13.9s-0.2-12-1.4-13.9l0,0C121.7,97.8,120.6,97.2,119.3,97.2z"/>
	<path class="st0" d="M159.5,134.1h-6.3l-9.6-24.2v24.2h-7.2V91.2h6.4l9.5,24.1V91.2h7.2V134.1z M153.5,133.6h5.5V91.7h-6.2v25
		l-0.5,0.1l-9.9-25.1h-5.5v41.9h6.2v-25l0.5-0.1L153.5,133.6z"/>
	<path class="st0" d="M177.2,134.1h-11V91.2h11c3.6,0,6.3,1.1,8.4,3.6c3.2,3.5,3.2,9.3,3.2,17.4v0.9c0,8.1,0,13.9-3.2,17.4
		C183.4,133,180.8,134.1,177.2,134.1z M166.6,133.6h10.5c3.4,0,6-1.1,8-3.4l0,0c3-3.4,3-9.1,3-17.1v-0.9c0-7.9,0-13.7-3-17.1
		c-2.1-2.3-4.6-3.4-8-3.4h-10.5V133.6z M177,128.1h-4.2V97.2h4.2c1.6,0,2.8,0.7,3.6,1.8l0,0c1.3,2,1.5,5.8,1.5,13.5
		c0,7.7-0.2,11.7-1.5,13.7C179.8,127.5,178.6,128.1,177,128.1z M173.3,127.6h3.7c1.4,0,2.5-0.6,3.2-1.6c1.2-1.9,1.4-5.8,1.4-13.4
		c0-7.5-0.2-11.4-1.4-13.3c-0.7-1-1.8-1.6-3.2-1.6h-3.7V127.6z"/>
	<path class="st0" d="M212.6,134.1h-18.3V91.2h18.3v6.5h-11.1v11.5h9.6v6.5h-9.6v11.8h11.1V134.1z M194.8,133.6h17.3v-5.5H201v-12.8
		h9.6v-5.5H201V97.2h11.1v-5.5h-17.3V133.6z"/>
	<path class="st0" d="M241,134.1h-6.3l-9.6-24.2v24.2h-7.2V91.2h6.4l9.5,24.1V91.2h7.2V134.1z M235,133.6h5.5V91.7h-6.2v25l-0.5,0.1
		l-9.9-25.1h-5.5v41.9h6.2v-25l0.5-0.1L235,133.6z"/>
	<path class="st0" d="M257.4,134.6c-3.7,0-6.5-1-8.4-2.9c-2-2-2.8-4.6-2.8-9.3v-0.2h7.2v0.2c0,2.1,0.2,3.5,1.1,4.6
		c0.4,0.5,1.3,1,2.9,1c1.4,0,2.4-0.4,3-1.1c0.8-0.9,1.1-2.1,1.1-4.5c0-4.4-0.6-5.4-3.8-6.7l-5.1-2.1c-4.6-1.9-6.1-4.6-6.1-10.9
		c0-4,1.2-7.1,3.5-9.2c2-1.7,4.5-2.6,7.4-2.6c3.4,0,6,0.9,7.8,2.6c2.1,2.1,3.1,5,3.1,9.4v0.2h-7.2v-0.2c0-2-0.2-3.4-1-4.4
		c-0.6-0.8-1.5-1.2-2.8-1.2c-1.1,0-2,0.3-2.7,1.1c-0.7,0.8-1.1,2.2-1.1,4c0,3.4,0.6,4.4,3.4,5.5l5,2c5.1,2,6.6,4.8,6.6,12.2
		c0,4.1-0.5,7.3-2.8,9.5l0,0C263.9,133.5,260.9,134.6,257.4,134.6z M246.7,122.6c0,4.4,0.8,6.8,2.7,8.7c1.8,1.8,4.5,2.7,8,2.7
		c3.4,0,6.3-1,8.1-2.7c1.9-1.9,2.7-4.4,2.7-9.2c0-7.1-1.4-9.7-6.3-11.7l-5-2c-3.2-1.3-3.7-2.5-3.7-6c0-2,0.4-3.4,1.2-4.3
		c0.8-0.9,1.8-1.3,3.1-1.3c1.4,0,2.5,0.5,3.2,1.4c0.9,1.2,1.1,2.8,1.1,4.4h6.2c0-4.2-0.9-6.9-2.9-8.8c-1.7-1.7-4.2-2.5-7.5-2.5
		c-2.8,0-5.2,0.8-7.1,2.5c-2.2,2-3.4,5-3.4,8.8c0,6.2,1.3,8.6,5.7,10.4l5.1,2.1c3.5,1.4,4.1,2.7,4.1,7.2c0,2.2-0.2,3.7-1.2,4.9
		c-0.7,0.9-1.8,1.3-3.4,1.3c-1.8,0-2.8-0.7-3.3-1.2c-1-1.1-1.2-2.6-1.3-4.7H246.7z"/>
	<path class="st0" d="M292.3,134.1H274V91.2h18.3v6.5h-11.1v11.5h9.6v6.5h-9.6v11.8h11.1V134.1z M274.5,133.6h17.3v-5.5h-11.1v-12.8
		h9.6v-5.5h-9.6V97.2h11.1v-5.5h-17.3V133.6z"/>
	<path class="st0" d="M308.7,134.1h-11V91.2h11c3.6,0,6.3,1.1,8.4,3.6c3.2,3.5,3.2,9.4,3.2,17.4v0.9c0,8.1,0,13.9-3.2,17.4
		C314.9,133,312.3,134.1,308.7,134.1z M298.1,133.6h10.5c3.4,0,6-1.1,8-3.4l0,0c3-3.4,3-9.1,3-17.1v-0.9c0-8,0-13.7-3-17.1
		c-2.1-2.3-4.6-3.4-8-3.4h-10.5V133.6z M308.5,128.1h-4.2V97.2h4.2c1.6,0,2.8,0.7,3.6,1.8l0,0c1.3,2,1.5,5.8,1.5,13.5
		c0,7.9-0.2,11.7-1.5,13.7C311.3,127.5,310.1,128.1,308.5,128.1z M304.8,127.6h3.7c1.4,0,2.5-0.6,3.2-1.6c1.2-1.9,1.4-5.8,1.4-13.4
		c0-7.5-0.2-11.4-1.4-13.3c-0.7-1-1.8-1.6-3.2-1.6h-3.7V127.6z"/>
</g>
<path class="st1" d="M39.4,333.1H3.7c-2,0-3.7-1.7-3.7-3.7v-35.7c0-2,1.7-3.7,3.7-3.7h35.7c2,0,3.7,1.7,3.7,3.7v35.7
	C43.1,331.4,41.4,333.1,39.4,333.1z"/>
<path class="st2" d="M94.8,333.1H59.1c-2,0-3.7-1.7-3.7-3.7v-35.7c0-2,1.7-3.7,3.7-3.7h35.7c2,0,3.7,1.7,3.7,3.7v35.7
	C98.5,331.4,96.8,333.1,94.8,333.1z"/>
<path class="st3" d="M150.2,333.1h-35.7c-2,0-3.7-1.7-3.7-3.7v-35.7c0-2,1.7-3.7,3.7-3.7h35.7c2,0,3.7,1.7,3.7,3.7v35.7
	C153.8,331.4,152.2,333.1,150.2,333.1z"/>
<path class="st4" d="M205.5,333.1h-35.7c-2,0-3.7-1.7-3.7-3.7v-35.7c0-2,1.7-3.7,3.7-3.7h35.7c2,0,3.7,1.7,3.7,3.7v35.7
	C209.2,331.4,207.6,333.1,205.5,333.1z"/>
<path d="M260.9,333.1h-35.7c-2,0-3.7-1.7-3.7-3.7v-35.7c0-2,1.7-3.7,3.7-3.7h35.7c2,0,3.7,1.7,3.7,3.7v35.7
	C264.6,331.4,263,333.1,260.9,333.1z"/>
<path class="st0" d="M316.3,333.1h-35.7c-2,0-3.7-1.7-3.7-3.7v-35.7c0-2,1.7-3.7,3.7-3.7h35.7c2,0,3.7,1.7,3.7,3.7v35.7
	C320,331.4,318.3,333.1,316.3,333.1z"/>
</svg>
