<?xml version="1.0" encoding="utf-8"?>
<!-- Generator: Adobe Illustrator 23.0.1, SVG Export Plug-In . SVG Version: 6.00 Build 0)  -->
<svg version="1.1" id="Layer_1" xmlns="http://www.w3.org/2000/svg" xmlns:xlink="http://www.w3.org/1999/xlink" x="0px" y="0px"
	 viewBox="0 0 320 50" style="enable-background:new 0 0 320 50;" xml:space="preserve">
<style type="text/css">
	.st0{fill:#FFFFFF;}
</style>
<g>
	<g>
		<path class="st0" d="M316.5,43.5c-2.6,2.7-5.5,4.3-9.2,5.1c-2.5,0.5-4.6,0.6-7.1,0.4c-3.3-0.4-6.1-1.4-8.8-3.4
			c-2.2-1.6-3.8-3.4-5.1-5.8c-1.1-1.8-1.7-3.6-2-5.7c-0.5-2.9-0.4-5.5,0.4-8.3c1.7-6.5,6.6-11.1,13.1-12.4c3.7-0.8,7-0.7,10.7,0.3
			c2.6,0.7,4.7,1.8,6.7,3.7c1.3,1.2,2.1,2.3,2.9,3.9c0.9,1.8,1.3,3.5,1.2,5.6h-11.7c-0.3-1.6-1-2.8-2.3-3.8
			c-1.6-1.3-3.7-1.3-5.5-0.3c-1.2,0.7-2,1.7-2.4,3.1c-1,3.2-1.1,6.2-0.2,9.4c0.4,1.4,1,2.4,2,3.4c1.2,1.1,2.6,1.6,4.2,1.3
			c1-0.1,1.8-0.6,2.5-1.3c0.7-0.8,1.1-1.6,1.3-2.6c0.1-0.7,0.2-1.3,0.2-2.1H320C320.2,37.5,319,40.8,316.5,43.5"/>
		<rect x="269.5" class="st0" width="12.8" height="9"/>
		<rect x="269.5" y="13.7" class="st0" width="12.8" height="34.2"/>
		<path class="st0" d="M243,17.3c1.7-1.5,3.3-2.5,5.3-3.5c3.3-1.5,6.6-1.8,10.1-0.8c3.7,1.1,6.4,3.7,7.6,7.5
			c0.6,1.8,0.8,3.4,0.8,5.3v22.1h-13.5V28.1c0-0.7-0.1-1.2-0.3-1.9c-0.3-1.1-1.1-2-2.2-2.5c-2.4-1-5.1-0.1-6.5,2.1
			c-0.5,0.9-0.8,1.9-0.8,3v19.1h-13.1V13.7h12.3L243,17.3"/>
		<path class="st0" d="M92.2,17.3c1.7-1.5,3.3-2.5,5.3-3.5c3.3-1.5,6.6-1.8,10.1-0.8c3.7,1.1,6.4,3.7,7.6,7.5
			c0.6,1.8,0.8,3.4,0.8,5.3v22.1h-13.5V28.1c0-0.7-0.1-1.2-0.3-1.9c-0.4-1.1-1.1-2-2.2-2.5c-2.4-1-5.1-0.1-6.4,2.1
			c-0.6,0.9-0.8,1.9-0.8,3v19.1H79.6V13.7h12.3L92.2,17.3"/>
		<path class="st0" d="M172.6,35.3c1,0.2,1.8,0.4,2.7,0.7c0.8,0.3,1.3,0.9,1.5,1.7c0.2,0.9-0.1,1.7-0.7,2.4c-0.6,0.7-1.4,1-2.3,1.2
			c-1.2,0.2-2.3,0.1-3.4-0.3c-0.6-0.2-1-0.5-1.4-0.8c-0.6-0.5-1-1.1-1.2-1.8c-0.2-0.6-0.3-1.2-0.3-1.8H155v0.7
			c0,1.2,0.2,2.2,0.6,3.3c0.6,1.7,1.5,2.9,2.8,4.2c1.7,1.6,3.5,2.6,5.7,3.2c4.6,1.3,8.8,1.6,13.5,0.9c2.2-0.3,4.1-0.9,6.1-2
			c0.9-0.5,1.6-0.9,2.4-1.6c3.4-2.8,4.6-7.2,3.3-11.4c-0.5-1.6-1.3-2.8-2.6-3.9c-1.7-1.5-3.5-2.5-5.7-3.1c-0.5-0.1-0.9-0.3-1.4-0.4
			c-2.7-0.7-5-1.2-7.7-1.7c-0.7-0.1-1.4-0.2-2.1-0.4c-0.3-0.1-0.6-0.2-0.9-0.3c-0.8-0.3-1.1-1.3-0.8-2c0,0,0-0.1,0.1-0.1
			c0.4-0.7,1-1.2,1.8-1.5c1.4-0.4,2.7-0.4,4.1,0.1c1.3,0.5,2.2,1.7,2.1,3.1h12c0-1.5-0.2-2.7-0.7-4.1c-0.5-1.4-1.3-2.5-2.5-3.4
			c-1-0.8-2-1.4-3.2-1.8c-1.2-0.5-2.2-0.8-3.5-1c-3-0.5-5.5-0.7-8.6-0.5c-1.7,0.1-3.2,0.3-4.9,0.7c-2.3,0.5-4.1,1.4-5.9,2.9
			c-1.6,1.2-2.6,2.7-3.2,4.5c-0.3,0.8-0.4,1.6-0.5,2.5c-0.1,1.5,0.2,2.8,0.7,4.2c1,2.5,2.7,4.3,5.2,5.3c1.3,0.5,2.4,0.8,3.7,1.1
			C167.7,34.5,169.9,34.9,172.6,35.3"/>
		<path class="st0" d="M23.2,33.2h-8.8V21.9h5.7c1.1,0,2,0,3.1-0.1c1.5-0.1,2.7-0.8,3.6-2c0.5-0.6,0.7-1.3,0.9-2.1
			c0.1-0.7,0.1-1.2,0-1.9c-0.2-2.5-2.3-4.4-4.8-4.4h-8.5v36.4H0V0h23.7c0.9,0,1.7,0,2.7,0.1c6.3,0.3,11.4,3.8,14.1,9.6
			c1.4,3,1.9,5.8,1.5,9.1c-0.8,6.9-5.6,12.2-12.3,13.7C27.5,33,25.5,33.2,23.2,33.2"/>
		<path class="st0" d="M213.5,13c-1.4-0.2-2.5-0.3-3.9-0.3c-1.4,0-2.5,0.1-3.9,0.3c-3.9,0.6-7.1,2.2-10,5c-3.1,2.9-4.7,6.4-5.1,10.7
			c-0.2,2.6,0,4.9,0.7,7.4c1.1,3.9,3.1,6.8,6.3,9.3c2.1,1.6,4.2,2.6,6.7,3.1c1.8,0.4,3.4,0.6,5.3,0.6c1.9,0,3.5-0.2,5.3-0.6
			c2.6-0.6,4.7-1.5,6.7-3.1l-7.3-8c-1.2,2.6-4.2,3.8-6.8,2.6c-1.2-0.5-2-1.4-2.6-2.6c-0.5-1.1-0.8-2.1-1-3.3
			c-0.4-2.4-0.3-4.5,0.1-6.9c0.2-1.2,0.7-2.3,1.3-3.3c1.5-2.3,4.6-3,6.9-1.4c0.6,0.4,1,0.8,1.4,1.4c0.7,1.1,1.1,2.1,1.3,3.3
			c0.5,2.4,0.5,4.5,0.1,6.9c-0.2,1.2-0.5,2.2-1,3.3l7.3,8c3.2-2.4,5.2-5.4,6.3-9.3c0.7-2.5,0.9-4.8,0.7-7.4
			c-0.4-4.2-2.1-7.7-5.1-10.7C220.6,15.2,217.4,13.6,213.5,13"/>
		<path class="st0" d="M153.6,45.2c-0.2-2.8-0.3-5.2-0.4-8c-0.1-3.7-0.1-6.9-0.2-10.6c0-2-0.2-3.7-0.7-5.6c-0.6-2.5-2.1-4.5-4.4-5.8
			c-1.4-0.8-2.6-1.3-4.2-1.6c-4.9-1.1-9.2-1.1-14.2-0.3c-1.4,0.2-2.5,0.6-3.9,1.1c-3,1.3-5.1,3.5-6.1,6.7c-0.4,1.2-0.5,2.3-0.3,3.5
			c0,0.2,0.1,0.4,0.2,0.6l11.5,0.3c0-0.7,0.1-1.4,0.3-2c0.4-1.1,1.1-1.8,2.2-2.2c1.5-0.6,3-0.6,4.6-0.1c1,0.3,1.8,1.1,2.1,2.1
			c0.2,0.7,0.1,1.3-0.3,1.8c-0.3,0.5-0.8,0.8-1.3,1c-0.3,0.1-0.6,0.2-1,0.3c-1.6,0.4-2.9,0.7-4.6,1c-1.3,0.2-2.4,0.4-3.7,0.7
			c-1.7,0.3-3.2,0.7-4.9,1.3c-1.5,0.5-2.8,1.2-4,2.3c-1.5,1.4-2.4,3.1-2.7,5.2c-0.2,1.4-0.1,2.6,0.2,4c0.8,3.6,3.3,6.2,6.8,7.2
			c3.9,1.1,7.5,0.9,11.3-0.6c1.8-0.7,3.2-1.8,4.5-3.3l-0.8-5.9c-0.6,0.9-1.3,1.5-2.3,1.9c-0.9,0.4-1.7,0.6-2.7,0.7
			c-0.8,0.1-1.5,0-2.3-0.2c-0.6-0.2-1.1-0.5-1.6-1c-0.4-0.4-0.6-0.9-0.7-1.4c-0.2-0.9,0.1-1.7,0.8-2.3c0.4-0.4,0.9-0.6,1.4-0.8
			c1.3-0.5,2.5-0.9,3.8-1.3c1.7-0.5,3-1,4.6-1.7c0.2,1.2,0.1,2.3,0,3.6c-0.1,0.9-0.4,1.7-0.9,2.4l0.8,5.9c0.3,0.8,0.5,1.5,0.8,2.4
			c0.2,0.5,0.4,0.8,0.7,1.2h12.6C154,47.1,153.7,46.2,153.6,45.2"/>
		<path class="st0" d="M77.1,45.2c-0.2-2.8-0.3-5.2-0.4-8c-0.1-3.7-0.1-6.9-0.1-10.6c0-2-0.2-3.7-0.7-5.6c-0.7-2.5-2.1-4.5-4.4-5.8
			c-1.4-0.8-2.6-1.3-4.2-1.6c-4.9-1.1-9.3-1.1-14.2-0.3c-1.4,0.2-2.5,0.6-3.8,1.1c-3,1.3-5.1,3.5-6.1,6.7c-0.4,1.2-0.5,2.3-0.3,3.5
			c0,0.2,0.1,0.4,0.2,0.6l11.5,0.3c0-0.7,0.1-1.4,0.3-2c0.4-1.1,1.1-1.8,2.2-2.2c1.5-0.6,3-0.6,4.6-0.1c1,0.3,1.8,1.1,2.1,2.1
			c0.2,0.7,0.1,1.3-0.3,1.8c-0.3,0.5-0.8,0.8-1.3,1c-0.3,0.1-0.6,0.2-1,0.3c-1.6,0.4-3,0.7-4.6,1c-1.3,0.2-2.4,0.4-3.7,0.7
			c-1.7,0.3-3.2,0.7-4.9,1.3c-1.5,0.5-2.8,1.2-3.9,2.3c-1.5,1.4-2.4,3.1-2.7,5.2c-0.2,1.4-0.1,2.6,0.2,4c0.8,3.6,3.3,6.2,6.8,7.2
			c3.9,1.1,7.5,0.9,11.3-0.6c1.8-0.7,3.2-1.8,4.5-3.3L63,38.5c-0.6,0.9-1.3,1.5-2.3,1.9c-0.9,0.4-1.7,0.6-2.7,0.7
			c-0.8,0.1-1.5,0-2.3-0.2c-0.7-0.2-1.2-0.5-1.6-1c-0.4-0.4-0.6-0.9-0.7-1.4c-0.2-0.9,0.1-1.7,0.8-2.3c0.5-0.4,0.9-0.6,1.4-0.8
			c1.3-0.5,2.5-0.9,3.8-1.3c1.6-0.5,3-1,4.6-1.7c0.1,1.2,0.1,2.3,0,3.6c-0.1,0.9-0.4,1.7-0.9,2.4l0.8,5.9c0.3,0.8,0.5,1.5,0.8,2.4
			c0.1,0.5,0.4,0.8,0.7,1.2h12.6C77.4,47.1,77.1,46.2,77.1,45.2"/>
	</g>
</g>
</svg>
