<?xml version="1.0" encoding="UTF-8"?>
<svg width="300px" height="100px" viewBox="0 0 300 100" version="1.1" xmlns="http://www.w3.org/2000/svg" xmlns:xlink="http://www.w3.org/1999/xlink">
    <!-- Generator: Sketch 57 (83077) - https://sketch.com -->
    <title>Fill 1</title>
    <desc>Created with Sketch.</desc>
    <g id="UI-Kit" stroke="none" stroke-width="1" fill="none" fill-rule="evenodd">
        <g id="Logo-and-Colours" transform="translate(-177.000000, -186.000000)" fill="#EF6C00">
            <path d="M405.588309,286 C396.896188,286 385.500111,281.501493 385.500111,265.609018 L385.500111,206.678996 C385.500111,190.798126 397.183147,186 405.891093,186 L476.054723,186 L476.054723,201.141317 L406.487166,201.141317 C401.53501,201.141317 401.53501,205.18934 401.53501,206.678996 L401.53501,265.304124 C401.53501,266.80644 401.53501,270.851298 406.487166,270.851298 L476.054723,270.851298 L476.054723,286 L405.588309,286 Z M356.628008,235.771593 L299.359606,235.771593 C294.412725,235.771593 294.412725,239.815397 294.412725,241.316657 L294.412725,265.458154 C294.412725,266.956249 294.412725,271.001108 299.359606,271.001108 L351.689567,271.001108 C356.628008,271.001108 356.628008,266.956249 356.628008,265.458154 L356.628008,235.771593 Z M299.214017,286 C290.514511,286 279.121599,281.501493 279.121599,265.609018 L279.121599,241.467522 C279.121599,225.578212 290.817296,220.780086 299.513636,220.780086 L356.628008,220.780086 L356.628008,206.678996 C356.628008,205.18934 356.628008,201.141317 351.689567,201.141317 L286.765052,201.141317 L286.765052,186 L352.288805,186 C360.989366,186 372.380168,190.498507 372.380168,206.387817 L372.380168,265.458154 C372.380168,281.349573 360.834281,286 352.130556,286 L299.214017,286 Z M216.722747,236.071212 C215.378681,236.071212 215.079061,236.678891 215.079061,237.272854 C215.079061,237.726503 215.378681,238.172766 215.67408,238.326796 L268.899733,272.801988 L260.510397,286 L210.731419,253.171659 C204.436252,248.969606 199.633905,245.079832 199.633905,236.973235 C199.633905,227.828521 206.233967,221.529134 218.229282,221.529134 L250.458386,221.529134 C255.409487,221.529134 255.409487,217.492715 255.409487,215.983015 L255.409487,205.938388 C255.409487,204.440292 255.409487,200.392269 250.458386,200.392269 L197.392037,200.392269 C192.440936,200.392269 192.440936,204.440292 192.440936,205.938388 L192.440936,286 L177,286 L177,206.678996 C177,190.793906 188.695697,186 197.392037,186 L250.912034,186 C259.608375,186 270.550803,190.049078 270.550803,205.938388 L270.550803,215.833205 C270.550803,231.73201 259.308755,236.071212 250.608195,236.071212 L216.722747,236.071212 Z" id="Fill-1"></path>
        </g>
    </g>
</svg>