<svg width="147" height="173" viewBox="0 0 147 173" fill="none" xmlns="http://www.w3.org/2000/svg">
<path d="M73.9143 146.139C114.278 146.139 147 113.424 147 73.0694C147 32.7143 114.278 0 73.9143 0C33.5502 0 0.828613 32.7143 0.828613 73.0694C0.828613 113.424 33.5502 146.139 73.9143 146.139Z" fill="#CAD9FF"/>
<path d="M97.5793 172.018C97.2219 172.018 96.8633 171.975 96.5047 171.89C94.4172 171.364 93.0012 169.419 93.1519 167.267L97.3452 108.623L87.3039 105.278C85.6332 104.721 84.4513 103.227 84.288 101.469L80.3539 58.1552C79.2702 58.3505 78.094 58.4749 76.8744 58.4749C72.4287 58.4749 62.0962 56.5774 62.0962 38.9894C62.0962 33.4829 67.8917 27.9422 75.9425 27.9422C83.9876 27.9422 93.2387 33.9316 104.221 46.2415C114.092 57.3127 119.756 74.0638 119.756 92.1987C119.756 128.124 102.372 167.714 101.634 169.379C100.909 171.014 99.2991 172.018 97.5793 172.018Z" fill="#87A5F4"/>
<path d="M104.218 46.2438C93.2367 33.9339 83.9845 27.9456 75.9394 27.9456C75.253 27.9456 74.5907 27.9992 73.9409 28.0735C81.519 28.9617 90.1511 34.9237 100.251 46.2438C110.121 57.3149 115.786 74.0661 115.786 92.201C115.786 128.126 98.4006 167.716 97.6629 169.382C97.2336 170.354 96.4901 171.092 95.5948 171.542C95.8803 171.686 96.1807 171.81 96.5004 171.893C96.859 171.978 97.221 172.021 97.5727 172.021C99.2971 172.021 100.905 171.018 101.628 169.382C102.367 167.716 119.75 128.126 119.75 92.201C119.754 74.0661 114.089 57.3149 104.218 46.2438Z" fill="black" fill-opacity="0.1"/>
<path d="M114.116 132.343C117.256 119.945 119.754 105.811 119.754 92.201C119.754 74.0661 114.088 57.3149 104.218 46.2438C100.469 42.0412 96.9281 38.5943 93.5616 35.8497L90.13 44.7858C94.2046 44.5643 101.479 54.745 96.8505 61.2219C88.9196 62.0804 86.6036 73.8674 90.13 80.8067C93.653 87.746 116.016 103.164 114.116 132.343Z" fill="#3F69D4"/>
<path d="M101.126 42.91C100.377 42.1302 99.6347 41.3767 98.9027 40.6597C98.8307 40.5855 98.7531 40.509 98.6811 40.4348C96.9351 38.7382 95.2324 37.2163 93.5765 35.8645C93.5708 35.8599 93.5663 35.8554 93.5606 35.8497L92.5728 38.4208C95.0371 40.662 97.5928 43.2605 100.254 46.2438C110.124 57.3149 115.789 74.0661 115.789 92.201C115.789 100.977 114.747 109.968 113.17 118.573C114.049 122.784 114.443 127.358 114.118 132.346C114.489 130.881 114.851 129.389 115.198 127.881C115.243 127.683 115.288 127.483 115.334 127.286C115.671 125.812 115.999 124.324 116.31 122.819C116.314 122.792 116.323 122.766 116.328 122.741C116.637 121.239 116.926 119.718 117.207 118.186C117.26 117.899 117.31 117.605 117.363 117.315C117.624 115.848 117.867 114.371 118.093 112.883C118.105 112.818 118.115 112.756 118.123 112.69C118.348 111.175 118.549 109.647 118.734 108.12C118.775 107.772 118.815 107.426 118.855 107.077C119.022 105.597 119.176 104.11 119.302 102.628C119.308 102.565 119.316 102.508 119.322 102.443C119.444 100.927 119.537 99.4086 119.61 97.8924C119.628 97.5236 119.642 97.1537 119.657 96.7815C119.717 95.2516 119.759 93.724 119.759 92.2056C119.759 74.0707 114.094 57.3195 104.224 46.2484C103.367 45.287 102.524 44.3782 101.687 43.4957C101.493 43.2948 101.31 43.1041 101.126 42.91Z" fill="black" fill-opacity="0.1"/>
<path d="M93.5596 35.8497C87.0641 30.5579 81.2389 27.9422 75.9391 27.9422C67.8894 27.9422 62.0928 33.4829 62.0928 38.9894C62.0928 39.1789 62.1008 39.3524 62.1042 39.5385C68.5871 35.9833 79.8834 32.0489 93.5596 35.8497Z" fill="#3F69D4"/>
<path d="M73.952 28.0723C73.9497 28.0735 73.9452 28.0735 73.9429 28.0735C78.3086 28.5861 83.0283 30.7919 88.1706 34.7251C89.9189 34.9763 91.7153 35.337 93.5595 35.8497C91.1534 33.8882 88.8375 32.3012 86.6084 31.0693C86.5444 31.0351 86.4828 31.0008 86.4188 30.9666C85.7508 30.6047 85.0907 30.277 84.4375 29.979C84.3701 29.9482 84.3039 29.9139 84.2342 29.8842C82.8582 29.2711 81.5175 28.8122 80.2088 28.4891C80.0444 28.4491 79.8856 28.416 79.7212 28.3806C79.237 28.2721 78.7585 28.1888 78.2835 28.1214C78.111 28.0975 77.9352 28.0689 77.7662 28.0507C77.1506 27.981 76.5431 27.9376 75.939 27.9376C75.5508 27.9376 75.1739 27.9616 74.7971 27.9867C74.5139 28.0141 74.2318 28.0415 73.952 28.0723Z" fill="black" fill-opacity="0.1"/>
<path d="M77.192 44.7732C76.1619 44.7732 75.1273 44.3325 74.3747 43.6167C73.6587 42.8586 73.2236 41.8208 73.2236 40.783C73.2236 39.7463 73.6587 38.7131 74.3747 37.9515C75.8444 36.4753 78.5383 36.4753 80.0069 37.9515C80.7206 38.7131 81.1591 39.7463 81.1591 40.783C81.1591 41.8208 80.7206 42.8586 80.0069 43.6167C79.2532 44.3325 78.2209 44.7732 77.192 44.7732Z" fill="#F5F5F5"/>
<path d="M77.192 43.4512C76.5034 43.4512 75.8159 43.16 75.3123 42.6805C74.835 42.1747 74.5449 41.4829 74.5449 40.791C74.5449 40.1014 74.835 39.4095 75.3123 38.9037C76.291 37.9196 78.0873 37.9196 79.066 38.9037C79.541 39.4095 79.8334 40.1025 79.8334 40.791C79.8334 41.4829 79.541 42.1747 79.066 42.6805C78.5669 43.16 77.8806 43.4512 77.192 43.4512Z" fill="#242424"/>
<path d="M93.5597 35.8485C87.5233 51.7137 80.1565 53.5987 70.846 50.6793C61.2044 47.6584 63.0556 35.1806 65.3635 31.9895C65.3772 31.9793 65.3875 31.9656 65.4 31.953C63.1389 33.0205 60.2509 34.6771 57.2441 37.19C54.1871 39.7349 52.4079 43.0949 52.095 46.906C51.4053 55.2975 56.6012 63.9129 62.0918 65.5946C65.8191 65.3788 67.1906 58.5377 67.9203 56.1698C71.031 58.7443 74.4398 58.9681 76.6301 58.9681C77.8486 58.9681 79.3103 58.8049 80.3894 58.6108C86.1198 54.7164 89.9876 51.3974 93.5597 35.8485Z" fill="#242424"/>
<path d="M4.44053 134.127C2.84635 134.127 1.30812 133.271 0.513318 131.765C-0.63093 129.6 0.202704 126.916 2.36901 125.773C4.88704 124.446 64.8401 93.4432 138.335 107.602C140.737 108.068 142.309 110.39 141.851 112.8C141.384 115.198 139.067 116.772 136.653 116.315C66.2014 102.741 7.0956 133.306 6.50635 133.615C5.84857 133.964 5.13827 134.127 4.44053 134.127Z" fill="#CCB9A8"/>
</svg>
