<?xml version="1.0" encoding="utf-8"?>
<!-- Generator: Adobe Illustrator 23.0.6, SVG Export Plug-In . SVG Version: 6.00 Build 0)  -->
<svg version="1.1" id="Layer_1" xmlns="http://www.w3.org/2000/svg" xmlns:xlink="http://www.w3.org/1999/xlink" x="0px" y="0px"
	 viewBox="0 0 1000 647" style="enable-background:new 0 0 1000 647;" xml:space="preserve">
<style type="text/css">
	.st0{fill:#FFFFFF;}
</style>
<path class="st0" d="M0,11.5h236.2c134.4,0,249.7,46.1,249.7,201.7c0,89.3-40.3,147.9-100.8,180.5l135.4,242H336.1L228.5,426.4
	h-63.4v209.3H0V11.5z M224.7,295.8c65.3,0,99.9-28.8,99.9-82.6c0-53.8-34.6-71.1-99.9-71.1h-59.5v153.6H224.7z"/>
<path class="st0" d="M519.8,557.9L614,444.6c44.2,35.5,99.9,60.5,146,60.5c49.9,0,71.1-16.3,71.1-44.2c0-29.8-31.7-39.4-84.5-60.5
	l-77.8-32.7c-67.2-26.9-125.8-83.5-125.8-173.8c0-106.6,96-194,232.4-194c71.1,0,149.8,26.9,207.4,83.5l-82.6,103.7
	c-42.3-29.8-78.7-45.1-124.8-45.1c-40.3,0-65.3,14.4-65.3,42.3c0,29.8,35.5,40.3,92.2,62.4l75.9,29.8c77.8,30.7,122,84.5,122,170.9
	c0,105.6-88.3,199.7-243.9,199.7C677.3,647.2,587.1,618.4,519.8,557.9z"/>
</svg>
